<svg width="20" height="20" viewBox="0 0 20 20" fill="none" xmlns="http://www.w3.org/2000/svg">
<path fill-rule="evenodd" clip-rule="evenodd" d="M10 17.0833C13.912 17.0833 17.0834 13.912 17.0834 9.99999C17.0834 6.08797 13.912 2.91666 10 2.91666C6.088 2.91666 2.91669 6.08797 2.91669 9.99999C2.91669 13.912 6.088 17.0833 10 17.0833ZM10 18.3333C14.6024 18.3333 18.3334 14.6024 18.3334 9.99999C18.3334 5.39762 14.6024 1.66666 10 1.66666C5.39765 1.66666 1.66669 5.39762 1.66669 9.99999C1.66669 14.6024 5.39765 18.3333 10 18.3333Z" fill="black"/>
<path fill-rule="evenodd" clip-rule="evenodd" d="M9.57485 6.35274C9.63159 6.01225 9.40158 5.69024 9.0611 5.63349C8.72062 5.57674 8.3986 5.80676 8.34185 6.14724L8.1397 7.36016C8.10622 7.56107 7.93239 7.70832 7.7287 7.70832H6.66669C6.32151 7.70832 6.04169 7.98815 6.04169 8.33332C6.04169 8.6785 6.32151 8.95832 6.66669 8.95832H7.38148C7.63896 8.95832 7.83481 9.18952 7.79248 9.44349L7.58414 10.6935C7.55066 10.8944 7.37683 11.0417 7.17315 11.0417H6.25002C5.90484 11.0417 5.62502 11.3215 5.62502 11.6667C5.62502 12.0118 5.90484 12.2917 6.25002 12.2917H6.82592C7.0834 12.2917 7.27925 12.5229 7.23692 12.7768L7.09185 13.6472C7.03511 13.9877 7.26512 14.3097 7.6056 14.3665C7.94608 14.4232 8.2681 14.1932 8.32485 13.8527L8.527 12.6398C8.56048 12.4389 8.73431 12.2917 8.938 12.2917H10.1593C10.4167 12.2917 10.6126 12.5229 10.5703 12.7768L10.4252 13.6472C10.3684 13.9877 10.5985 14.3097 10.9389 14.3665C11.2794 14.4232 11.6014 14.1932 11.6582 13.8527L11.8603 12.6398C11.8938 12.4389 12.0676 12.2917 12.2713 12.2917H13.3334C13.6785 12.2917 13.9584 12.0118 13.9584 11.6667C13.9584 11.3215 13.6785 11.0417 13.3334 11.0417H12.6186C12.3611 11.0417 12.1652 10.8105 12.2076 10.5565L12.4159 9.30649C12.4494 9.10558 12.6232 8.95832 12.8269 8.95832H13.75C14.0952 8.95832 14.375 8.6785 14.375 8.33332C14.375 7.98815 14.0952 7.70832 13.75 7.70832H13.1741C12.9166 7.70832 12.7208 7.47713 12.7631 7.22316L12.9082 6.35274C12.9649 6.01225 12.7349 5.69024 12.3944 5.63349C12.054 5.57674 11.7319 5.80676 11.6752 6.14724L11.473 7.36016C11.4395 7.56107 11.2657 7.70832 11.062 7.70832H9.84077C9.5833 7.70832 9.38745 7.47713 9.42978 7.22316L9.57485 6.35274ZM10.5065 11.0417C10.7102 11.0417 10.884 10.8944 10.9175 10.6935L11.1258 9.44349C11.1681 9.18952 10.9723 8.95832 10.7148 8.95832H9.49355C9.28987 8.95832 9.11604 9.10558 9.08255 9.30649L8.87422 10.5565C8.83189 10.8105 9.02774 11.0417 9.28522 11.0417H10.5065Z" fill="black"/>
</svg>
