<svg width="20" height="20" viewBox="0 0 20 20" fill="none" xmlns="http://www.w3.org/2000/svg">
<path d="M13.3586 6.64128C13.6027 6.88536 13.6027 7.28109 13.3586 7.52516L11.1785 9.70531C11.0157 9.86803 11.0157 10.1318 11.1785 10.2946L13.3586 12.4747C13.6027 12.7188 13.6027 13.1145 13.3586 13.3586C13.1145 13.6027 12.7188 13.6027 12.4747 13.3586L10.2946 11.1785C10.1318 11.0157 9.86803 11.0157 9.70531 11.1785L7.52526 13.3585C7.28119 13.6026 6.88546 13.6026 6.64138 13.3585C6.3973 13.1144 6.3973 12.7187 6.64138 12.4746L8.82143 10.2946C8.98415 10.1318 8.98415 9.86803 8.82143 9.70531L6.64138 7.52527C6.3973 7.28119 6.3973 6.88546 6.64138 6.64138C6.88546 6.3973 7.28119 6.3973 7.52527 6.64138L9.70531 8.82143C9.86803 8.98415 10.1318 8.98415 10.2946 8.82143L12.4747 6.64128C12.7188 6.3972 13.1145 6.3972 13.3586 6.64128Z" fill="black"/>
<path fill-rule="evenodd" clip-rule="evenodd" d="M9.99999 18.3333C14.6024 18.3333 18.3333 14.6024 18.3333 9.99999C18.3333 5.39762 14.6024 1.66666 9.99999 1.66666C5.39762 1.66666 1.66666 5.39762 1.66666 9.99999C1.66666 14.6024 5.39762 18.3333 9.99999 18.3333ZM9.99999 17.0833C13.912 17.0833 17.0833 13.912 17.0833 9.99999C17.0833 6.08797 13.912 2.91666 9.99999 2.91666C6.08797 2.91666 2.91666 6.08797 2.91666 9.99999C2.91666 13.912 6.08797 17.0833 9.99999 17.0833Z" fill="black"/>
</svg>
