<svg width="20" height="20" viewBox="0 0 20 20" fill="none" xmlns="http://www.w3.org/2000/svg">
<path d="M13.7247 14.6086C13.9688 14.8527 14.3645 14.8527 14.6086 14.6086C14.8527 14.3645 14.8527 13.9688 14.6086 13.7247L11.1785 10.2946C11.0158 10.1319 11.0158 9.8681 11.1785 9.70538L14.6086 6.27529C14.8527 6.03121 14.8527 5.63548 14.6086 5.3914C14.3645 5.14732 13.9688 5.14732 13.7247 5.3914L10.2946 8.8215C10.1319 8.98422 9.86809 8.98422 9.70537 8.8215L6.27528 5.3914C6.0312 5.14732 5.63547 5.14732 5.39139 5.3914C5.14732 5.63548 5.14732 6.03121 5.39139 6.27529L8.82149 9.70538C8.98421 9.8681 8.98421 10.1319 8.82149 10.2946L5.39139 13.7247C5.14732 13.9688 5.14732 14.3645 5.39139 14.6086C5.63547 14.8527 6.0312 14.8527 6.27528 14.6086L9.70537 11.1785C9.86809 11.0158 10.1319 11.0158 10.2946 11.1785L13.7247 14.6086Z" fill="black"/>
</svg>
