<svg width="20" height="20" viewBox="0 0 20 20" fill="none" xmlns="http://www.w3.org/2000/svg">
<path d="M5.20835 8.74999C5.55353 8.74999 5.83335 8.47017 5.83335 8.12499C5.83335 7.77981 5.55353 7.49999 5.20835 7.49999H5.00002C3.15907 7.49999 1.66669 8.99237 1.66669 10.8333V15C1.66669 16.8409 3.15907 18.3333 5.00002 18.3333H9.16669C11.0076 18.3333 12.5 16.8409 12.5 15V14.7917C12.5 14.4465 12.2202 14.1667 11.875 14.1667C11.5298 14.1667 11.25 14.4465 11.25 14.7917V15C11.25 16.1506 10.3173 17.0833 9.16669 17.0833H5.00002C3.84943 17.0833 2.91669 16.1506 2.91669 15V10.8333C2.91669 9.68273 3.84943 8.74999 5.00002 8.74999H5.20835Z" fill="black"/>
<path fill-rule="evenodd" clip-rule="evenodd" d="M7.50002 4.99999C7.50002 3.15904 8.9924 1.66666 10.8334 1.66666H15C16.841 1.66666 18.3334 3.15904 18.3334 4.99999V9.16666C18.3334 11.0076 16.841 12.5 15 12.5H10.8334C8.9924 12.5 7.50002 11.0076 7.50002 9.16666V4.99999ZM10.8334 2.91666H15C16.1506 2.91666 17.0834 3.8494 17.0834 4.99999V9.16666C17.0834 10.3173 16.1506 11.25 15 11.25H10.8334C9.68276 11.25 8.75002 10.3173 8.75002 9.16666V4.99999C8.75002 3.8494 9.68276 2.91666 10.8334 2.91666Z" fill="black"/>
</svg>
