<svg width="20" height="20" viewBox="0 0 20 20" fill="none" xmlns="http://www.w3.org/2000/svg">
<path fill-rule="evenodd" clip-rule="evenodd" d="M16.4039 11.95C16.2877 12.1823 16.3519 12.4813 16.5532 12.6453C16.8755 12.9078 17.134 13.2519 17.2951 13.6548L18.0237 15.4763C18.5711 16.8447 17.5633 18.3333 16.0894 18.3333H3.91034C2.43645 18.3333 1.42863 16.8447 1.97601 15.4763L2.70458 13.6548C2.86576 13.2519 3.12419 12.9078 3.44648 12.6453C3.64785 12.4813 3.71202 12.1823 3.59584 11.95C3.42776 11.6139 3.33319 11.2347 3.33319 10.8333V4.16666C3.33319 2.78594 4.45247 1.66666 5.83319 1.66666H14.1665C15.5472 1.66666 16.6665 2.78594 16.6665 4.16666V10.8333C16.6665 11.2347 16.5719 11.6139 16.4039 11.95ZM3.13661 15.9405L3.86517 14.1191C4.055 13.6445 4.51464 13.3333 5.02577 13.3333H14.9739C15.4851 13.3333 15.9447 13.6445 16.1345 14.1191L16.8631 15.9405C17.0821 16.4879 16.6789 17.0833 16.0894 17.0833H3.91034C3.32079 17.0833 2.91765 16.4879 3.13661 15.9405ZM14.1665 12.0833H5.83319C5.14283 12.0833 4.58319 11.5237 4.58319 10.8333V4.16666C4.58319 3.4763 5.14283 2.91666 5.83319 2.91666H14.1665C14.8569 2.91666 15.4165 3.4763 15.4165 4.16666V10.8333C15.4165 11.5237 14.8569 12.0833 14.1665 12.0833Z" fill="black"/>
</svg>
