<svg width="20" height="20" viewBox="0 0 20 20" fill="none" xmlns="http://www.w3.org/2000/svg">
<path d="M5.91088 7.64302C5.91088 7.29784 5.63106 7.01802 5.28588 7.01802C4.9407 7.01802 4.66088 7.29784 4.66088 7.64302L4.66088 14.7141C4.66088 15.0593 4.9407 15.3391 5.28588 15.3391L12.3569 15.3391C12.7021 15.3391 12.9819 15.0593 12.9819 14.7141C12.9819 14.3689 12.7021 14.0891 12.3569 14.0891L7.80068 14.0891C7.42947 14.0891 7.24357 13.6403 7.50606 13.3778L15.1559 5.72794C15.4 5.48386 15.4 5.08813 15.1559 4.84405C14.9118 4.59997 14.5161 4.59998 14.272 4.84405L6.62217 12.4939C6.35969 12.7564 5.91088 12.5705 5.91088 12.1993L5.91088 7.64302Z" fill="black"/>
</svg>
