<svg width="20" height="20" viewBox="0 0 20 20" fill="none" xmlns="http://www.w3.org/2000/svg">
<path fill-rule="evenodd" clip-rule="evenodd" d="M13.4892 2.70486C14.5401 1.65392 16.244 1.65392 17.295 2.70486C18.3459 3.75579 18.3459 5.45969 17.295 6.51063L7.50188 16.3037C7.14589 16.6597 6.70506 16.9191 6.22099 17.0574L2.71462 18.0592C2.49599 18.1217 2.26068 18.0607 2.0999 17.8999C1.93912 17.7391 1.87814 17.5038 1.94061 17.2852L2.94243 13.7788C3.08073 13.2948 3.34012 12.8539 3.69611 12.4979L13.4892 2.70486ZM16.4095 3.5903C15.8476 3.02838 14.9366 3.02838 14.3746 3.5903L4.58154 13.3834C4.37604 13.5889 4.22629 13.8434 4.14645 14.1228C3.84474 15.1788 4.82102 16.1551 5.87699 15.8534C6.15644 15.7735 6.41093 15.6238 6.61644 15.4183L16.4095 5.62519C16.9714 5.06327 16.9714 4.15222 16.4095 3.5903Z" fill="black"/>
</svg>
