<svg width="20" height="20" viewBox="0 0 20 20" fill="none" xmlns="http://www.w3.org/2000/svg">
<path d="M9.37502 2.91663C9.7202 2.91663 10 2.63681 10 2.29163C10 1.94645 9.7202 1.66663 9.37502 1.66663L5.00002 1.66663C3.15907 1.66663 1.66669 3.15902 1.66669 4.99996L1.66669 15C1.66669 16.8409 3.15907 18.3333 5.00002 18.3333H15C16.841 18.3333 18.3334 16.8409 18.3334 15V10.625C18.3334 10.2798 18.0535 9.99996 17.7084 9.99996C17.3632 9.99996 17.0834 10.2798 17.0834 10.625V15C17.0834 16.1506 16.1506 17.0833 15 17.0833H5.00002C3.84943 17.0833 2.91669 16.1506 2.91669 15L2.91669 4.99996C2.91669 3.84937 3.84943 2.91663 5.00002 2.91663L9.37502 2.91663Z" fill="black"/>
<path fill-rule="evenodd" clip-rule="evenodd" d="M17.7336 2.26636C16.9143 1.44698 15.5858 1.44698 14.7664 2.26636L7.78013 9.25264C7.50474 9.52803 7.30408 9.86905 7.19709 10.2435L6.4824 12.7449C6.42005 12.9632 6.48091 13.1981 6.64141 13.3586C6.80191 13.5191 7.03681 13.5799 7.25506 13.5176L9.75646 12.8029C10.1309 12.6959 10.472 12.4952 10.7473 12.2199L17.7336 5.23357C18.553 4.4142 18.553 3.08573 17.7336 2.26636ZM15.6503 3.15024C15.9815 2.81902 16.5185 2.81902 16.8497 3.15024C17.181 3.48146 17.181 4.01847 16.8497 4.34969L9.86346 11.336C9.73829 11.4611 9.58327 11.5524 9.41306 11.601C8.79428 11.7778 8.2222 11.2057 8.39899 10.5869C8.44763 10.4167 8.53884 10.2617 8.66401 10.1365L15.6503 3.15024Z" fill="black"/>
</svg>
