<svg width="20" height="20" viewBox="0 0 20 20" fill="none" xmlns="http://www.w3.org/2000/svg">
<path d="M5 16.875C3.96447 16.875 3.125 16.0355 3.125 15L3.125 13.3333C3.125 12.9882 2.84518 12.7083 2.5 12.7083C2.15482 12.7083 1.875 12.9882 1.875 13.3333V15C1.875 16.7259 3.27411 18.125 5 18.125H6.66667C7.01185 18.125 7.29167 17.8452 7.29167 17.5C7.29167 17.1548 7.01184 16.875 6.66667 16.875H5Z" fill="black"/>
<path d="M8.20075 12.5318C7.99178 12.2642 7.60614 12.2121 7.33333 12.4167C7.05719 12.6238 7.00123 13.0155 7.20833 13.2917C7.39461 13.5395 7.65239 13.7236 7.91908 13.876C8.37733 14.1378 9.05701 14.375 10 14.375C10.943 14.375 11.6227 14.1378 12.0809 13.876C12.3079 13.7463 12.4759 13.6132 12.5919 13.5061C12.663 13.4405 12.7309 13.3714 12.7897 13.2943C12.9954 13.0224 12.9408 12.6223 12.6667 12.4167C12.3939 12.2121 12.0082 12.2642 11.7992 12.5318C11.7061 12.6381 11.5824 12.7211 11.4607 12.7907C11.1898 12.9455 10.7237 13.125 10 13.125C9.27632 13.125 8.81017 12.9455 8.53925 12.7907C8.40168 12.7121 8.30924 12.6368 8.25596 12.5876C8.23672 12.5699 8.21802 12.5515 8.20075 12.5318Z" fill="black"/>
<path d="M10.625 7.91667C10.625 7.57149 10.3452 7.29167 10 7.29167C9.65482 7.29167 9.375 7.57149 9.375 7.91667V10.4167H9.16667C8.82149 10.4167 8.54167 10.6965 8.54167 11.0417C8.54167 11.3868 8.82149 11.6667 9.16667 11.6667H9.58333C10.1586 11.6667 10.625 11.2003 10.625 10.625V7.91667Z" fill="black"/>
<path d="M7.29167 7.91667C7.29167 7.57149 7.01184 7.29167 6.66667 7.29167C6.32149 7.29167 6.04167 7.57149 6.04167 7.91667V9.16667C6.04167 9.51184 6.32149 9.79167 6.66667 9.79167C7.01184 9.79167 7.29167 9.51184 7.29167 9.16667V7.91667Z" fill="black"/>
<path d="M3.125 5C3.125 3.96447 3.96447 3.125 5 3.125H6.66667C7.01185 3.125 7.29167 2.84518 7.29167 2.5C7.29167 2.15482 7.01185 1.875 6.66667 1.875H5C3.27411 1.875 1.875 3.27411 1.875 5V6.66667C1.875 7.01184 2.15482 7.29167 2.5 7.29167C2.84518 7.29167 3.125 7.01184 3.125 6.66667V5Z" fill="black"/>
<path d="M13.3333 7.29167C13.6785 7.29167 13.9583 7.57149 13.9583 7.91667V9.16667C13.9583 9.51184 13.6785 9.79167 13.3333 9.79167C12.9882 9.79167 12.7083 9.51184 12.7083 9.16667V7.91667C12.7083 7.57149 12.9882 7.29167 13.3333 7.29167Z" fill="black"/>
<path d="M15 3.125C16.0355 3.125 16.875 3.96447 16.875 5V6.66667C16.875 7.01184 17.1548 7.29167 17.5 7.29167C17.8452 7.29167 18.125 7.01184 18.125 6.66667V5C18.125 3.27411 16.7259 1.875 15 1.875H13.3333C12.9882 1.875 12.7083 2.15482 12.7083 2.5C12.7083 2.84518 12.9882 3.125 13.3333 3.125H15Z" fill="black"/>
<path d="M15 16.875C16.0355 16.875 16.875 16.0355 16.875 15V13.3333C16.875 12.9882 17.1548 12.7083 17.5 12.7083C17.8452 12.7083 18.125 12.9882 18.125 13.3333V15C18.125 16.7259 16.7259 18.125 15 18.125H13.3333C12.9882 18.125 12.7083 17.8452 12.7083 17.5C12.7083 17.1548 12.9882 16.875 13.3333 16.875H15Z" fill="black"/>
</svg>
