<svg width="20" height="20" viewBox="0 0 20 20" fill="none" xmlns="http://www.w3.org/2000/svg">
<path fill-rule="evenodd" clip-rule="evenodd" d="M10.3908 9.15707C10.1537 8.89214 10.0406 8.53876 10.0799 8.18538L10.3322 5.91416C10.3771 5.50988 9.87553 5.28741 9.60602 5.59208L5.95969 9.71401C5.7218 9.98294 5.91273 10.4068 6.27178 10.4068H7.89116C9.13285 10.4068 10.0989 11.4861 9.96175 12.7202L9.81222 14.066C9.7673 14.4703 10.2689 14.6928 10.5384 14.3881L14.1847 10.2662C14.4226 9.99723 14.2317 9.57342 13.8727 9.57342H11.3222C10.9667 9.57342 10.6279 9.422 10.3908 9.15707ZM8.86033 18.1716C8.59082 18.4763 8.08921 18.2538 8.13413 17.8496L8.7194 12.5821C8.77425 12.0885 8.38784 11.6568 7.89116 11.6568H3.95955C3.42098 11.6568 3.13458 11.021 3.49143 10.6176L11.2841 1.80853C11.5536 1.50386 12.0552 1.72633 12.0103 2.13061L11.3736 7.86074C11.3462 8.10756 11.5394 8.32342 11.7877 8.32342H16.1849C16.7235 8.32342 17.0099 8.95914 16.653 9.36253L8.86033 18.1716Z" fill="black"/>
</svg>
