<svg width="20" height="20" viewBox="0 0 20 20" fill="none" xmlns="http://www.w3.org/2000/svg">
<path fill-rule="evenodd" clip-rule="evenodd" d="M10 10.8333C12.3012 10.8333 14.1667 8.96785 14.1667 6.66667C14.1667 4.36548 12.3012 2.5 10 2.5C7.69882 2.5 5.83334 4.36548 5.83334 6.66667C5.83334 8.96785 7.69882 10.8333 10 10.8333ZM10 9.58333C11.6108 9.58333 12.9167 8.2775 12.9167 6.66667C12.9167 5.05584 11.6108 3.75 10 3.75C8.38917 3.75 7.08334 5.05584 7.08334 6.66667C7.08334 8.2775 8.38917 9.58333 10 9.58333Z" fill="black"/>
<path d="M10.7788 13.9866C10.7498 14.3346 10.4407 14.5883 10.0916 14.5839C10.061 14.5835 10.0305 14.5833 9.99987 14.5833C7.88037 14.5833 5.9783 15.5142 4.6802 16.9895C4.42812 17.276 3.98144 17.3149 3.7116 17.045C3.49433 16.8278 3.46818 16.482 3.66806 16.2486C5.19645 14.4641 7.46611 13.3333 9.99987 13.3333C10.0723 13.3333 10.1446 13.3343 10.2166 13.3361C10.5574 13.3448 10.8071 13.6468 10.7788 13.9866Z" fill="black"/>
<path d="M18.059 11.1128C18.2134 10.8041 18.0882 10.4287 17.7795 10.2743C17.4708 10.1199 17.0954 10.2451 16.941 10.5538L15.0873 14.2612C14.9601 14.5155 14.6211 14.5706 14.42 14.3695L13.7753 13.7247C13.5312 13.4806 13.1355 13.4806 12.8914 13.7247C12.6473 13.9688 12.6473 14.3645 12.8914 14.6086L14.1493 15.8665C14.652 16.3693 15.4996 16.2317 15.8176 15.5958L18.059 11.1128Z" fill="black"/>
</svg>
