<svg width="20" height="20" viewBox="0 0 20 20" fill="none" xmlns="http://www.w3.org/2000/svg">
<path d="M8.77527 5.44194C9.01935 5.19786 9.01935 4.80214 8.77527 4.55806C8.5312 4.31398 8.13547 4.31398 7.89139 4.55806L2.89139 9.55806C2.64731 9.80214 2.64731 10.1979 2.89139 10.4419L7.89139 15.4419C8.13547 15.686 8.5312 15.686 8.77527 15.4419C9.01935 15.1979 9.01935 14.8021 8.77527 14.5581L5.55351 11.3363C5.29102 11.0738 5.47693 10.625 5.84814 10.625H16.6667C17.0118 10.625 17.2917 10.3452 17.2917 10C17.2917 9.65482 17.0118 9.375 16.6667 9.375H5.84814C5.47693 9.375 5.29102 8.92619 5.55351 8.66371L8.77527 5.44194Z" fill="black"/>
</svg>
