<svg width="20" height="20" viewBox="0 0 20 20" fill="none" xmlns="http://www.w3.org/2000/svg">
<path d="M7.52518 9.19194C8.4317 8.28542 9.90145 8.28543 10.808 9.19194C11.052 9.43602 11.4478 9.43602 11.6918 9.19194C11.9359 8.94786 11.9359 8.55214 11.6918 8.30806C10.2972 6.91339 8.03597 6.91339 6.6413 8.30806L3.30797 11.6414C1.9133 13.0361 1.91329 15.2973 3.30797 16.6919C4.70264 18.0866 6.96384 18.0866 8.35852 16.6919L10.0252 15.0253C10.2693 14.7812 10.2693 14.3855 10.0252 14.1414C9.78111 13.8973 9.38538 13.8973 9.1413 14.1414L7.47463 15.8081C6.56812 16.7146 5.09837 16.7146 4.19185 15.8081C3.28533 14.9015 3.28533 13.4318 4.19185 12.5253L7.52518 9.19194Z" fill="black"/>
<path d="M12.5252 4.19194C13.4317 3.28543 14.9015 3.28543 15.808 4.19194C16.7145 5.09846 16.7145 6.56821 15.808 7.47473L12.4746 10.8081C11.5681 11.7146 10.0984 11.7146 9.19185 10.8081C8.94777 10.564 8.55204 10.564 8.30797 10.8081C8.06389 11.0521 8.06389 11.4479 8.30797 11.6919C9.70264 13.0866 11.9638 13.0866 13.3585 11.6919L16.6918 8.35861C18.0865 6.96394 18.0865 4.70273 16.6918 3.30806C15.2972 1.91339 13.036 1.91339 11.6413 3.30806L9.97463 4.97472C9.73056 5.2188 9.73056 5.61453 9.97463 5.85861C10.2187 6.10269 10.6144 6.10269 10.8585 5.85861L12.5252 4.19194Z" fill="black"/>
</svg>
