<svg width="20" height="20" viewBox="0 0 20 20" fill="none" xmlns="http://www.w3.org/2000/svg">
<path fill-rule="evenodd" clip-rule="evenodd" d="M15.3357 8.84678C15.0838 7.73004 14.4725 6.72177 13.591 5.97361C12.7092 5.22531 11.6045 4.77774 10.4416 4.69975C9.27865 4.62176 8.12226 4.91771 7.14536 5.54197C6.16864 6.16611 5.42458 7.0843 5.02204 8.15776C4.61955 9.23106 4.57937 10.4037 4.90727 11.5011C5.23521 12.5987 5.91437 13.5642 6.84565 14.252C7.77711 14.9399 8.91028 15.3125 10.0759 15.3125L10.0759 17.1875C8.51118 17.1875 6.98726 16.6874 5.73177 15.7602C4.47611 14.8329 3.55583 13.5276 3.11074 12.0379C2.66561 10.5481 2.7203 8.95574 3.26642 7.49941C3.81247 6.04325 4.81982 4.8029 6.13573 3.96201C7.45147 3.12122 9.0059 2.72425 10.5671 2.82896C12.1282 2.93366 13.6147 3.53461 14.8042 4.54402C15.9938 5.55357 16.8227 6.91789 17.1647 8.43422L15.3357 8.84678Z" fill="black"/>
</svg>
