<svg width="20" height="20" viewBox="0 0 20 20" fill="none" xmlns="http://www.w3.org/2000/svg">
<path fill-rule="evenodd" clip-rule="evenodd" d="M7.3425 15.5313C7.40613 15.3461 7.57254 15.2083 7.76841 15.2083H12.2316C12.4275 15.2083 12.5939 15.3461 12.6575 15.5313C13.051 16.6768 14.1377 17.5 15.4167 17.5C17.0275 17.5 18.3334 16.1942 18.3334 14.5833C18.3334 12.9725 17.0275 11.6667 15.4167 11.6667C15.253 11.6667 15.0925 11.6801 14.9362 11.7061C14.7433 11.738 14.5434 11.6573 14.4502 11.4853L12.0657 7.08586C11.9724 6.91378 12.014 6.70204 12.1465 6.55803C12.6247 6.03854 12.9167 5.34503 12.9167 4.58332C12.9167 2.97249 11.6109 1.66666 10 1.66666C8.38919 1.66666 7.08335 2.97249 7.08335 4.58332C7.08335 5.34504 7.37535 6.03855 7.85351 6.55804C7.98606 6.70205 8.02763 6.91379 7.93437 7.08587L5.54994 11.4854C5.45675 11.6573 5.25687 11.7381 5.06393 11.7061C4.90759 11.6802 4.74705 11.6667 4.58335 11.6667C2.97252 11.6667 1.66669 12.9725 1.66669 14.5833C1.66669 16.1942 2.97252 17.5 4.58335 17.5C5.86232 17.5 6.94902 16.6768 7.3425 15.5313ZM9.03344 7.6813C9.12663 7.50936 9.32652 7.4286 9.51945 7.46059C9.67579 7.48651 9.83633 7.49999 10 7.49999C10.1637 7.49999 10.3243 7.4865 10.4806 7.46058C10.6735 7.4286 10.8734 7.50935 10.9666 7.68129L13.3511 12.0807C13.4444 12.2528 13.4028 12.4645 13.2702 12.6085C13.0004 12.9017 12.7898 13.2504 12.6575 13.6354C12.5939 13.8206 12.4275 13.9583 12.2316 13.9583H7.76841C7.57254 13.9583 7.40615 13.8206 7.34252 13.6354C7.21028 13.2504 6.99972 12.9018 6.72987 12.6086C6.59732 12.4646 6.55575 12.2529 6.64901 12.0808L9.03344 7.6813ZM6.25002 14.5833C6.25002 15.5038 5.50383 16.25 4.58335 16.25C3.66288 16.25 2.91669 15.5038 2.91669 14.5833C2.91669 13.6629 3.66288 12.9167 4.58335 12.9167C5.50383 12.9167 6.25002 13.6629 6.25002 14.5833ZM17.0834 14.5833C17.0834 15.5038 16.3372 16.25 15.4167 16.25C14.4962 16.25 13.75 15.5038 13.75 14.5833C13.75 13.6629 14.4962 12.9167 15.4167 12.9167C16.3372 12.9167 17.0834 13.6629 17.0834 14.5833ZM11.6667 4.58332C11.6667 5.5038 10.9205 6.24999 10 6.24999C9.07955 6.24999 8.33335 5.5038 8.33335 4.58332C8.33335 3.66285 9.07955 2.91666 10 2.91666C10.9205 2.91666 11.6667 3.66285 11.6667 4.58332Z" fill="black"/>
</svg>
