<svg width="20" height="20" viewBox="0 0 20 20" fill="none" xmlns="http://www.w3.org/2000/svg">
<path d="M3.7753 2.8914C3.53122 2.64732 3.13549 2.64732 2.89141 2.8914C2.64733 3.13548 2.64733 3.53121 2.89141 3.77529L15.3914 16.2753C15.6355 16.5194 16.0312 16.5194 16.2753 16.2753C16.5194 16.0312 16.5194 15.6355 16.2753 15.3914L11.167 10.2831C11.0255 10.1417 11.1434 9.91478 11.3367 9.96611C11.5597 10.0253 11.7791 10.0994 11.9932 10.1881C12.6251 10.4499 13.1993 10.8335 13.6829 11.3172C13.927 11.5612 14.3227 11.5612 14.5668 11.3172C14.8109 11.0731 14.8109 10.6774 14.5668 10.4333C13.9671 9.83357 13.2551 9.35785 12.4716 9.03329C11.688 8.70873 10.8482 8.54168 10.0001 8.54168C9.91301 8.54168 9.82606 8.54344 9.73925 8.54694C9.55506 8.55439 9.37388 8.48998 9.24353 8.35964L7.47607 6.59218C7.25754 6.37365 7.34544 6.00336 7.64457 5.92572C8.41209 5.7265 9.20351 5.62501 9.99996 5.62501C11.2311 5.62501 12.4502 5.8675 13.5876 6.33864C14.725 6.80978 15.7585 7.50033 16.6291 8.37088C16.8732 8.61496 17.2689 8.61496 17.513 8.37088C17.7571 8.12681 17.7571 7.73108 17.513 7.487C16.5264 6.50038 15.3551 5.71775 14.066 5.18379C12.7769 4.64983 11.3953 4.37501 9.99996 4.37501C8.7308 4.37501 7.47294 4.60239 6.28575 5.04535C6.12922 5.10375 5.95221 5.06832 5.83408 4.95019L3.7753 2.8914Z" fill="black"/>
<path d="M6.36802 9.65975C6.59438 9.50579 6.89571 9.54739 7.08929 9.74096C7.38128 10.033 7.29973 10.5273 6.9642 10.768C6.73449 10.9327 6.51804 11.1163 6.31721 11.3172C6.07313 11.5612 5.6774 11.5612 5.43332 11.3172C5.18925 11.0731 5.18925 10.6774 5.43332 10.4333C5.72062 10.146 6.03367 9.88715 6.36802 9.65975Z" fill="black"/>
<path d="M4.05984 7.74704C4.35794 7.5029 4.39938 7.05106 4.12693 6.7786C3.91184 6.56352 3.57098 6.5353 3.33411 6.72613C3.03889 6.96398 2.75605 7.2179 2.48695 7.487C2.24287 7.73108 2.24287 8.12681 2.48695 8.37089C2.73103 8.61496 3.12676 8.61496 3.37084 8.37089C3.59045 8.15127 3.82043 7.94311 4.05984 7.74704Z" fill="black"/>
<path d="M11.1741 14.7097C11.4182 14.4656 11.4182 14.0699 11.1741 13.8258L10.234 12.8857C10.1206 12.7723 9.96764 12.703 9.80786 12.7165C9.65099 12.7297 9.49624 12.759 9.34688 12.8034C8.98476 12.911 8.65146 13.1076 8.37949 13.3796C8.26228 13.4968 8.19643 13.6557 8.19643 13.8215C8.19643 13.9873 8.26228 14.1462 8.37949 14.2634L9.558 15.442C9.67521 15.5592 9.83418 15.625 9.99994 15.625C10.1657 15.625 10.3247 15.5592 10.4419 15.442L11.1741 14.7097Z" fill="black"/>
</svg>
