<svg width="20" height="20" viewBox="0 0 20 20" fill="none" xmlns="http://www.w3.org/2000/svg">
<path d="M3.33337 16.0417C2.9882 16.0417 2.70837 16.3215 2.70837 16.6667C2.70837 17.0119 2.9882 17.2917 3.33337 17.2917H16.6667C17.0119 17.2917 17.2917 17.0119 17.2917 16.6667C17.2917 16.3215 17.0119 16.0417 16.6667 16.0417H3.33337Z" fill="black"/>
<path d="M10.625 3.33334C10.625 2.98817 10.3452 2.70834 10 2.70834C9.65486 2.70834 9.37504 2.98817 9.37504 3.33334V7.1037C9.37504 7.36117 9.14385 7.55702 8.88987 7.51469L5.10279 6.88351C4.76231 6.82677 4.44029 7.05678 4.38354 7.39726C4.3268 7.73774 4.55681 8.05976 4.89729 8.11651L8.39901 8.70013C8.68768 8.74824 8.83811 9.07114 8.68923 9.32309L6.75363 12.5987C6.57803 12.8959 6.67658 13.2792 6.97375 13.4548C7.27092 13.6304 7.65418 13.5318 7.82979 13.2346L9.64132 10.169C9.8026 9.89603 10.1975 9.89603 10.3588 10.169L12.1703 13.2346C12.3459 13.5318 12.7292 13.6304 13.0263 13.4548C13.3235 13.2792 13.4221 12.8959 13.2465 12.5987L11.3109 9.32309C11.162 9.07114 11.3124 8.74824 11.6011 8.70013L15.1028 8.11651C15.4433 8.05976 15.6733 7.73774 15.6165 7.39726C15.5598 7.05678 15.2378 6.82677 14.8973 6.88351L11.1102 7.51469C10.8562 7.55702 10.625 7.36117 10.625 7.1037V3.33334Z" fill="black"/>
</svg>
