<svg width="20" height="20" viewBox="0 0 20 20" fill="none" xmlns="http://www.w3.org/2000/svg">
<path fill-rule="evenodd" clip-rule="evenodd" d="M8.58973 16.0417C8.46072 16.0417 8.34008 16.1024 8.25575 16.2C7.5681 16.9962 6.55122 17.5 5.41667 17.5C3.3456 17.5 1.66667 15.8211 1.66667 13.75C1.66667 11.6789 3.3456 10 5.41667 10C6.55122 10 7.5681 10.5038 8.25575 11.3C8.34008 11.3976 8.46072 11.4583 8.58973 11.4583H15.8333C17.099 11.4583 18.125 12.4843 18.125 13.75C18.125 15.0157 17.099 16.0417 15.8333 16.0417H8.58973ZM7.91667 13.75C7.91667 15.1307 6.79738 16.25 5.41667 16.25C4.03596 16.25 2.91667 15.1307 2.91667 13.75C2.91667 12.3693 4.03596 11.25 5.41667 11.25C6.79738 11.25 7.91667 12.3693 7.91667 13.75ZM9.574 14.7917C9.29672 14.7917 9.097 14.5249 9.13362 14.25C9.15542 14.0865 9.16667 13.9195 9.16667 13.75C9.16667 13.5805 9.15542 13.4135 9.13362 13.25C9.097 12.9751 9.29672 12.7083 9.574 12.7083H15.8333C16.4086 12.7083 16.875 13.1747 16.875 13.75C16.875 14.3253 16.4086 14.7917 15.8333 14.7917H9.574Z" fill="black"/>
<path fill-rule="evenodd" clip-rule="evenodd" d="M18.3333 6.25C18.3333 8.32107 16.6544 10 14.5833 10C13.4488 10 12.4319 9.49616 11.7443 8.70001C11.6599 8.60238 11.5393 8.54167 11.4103 8.54167H4.16667C2.90102 8.54167 1.875 7.51565 1.875 6.25C1.875 4.98435 2.90102 3.95833 4.16667 3.95833H11.4103C11.5393 3.95833 11.6599 3.89762 11.7443 3.79999C12.4319 3.00384 13.4488 2.5 14.5833 2.5C16.6544 2.5 18.3333 4.17893 18.3333 6.25ZM17.0833 6.25C17.0833 7.63071 15.964 8.75 14.5833 8.75C13.2026 8.75 12.0833 7.63071 12.0833 6.25C12.0833 4.86929 13.2026 3.75 14.5833 3.75C15.964 3.75 17.0833 4.86929 17.0833 6.25ZM10.426 5.20833C10.7033 5.20833 10.903 5.47511 10.8664 5.74996C10.8446 5.91354 10.8333 6.08046 10.8333 6.25C10.8333 6.41954 10.8446 6.58646 10.8664 6.75004C10.903 7.02489 10.7033 7.29167 10.426 7.29167H4.16667C3.59137 7.29167 3.125 6.8253 3.125 6.25C3.125 5.6747 3.59137 5.20833 4.16667 5.20833H10.426Z" fill="black"/>
</svg>
