<svg width="20" height="20" viewBox="0 0 20 20" fill="none" xmlns="http://www.w3.org/2000/svg">
<path fill-rule="evenodd" clip-rule="evenodd" d="M12.5 10C12.5 11.3807 11.3807 12.5 10 12.5C8.61929 12.5 7.5 11.3807 7.5 10C7.5 8.61929 8.61929 7.5 10 7.5C11.3807 7.5 12.5 8.61929 12.5 10ZM11.25 10C11.25 10.6904 10.6904 11.25 10 11.25C9.30964 11.25 8.75 10.6904 8.75 10C8.75 9.30964 9.30964 8.75 10 8.75C10.6904 8.75 11.25 9.30964 11.25 10Z" fill="black"/>
<path fill-rule="evenodd" clip-rule="evenodd" d="M10.2047 18.125H9.79525C9.14413 18.125 8.5719 17.6934 8.39303 17.0673L8.02511 15.7796C7.95344 15.5287 7.67148 15.4047 7.43813 15.5214L6.2334 16.1237C5.67196 16.4045 4.99387 16.2944 4.55001 15.8506L4.14944 15.45C3.70558 15.0061 3.59554 14.328 3.87626 13.7666L4.47863 12.5619C4.5953 12.3285 4.47127 12.0466 4.22042 11.9749L2.9327 11.607C2.30663 11.4281 1.875 10.8559 1.875 10.2047V9.79525C1.875 9.14413 2.30663 8.5719 2.9327 8.39303L4.22042 8.02511C4.47127 7.95344 4.5953 7.67148 4.47863 7.43813L3.87626 6.2334C3.59554 5.67196 3.70558 4.99387 4.14944 4.55001L4.55001 4.14944C4.99387 3.70558 5.67196 3.59554 6.2334 3.87626L7.43813 4.47863C7.67148 4.5953 7.95344 4.47127 8.02511 4.22042L8.39303 2.9327C8.5719 2.30663 9.14413 1.875 9.79525 1.875H10.2047C10.8559 1.875 11.4281 2.30663 11.607 2.9327L11.9749 4.22042C12.0466 4.47127 12.3285 4.5953 12.5619 4.47863L13.7666 3.87626C14.328 3.59554 15.0061 3.70558 15.45 4.14944L15.8506 4.55001C16.2944 4.99387 16.4045 5.67196 16.1237 6.2334L15.5214 7.43813C15.4047 7.67148 15.5287 7.95344 15.7796 8.02511L17.0673 8.39303C17.6934 8.5719 18.125 9.14413 18.125 9.79525V10.2047C18.125 10.8559 17.6934 11.4281 17.0673 11.607L15.7796 11.9749C15.5287 12.0466 15.4047 12.3285 15.5214 12.5619L16.1237 13.7666C16.4045 14.328 16.2944 15.0061 15.8506 15.45L15.45 15.8506C15.0061 16.2944 14.328 16.4045 13.7666 16.1237L12.5619 15.5214C12.3285 15.4047 12.0466 15.5287 11.9749 15.7796L11.607 17.0673C11.4281 17.6934 10.8559 18.125 10.2047 18.125ZM9.79525 16.875H10.2047C10.2978 16.875 10.3795 16.8133 10.4051 16.7239L10.9785 14.7168C11.1068 14.2678 11.5171 13.9583 11.984 13.9583C12.1464 13.9583 12.3065 13.9961 12.4517 14.0687L14.3256 15.0057C14.4058 15.0458 14.5027 15.0301 14.5661 14.9667L14.9667 14.5661C15.0301 14.5027 15.0458 14.4058 15.0057 14.3256L14.0687 12.4517C13.9961 12.3065 13.9583 12.1464 13.9583 11.984C13.9583 11.5171 14.2678 11.1068 14.7168 10.9785L16.7239 10.4051C16.8133 10.3795 16.875 10.2978 16.875 10.2047V9.79525C16.875 9.70223 16.8133 9.62049 16.7239 9.59493L14.7168 9.02147C14.2678 8.8932 13.9583 8.48288 13.9583 8.01598C13.9583 7.85364 13.9961 7.69353 14.0687 7.54833L15.0057 5.67438C15.0458 5.59417 15.0301 5.49731 14.9667 5.4339L14.5661 5.03332C14.5027 4.96991 14.4058 4.95419 14.3256 4.99429L12.4517 5.93127C12.3065 6.00387 12.1464 6.04167 11.984 6.04167C11.5171 6.04167 11.1068 5.73216 10.9785 5.28323L10.4051 3.2761C10.3795 3.18666 10.2978 3.125 10.2047 3.125H9.79525C9.70223 3.125 9.62049 3.18666 9.59493 3.2761L9.02147 5.28323C8.8932 5.73216 8.48288 6.04167 8.01598 6.04167C7.85364 6.04167 7.69353 6.00387 7.54833 5.93127L5.67438 4.99429C5.59417 4.95419 5.49731 4.96991 5.4339 5.03332L5.03332 5.4339C4.96991 5.49731 4.95419 5.59417 4.99429 5.67438L5.93127 7.54833C6.00387 7.69353 6.04167 7.85364 6.04167 8.01598C6.04167 8.48288 5.73216 8.8932 5.28323 9.02147L3.2761 9.59493C3.18666 9.62049 3.125 9.70223 3.125 9.79525V10.2047C3.125 10.2978 3.18666 10.3795 3.2761 10.4051L5.28323 10.9785C5.73216 11.1068 6.04167 11.5171 6.04167 11.984C6.04167 12.1464 6.00387 12.3065 5.93127 12.4517L4.99429 14.3256C4.95419 14.4058 4.96991 14.5027 5.03332 14.5661L5.4339 14.9667C5.49731 15.0301 5.59417 15.0458 5.67438 15.0057L7.54833 14.0687C7.69353 13.9961 7.85364 13.9583 8.01598 13.9583C8.48288 13.9583 8.8932 14.2678 9.02147 14.7168L9.59493 16.7239C9.62049 16.8133 9.70223 16.875 9.79525 16.875Z" fill="black"/>
</svg>
