<svg width="20" height="20" viewBox="0 0 20 20" fill="none" xmlns="http://www.w3.org/2000/svg">
<path fill-rule="evenodd" clip-rule="evenodd" d="M7.77131 10.8947C7.56131 10.7898 7.45725 10.5531 7.4827 10.3197C7.49415 10.2147 7.50002 10.108 7.50002 9.99999C7.50002 9.89167 7.49412 9.78473 7.48261 9.67947C7.45707 9.4458 7.56137 9.20875 7.77176 9.10392L12.7948 6.60119C13.0042 6.49685 13.255 6.55529 13.426 6.71501C13.9472 7.20195 14.6471 7.49999 15.4167 7.49999C17.0275 7.49999 18.3334 6.19415 18.3334 4.58332C18.3334 2.97249 17.0275 1.66666 15.4167 1.66666C13.8059 1.66666 12.5 2.97249 12.5 4.58332C12.5 4.69365 12.5061 4.80255 12.5181 4.90969C12.5441 5.14375 12.4399 5.38145 12.2291 5.48647L7.21046 7.98703C7.00065 8.09157 6.74933 8.03271 6.57837 7.87234C6.05671 7.38301 5.35503 7.08332 4.58335 7.08332C2.97252 7.08332 1.66669 8.38916 1.66669 9.99999C1.66669 11.6108 2.97252 12.9167 4.58335 12.9167C5.35532 12.9167 6.05724 12.6168 6.57896 12.1271C6.7501 11.9665 7.00183 11.9076 7.2118 12.0125L12.229 14.5196C12.4391 14.6246 12.5432 14.8615 12.5176 15.095C12.506 15.2006 12.5 15.3079 12.5 15.4167C12.5 17.0275 13.8059 18.3333 15.4167 18.3333C17.0275 18.3333 18.3334 17.0275 18.3334 15.4167C18.3334 13.8058 17.0275 12.5 15.4167 12.5C14.6454 12.5 13.9441 12.7993 13.4225 13.2882C13.2514 13.4486 12.9998 13.5073 12.79 13.4025L7.77131 10.8947ZM4.58335 11.6667C5.50383 11.6667 6.25002 10.9205 6.25002 9.99999C6.25002 9.07952 5.50383 8.33333 4.58335 8.33333C3.66288 8.33333 2.91669 9.07952 2.91669 9.99999C2.91669 10.9205 3.66288 11.6667 4.58335 11.6667ZM15.4167 6.24999C16.3372 6.24999 17.0834 5.5038 17.0834 4.58332C17.0834 3.66285 16.3372 2.91666 15.4167 2.91666C14.4962 2.91666 13.75 3.66285 13.75 4.58332C13.75 5.5038 14.4962 6.24999 15.4167 6.24999ZM17.0834 15.4167C17.0834 16.3371 16.3372 17.0833 15.4167 17.0833C14.4962 17.0833 13.75 16.3371 13.75 15.4167C13.75 14.4962 14.4962 13.75 15.4167 13.75C16.3372 13.75 17.0834 14.4962 17.0834 15.4167Z" fill="black"/>
</svg>
