<svg width="20" height="20" viewBox="0 0 20 20" fill="none" xmlns="http://www.w3.org/2000/svg">
<path fill-rule="evenodd" clip-rule="evenodd" d="M13.3333 9.99999C13.3333 11.8409 11.841 13.3333 10 13.3333C8.15905 13.3333 6.66667 11.8409 6.66667 9.99999C6.66667 8.15904 8.15905 6.66666 10 6.66666C11.841 6.66666 13.3333 8.15904 13.3333 9.99999ZM12.0833 9.99999C12.0833 11.1506 11.1506 12.0833 10 12.0833C8.84941 12.0833 7.91667 11.1506 7.91667 9.99999C7.91667 8.8494 8.84941 7.91666 10 7.91666C11.1506 7.91666 12.0833 8.8494 12.0833 9.99999Z" fill="black"/>
<path fill-rule="evenodd" clip-rule="evenodd" d="M1.91752 10.4027C2.77988 11.7225 5.8027 15.8333 10 15.8333C14.1974 15.8333 17.2202 11.7225 18.0826 10.4027C18.244 10.1557 18.244 9.84428 18.0826 9.59727C17.2202 8.27743 14.1974 4.16666 10 4.16666C5.8027 4.16666 2.77988 8.27744 1.91752 9.59727C1.75612 9.84428 1.75612 10.1557 1.91752 10.4027ZM10 14.5833C8.319 14.5833 6.79437 13.7574 5.52276 12.6648C4.85357 12.0899 4.28724 11.4687 3.84335 10.921C3.40701 10.3825 3.40701 9.61745 3.84335 9.07903C4.28724 8.53128 4.85357 7.91009 5.52276 7.33515C6.79436 6.24262 8.319 5.41666 10 5.41666C11.6811 5.41666 13.2057 6.24262 14.4773 7.33514C15.1465 7.91009 15.7128 8.53128 16.1567 9.07903C16.5931 9.61745 16.5931 10.3825 16.1567 10.921C15.7128 11.4687 15.1465 12.0899 14.4773 12.6648C13.2057 13.7574 11.6811 14.5833 10 14.5833Z" fill="black"/>
</svg>
