<svg width="20" height="20" viewBox="0 0 20 20" fill="none" xmlns="http://www.w3.org/2000/svg">
<path d="M3.33331 12.7083C2.98813 12.7083 2.70831 12.9881 2.70831 13.3333C2.70831 13.6785 2.98813 13.9583 3.33331 13.9583H9.99998C10.3452 13.9583 10.625 13.6785 10.625 13.3333C10.625 12.9881 10.3452 12.7083 9.99998 12.7083H3.33331Z" fill="black"/>
<path d="M2.70831 9.99999C2.70831 9.65481 2.98813 9.37499 3.33331 9.37499H13.3333C13.6785 9.37499 13.9583 9.65481 13.9583 9.99999C13.9583 10.3452 13.6785 10.625 13.3333 10.625H3.33331C2.98813 10.625 2.70831 10.3452 2.70831 9.99999Z" fill="black"/>
<path d="M2.70831 6.66666C2.70831 6.32148 2.98813 6.04166 3.33331 6.04166H16.6666C17.0118 6.04166 17.2916 6.32148 17.2916 6.66666C17.2916 7.01183 17.0118 7.29166 16.6666 7.29166H3.33331C2.98813 7.29166 2.70831 7.01183 2.70831 6.66666Z" fill="black"/>
</svg>
