<svg width="20" height="20" viewBox="0 0 20 20" fill="none" xmlns="http://www.w3.org/2000/svg">
<path d="M6.78498 4.92706C6.59162 4.81543 6.35339 4.81543 6.16002 4.92706L5.70248 5.19119C5.56358 5.27138 5.56358 5.47186 5.70248 5.55205L6.15834 5.81521C6.25388 5.87037 6.28808 5.99 6.25195 6.09423C6.19467 6.25951 6.17007 6.42894 6.17973 6.59931C6.20586 7.06012 6.48136 7.50462 6.96753 7.87039C7.45371 8.23617 8.12614 8.50484 8.89038 8.63868C9.50133 8.74567 10.1464 8.76219 10.767 8.6888C10.959 8.66609 11.1546 8.69948 11.3221 8.79616L11.6891 9.00801C11.8824 9.11964 12.1207 9.11964 12.314 9.00801L12.7716 8.74387C12.9105 8.66369 12.9105 8.46321 12.7716 8.38302L12.6075 8.28828C12.5497 8.25493 12.5524 8.17021 12.6111 8.13851C12.6655 8.10914 12.7184 8.07883 12.7698 8.04761C12.8601 7.99283 12.9732 7.98781 13.0646 8.04059L13.2148 8.12727C13.4081 8.2389 13.6463 8.2389 13.8397 8.12727L14.2973 7.86314C14.4362 7.78295 14.4362 7.58247 14.2973 7.50228L13.8414 7.23914C13.7459 7.18399 13.7117 7.06435 13.7478 6.96011C13.7662 6.90716 13.7812 6.85376 13.7928 6.80003C13.8249 6.65157 13.699 6.52712 13.5471 6.52712H12.5662C12.4143 6.52712 12.2947 6.6536 12.2432 6.79648C12.1785 6.97605 12.0494 7.1469 11.8624 7.29759C11.5835 7.52224 11.1898 7.69083 10.7364 7.77967C10.2831 7.86851 9.79292 7.87314 9.33479 7.79291C8.87666 7.71268 8.47357 7.55162 8.18213 7.33236C7.89069 7.11309 7.72554 6.84663 7.70987 6.5704C7.69421 6.29416 7.82882 6.02204 8.09479 5.79224C8.36077 5.56244 8.74475 5.3865 9.19281 5.28915C9.54138 5.21341 9.9151 5.18819 10.2816 5.2144C10.4667 5.22764 10.6467 5.13354 10.7249 4.96518L10.8352 4.72738C10.9123 4.56137 10.8086 4.36786 10.6264 4.35039C10.1636 4.30598 9.69105 4.31123 9.23265 4.36546C9.04061 4.38817 8.84498 4.35478 8.67751 4.2581L8.31066 4.04632C8.11729 3.93469 7.87906 3.93469 7.6857 4.04632L7.22816 4.31046C7.08926 4.39064 7.08926 4.59112 7.22816 4.67131L7.39222 4.76602C7.44999 4.79937 7.44728 4.88409 7.38859 4.91579C7.3342 4.94517 7.28126 4.97548 7.22986 5.00669C7.13963 5.06148 7.02653 5.0665 6.9351 5.01372L6.78498 4.92706Z" fill="black"/>
<path fill-rule="evenodd" clip-rule="evenodd" d="M1.66663 6.45832C1.66663 3.81196 5.39759 1.66666 9.99996 1.66666C14.6023 1.66666 18.3333 3.81196 18.3333 6.45832V13.5417C18.3333 16.188 14.6023 18.3333 9.99996 18.3333C5.39759 18.3333 1.66663 16.188 1.66663 13.5417V6.45832ZM15.2694 8.76291C16.5898 8.0037 17.0833 7.14329 17.0833 6.45832C17.0833 5.77336 16.5898 4.91295 15.2694 4.15374C13.983 3.41403 12.1226 2.91666 9.99996 2.91666C7.87729 2.91666 6.01695 3.41403 4.73049 4.15374C3.41013 4.91295 2.91663 5.77336 2.91663 6.45832C2.91663 7.14329 3.41013 8.0037 4.73049 8.76291C6.01695 9.50262 7.87729 9.99999 9.99996 9.99999C12.1226 9.99999 13.983 9.50262 15.2694 8.76291ZM9.99996 11.25C12.7584 11.25 15.2038 10.4794 16.7205 9.29208C16.8636 9.18006 17.0833 9.27863 17.0833 9.46037V9.99999C17.0833 10.685 16.5898 11.5454 15.2694 12.3046C13.983 13.0443 12.1226 13.5417 9.99996 13.5417C7.87729 13.5417 6.01695 13.0443 4.73049 12.3046C3.41013 11.5454 2.91663 10.685 2.91663 9.99999V9.46037C2.91663 9.27863 3.1363 9.18006 3.2794 9.29208C4.79612 10.4794 7.24153 11.25 9.99996 11.25ZM16.7205 12.8337C16.8636 12.7217 17.0833 12.8203 17.0833 13.002V13.3333C17.0833 14.0183 16.5898 15.087 15.2694 15.8462C13.983 16.586 12.1226 17.0833 9.99996 17.0833C7.87729 17.0833 6.01695 16.586 4.73049 15.8462C3.41013 15.087 2.91663 14.2266 2.91663 13.5417V13.002C2.91663 12.8203 3.1363 12.7217 3.2794 12.8337C4.79612 14.021 7.24153 14.7917 9.99996 14.7917C12.7584 14.7917 15.2038 14.021 16.7205 12.8337Z" fill="black"/>
</svg>
