<svg width="20" height="20" viewBox="0 0 20 20" fill="none" xmlns="http://www.w3.org/2000/svg">
<path fill-rule="evenodd" clip-rule="evenodd" d="M11.039 6.69293C9.79538 6.69293 8.78724 7.70108 8.78724 8.94468C8.78724 10.1883 9.79538 11.1964 11.039 11.1964C12.2826 11.1964 13.2907 10.1883 13.2907 8.94468C13.2907 7.70108 12.2826 6.69293 11.039 6.69293ZM10.0372 8.94468C10.0372 8.39143 10.4857 7.94293 11.039 7.94293C11.5922 7.94293 12.0407 8.39143 12.0407 8.94468C12.0407 9.49793 11.5922 9.94643 11.039 9.94643C10.4857 9.94643 10.0372 9.49793 10.0372 8.94468Z" fill="black"/>
<path fill-rule="evenodd" clip-rule="evenodd" d="M7.52725 15.6632C7.31735 15.69 7.1526 15.8588 7.11222 16.0662C7.01292 16.576 6.76544 17.0628 6.36977 17.4578C6.04918 17.7777 5.5914 17.9572 5.18149 18.068C4.75373 18.1837 4.2852 18.2484 3.86324 18.2851C3.43819 18.3222 3.04259 18.3323 2.75437 18.3333C2.60976 18.3338 2.49097 18.332 2.40754 18.33C2.36579 18.3291 2.33283 18.3281 2.30982 18.3273L2.28292 18.3263L2.27533 18.326L2.27305 18.3259L2.08107 18.3174C1.86514 18.3078 1.69227 18.1353 1.68268 17.9198L1.67416 17.7281L1.67406 17.7259L1.67375 17.7183L1.67276 17.6914C1.67197 17.6685 1.67096 17.6356 1.66998 17.5939C1.66804 17.5106 1.66625 17.3921 1.66676 17.2477C1.66777 16.9601 1.6779 16.5652 1.71497 16.141C1.75178 15.7199 1.81658 15.2522 1.9325 14.8253C2.04357 14.4162 2.22337 13.9593 2.54396 13.6393C2.935 13.249 3.41597 13.0032 3.92029 12.9018C4.12903 12.8599 4.29781 12.6926 4.32215 12.4814C4.32529 12.4542 4.3287 12.4261 4.3324 12.3972C4.38527 11.9847 4.49779 11.4042 4.73525 10.703C4.78932 10.5434 4.84981 10.3776 4.91746 10.2063C5.00425 9.9866 4.86067 9.74009 4.62516 9.71707C4.23432 9.67887 3.84665 9.64176 3.55659 9.61418L2.83917 9.54657C2.58919 9.52315 2.41639 9.2863 2.47078 9.04166L2.52201 8.81126C2.82734 7.43797 3.38153 6.49441 4.10207 5.89188C4.82384 5.28832 5.64911 5.08 6.39584 5.05969C7.00141 5.04321 7.56873 5.14932 8.02131 5.2759C8.17028 5.31756 8.33099 5.28023 8.44392 5.1747C10.3978 3.34897 12.6584 2.47373 14.4432 2.05437C15.3806 1.83413 16.1942 1.73778 16.7761 1.69646C17.0673 1.67579 17.3013 1.66884 17.4648 1.66714C17.5465 1.66629 17.6107 1.66676 17.6556 1.66749C17.6781 1.66785 17.6958 1.66828 17.7084 1.66864L17.7236 1.66912L17.7284 1.66934L17.73 1.66935L17.7312 1.67056L17.7312 1.6694L17.9242 1.67723C18.142 1.68607 18.3163 1.86075 18.3243 2.07818L18.3313 2.27082L18.3314 2.27362L18.3316 2.27834L18.332 2.29348C18.3323 2.30607 18.3326 2.32365 18.3329 2.346C18.3335 2.39069 18.3337 2.4545 18.3325 2.53579C18.3301 2.69831 18.3222 2.93099 18.3004 3.22057C18.2568 3.79918 18.1573 4.6083 17.9337 5.5409C17.5081 7.31581 16.6264 9.5643 14.7992 11.5124C14.6934 11.6253 14.6561 11.7858 14.698 11.9346C14.8258 12.3875 14.9333 12.9566 14.9167 13.5643C14.8964 14.3095 14.6876 15.1332 14.0829 15.8536C13.4782 16.574 12.5338 17.1259 11.1579 17.4306L10.9271 17.4818C10.6819 17.536 10.4446 17.3636 10.4212 17.1141L10.3534 16.398C10.3258 16.1085 10.2886 15.7216 10.2503 15.3315C10.228 15.1037 9.98783 14.9654 9.77516 15.0512C9.60584 15.1195 9.44202 15.1807 9.28424 15.2356C8.58769 15.4781 8.01191 15.596 7.60277 15.6531C7.57693 15.6567 7.55175 15.66 7.52725 15.6632ZM5.44799 8.54306C5.61126 8.55958 5.76871 8.47924 5.85412 8.33939C6.1291 7.88914 6.45194 7.42041 6.83087 6.93928C7.0289 6.68785 6.89442 6.3128 6.57403 6.3079C6.52616 6.30717 6.4781 6.30742 6.42994 6.30873C5.89168 6.32337 5.36098 6.46925 4.90607 6.84966C4.63049 7.0801 4.35963 7.41593 4.13048 7.90606C4.01659 8.14967 4.19198 8.41961 4.46006 8.44558L4.74717 8.47351C4.98621 8.49688 5.22704 8.5207 5.44799 8.54306ZM11.4269 14.513C11.4492 14.7328 11.473 14.9722 11.4963 15.2097L11.5243 15.4963C11.5503 15.7639 11.8208 15.9389 12.0648 15.8252C12.5559 15.5965 12.8924 15.3262 13.1233 15.0512C13.5044 14.5971 13.6506 14.0674 13.6653 13.5302C13.6666 13.48 13.6668 13.4299 13.666 13.3801C13.6605 13.0602 13.2844 12.9266 13.033 13.125C12.5499 13.5063 12.0799 13.8315 11.629 14.1089C11.49 14.1944 11.4104 14.3509 11.4269 14.513ZM7.37683 14.4227C7.2543 14.4386 7.13256 14.3936 7.04519 14.3064L5.68324 12.9471C5.59728 12.8613 5.5522 12.7422 5.56616 12.6217C5.56862 12.6005 5.57129 12.5785 5.57421 12.5557C5.61745 12.2183 5.71257 11.7193 5.92126 11.1031C6.33761 9.87366 7.21051 8.16371 9.04816 6.32961C10.3282 5.05207 11.7878 4.24989 13.1446 3.74721C13.358 3.66814 13.5903 3.78364 13.6866 3.98949C13.8938 4.43243 14.1806 4.84745 14.5469 5.21311C14.9765 5.64186 15.4741 5.9614 16.005 6.17173C16.2252 6.25898 16.3551 6.49823 16.274 6.7204C15.7695 8.10146 14.9543 9.59983 13.6395 10.9121C11.8 12.748 10.0951 13.6302 8.87203 14.0558C8.2591 14.2691 7.76389 14.3689 7.42942 14.4156C7.41143 14.4181 7.39389 14.4205 7.37683 14.4227ZM16.8411 4.67549C16.9608 4.06215 17.0216 3.53046 17.052 3.12684C17.0599 3.0221 16.9732 2.93516 16.8682 2.94259L16.8649 2.94282C16.4371 2.9732 15.8663 3.03676 15.2075 3.1673C14.9591 3.21651 14.819 3.4806 14.946 3.69924C15.0769 3.92453 15.239 4.13672 15.4322 4.32958C15.7015 4.59833 16.0083 4.80665 16.3359 4.95455C16.5543 5.05313 16.7952 4.91026 16.8411 4.67549ZM5.48453 14.5228C4.91697 13.9564 3.99677 13.9564 3.4292 14.5228C3.34378 14.6081 3.2347 14.8064 3.14083 15.1521C3.0518 15.48 2.9956 15.8669 2.96215 16.2496C2.95009 16.3877 2.94117 16.5229 2.93466 16.6519C2.92279 16.887 3.11582 17.0797 3.35138 17.0678C3.48059 17.0613 3.61611 17.0524 3.75445 17.0404C4.1379 17.007 4.52551 16.9509 4.85405 16.862C5.20044 16.7683 5.39912 16.6595 5.48453 16.5742C6.0521 16.0077 6.0521 15.0893 5.48453 14.5228Z" fill="black"/>
</svg>
