<svg width="20" height="20" viewBox="0 0 20 20" fill="none" xmlns="http://www.w3.org/2000/svg">
<path fill-rule="evenodd" clip-rule="evenodd" d="M2.80855 1.64165C2.56429 1.39776 2.16856 1.39805 1.92467 1.64231C1.68078 1.88657 1.68107 2.2823 1.92533 2.5262L4.9377 5.53404C5.03613 5.63233 5.0778 5.77307 5.05694 5.9106C5.01954 6.15717 5.00015 6.40965 5.00015 6.66665C5.00015 9.08974 6.72377 11.1102 9.01183 11.569C9.21791 11.6103 9.37515 11.7857 9.37515 11.9959V17.5C9.37515 17.8452 9.65497 18.125 10.0002 18.125C10.3453 18.125 10.6252 17.8452 10.6252 17.5V11.9959C10.6252 11.8652 10.6859 11.748 10.7814 11.6681C10.8896 11.5775 11.0431 11.6303 11.1429 11.73L16.9282 17.5065C17.1725 17.7504 17.5682 17.7501 17.8121 17.5059C18.056 17.2616 18.0557 16.8659 17.8114 16.622L12.2938 11.1127C12.2932 11.112 12.2934 11.1109 12.2942 11.1105C12.295 11.1101 12.2952 11.109 12.2945 11.1083L11.3522 10.1674C11.3514 10.1666 11.3501 10.1663 11.349 10.1668C11.3479 10.1672 11.3466 10.1669 11.3458 10.1661L6.49871 5.32627C6.49787 5.32543 6.4976 5.32417 6.49803 5.32306C6.49846 5.32195 6.49819 5.32069 6.49735 5.31985L5.55504 4.37896C5.55438 4.3783 5.55327 4.37847 5.55285 4.3793C5.55242 4.38012 5.55132 4.3803 5.55066 4.37964L2.80855 1.64165ZM9.06148 9.65163C9.33091 9.92066 9.12916 10.335 8.76949 10.21C7.69016 9.83523 6.83498 8.98119 6.4586 7.9026C6.33316 7.54312 6.74713 7.34076 7.01656 7.60978L9.06148 9.65163Z" fill="black"/>
<path d="M13.7502 6.66665C13.7502 7.55838 13.4389 8.37741 12.9191 9.02103C12.7739 9.2008 12.7713 9.46466 12.9348 9.62792L13.2292 9.92191C13.3916 10.084 13.6559 10.0854 13.8048 9.91094C14.5502 9.0377 15.0002 7.90473 15.0002 6.66665C15.0002 3.90523 12.7616 1.66665 10.0002 1.66665C8.75938 1.66665 7.62417 2.1186 6.75016 2.86686C6.57589 3.01605 6.57772 3.28037 6.74006 3.44247L7.03448 3.73645C7.19799 3.89971 7.46184 3.89668 7.64139 3.75123C8.28568 3.22932 9.1064 2.91665 10.0002 2.91665C12.0712 2.91665 13.7502 4.59559 13.7502 6.66665Z" fill="black"/>
<path d="M12.4131 6.07044C12.4131 5.38009 11.873 4.67409 11.2067 4.49355C10.5403 4.31301 10.0002 4.7263 10.0002 5.41665C10.0002 6.10701 10.5403 6.81301 11.2067 6.99355C11.873 7.17409 12.4131 6.7608 12.4131 6.07044Z" fill="black"/>
</svg>
