<svg width="20" height="20" viewBox="0 0 20 20" fill="none" xmlns="http://www.w3.org/2000/svg">
<path fill-rule="evenodd" clip-rule="evenodd" d="M13.9584 16.8561C17.7449 14.6699 19.0423 9.82817 16.8561 6.04169C14.67 2.2552 9.82825 0.957858 6.04176 3.14399C2.25528 5.33011 0.957935 10.1719 3.14406 13.9584C5.33019 17.7448 10.1719 19.0422 13.9584 16.8561ZM16.1144 10.792C16.3547 10.9082 16.6303 10.7491 16.6499 10.4828C16.7445 9.19605 16.4673 7.86827 15.7736 6.66669C15.0799 5.4651 14.0686 4.56117 12.9069 3.99971C12.6665 3.88353 12.3909 4.04265 12.3713 4.30892C12.2768 5.59567 12.5539 6.92345 13.2477 8.12503C13.9414 9.32662 14.9527 10.2305 16.1144 10.792ZM15.9038 12.0693C16.1135 12.1589 16.2263 12.3945 16.1374 12.6045C15.5919 13.8925 14.6382 15.0202 13.3334 15.7735C12.0287 16.5268 10.5752 16.7889 9.18699 16.6173C8.96071 16.5893 8.81304 16.3738 8.84026 16.1475C9.03752 14.507 8.7248 12.7911 7.83506 11.25C6.94532 9.70893 5.61569 8.58016 4.09634 7.93074C3.88669 7.84113 3.77391 7.6055 3.86281 7.39555C4.40827 6.10751 5.36204 4.9798 6.66676 4.22652C7.97148 3.47324 9.42499 3.2111 10.8132 3.38274C11.0395 3.41072 11.1871 3.62621 11.1599 3.85258C10.9627 5.49308 11.2754 7.20896 12.1651 8.75003C13.0549 10.2911 14.3845 11.4199 15.9038 12.0693ZM4.22659 13.3334C3.53286 12.1318 3.25569 10.804 3.35027 9.51724C3.36985 9.25097 3.64545 9.09185 3.88583 9.20803C5.04748 9.76949 6.05879 10.6734 6.75253 11.875C7.44626 13.0766 7.72343 14.4044 7.62884 15.6911C7.60927 15.9574 7.33367 16.1165 7.09329 16.0003C5.93164 15.4389 4.92033 14.5349 4.22659 13.3334Z" fill="black"/>
</svg>
