<svg width="20" height="20" viewBox="0 0 20 20" fill="none" xmlns="http://www.w3.org/2000/svg">
<path d="M9.99993 6.04163C10.3451 6.04163 10.6249 6.32145 10.6249 6.66663L10.6249 8.95829C10.6249 9.18841 10.8115 9.37496 11.0416 9.37496L13.3333 9.37496C13.6784 9.37496 13.9583 9.65478 13.9583 9.99996C13.9583 10.3451 13.6784 10.625 13.3333 10.625L11.0416 10.625C10.8115 10.625 10.6249 10.8115 10.6249 11.0416L10.6249 13.3333C10.6249 13.6785 10.3451 13.9583 9.99993 13.9583C9.65475 13.9583 9.37493 13.6785 9.37493 13.3333L9.37493 11.0416C9.37493 10.8115 9.18838 10.625 8.95826 10.625L6.6666 10.625C6.32142 10.625 6.0416 10.3451 6.0416 9.99996C6.0416 9.65478 6.32142 9.37496 6.6666 9.37496L8.95826 9.37496C9.18838 9.37496 9.37493 9.18841 9.37493 8.95829L9.37493 6.66663C9.37493 6.32145 9.65475 6.04163 9.99993 6.04163Z" fill="black"/>
<path fill-rule="evenodd" clip-rule="evenodd" d="M9.99993 18.3333C14.6023 18.3333 18.3333 14.6023 18.3333 9.99996C18.3333 5.39759 14.6023 1.66663 9.99993 1.66663C5.39756 1.66663 1.6666 5.39759 1.6666 9.99996C1.6666 14.6023 5.39756 18.3333 9.99993 18.3333ZM9.99993 17.0833C13.9119 17.0833 17.0833 13.912 17.0833 9.99996C17.0833 6.08794 13.9119 2.91663 9.99993 2.91663C6.08791 2.91663 2.9166 6.08794 2.9166 9.99996C2.9166 13.912 6.08791 17.0833 9.99993 17.0833Z" fill="black"/>
</svg>
