<svg width="20" height="20" viewBox="0 0 20 20" fill="none" xmlns="http://www.w3.org/2000/svg">
<path d="M10 4.375C10.3452 4.375 10.625 4.65482 10.625 5V8.95833C10.625 9.18845 10.8115 9.375 11.0417 9.375H15C15.3452 9.375 15.625 9.65482 15.625 10C15.625 10.3452 15.3452 10.625 15 10.625H11.0417C10.8115 10.625 10.625 10.8115 10.625 11.0417V15C10.625 15.3452 10.3452 15.625 10 15.625C9.65482 15.625 9.375 15.3452 9.375 15V11.0417C9.375 10.8115 9.18845 10.625 8.95833 10.625H5C4.65482 10.625 4.375 10.3452 4.375 10C4.375 9.65482 4.65482 9.375 5 9.375H8.95833C9.18845 9.375 9.375 9.18845 9.375 8.95833V5C9.375 4.65482 9.65482 4.375 10 4.375Z" fill="black"/>
</svg>
