<svg width="20" height="20" viewBox="0 0 20 20" fill="none" xmlns="http://www.w3.org/2000/svg">
<path d="M10.8081 17.5253C10.564 17.2812 10.564 16.8855 10.8081 16.6414L13.4048 14.0446C13.5676 13.8819 13.5676 13.6181 13.4048 13.4554L10.8081 10.8586C10.564 10.6145 10.564 10.2188 10.8081 9.97473C11.0522 9.73065 11.4479 9.73065 11.692 9.97473L14.2887 12.5715C14.4514 12.7342 14.7153 12.7342 14.878 12.5715L17.4747 9.97473C17.7188 9.73065 18.1145 9.73065 18.3586 9.97473C18.6027 10.2188 18.6027 10.6145 18.3586 10.8586L15.7619 13.4554C15.5991 13.6181 15.5991 13.8819 15.7619 14.0446L18.3586 16.6414C18.6027 16.8855 18.6027 17.2812 18.3586 17.5253C18.1146 17.7694 17.7188 17.7694 17.4747 17.5253L14.878 14.9285C14.7153 14.7658 14.4514 14.7658 14.2887 14.9285L11.692 17.5253C11.4479 17.7694 11.0522 17.7694 10.8081 17.5253Z" fill="black"/>
<path fill-rule="evenodd" clip-rule="evenodd" d="M5.00002 2.5C3.15907 2.5 1.66669 3.99238 1.66669 5.83333V14.1667C1.66669 16.0076 3.15907 17.5 5.00002 17.5H5.83335C7.6743 17.5 9.16669 16.0076 9.16669 14.1667V5.83333C9.16669 3.99238 7.6743 2.5 5.83335 2.5H5.00002ZM5.83335 3.75H5.00002C3.84943 3.75 2.91669 4.68274 2.91669 5.83333V11.1132C2.91669 11.2988 3.14109 11.3917 3.27233 11.2605L7.89141 6.64139C7.90708 6.62573 7.91669 6.60481 7.91669 6.58265V5.83333C7.91669 4.68274 6.98395 3.75 5.83335 3.75ZM2.91669 13.4173C2.91669 13.3952 2.9263 13.3743 2.94196 13.3586L7.56104 8.73953C7.69228 8.60829 7.91669 8.70124 7.91669 8.88684V14.1667C7.91669 15.3173 6.98395 16.25 5.83335 16.25H5.00002C3.84943 16.25 2.91669 15.3173 2.91669 14.1667V13.4173Z" fill="black"/>
</svg>
