<svg width="20" height="20" viewBox="0 0 20 20" fill="none" xmlns="http://www.w3.org/2000/svg">
<path fill-rule="evenodd" clip-rule="evenodd" d="M10.0001 1.875C5.87728 1.875 2.47255 4.94513 1.94577 8.92414C1.83151 9.78718 2.19415 10.5858 2.73149 11.153L8.94141 17.7079C9.51662 18.3151 10.4836 18.3151 11.0588 17.7079L17.2687 11.153C17.806 10.5858 18.1687 9.78718 18.0544 8.92414C17.5276 4.94513 14.1229 1.875 10.0001 1.875ZM3.84915 9.29552C3.46332 9.17973 3.218 8.79605 3.31113 8.40413C4.0305 5.37693 6.75275 3.125 10.0001 3.125C13.2474 3.125 15.9697 5.37693 16.689 8.40412C16.7822 8.79604 16.5369 9.17973 16.151 9.29551C16.0041 9.3396 15.8768 9.37579 15.8258 9.38507C14.7247 9.58527 12.8882 9.79165 10.0001 9.79165C7.11198 9.79165 5.27547 9.58527 4.17437 9.38507C4.12334 9.37579 3.99606 9.3396 3.84915 9.29552ZM4.5705 10.7167C4.37126 10.6873 4.24159 10.9295 4.3801 11.0757L8.13786 15.0422C8.20137 15.1093 8.31057 15.0386 8.27541 14.9532L6.81628 11.4096C6.69588 11.1172 6.42026 10.9191 6.10519 10.8921C5.59215 10.8481 5.07984 10.792 4.5705 10.7167ZM11.7245 14.9534C11.6893 15.0388 11.7985 15.1095 11.8621 15.0425L15.6201 11.0757C15.7586 10.9295 15.6289 10.6872 15.4297 10.7167C14.9203 10.792 14.4079 10.8481 13.8948 10.8921C13.5798 10.9191 13.3042 11.1172 13.1837 11.4096L11.7245 14.9534ZM11.8352 11.4017C11.9114 11.2166 11.7707 11.0146 11.5706 11.0202C11.083 11.034 10.5602 11.0417 10.0001 11.0417C9.4399 11.0417 8.91705 11.034 8.4294 11.0202C8.22934 11.0146 8.08865 11.2166 8.16486 11.4017L9.74573 15.2409C9.83923 15.468 10.1608 15.468 10.2543 15.2409L11.8352 11.4017Z" fill="black"/>
</svg>
