<svg width="20" height="20" viewBox="0 0 20 20" fill="none" xmlns="http://www.w3.org/2000/svg">
<path fill-rule="evenodd" clip-rule="evenodd" d="M3.89535 15.2776C3.92401 15.1464 3.89026 15.0099 3.8069 14.9046C2.58269 13.3586 1.65918 10.335 3.70121 7.54033C7.03728 2.97459 15.6275 0.691735 17.0037 2.06147C18.3798 3.43121 17.0036 11.8155 11.4992 15.302C8.97961 16.8979 7.00128 16.9073 5.57682 16.2777C5.30679 16.1584 4.97806 16.3083 4.94683 16.6019C4.90873 16.9601 4.88902 17.3287 4.88902 17.7084C4.88902 18.0536 4.60919 18.3334 4.26402 18.3334C3.91884 18.3334 3.63902 18.0536 3.63902 17.7084C3.63902 16.8475 3.72908 16.0388 3.89535 15.2776ZM4.71049 8.27779C6.16788 6.28321 8.88142 4.68343 11.5051 3.75325C12.7998 3.29422 14.0018 3.02413 14.9236 2.94279C15.3869 2.90191 15.7382 2.91253 15.9761 2.95063C16.0662 2.96505 16.1381 3.03092 16.16 3.11941C16.163 3.13143 16.166 3.14405 16.169 3.1573C16.2233 3.39676 16.2578 3.74306 16.2485 4.19186C16.2299 5.08633 16.0403 6.25222 15.6405 7.50894C14.8344 10.0425 13.2513 12.7125 10.8303 14.246C9.25067 15.2466 8.02957 15.4803 7.13919 15.403C6.53009 15.3501 6.01186 15.1463 5.58051 14.8585C5.4364 14.7623 5.38215 14.5792 5.43993 14.4159C6.68944 10.884 9.88301 8.52668 13.1313 6.57771C13.4273 6.40012 13.5233 6.01621 13.3457 5.72022C13.1681 5.42423 12.7842 5.32826 12.4882 5.50585C9.57367 7.25455 6.40738 9.48993 4.76712 12.7993C4.61257 13.1111 4.17395 13.1322 4.05493 12.8052C3.59265 11.5349 3.55536 9.8587 4.71049 8.27779Z" fill="black"/>
</svg>
