<svg width="20" height="20" viewBox="0 0 20 20" fill="none" xmlns="http://www.w3.org/2000/svg">
<path d="M10 15.2083C10.3452 15.2083 10.625 15.4882 10.625 15.8333V17.5C10.625 17.8452 10.3452 18.125 10 18.125C9.65482 18.125 9.375 17.8452 9.375 17.5V15.8333C9.375 15.4882 9.65482 15.2083 10 15.2083Z" fill="black"/>
<path d="M1.875 10C1.875 9.65482 2.15482 9.375 2.5 9.375H4.16667C4.51184 9.375 4.79167 9.65482 4.79167 10C4.79167 10.3452 4.51184 10.625 4.16667 10.625H2.5C2.15482 10.625 1.875 10.3452 1.875 10Z" fill="black"/>
<path d="M15.2083 10C15.2083 9.65482 15.4882 9.375 15.8333 9.375H17.5C17.8452 9.375 18.125 9.65482 18.125 10C18.125 10.3452 17.8452 10.625 17.5 10.625H15.8333C15.4882 10.625 15.2083 10.3452 15.2083 10Z" fill="black"/>
<path d="M10.625 2.5C10.625 2.15482 10.3452 1.875 10 1.875C9.65482 1.875 9.375 2.15482 9.375 2.5V4.16667C9.375 4.51184 9.65482 4.79167 10 4.79167C10.3452 4.79167 10.625 4.51184 10.625 4.16667V2.5Z" fill="black"/>
<path d="M5.1388 4.25471C4.89472 4.01064 4.49899 4.01064 4.25492 4.25471C4.01084 4.49879 4.01084 4.89452 4.25492 5.1386L5.43343 6.31711C5.67751 6.56119 6.07323 6.56119 6.31731 6.31711C6.56139 6.07303 6.56139 5.6773 6.31731 5.43322L5.1388 4.25471Z" fill="black"/>
<path d="M13.6828 13.6828C13.9269 13.4387 14.3226 13.4387 14.5667 13.6828L15.7452 14.8613C15.9893 15.1054 15.9893 15.5011 15.7452 15.7452C15.5011 15.9893 15.1054 15.9893 14.8613 15.7452L13.6828 14.5667C13.4387 14.3226 13.4387 13.9269 13.6828 13.6828Z" fill="black"/>
<path d="M15.7451 5.1386C15.9892 4.89452 15.9892 4.49879 15.7451 4.25471C15.501 4.01064 15.1053 4.01064 14.8612 4.25471L13.6827 5.43322C13.4386 5.6773 13.4386 6.07303 13.6827 6.31711C13.9268 6.56119 14.3225 6.56119 14.5666 6.31711L15.7451 5.1386Z" fill="black"/>
<path d="M6.31719 13.6828C6.56126 13.9269 6.56126 14.3226 6.31719 14.5667L5.13867 15.7452C4.8946 15.9893 4.49887 15.9893 4.25479 15.7452C4.01071 15.5011 4.01071 15.1054 4.25479 14.8613L5.4333 13.6828C5.67738 13.4387 6.07311 13.4387 6.31719 13.6828Z" fill="black"/>
<path fill-rule="evenodd" clip-rule="evenodd" d="M10 6.875C8.27411 6.875 6.875 8.27411 6.875 10C6.875 11.7259 8.27411 13.125 10 13.125C11.7259 13.125 13.125 11.7259 13.125 10C13.125 8.27411 11.7259 6.875 10 6.875ZM8.125 10C8.125 8.96447 8.96447 8.125 10 8.125C11.0355 8.125 11.875 8.96447 11.875 10C11.875 11.0355 11.0355 11.875 10 11.875C8.96447 11.875 8.125 11.0355 8.125 10Z" fill="black"/>
</svg>
