<svg width="20" height="20" viewBox="0 0 20 20" fill="none" xmlns="http://www.w3.org/2000/svg">
<path fill-rule="evenodd" clip-rule="evenodd" d="M14.1667 6.66667C14.1667 8.96785 12.3012 10.8333 9.99999 10.8333C7.69881 10.8333 5.83333 8.96785 5.83333 6.66667C5.83333 4.36548 7.69881 2.5 9.99999 2.5C12.3012 2.5 14.1667 4.36548 14.1667 6.66667ZM12.9167 6.66667C12.9167 8.2775 11.6108 9.58333 9.99999 9.58333C8.38916 9.58333 7.08333 8.2775 7.08333 6.66667C7.08333 5.05584 8.38916 3.75 9.99999 3.75C11.6108 3.75 12.9167 5.05584 12.9167 6.66667Z" fill="black"/>
<path d="M10.0915 14.5839C10.4407 14.5883 10.7498 14.3346 10.7788 13.9866C10.8071 13.6468 10.5574 13.3448 10.2166 13.3361C10.1445 13.3343 10.0723 13.3333 9.99987 13.3333C7.4661 13.3333 5.19645 14.4641 3.66806 16.2486C3.46817 16.482 3.49432 16.8278 3.7116 17.045C3.98143 17.3149 4.42811 17.276 4.6802 16.9895C5.97829 15.5142 7.88037 14.5833 9.99987 14.5833C10.0305 14.5833 10.061 14.5835 10.0915 14.5839Z" fill="black"/>
<path d="M17.5 13.3333V12.5C17.5 12.0398 17.1269 11.6667 16.6667 11.6667H14.1667C13.7064 11.6667 13.3333 12.0398 13.3333 12.5V13.3333C13.3333 13.7936 13.7064 14.1667 14.1667 14.1667H14.375C14.6051 14.1667 14.7917 14.3532 14.7917 14.5833V17.5C14.7917 17.8452 15.0715 18.125 15.4167 18.125C15.7618 18.125 16.0417 17.8452 16.0417 17.5V14.5833C16.0417 14.3532 16.2282 14.1667 16.4583 14.1667H16.6667C17.1269 14.1667 17.5 13.7936 17.5 13.3333Z" fill="black"/>
</svg>
