<svg width="20" height="20" viewBox="0 0 20 20" fill="none" xmlns="http://www.w3.org/2000/svg">
<path d="M9.99963 3.33658C9.64991 3.33658 9.36641 3.62008 9.36641 3.96979V16.0302C9.36641 16.3799 9.64991 16.6634 9.99963 16.6634C10.3493 16.6634 10.6328 16.3799 10.6328 16.0302V3.96979C10.6328 3.62008 10.3493 3.33658 9.99963 3.33658Z" fill="black"/>
<path d="M4.23315 6.21843C4.23315 5.86871 4.51665 5.58522 4.86637 5.58522C5.21608 5.58522 5.49958 5.86871 5.49958 6.21843V13.7816C5.49958 14.1313 5.21608 14.4148 4.86637 14.4148C4.51665 14.4148 4.23315 14.1313 4.23315 13.7816V6.21843Z" fill="black"/>
<path d="M6.79989 8.04806C6.79989 7.69834 7.08338 7.41485 7.4331 7.41485C7.78281 7.41485 8.06631 7.69834 8.06631 8.04806V11.952C8.06631 12.3017 7.78281 12.5852 7.4331 12.5852C7.08338 12.5852 6.79989 12.3017 6.79989 11.952V8.04806Z" fill="black"/>
<path d="M1.66663 9.18972C1.66663 8.84001 1.95012 8.55651 2.29984 8.55651C2.64955 8.55651 2.93305 8.84001 2.93305 9.18972V10.8103C2.93305 11.16 2.64955 11.4435 2.29984 11.4435C1.95012 11.4435 1.66663 11.16 1.66663 10.8103V9.18972Z" fill="black"/>
<path d="M12.5664 7.41485C12.2166 7.41485 11.9331 7.69834 11.9331 8.04806V11.9519C11.9331 12.3016 12.2166 12.5851 12.5664 12.5851C12.9161 12.5851 13.1996 12.3016 13.1996 11.9519V8.04806C13.1996 7.69834 12.9161 7.41485 12.5664 7.41485Z" fill="black"/>
<path d="M15.1329 5.58522C14.7832 5.58522 14.4997 5.86871 14.4997 6.21843V13.7816C14.4997 14.1313 14.7832 14.4148 15.1329 14.4148C15.4826 14.4148 15.7661 14.1313 15.7661 13.7816V6.21843C15.7661 5.86871 15.4826 5.58522 15.1329 5.58522Z" fill="black"/>
<path d="M17.0664 9.18972C17.0664 8.84001 17.3499 8.55651 17.6996 8.55651C18.0493 8.55651 18.3328 8.84001 18.3328 9.18972V10.8103C18.3328 11.16 18.0493 11.4435 17.6996 11.4435C17.3499 11.4435 17.0664 11.16 17.0664 10.8103V9.18972Z" fill="black"/>
</svg>
