<svg width="48" height="48" viewBox="0 0 48 48" fill="none" xmlns="http://www.w3.org/2000/svg">
<mask id="mask0_212_9760" style="mask-type:alpha" maskUnits="userSpaceOnUse" x="0" y="0" width="48" height="48">
<path fill-rule="evenodd" clip-rule="evenodd" d="M44.4725 36.5315C46.71 32.884 48 28.5927 48 24C48 10.7452 37.2548 0 24 0C10.7452 0 0 10.7452 0 24C0 37.2548 10.7452 48 24 48C28.5927 48 32.884 46.71 36.5315 44.4725C36.1901 43.7186 36 42.8815 36 42C36 38.6863 38.6863 36 42 36C42.8815 36 43.7186 36.1901 44.4725 36.5315Z" fill="#C4C4C4"/>
</mask>
<g mask="url(#mask0_212_9760)">
<circle cx="24" cy="24" r="24" fill="#448EA2"/>
<path d="M16.3931 29H14.2837L18.1242 18.0909H20.5639L24.4097 29H22.3004L19.3867 20.3281H19.3014L16.3931 29ZM16.4623 24.7227H22.2151V26.31H16.4623V24.7227ZM23.8526 18.0909H26.0845L28.7532 22.9169H28.8597L31.5284 18.0909H33.7603L29.7919 24.9304V29H27.821V24.9304L23.8526 18.0909Z" fill="white" fill-opacity="0.7"/>
</g>
<circle cx="42" cy="42" r="4" fill="#26A69A"/>
</svg>
