<svg width="32" height="32" viewBox="0 0 32 32" fill="none" xmlns="http://www.w3.org/2000/svg">
<mask id="mask0_1145_48558" style="mask-type:alpha" maskUnits="userSpaceOnUse" x="0" y="0" width="32" height="32">
<path fill-rule="evenodd" clip-rule="evenodd" d="M30.5866 22.5846C31.4946 20.5764 32 18.3472 32 16C32 7.16344 24.8366 0 16 0C7.16344 0 0 7.16344 0 16C0 24.8366 7.16344 32 16 32C18.3472 32 20.5764 31.4946 22.5846 30.5866C22.2099 29.8034 22 28.9262 22 28C22 24.6863 24.6863 22 28 22C28.9262 22 29.8034 22.2099 30.5866 22.5846Z" fill="#C4C4C4"/>
</mask>
<g mask="url(#mask0_1145_48558)">
<circle cx="16" cy="16" r="16" fill="#448EA2"/>
<path d="M9.36831 21H7.54019L10.8687 11.5455H12.983L16.3161 21H14.488L11.9628 13.4844H11.8889L9.36831 21ZM9.42832 17.293H14.4141V18.6687H9.42832V17.293ZM15.9113 11.5455H17.8456L20.1584 15.728H20.2507L22.5636 11.5455H24.4979L21.0586 17.473V21H19.3505V17.473L15.9113 11.5455Z" fill="white" fill-opacity="0.7"/>
</g>
</svg>
