<svg width="20" height="20" viewBox="0 0 20 20" fill="none" xmlns="http://www.w3.org/2000/svg">
<path d="M13.7753 12.942C13.5312 13.186 13.1355 13.186 12.8914 12.942L11.128 11.1785C10.9652 11.0158 10.7014 11.0158 10.5387 11.1785L8.77527 12.942C8.5312 13.186 8.13547 13.186 7.89139 12.942C7.64731 12.6979 7.64731 12.3022 7.89139 12.0581L9.65482 10.2946C9.81754 10.1319 9.81754 9.86811 9.65482 9.70539L7.89139 7.94196C7.64731 7.69788 7.64731 7.30216 7.89139 7.05808C8.13547 6.814 8.5312 6.814 8.77527 7.05808L10.5387 8.82151C10.7014 8.98423 10.9652 8.98423 11.128 8.82151L12.8914 7.05808C13.1355 6.814 13.5312 6.814 13.7753 7.05808C14.0194 7.30216 14.0194 7.69789 13.7753 7.94196L12.0118 9.70539C11.8491 9.86811 11.8491 10.1319 12.0118 10.2946L13.7753 12.0581C14.0194 12.3022 14.0194 12.6979 13.7753 12.942Z" fill="black"/>
<path fill-rule="evenodd" clip-rule="evenodd" d="M5.66592 5.46765C6.29691 4.64737 7.27311 4.16669 8.308 4.16669H14.1667C15.5474 4.16669 16.6667 5.28598 16.6667 6.66669V13.3334C16.6667 14.7141 15.5474 15.8334 14.1667 15.8334H8.30801C7.27311 15.8334 6.29691 15.3527 5.66593 14.5324L2.67281 10.6413C2.56076 10.4957 2.5 10.317 2.5 10.1333V9.86679C2.5 9.683 2.56076 9.50437 2.67281 9.3587L5.66592 5.46765ZM8.308 5.41669H14.1667C14.857 5.41669 15.4167 5.97633 15.4167 6.66669V13.3334C15.4167 14.0237 14.857 14.5834 14.1667 14.5834H8.30801C7.66119 14.5834 7.05107 14.2829 6.6567 13.7703L3.95195 10.2541C3.83674 10.1043 3.83674 9.89575 3.95195 9.74598L6.6567 6.22979C7.05107 5.71711 7.66119 5.41669 8.308 5.41669Z" fill="black"/>
</svg>
