<svg width="20" height="20" viewBox="0 0 20 20" fill="none" xmlns="http://www.w3.org/2000/svg">
<path d="M4.99924 15.9969C4.99924 16.3651 5.30939 16.6636 5.69198 16.6636H10.5381C13.4499 16.6636 15.0008 15.1018 15.0008 12.9804C15.0008 11.0416 13.6726 9.8578 12.2261 9.75073C12.1847 9.74767 12.1522 9.71491 12.1522 9.67503C12.1522 9.64044 12.177 9.6104 12.2118 9.60176C13.5297 9.27451 14.4944 8.29789 14.4944 6.75281C14.4944 4.75504 13.0511 3.33643 10.1899 3.33643H5.69198C5.30939 3.33643 4.99924 3.6349 4.99924 4.00309V15.9969ZM8.4329 14.3599C8.05031 14.3599 7.74017 14.0615 7.74017 13.6933V11.4866C7.74017 11.1184 8.05031 10.8199 8.4329 10.8199H10.038C11.3546 10.8199 12.1712 11.6008 12.1712 12.7006C12.1712 13.7027 11.5066 14.3599 9.97468 14.3599H8.4329ZM8.4329 8.91326C8.05031 8.91326 7.74017 8.61478 7.74017 8.24659V6.28068C7.74017 5.91249 8.05031 5.61401 8.4329 5.61401H9.82276C11.0381 5.61401 11.7281 6.25824 11.7281 7.22134C11.7281 8.27554 10.8925 8.91326 9.77212 8.91326H8.4329Z" fill="black"/>
</svg>
