<svg width="20" height="20" viewBox="0 0 20 20" fill="none" xmlns="http://www.w3.org/2000/svg">
<g clip-path="url(#clip0_249_231)">
<path fill-rule="evenodd" clip-rule="evenodd" d="M8 5.25C8.41421 5.25 8.75 5.58579 8.75 6V7.89753L8.75745 7.92204C8.78037 7.9963 8.81749 8.10714 8.87153 8.24224C8.98047 8.51459 9.15348 8.87375 9.40882 9.22839C9.91214 9.92744 10.7083 10.5833 12.0002 10.5833C13.2921 10.5833 14.0882 9.92744 14.5915 9.22839C14.8469 8.87375 15.0199 8.51459 15.1288 8.24224C15.1829 8.10714 15.22 7.9963 15.2429 7.92204L15.25 7.89868V6C15.25 5.58579 15.5858 5.25 16 5.25C16.4142 5.25 16.75 5.58579 16.75 6V7.95742L16.7508 7.9644C16.7546 7.99496 16.7608 8.04217 16.77 8.10364C16.7885 8.22677 16.8189 8.40603 16.8658 8.62249C16.9603 9.05865 17.1183 9.6298 17.3714 10.1923C17.8895 11.3434 18.6949 12.2501 20 12.2501C20.4142 12.2501 20.75 12.5858 20.75 13.0001C20.75 13.4143 20.4142 13.7501 20 13.7501C18.4857 13.7501 17.4475 12.9916 16.75 12.0784V14.5H20C20.4142 14.5 20.75 14.8358 20.75 15.25C20.75 15.6642 20.4142 16 20 16H16.75V18C16.75 18.4142 16.4142 18.75 16 18.75C15.5858 18.75 15.25 18.4142 15.25 18V16H8.75V18C8.75 18.4142 8.41421 18.75 8 18.75C7.58579 18.75 7.25 18.4142 7.25 18V16H4C3.58579 16 3.25 15.6642 3.25 15.25C3.25 14.8358 3.58579 14.5 4 14.5H7.25V12.0784C6.55246 12.9916 5.51432 13.7501 4.00002 13.7501C3.58581 13.7501 3.25002 13.4143 3.25002 13.0001C3.25002 12.5858 3.58581 12.2501 4.00002 12.2501C5.3051 12.2501 6.11055 11.3434 6.62857 10.1923C6.88168 9.6298 7.0397 9.05865 7.1342 8.62249C7.1811 8.40603 7.21151 8.22677 7.22998 8.10364C7.2392 8.04217 7.24541 7.99496 7.24918 7.9644L7.25 7.95742V6C7.25 5.58579 7.58579 5.25 8 5.25ZM8.75 10.7615V14.5H15.25V10.7618C14.5257 11.4813 13.4727 12.0833 12.0002 12.0833C10.5275 12.0833 9.47427 11.4811 8.75 10.7615Z" fill="black"/>
</g>
<defs>
<clipPath id="clip0_249_231">
<rect width="20" height="20" fill="white"/>
</clipPath>
</defs>
</svg>
