<svg width="20" height="20" viewBox="0 0 20 20" fill="none" xmlns="http://www.w3.org/2000/svg">
<path fill-rule="evenodd" clip-rule="evenodd" d="M15 10C15 12.3012 13.1345 14.1667 10.8333 14.1667C8.53214 14.1667 6.66666 12.3012 6.66666 10C6.66666 7.69881 8.53214 5.83333 10.8333 5.83333C13.1345 5.83333 15 7.69881 15 10ZM13.75 10C13.75 11.6108 12.4442 12.9167 10.8333 12.9167C9.22249 12.9167 7.91666 11.6108 7.91666 10C7.91666 8.38917 9.22249 7.08333 10.8333 7.08333C12.4442 7.08333 13.75 8.38917 13.75 10Z" fill="black"/>
<path fill-rule="evenodd" clip-rule="evenodd" d="M1.66666 5.83333C1.66666 3.99238 3.15904 2.5 4.99999 2.5H15C16.8409 2.5 18.3333 3.99238 18.3333 5.83333V14.1667C18.3333 16.0076 16.8409 17.5 15 17.5H4.99999C3.15904 17.5 1.66666 16.0076 1.66666 14.1667V5.83333ZM4.99999 3.75H15C16.1506 3.75 17.0833 4.68274 17.0833 5.83333V14.1667C17.0833 15.3173 16.1506 16.25 15 16.25H4.99999C3.8494 16.25 2.91666 15.3173 2.91666 14.1667V5.83333C2.91666 4.68274 3.8494 3.75 4.99999 3.75Z" fill="black"/>
</svg>
