<svg width="20" height="20" viewBox="0 0 20 20" fill="none" xmlns="http://www.w3.org/2000/svg">
<path fill-rule="evenodd" clip-rule="evenodd" d="M9.99999 18.3333C5.39762 18.3333 1.66666 14.6024 1.66666 9.99999C1.66666 5.39762 5.39762 1.66666 9.99999 1.66666C14.6024 1.66666 18.3333 5.39762 18.3333 9.99999C18.3333 14.6024 14.6024 18.3333 9.99999 18.3333ZM4.8905 14.2256C4.71758 14.3985 4.43266 14.3866 4.28788 14.1895C3.42586 13.0162 2.91666 11.5676 2.91666 9.99999C2.91666 6.08797 6.08797 2.91666 9.99999 2.91666C11.5676 2.91666 13.0162 3.42586 14.1895 4.28788C14.3866 4.43266 14.3985 4.71759 14.2256 4.8905L4.8905 14.2256ZM5.77439 15.1095C5.60147 15.2824 5.6134 15.5673 5.81047 15.7121C6.98379 16.5741 8.43243 17.0833 9.99999 17.0833C13.912 17.0833 17.0833 13.912 17.0833 9.99999C17.0833 8.43243 16.5741 6.98379 15.7121 5.81047C15.5673 5.6134 15.2824 5.60147 15.1095 5.77439L5.77439 15.1095Z" fill="black"/>
</svg>
