<svg width="20" height="20" viewBox="0 0 20 20" fill="none" xmlns="http://www.w3.org/2000/svg">
<path fill-rule="evenodd" clip-rule="evenodd" d="M8.9486 4.27654C9.00928 3.93674 8.783 3.61208 8.4432 3.5514C8.1034 3.49072 7.77875 3.717 7.71807 4.0568L7.27614 6.53158C7.24065 6.7303 7.06783 6.875 6.86596 6.875H4.58333C4.23816 6.875 3.95833 7.15483 3.95833 7.5C3.95833 7.84518 4.23816 8.125 4.58333 8.125H6.49394C6.75337 8.125 6.94972 8.35953 6.90412 8.61492L6.38328 11.5316C6.3478 11.7303 6.17497 11.875 5.97311 11.875H3.75C3.40482 11.875 3.125 12.1548 3.125 12.5C3.125 12.8452 3.40482 13.125 3.75 13.125H5.60108C5.86051 13.125 6.05686 13.3595 6.01126 13.6149L5.63473 15.7235C5.57405 16.0633 5.80033 16.3879 6.14013 16.4486C6.47993 16.5093 6.80459 16.283 6.86527 15.9432L7.30719 13.4684C7.34268 13.2697 7.51551 13.125 7.71737 13.125H11.0177C11.2772 13.125 11.4735 13.3595 11.4279 13.6149L11.0514 15.7235C10.9907 16.0633 11.217 16.3879 11.5568 16.4486C11.8966 16.5093 12.2213 16.283 12.2819 15.9432L12.7239 13.4684C12.7593 13.2697 12.9322 13.125 13.134 13.125H15.4167C15.7618 13.125 16.0417 12.8452 16.0417 12.5C16.0417 12.1548 15.7618 11.875 15.4167 11.875H13.5061C13.2466 11.875 13.0503 11.6405 13.0959 11.3851L13.6167 8.46843C13.6522 8.26971 13.825 8.125 14.0269 8.125H16.25C16.5952 8.125 16.875 7.84518 16.875 7.5C16.875 7.15483 16.5952 6.875 16.25 6.875H14.3989C14.1395 6.875 13.9431 6.64048 13.9887 6.38509L14.3653 4.27654C14.4259 3.93674 14.1997 3.61208 13.8599 3.5514C13.5201 3.49072 13.1954 3.717 13.1347 4.0568L12.6928 6.53158C12.6573 6.7303 12.4845 6.875 12.2826 6.875H8.98225C8.72282 6.875 8.52647 6.64048 8.57207 6.38509L8.9486 4.27654ZM12.3208 8.61492C12.3664 8.35953 12.17 8.125 11.9106 8.125H8.61023C8.40836 8.125 8.23554 8.26971 8.20005 8.46843L7.67922 11.3851C7.63361 11.6405 7.82997 11.875 8.08939 11.875H11.3898C11.5916 11.875 11.7645 11.7303 11.8 11.5316L12.3208 8.61492Z" fill="black"/>
</svg>
