<svg width="20" height="20" viewBox="0 0 20 20" fill="none" xmlns="http://www.w3.org/2000/svg">
<path d="M13.8534 7.01334C14.0449 6.72614 13.9672 6.3381 13.68 6.14663C13.3928 5.95516 13.0048 6.03276 12.8133 6.31997L8.23621 13.1856L6.2753 11.2247C6.03122 10.9806 5.63549 10.9806 5.39141 11.2247C5.14734 11.4688 5.14734 11.8645 5.39141 12.1086L7.89141 14.6086C8.02382 14.741 8.20861 14.8071 8.39494 14.7886C8.58127 14.7702 8.74952 14.6691 8.85339 14.5133L13.8534 7.01334Z" fill="black"/>
<path fill-rule="evenodd" clip-rule="evenodd" d="M10 18.3333C5.39765 18.3333 1.66669 14.6024 1.66669 9.99999C1.66669 5.39762 5.39765 1.66666 10 1.66666C14.6024 1.66666 18.3334 5.39762 18.3334 9.99999C18.3334 14.6024 14.6024 18.3333 10 18.3333ZM10 17.0833C6.088 17.0833 2.91669 13.912 2.91669 9.99999C2.91669 6.08797 6.088 2.91666 10 2.91666C13.912 2.91666 17.0834 6.08797 17.0834 9.99999C17.0834 13.912 13.912 17.0833 10 17.0833Z" fill="black"/>
</svg>
