<svg width="20" height="20" viewBox="0 0 20 20" fill="none" xmlns="http://www.w3.org/2000/svg">
<path d="M10.4808 3.05517C10.5411 2.69362 10.8845 2.44911 11.2479 2.50903C11.6114 2.56896 11.8572 2.91063 11.7969 3.27218L9.5188 16.9452C9.45856 17.3067 9.11511 17.5512 8.75168 17.4913C8.38825 17.4314 8.14247 17.0897 8.2027 16.7282L10.4808 3.05517Z" fill="black"/>
<path d="M6.27273 6.03657C6.51734 6.27991 6.51734 6.67444 6.27273 6.91778L3.64798 9.52893C3.38707 9.78849 3.38707 10.2093 3.64798 10.4689L6.27273 13.08C6.51734 13.3234 6.51734 13.7179 6.27273 13.9612C6.02812 14.2046 5.63154 14.2046 5.38693 13.9612L1.84686 10.4395C1.60225 10.1962 1.60225 9.80164 1.84686 9.5583L5.38693 6.03657C5.63154 5.79323 6.02812 5.79323 6.27273 6.03657Z" fill="black"/>
<path d="M13.7272 6.91778C13.4826 6.67444 13.4826 6.27991 13.7272 6.03657C13.9718 5.79323 14.3683 5.79323 14.613 6.03657L18.153 9.5583C18.3976 9.80164 18.3976 10.1962 18.153 10.4395L14.613 13.9612C14.3683 14.2046 13.9718 14.2046 13.7272 13.9612C13.4826 13.7179 13.4826 13.3234 13.7272 13.08L16.3519 10.4689C16.6128 10.2093 16.6128 9.78849 16.3519 9.52893L13.7272 6.91778Z" fill="black"/>
</svg>
