<svg width="20" height="20" viewBox="0 0 20 20" fill="none" xmlns="http://www.w3.org/2000/svg">
<path fill-rule="evenodd" clip-rule="evenodd" d="M14.1667 6.66667C14.1667 8.96785 12.3012 10.8333 10 10.8333C7.69881 10.8333 5.83333 8.96785 5.83333 6.66667C5.83333 4.36548 7.69881 2.5 10 2.5C12.3012 2.5 14.1667 4.36548 14.1667 6.66667ZM12.9167 6.66667C12.9167 8.2775 11.6108 9.58333 10 9.58333C8.38917 9.58333 7.08333 8.2775 7.08333 6.66667C7.08333 5.05584 8.38917 3.75 10 3.75C11.6108 3.75 12.9167 5.05584 12.9167 6.66667Z" fill="black"/>
<path d="M15.3196 16.9895C15.5716 17.276 16.0183 17.3149 16.2882 17.0451C16.5054 16.8278 16.5316 16.482 16.3317 16.2487C14.8033 14.4642 12.5337 13.3333 9.99987 13.3333C7.4661 13.3333 5.19645 14.4641 3.66806 16.2486C3.46818 16.482 3.49433 16.8278 3.7116 17.045C3.98144 17.3149 4.42812 17.276 4.6802 16.9895C5.97829 15.5142 7.88037 14.5833 9.99987 14.5833C12.1194 14.5833 14.0215 15.5142 15.3196 16.9895Z" fill="black"/>
</svg>
