<svg width="20" height="20" viewBox="0 0 20 20" fill="none" xmlns="http://www.w3.org/2000/svg">
<path d="M9.16667 3.75H6.41026C5.81896 3.75 5.69158 3.75516 5.60801 3.77048C5.09717 3.86409 4.69742 4.26383 4.60381 4.77468C4.58849 4.85825 4.58333 4.98563 4.58333 5.57692V6.875C4.58333 7.22018 4.30351 7.5 3.95833 7.5C3.61316 7.5 3.33333 7.22018 3.33333 6.875V5.57692C3.33333 5.04086 3.33333 4.77282 3.37428 4.54936C3.56152 3.52767 4.361 2.72818 5.3827 2.54095C5.60615 2.5 5.87419 2.5 6.41026 2.5H9.16667C13.3088 2.5 16.6667 5.85786 16.6667 10C16.6667 14.1421 13.3088 17.5 9.16667 17.5H6.41026C5.87419 17.5 5.60615 17.5 5.3827 17.459C4.361 17.2718 3.56152 16.4723 3.37428 15.4506C3.33333 15.2272 3.33333 14.9591 3.33333 14.4231V13.125C3.33333 12.7798 3.61316 12.5 3.95833 12.5C4.30351 12.5 4.58333 12.7798 4.58333 13.125V14.4231C4.58333 15.0144 4.58849 15.1418 4.60381 15.2253C4.69742 15.7362 5.09717 16.1359 5.60801 16.2295C5.69158 16.2448 5.81896 16.25 6.41026 16.25H9.16667C12.6184 16.25 15.4167 13.4518 15.4167 10C15.4167 6.54822 12.6184 3.75 9.16667 3.75Z" fill="black"/>
<path d="M2.5 9.375C2.15482 9.375 1.875 9.65482 1.875 10C1.875 10.3452 2.15482 10.625 2.5 10.625H9.16667C9.51184 10.625 9.79167 10.3452 9.79167 10C9.79167 9.65482 9.51184 9.375 9.16667 9.375H2.5Z" fill="black"/>
</svg>
