<svg width="20" height="20" viewBox="0 0 20 20" fill="none" xmlns="http://www.w3.org/2000/svg">
<path fill-rule="evenodd" clip-rule="evenodd" d="M7.82738 1.875C6.84116 1.875 6.04167 2.67449 6.04167 3.66071C6.04167 4.17026 5.6286 4.58333 5.11905 4.58333H2.5C2.15482 4.58333 1.875 4.86316 1.875 5.20833C1.875 5.55351 2.15482 5.83333 2.5 5.83333H3.11564C3.32636 5.83333 3.50392 5.99067 3.52928 6.19986L4.64458 15.4011C4.84744 17.0747 6.26787 18.3333 7.95369 18.3333H12.0463C13.7321 18.3333 15.1526 17.0747 15.3554 15.4011L16.4707 6.19986C16.4961 5.99067 16.6736 5.83333 16.8844 5.83333H17.5C17.8452 5.83333 18.125 5.55351 18.125 5.20833C18.125 4.86316 17.8452 4.58333 17.5 4.58333H14.881C14.3714 4.58333 13.9583 4.17026 13.9583 3.66072C13.9583 2.67449 13.1588 1.875 12.1726 1.875L7.82738 1.875ZM12.2573 4.58333C12.5626 4.58333 12.7695 4.25906 12.7283 3.95655C12.7151 3.85982 12.7083 3.76106 12.7083 3.66072C12.7083 3.36485 12.4685 3.125 12.1726 3.125L7.82738 3.125C7.53151 3.125 7.29167 3.36485 7.29167 3.66072C7.29167 3.76106 7.28486 3.85982 7.27169 3.95655C7.23051 4.25906 7.43738 4.58333 7.74267 4.58333L12.2573 4.58333ZM14.881 5.83333C15.0804 5.83333 15.2349 6.00771 15.2109 6.20566L14.1145 15.2507C13.9877 16.2967 13.0999 17.0833 12.0463 17.0833H7.95369C6.90005 17.0833 6.01228 16.2967 5.8855 15.2507L4.78913 6.20566C4.76513 6.00771 4.91965 5.83333 5.11905 5.83333L14.881 5.83333Z" fill="black"/>
</svg>
