<svg width="20" height="20" viewBox="0 0 20 20" fill="none" xmlns="http://www.w3.org/2000/svg">
<path fill-rule="evenodd" clip-rule="evenodd" d="M19.0533 3.68497C19.3405 3.87644 19.4181 4.26449 19.2267 4.55169L10.9983 16.1851C10.8944 16.3409 10.7262 16.4419 10.5399 16.4604C10.3535 16.4788 10.1687 16.4128 10.0363 16.2804L5.03633 11.2804C4.79225 11.0363 4.79225 10.6406 5.03633 10.3965C5.2804 10.1524 5.67613 10.1524 5.92021 10.3965L10.3811 14.8574L18.1866 3.85832C18.3781 3.57111 18.7661 3.4935 19.0533 3.68497Z" fill="black"/>
<path fill-rule="evenodd" clip-rule="evenodd" d="M14.8796 3.65302C15.1605 3.85365 15.2255 4.24399 15.0249 4.52488L10.0437 11.4988C9.84303 11.7797 9.45269 11.8448 9.1718 11.6441C8.89092 11.4435 8.82585 11.0532 9.02648 10.7723L14.0077 3.79834C14.2084 3.51746 14.5987 3.45239 14.8796 3.65302Z" fill="black"/>
<path fill-rule="evenodd" clip-rule="evenodd" d="M0.849419 10.3998C1.0925 10.1547 1.48823 10.1531 1.7333 10.3962L6.74797 15.3703C6.99304 15.6134 6.99464 16.0091 6.75156 16.2542C6.50848 16.4992 6.11275 16.5008 5.86768 16.2578L0.853009 11.2837C0.607942 11.0406 0.606334 10.6448 0.849419 10.3998Z" fill="black"/>
</svg>
