<svg width="20" height="20" viewBox="0 0 20 20" fill="none" xmlns="http://www.w3.org/2000/svg">
<path d="M13.3333 11.0417C13.3333 10.6965 13.6152 10.4221 13.9557 10.3652C15.7305 10.0688 17.0833 8.52569 17.0833 6.66666C17.0833 4.59559 15.4044 2.91666 13.3333 2.91666L6.66663 2.91666C4.59556 2.91666 2.91663 4.59559 2.91663 6.66666C2.91663 8.52569 4.26938 10.0688 6.04424 10.3652C6.3847 10.4221 6.66663 10.6965 6.66663 11.0417C6.66663 11.3868 6.3854 11.6708 6.04287 11.6281C3.57582 11.3211 1.66663 9.21685 1.66663 6.66666C1.66663 3.90523 3.9052 1.66666 6.66663 1.66666L13.3333 1.66666C16.0947 1.66666 18.3333 3.90523 18.3333 6.66666C18.3333 9.21685 16.4241 11.3211 13.9571 11.6281C13.6145 11.6708 13.3333 11.3868 13.3333 11.0417Z" fill="black"/>
<path d="M9.99996 6.04166C10.3451 6.04166 10.625 6.32148 10.625 6.66666V14.9852C10.625 15.3564 11.0738 15.5423 11.3363 15.2798L12.8914 13.7247C13.1354 13.4806 13.5312 13.4806 13.7752 13.7247C14.0193 13.9688 14.0193 14.3645 13.7752 14.6086L10.4419 17.9419C10.1978 18.186 9.8021 18.186 9.55802 17.9419L6.22468 14.6086C5.98061 14.3645 5.98061 13.9688 6.22468 13.7247C6.46876 13.4806 6.86449 13.4806 7.10857 13.7247L8.66367 15.2798C8.92615 15.5423 9.37496 15.3564 9.37496 14.9852V6.66666C9.37496 6.32148 9.65478 6.04166 9.99996 6.04166Z" fill="black"/>
</svg>
