<svg width="20" height="20" viewBox="0 0 20 20" fill="none" xmlns="http://www.w3.org/2000/svg">
<path d="M5.44194 11.2247C5.19786 10.9806 4.80214 10.9806 4.55806 11.2247C4.31398 11.4688 4.31398 11.8645 4.55806 12.1086L9.55806 17.1086C9.80214 17.3527 10.1979 17.3527 10.4419 17.1086L15.4419 12.1086C15.686 11.8645 15.686 11.4688 15.4419 11.2247C15.1979 10.9806 14.8021 10.9806 14.5581 11.2247L11.3363 14.4465C11.0738 14.709 10.625 14.523 10.625 14.1518L10.625 3.33331C10.625 2.98814 10.3452 2.70831 10 2.70831C9.65482 2.70831 9.375 2.98814 9.375 3.33331L9.375 14.1518C9.375 14.523 8.92619 14.709 8.66371 14.4465L5.44194 11.2247Z" fill="black"/>
</svg>
