<svg width="20" height="20" viewBox="0 0 20 20" fill="none" xmlns="http://www.w3.org/2000/svg">
<path fill-rule="evenodd" clip-rule="evenodd" d="M10 17.0833C13.912 17.0833 17.0834 13.912 17.0834 9.99999C17.0834 6.08797 13.912 2.91666 10 2.91666C6.088 2.91666 2.91669 6.08797 2.91669 9.99999C2.91669 13.912 6.088 17.0833 10 17.0833ZM10 18.3333C14.6024 18.3333 18.3334 14.6024 18.3334 9.99999C18.3334 5.39762 14.6024 1.66666 10 1.66666C5.39765 1.66666 1.66669 5.39762 1.66669 9.99999C1.66669 14.6024 5.39765 18.3333 10 18.3333Z" fill="black"/>
<path d="M7.97384 12.6455C7.69088 12.4478 7.29762 12.4423 7.05354 12.6864C6.80946 12.9305 6.80732 13.33 7.08092 13.5404C7.88915 14.1621 8.90131 14.5318 9.99982 14.5318C11.0983 14.5318 12.1105 14.1621 12.9187 13.5404C13.1923 13.33 13.1902 12.9305 12.9461 12.6864C12.702 12.4423 12.3088 12.4478 12.0258 12.6455C11.4517 13.0465 10.7532 13.2818 9.99982 13.2818C9.24639 13.2818 8.54792 13.0465 7.97384 12.6455Z" fill="black"/>
<path d="M14.1667 8.74999C14.1667 9.44035 13.607 9.99999 12.9167 9.99999C12.2263 9.99999 11.6667 9.44035 11.6667 8.74999C11.6667 8.05963 12.2263 7.49999 12.9167 7.49999C13.607 7.49999 14.1667 8.05963 14.1667 8.74999Z" fill="black"/>
<path d="M8.33335 8.74999C8.33335 9.44035 7.77371 9.99999 7.08335 9.99999C6.393 9.99999 5.83335 9.44035 5.83335 8.74999C5.83335 8.05963 6.393 7.49999 7.08335 7.49999C7.77371 7.49999 8.33335 8.05963 8.33335 8.74999Z" fill="black"/>
</svg>
