<svg width="20" height="20" viewBox="0 0 20 20" fill="none" xmlns="http://www.w3.org/2000/svg">
<path fill-rule="evenodd" clip-rule="evenodd" d="M9.99996 4.79166C9.99996 5.13683 10.2798 5.41666 10.625 5.41666L12.5382 5.41666C12.9095 5.41666 13.0954 5.86547 12.8329 6.12795L8.51635 10.4445C8.27227 10.6885 8.27227 11.0843 8.51635 11.3284C8.76043 11.5724 9.15616 11.5724 9.40023 11.3284L13.7168 7.01184C13.9792 6.74935 14.4281 6.93525 14.4281 7.30646V9.45336C14.428 9.79853 14.7079 10.0784 15.0531 10.0784C15.3982 10.0784 15.6781 9.79853 15.6781 9.45336L15.6781 4.79166C15.6781 4.44648 15.3982 4.16666 15.0531 4.16666H10.625C10.2798 4.16666 9.99996 4.44648 9.99996 4.79166ZM8.33329 5.62499C8.33329 5.97017 8.05347 6.24999 7.70829 6.24999H7.49996C6.34937 6.24999 5.41663 7.18273 5.41663 8.33332V12.5C5.41663 13.6506 6.34937 14.5833 7.49996 14.5833H11.6666C12.8172 14.5833 13.75 13.6506 13.75 12.5V12.2917C13.75 11.9465 14.0298 11.6667 14.375 11.6667C14.7201 11.6667 15 11.9465 15 12.2917V12.5C15 14.3409 13.5076 15.8333 11.6666 15.8333H7.49996C5.65901 15.8333 4.16663 14.3409 4.16663 12.5V8.33332C4.16663 6.49237 5.65901 4.99999 7.49996 4.99999H7.70829C8.05347 4.99999 8.33329 5.27981 8.33329 5.62499Z" fill="black"/>
</svg>
