<svg width="20" height="20" viewBox="0 0 20 20" fill="none" xmlns="http://www.w3.org/2000/svg">
<path d="M14.1666 8.74999C14.1666 9.44035 13.607 9.99999 12.9166 9.99999C12.2263 9.99999 11.6666 9.44035 11.6666 8.74999C11.6666 8.05963 12.2263 7.49999 12.9166 7.49999C13.607 7.49999 14.1666 8.05963 14.1666 8.74999Z" fill="black"/>
<path d="M7.08329 9.99999C7.77365 9.99999 8.33329 9.44035 8.33329 8.74999C8.33329 8.05963 7.77365 7.49999 7.08329 7.49999C6.39294 7.49999 5.83329 8.05963 5.83329 8.74999C5.83329 9.44035 6.39294 9.99999 7.08329 9.99999Z" fill="black"/>
<path d="M7.05348 14.3454C7.29756 14.5894 7.69082 14.584 7.97378 14.3863C8.54786 13.9852 9.24633 13.75 9.99976 13.75C10.7532 13.75 11.4517 13.9852 12.0257 14.3863C12.3087 14.584 12.702 14.5894 12.946 14.3454C13.1901 14.1013 13.1923 13.7018 12.9187 13.4913C12.1104 12.8696 11.0983 12.5 9.99976 12.5C8.90125 12.5 7.88909 12.8696 7.08086 13.4913C6.80726 13.7018 6.8094 14.1013 7.05348 14.3454Z" fill="black"/>
<path fill-rule="evenodd" clip-rule="evenodd" d="M9.99996 18.3333C14.6023 18.3333 18.3333 14.6024 18.3333 9.99999C18.3333 5.39762 14.6023 1.66666 9.99996 1.66666C5.39759 1.66666 1.66663 5.39762 1.66663 9.99999C1.66663 14.6024 5.39759 18.3333 9.99996 18.3333ZM9.99996 17.0833C13.912 17.0833 17.0833 13.912 17.0833 9.99999C17.0833 6.08797 13.912 2.91666 9.99996 2.91666C6.08794 2.91666 2.91663 6.08797 2.91663 9.99999C2.91663 13.912 6.08794 17.0833 9.99996 17.0833Z" fill="black"/>
</svg>
