<svg width="20" height="20" viewBox="0 0 20 20" fill="none" xmlns="http://www.w3.org/2000/svg">
<path fill-rule="evenodd" clip-rule="evenodd" d="M12.3144 6.97952L10.3847 2.34C10.2424 1.99779 9.75764 1.99779 9.61531 2.34L7.68562 6.97952L2.67687 7.38107C2.30743 7.41069 2.15763 7.87174 2.4391 8.11285L6.25524 11.3818L5.08935 16.2695C5.00335 16.63 5.39554 16.9149 5.71183 16.7217L10 14.1025L14.2882 16.7217C14.6045 16.9149 14.9967 16.63 14.9107 16.2695L13.7448 11.3818L17.561 8.11285C17.8424 7.87174 17.6926 7.41069 17.3232 7.38107L12.3144 6.97952ZM14.8457 8.79282C14.9865 8.67227 14.9116 8.44174 14.7268 8.42694L12.2145 8.22553C11.7473 8.18807 11.3403 7.89236 11.1603 7.45956L10.1924 5.13246C10.1212 4.96136 9.87884 4.96136 9.80767 5.13246L8.83977 7.45956C8.65976 7.89236 8.25275 8.18807 7.78551 8.22553L5.27322 8.42694C5.0885 8.44174 5.0136 8.67227 5.15433 8.79282L7.06844 10.4325C7.42442 10.7374 7.57989 11.2159 7.47113 11.6718L6.88634 14.1234C6.84334 14.3036 7.03944 14.4461 7.19758 14.3495L9.34846 13.0358C9.74848 12.7914 10.2516 12.7914 10.6516 13.0358L12.8025 14.3495C12.9606 14.4461 13.1567 14.3036 13.1137 14.1234L12.5289 11.6718C12.4202 11.2159 12.5756 10.7374 12.9316 10.4325L14.8457 8.79282Z" fill="black"/>
</svg>
