<svg width="20" height="20" viewBox="0 0 20 20" fill="none" xmlns="http://www.w3.org/2000/svg">
<path d="M8.33337 12.7083C7.9882 12.7083 7.70837 12.9881 7.70837 13.3333C7.70837 13.6785 7.9882 13.9583 8.33337 13.9583H11.6667C12.0119 13.9583 12.2917 13.6785 12.2917 13.3333C12.2917 12.9881 12.0119 12.7083 11.6667 12.7083H8.33337Z" fill="black"/>
<path d="M5.20837 9.99999C5.20837 9.65481 5.4882 9.37499 5.83337 9.37499H14.1667C14.5119 9.37499 14.7917 9.65481 14.7917 9.99999C14.7917 10.3452 14.5119 10.625 14.1667 10.625H5.83337C5.4882 10.625 5.20837 10.3452 5.20837 9.99999Z" fill="black"/>
<path d="M2.70837 6.66666C2.70837 6.32148 2.9882 6.04166 3.33337 6.04166H16.6667C17.0119 6.04166 17.2917 6.32148 17.2917 6.66666C17.2917 7.01183 17.0119 7.29166 16.6667 7.29166H3.33337C2.9882 7.29166 2.70837 7.01183 2.70837 6.66666Z" fill="black"/>
</svg>
