<svg width="20" height="20" viewBox="0 0 20 20" fill="none" xmlns="http://www.w3.org/2000/svg">
<path fill-rule="evenodd" clip-rule="evenodd" d="M10.5979 5.2736C10.6716 5.33914 10.7887 5.29663 10.8037 5.19911C10.8888 4.64318 10.9931 4.03526 11.1098 3.50499C11.2078 3.06025 11.3242 2.62337 11.4621 2.31635C11.5218 2.18335 11.6303 1.96736 11.8214 1.82253C11.9331 1.73788 12.1097 1.65054 12.3332 1.66835C12.5539 1.68593 12.7134 1.79761 12.8105 1.89467C13.207 2.29122 13.5123 2.96784 13.7024 3.44875C13.7567 3.58606 13.9133 3.65278 14.0508 3.59885C14.1107 3.57532 14.1723 3.55216 14.2349 3.52981C14.5295 3.42465 14.8812 3.32511 15.2226 3.30197C15.5459 3.28005 16.0017 3.31813 16.3401 3.65647C16.6784 3.99481 16.7165 4.4506 16.6946 4.77391C16.6714 5.11529 16.5719 5.46698 16.4667 5.76161C16.4444 5.82424 16.4212 5.88578 16.3977 5.94576C16.3437 6.08322 16.4105 6.23983 16.5478 6.29411C17.0287 6.4842 17.7053 6.78949 18.1018 7.18603C18.1966 7.28075 18.3056 7.43514 18.3269 7.64899C18.3487 7.86754 18.2687 8.04425 18.1856 8.15942C18.0445 8.35493 17.8307 8.46505 17.7026 8.52419C17.4057 8.66132 16.9834 8.77624 16.5541 8.87271C16.0851 8.9781 15.5502 9.07361 15.0422 9.15453C15.0157 9.15876 15.006 9.1919 15.026 9.20973C15.8499 9.94206 15.7517 11.2519 14.8161 11.8348C11.048 14.1825 2.75358 19.1705 1.79134 18.2084C0.815093 17.2322 5.86124 9.11469 8.11847 5.60572C8.6663 4.7541 9.84109 4.60085 10.5979 5.2736ZM12.9055 5.00671C12.9801 5.26595 13.2776 5.38702 13.512 5.25354L13.7419 5.12265L13.7442 5.12134L13.7566 5.11446C13.7681 5.10809 13.786 5.09829 13.8095 5.08572C13.8566 5.06052 13.9258 5.0244 14.0111 4.98249C14.1832 4.89788 14.4133 4.79337 14.6551 4.70707C14.9033 4.61849 15.1312 4.56103 15.3072 4.54911C15.389 4.54356 15.453 4.60753 15.4474 4.68937C15.4355 4.86535 15.378 5.09323 15.2894 5.34143C15.2032 5.5832 15.0986 5.81332 15.014 5.98545C14.9721 6.07072 14.936 6.13992 14.9108 6.18701C14.8982 6.21052 14.8884 6.22841 14.8821 6.23992L14.8752 6.25228L14.8737 6.25488L14.743 6.48448C14.6095 6.71891 14.7306 7.01644 14.9898 7.09106L15.2443 7.16432L15.2467 7.16503L15.2583 7.16844C15.269 7.1716 15.2854 7.17649 15.3068 7.18303C15.3496 7.19612 15.4125 7.21576 15.4903 7.24123C15.6462 7.29234 15.8592 7.36606 16.0883 7.45659C16.1569 7.4837 16.2245 7.51143 16.2907 7.53958C16.3451 7.56273 16.3377 7.64016 16.2801 7.65312C15.5572 7.81554 14.6465 7.95658 13.9439 8.05378C13.8237 8.07041 13.7025 8.03322 13.6117 7.95258L12.0576 6.57107C11.9544 6.47934 11.9032 6.34255 11.9217 6.20573C12.0164 5.50554 12.1613 4.54256 12.3306 3.7738C12.3474 3.69725 12.4496 3.68766 12.4798 3.76001C12.5001 3.80878 12.5202 3.85826 12.5399 3.90824C12.6305 4.13728 12.7042 4.35028 12.7553 4.50627C12.7808 4.584 12.8004 4.6469 12.8135 4.68976C12.82 4.71117 12.8249 4.72753 12.8281 4.73819L12.8315 4.74979L12.8323 4.75256L12.9055 5.00671ZM14.1956 10.144L9.76748 6.20787C9.57606 6.03772 9.29666 6.08474 9.16977 6.28199C8.77277 6.89915 8.29081 7.65689 7.77178 8.49124C7.68262 8.63457 7.72838 8.82277 7.87123 8.9127C8.13159 9.0766 8.47347 9.30313 8.73355 9.52014C9.0232 9.76184 9.35571 10.0955 9.60548 10.3562C9.73274 10.4891 9.84303 10.6077 9.9216 10.6932C9.96094 10.7361 9.99244 10.7707 10.0143 10.7949L10.0396 10.8229L10.0465 10.8305L10.0492 10.8336C10.2792 11.0909 10.257 11.4861 9.99958 11.7161C9.74221 11.946 9.34713 11.9239 9.11713 11.6665L9.11559 11.6648L9.11003 11.6586L9.08742 11.6336C9.06746 11.6115 9.03807 11.5792 9.00106 11.5389C8.92694 11.4582 8.82276 11.3461 8.70287 11.221C8.45834 10.9658 8.16585 10.6744 7.9327 10.4799C7.73979 10.3189 7.45666 10.1288 7.20528 9.97053C7.06838 9.88435 6.88823 9.92899 6.80452 10.0674C6.65894 10.3081 6.51277 10.5516 6.36692 10.7965C6.34219 10.838 6.34658 10.8901 6.37121 10.9317C6.37666 10.9409 6.38297 10.9494 6.39059 10.9569C6.43209 10.9976 6.51076 11.0704 6.65027 11.1868C6.93993 11.4285 7.27243 11.7622 7.52221 12.0229C7.64947 12.1557 7.75976 12.2744 7.83833 12.3599C7.87766 12.4027 7.90917 12.4374 7.93102 12.4615L7.95635 12.4896L7.96318 12.4972L7.96578 12.5001C8.19578 12.7575 8.17369 13.1527 7.91631 13.3827C7.65894 13.6127 7.26386 13.5905 7.03385 13.3332L7.03232 13.3315L7.02676 13.3253L7.00415 13.3002C6.98418 13.2782 6.95479 13.2458 6.91778 13.2055C6.84367 13.1249 6.73949 13.0128 6.6196 12.8877C6.37507 12.6324 6.08257 12.3411 5.84943 12.1466C5.75391 12.0669 5.60833 12.0906 5.54639 12.1985C5.30272 12.6229 5.06509 13.0449 4.83815 13.4583L3.72807 15.7305C3.55506 16.0847 3.92492 16.4588 4.28103 16.2899L6.66367 15.1597C9.29019 13.7599 12.2769 11.9441 14.1551 10.7739C14.3665 10.6422 14.4091 10.3338 14.1956 10.144Z" fill="black"/>
</svg>
