<svg width="20" height="20" viewBox="0 0 20 20" fill="none" xmlns="http://www.w3.org/2000/svg">
<path d="M13.8056 11.6666C14.7261 11.6666 15.3666 12.2162 15.2362 12.8941C15.1057 13.572 14.2538 14.1216 13.3333 14.1216C12.4129 14.1216 11.7724 13.572 11.9028 12.8941C12.0332 12.2162 12.8852 11.6666 13.8056 11.6666Z" fill="black"/>
<path fill-rule="evenodd" clip-rule="evenodd" d="M2.09729 12.0375L2.49084 14.6611C2.7356 16.2929 4.1373 17.5 5.78729 17.5H14.2127C15.8627 17.5 17.2644 16.2929 17.5092 14.6611L17.9027 12.0375C18.1294 10.526 16.9588 9.16667 15.4304 9.16667H4.56964C3.04121 9.16667 1.87057 10.526 2.09729 12.0375ZM4.07219 13.0985C3.81891 13.2251 3.5158 13.0676 3.47379 12.7876L3.33346 11.8521C3.2201 11.0963 3.80542 10.4167 4.56964 10.4167H15.4304C16.1946 10.4167 16.7799 11.0963 16.6665 11.8521L16.273 14.4757C16.12 15.4955 15.244 16.25 14.2127 16.25H13.3538C13.2695 16.25 13.1872 16.2244 13.1178 16.1767L7.42584 12.2635C6.98845 11.9628 6.42222 11.9235 5.94747 12.1608L4.07219 13.0985ZM3.86297 14.9657C3.78879 14.7869 3.88358 14.5903 4.05675 14.5037L6.50648 13.2789C6.5743 13.245 6.65519 13.2506 6.71768 13.2935L9.91252 15.49C10.2497 15.7218 10.0857 16.25 9.67647 16.25H5.78729C4.9296 16.25 4.17925 15.7281 3.86297 14.9657Z" fill="black"/>
<path d="M3.63546 7.19895C3.69215 7.57683 3.39948 7.91667 3.01738 7.91667C2.70801 7.91667 2.44519 7.69033 2.39929 7.38438L2.09726 5.37085C1.87054 3.85934 3.04118 2.5 4.5696 2.5H15.4303C16.9588 2.5 18.1294 3.85934 17.9027 5.37085L17.6006 7.38438C17.5548 7.69033 17.2919 7.91667 16.9826 7.91667C16.6005 7.91667 16.3078 7.57683 16.3645 7.19896L16.6665 5.18543C16.7799 4.42967 16.1945 3.75 15.4303 3.75H4.5696C3.80539 3.75 3.22007 4.42967 3.33343 5.18542L3.63546 7.19895Z" fill="black"/>
</svg>
