<svg width="20" height="20" viewBox="0 0 20 20" fill="none" xmlns="http://www.w3.org/2000/svg">
<path fill-rule="evenodd" clip-rule="evenodd" d="M15 2.91663H5.00002C3.84943 2.91663 2.91669 3.84937 2.91669 4.99996V15C2.91669 16.1506 3.84943 17.0833 5.00002 17.0833H15C16.1506 17.0833 17.0834 16.1506 17.0834 15V4.99996C17.0834 3.84937 16.1506 2.91663 15 2.91663ZM5.00002 1.66663C3.15907 1.66663 1.66669 3.15901 1.66669 4.99996V15C1.66669 16.8409 3.15907 18.3333 5.00002 18.3333H15C16.841 18.3333 18.3334 16.8409 18.3334 15V4.99996C18.3334 3.15901 16.841 1.66663 15 1.66663H5.00002Z" fill="black"/>
<path d="M8.93553 11.2389V10.3444C8.93553 9.99603 8.65053 9.71103 8.3022 9.71103H6.85345C6.58428 9.71103 6.37053 9.92478 6.37053 10.1939C6.37053 10.4789 6.58428 10.6927 6.85345 10.6927H7.81136V11.326C7.59761 11.5239 7.15428 11.7298 6.6872 11.7298C5.72928 11.7298 5.03261 10.9935 5.03261 9.99603C5.03261 8.99853 5.72928 8.26228 6.6872 8.26228C7.09095 8.26228 7.48678 8.43644 7.78761 8.72936C7.89053 8.83228 8.03303 8.88769 8.16761 8.88769C8.4447 8.88769 8.69803 8.65811 8.69803 8.38103C8.69803 8.26228 8.65053 8.13561 8.56345 8.04061C8.15178 7.59728 7.5422 7.26478 6.6872 7.26478C5.14345 7.26478 3.87678 8.32561 3.87678 9.99603C3.87678 11.6585 5.14345 12.7352 6.6872 12.7352C7.75595 12.7352 8.93553 12.1969 8.93553 11.2389Z" fill="black"/>
<path d="M11.1994 12.1335V7.86644C11.1994 7.56561 10.9461 7.31227 10.6452 7.31227C10.3286 7.31227 10.0752 7.56561 10.0752 7.86644V12.1335C10.0752 12.4344 10.3286 12.6877 10.6294 12.6877C10.9461 12.6877 11.1994 12.4344 11.1994 12.1335Z" fill="black"/>
<path d="M16.1232 7.85853C16.1232 7.58145 15.9016 7.35978 15.6403 7.35978H12.9724C12.6241 7.35978 12.3391 7.64478 12.3391 7.99311V12.1335C12.3391 12.4344 12.5924 12.6877 12.8932 12.6877C13.2099 12.6877 13.4632 12.4344 13.4632 12.1335V10.8719C13.4632 10.6417 13.6498 10.4552 13.8799 10.4552H15.2021C15.4634 10.4552 15.685 10.2335 15.685 9.96436C15.685 9.68728 15.4634 9.46561 15.2021 9.46561H13.8799C13.6498 9.46561 13.4632 9.27907 13.4632 9.04895V8.76603C13.4632 8.53591 13.6498 8.34936 13.8799 8.34936H15.6403C15.9016 8.34936 16.1232 8.1277 16.1232 7.85853Z" fill="black"/>
</svg>
