<svg width="20" height="20" viewBox="0 0 20 20" fill="none" xmlns="http://www.w3.org/2000/svg">
<path d="M6.87502 7.49999C6.87502 5.77148 8.27151 4.37499 10 4.37499C11.7285 4.37499 13.125 5.77148 13.125 7.49999C13.125 8.12382 12.8003 8.64763 12.4541 9.03545C12.1012 9.4309 11.6606 9.75903 11.2834 10.0024C10.869 10.2697 10.625 10.6795 10.625 11.0809V11.6667C10.625 12.0118 10.3452 12.2917 10 12.2917C9.65484 12.2917 9.37502 12.0118 9.37502 11.6667V11.0809C9.37502 10.1672 9.91513 9.39761 10.6057 8.95202C10.9367 8.7385 11.2738 8.4807 11.5215 8.20311C11.7761 7.91789 11.875 7.68152 11.875 7.49999C11.875 6.46183 11.0382 5.62499 10 5.62499C8.96187 5.62499 8.12502 6.46183 8.12502 7.49999C8.12502 7.84517 7.8452 8.12499 7.50002 8.12499C7.15484 8.12499 6.87502 7.84517 6.87502 7.49999Z" fill="black"/>
<path d="M10 15.625C10.5753 15.625 11.0417 15.1586 11.0417 14.5833C11.0417 14.008 10.5753 13.5417 10 13.5417C9.42472 13.5417 8.95835 14.008 8.95835 14.5833C8.95835 15.1586 9.42472 15.625 10 15.625Z" fill="black"/>
<path fill-rule="evenodd" clip-rule="evenodd" d="M1.66669 9.99999C1.66669 14.6024 5.39765 18.3333 10 18.3333C14.6024 18.3333 18.3334 14.6024 18.3334 9.99999C18.3334 5.39762 14.6024 1.66666 10 1.66666C5.39765 1.66666 1.66669 5.39762 1.66669 9.99999ZM2.91669 9.99999C2.91669 13.912 6.088 17.0833 10 17.0833C13.912 17.0833 17.0834 13.912 17.0834 9.99999C17.0834 6.08797 13.912 2.91666 10 2.91666C6.088 2.91666 2.91669 6.08797 2.91669 9.99999Z" fill="black"/>
</svg>
