<svg width="20" height="20" viewBox="0 0 20 20" fill="none" xmlns="http://www.w3.org/2000/svg">
<path fill-rule="evenodd" clip-rule="evenodd" d="M4.13845 6.2328C4.34392 6.39262 4.35389 6.69951 4.16609 6.87976C3.06619 7.93547 2.29015 9.02692 1.91751 9.59724C1.75611 9.84426 1.75611 10.1557 1.91751 10.4027C2.77987 11.7225 5.8027 15.8333 10 15.8333C11.589 15.8333 13.0097 15.2442 14.2085 14.4404C14.3615 14.3377 14.5635 14.3412 14.7089 14.4543L17.1163 16.3267C17.3888 16.5386 17.7814 16.4895 17.9934 16.2171C18.2053 15.9446 18.1562 15.5519 17.8837 15.34L2.88374 3.67334C2.61127 3.46142 2.2186 3.51051 2.00668 3.78297C1.79476 4.05544 1.84384 4.44811 2.11631 4.66003L4.13845 6.2328ZM12.9677 13.1C13.1934 13.2755 13.1791 13.6211 12.9296 13.7607C12.0289 14.2643 11.0447 14.5833 10 14.5833C8.31899 14.5833 6.79436 13.7573 5.52275 12.6648C4.85356 12.0899 4.28724 11.4687 3.84334 10.9209C3.407 10.3825 3.407 9.61743 3.84334 9.079C4.28724 8.53125 4.85356 7.91007 5.52275 7.33512C5.53187 7.32729 5.54524 7.32698 5.55473 7.33435L6.75891 8.27094C6.91688 8.3938 6.96242 8.61073 6.8902 8.79736C6.74583 9.17042 6.66666 9.57595 6.66666 9.99997C6.66666 11.8409 8.15905 13.3333 9.99999 13.3333C10.7196 13.3333 11.3859 13.1053 11.9307 12.7176C12.0937 12.6016 12.3151 12.5924 12.473 12.7152L12.9677 13.1ZM7.92389 9.8252C7.94718 9.54478 8.27307 9.44862 8.49518 9.62137L10.7374 11.3653C10.9594 11.538 10.9467 11.8776 10.6809 11.9695C10.4675 12.0432 10.2384 12.0833 9.99999 12.0833C8.8494 12.0833 7.91666 11.1506 7.91666 9.99997C7.91666 9.94111 7.9191 9.88282 7.92389 9.8252Z" fill="black"/>
<path d="M7.38086 5.34728C7.1383 5.15862 7.17741 4.78256 7.46297 4.66902C8.24764 4.35704 9.09654 4.16666 9.99983 4.16666C14.1972 4.16666 17.22 8.27744 18.0824 9.59727C18.2437 9.84429 18.2437 10.1557 18.0824 10.4027C17.8244 10.7976 17.373 11.4422 16.7547 12.1519C16.612 12.3156 16.3664 12.336 16.1949 12.2027L15.8673 11.9478C15.6743 11.7978 15.6518 11.5149 15.8124 11.3306C15.9341 11.1908 16.0489 11.0537 16.1565 10.921C16.5929 10.3825 16.5929 9.61745 16.1565 9.07903C15.7126 8.53128 15.1463 7.91009 14.4771 7.33515C13.2055 6.24262 11.6809 5.41666 9.99983 5.41666C9.37603 5.41666 8.77376 5.53039 8.19796 5.72928C8.05959 5.77708 7.90568 5.75547 7.79011 5.66559L7.38086 5.34728Z" fill="black"/>
<path d="M13.2178 9.12742C13.3086 9.4634 12.9294 9.66285 12.6547 9.44917L11.4866 8.5406C11.3562 8.4078 11.2082 8.2924 11.0463 8.19818L9.83765 7.25811C9.57995 7.05768 9.67333 6.66666 9.99979 6.66666C11.5388 6.66666 12.8343 7.70968 13.2178 9.12742Z" fill="black"/>
</svg>
