<svg width="20" height="20" viewBox="0 0 20 20" fill="none" xmlns="http://www.w3.org/2000/svg">
<path d="M10.625 5.83332C10.625 5.48815 10.3452 5.20832 10 5.20832C9.65484 5.20832 9.37502 5.48815 9.37502 5.83332V9.30963C9.37502 9.91742 9.61646 10.5003 10.0462 10.9301L12.0581 12.9419C12.3022 13.186 12.6979 13.186 12.942 12.9419C13.186 12.6979 13.186 12.3021 12.942 12.058L10.9301 10.0462C10.7348 9.85085 10.625 9.5859 10.625 9.30963V5.83332Z" fill="black"/>
<path fill-rule="evenodd" clip-rule="evenodd" d="M18.3334 9.99999C18.3334 14.6024 14.6024 18.3333 10 18.3333C5.39765 18.3333 1.66669 14.6024 1.66669 9.99999C1.66669 5.39762 5.39765 1.66666 10 1.66666C14.6024 1.66666 18.3334 5.39762 18.3334 9.99999ZM17.0834 9.99999C17.0834 13.912 13.912 17.0833 10 17.0833C6.088 17.0833 2.91669 13.912 2.91669 9.99999C2.91669 6.08797 6.088 2.91666 10 2.91666C13.912 2.91666 17.0834 6.08797 17.0834 9.99999Z" fill="black"/>
</svg>
