<svg width="20" height="20" viewBox="0 0 20 20" fill="none" xmlns="http://www.w3.org/2000/svg">
<path fill-rule="evenodd" clip-rule="evenodd" d="M15.4167 7.91667C15.4167 9.29738 14.2974 10.4167 12.9167 10.4167C11.5359 10.4167 10.4167 9.29738 10.4167 7.91667C10.4167 6.53595 11.5359 5.41667 12.9167 5.41667C14.2974 5.41667 15.4167 6.53595 15.4167 7.91667ZM14.1667 7.91667C14.1667 8.60702 13.607 9.16667 12.9167 9.16667C12.2263 9.16667 11.6667 8.60702 11.6667 7.91667C11.6667 7.22631 12.2263 6.66667 12.9167 6.66667C13.607 6.66667 14.1667 7.22631 14.1667 7.91667Z" fill="black"/>
<path fill-rule="evenodd" clip-rule="evenodd" d="M4.99999 2.5C3.15904 2.5 1.66666 3.99238 1.66666 5.83333V14.1667C1.66666 16.0076 3.15904 17.5 4.99999 17.5H15C16.8409 17.5 18.3333 16.0076 18.3333 14.1667V5.83333C18.3333 3.99238 16.8409 2.5 15 2.5H4.99999ZM15 3.75H4.99999C3.8494 3.75 2.91666 4.68274 2.91666 5.83333V8.52686C2.91666 8.89807 3.36547 9.08397 3.62795 8.82149L4.80213 7.64731C5.37164 7.0778 6.29501 7.0778 6.86452 7.64731L15.2651 16.0479C15.3643 16.1471 15.5078 16.1926 15.6413 16.1494C16.4781 15.879 17.0833 15.0935 17.0833 14.1667V5.83333C17.0833 4.68274 16.1506 3.75 15 3.75ZM2.94193 11.2753C2.92627 11.2909 2.91666 11.3119 2.91666 11.334V14.1667C2.91666 15.3173 3.8494 16.25 4.99999 16.25H12.6935C13.0647 16.25 13.2506 15.8012 12.9881 15.5387L5.98064 8.5312C5.89928 8.44984 5.76737 8.44984 5.68601 8.5312L2.94193 11.2753Z" fill="black"/>
</svg>
