<svg width="20" height="20" viewBox="0 0 20 20" fill="none" xmlns="http://www.w3.org/2000/svg">
<path d="M7.70835 8.33332C7.70835 7.98815 7.98818 7.70832 8.33335 7.70832H10.4167C10.7619 7.70832 11.0417 7.98815 11.0417 8.33332V14.5833C11.0417 14.9285 10.7619 15.2083 10.4167 15.2083C10.0715 15.2083 9.79169 14.9285 9.79169 14.5833V8.95832H8.33335C7.98818 8.95832 7.70835 8.6785 7.70835 8.33332Z" fill="black"/>
<path d="M10 6.45832C10.5753 6.45832 11.0417 5.99195 11.0417 5.41666C11.0417 4.84136 10.5753 4.37499 10 4.37499C9.42472 4.37499 8.95835 4.84136 8.95835 5.41666C8.95835 5.99195 9.42472 6.45832 10 6.45832Z" fill="black"/>
<path fill-rule="evenodd" clip-rule="evenodd" d="M1.66669 9.99999C1.66669 14.6024 5.39765 18.3333 10 18.3333C14.6024 18.3333 18.3334 14.6024 18.3334 9.99999C18.3334 5.39762 14.6024 1.66666 10 1.66666C5.39765 1.66666 1.66669 5.39762 1.66669 9.99999ZM2.91669 9.99999C2.91669 13.912 6.088 17.0833 10 17.0833C13.912 17.0833 17.0834 13.912 17.0834 9.99999C17.0834 6.08797 13.912 2.91666 10 2.91666C6.088 2.91666 2.91669 6.08797 2.91669 9.99999Z" fill="black"/>
</svg>
