<svg width="20" height="20" viewBox="0 0 20 20" fill="none" xmlns="http://www.w3.org/2000/svg">
<path d="M7.10934 3.95831C7.10934 3.61314 7.38916 3.33331 7.73434 3.33331H14.3761C14.7213 3.33331 15.0011 3.61314 15.0011 3.95831C15.0011 4.30349 14.7213 4.58331 14.3761 4.58331H12.4857C12.0864 4.58331 11.7432 4.86657 11.6675 5.25865L9.89735 14.4253C9.79808 14.9394 10.192 15.4166 10.7156 15.4166H12.266C12.6111 15.4166 12.891 15.6965 12.891 16.0416C12.891 16.3868 12.6111 16.6666 12.266 16.6666H5.62418C5.279 16.6666 4.99918 16.3868 4.99918 16.0416C4.99918 15.6965 5.27901 15.4166 5.62418 15.4166H7.60228C8.00159 15.4166 8.34478 15.1334 8.42049 14.7413L10.1906 5.57465C10.2899 5.06053 9.89599 4.58331 9.37238 4.58331H7.73434C7.38916 4.58331 7.10934 4.30349 7.10934 3.95831Z" fill="black"/>
</svg>
