<svg width="20" height="20" viewBox="0 0 20 20" fill="none" xmlns="http://www.w3.org/2000/svg">
<path d="M5.83335 13.75C5.83335 13.2898 6.20645 12.9167 6.66669 12.9167H13.3334C13.7936 12.9167 14.1667 13.2898 14.1667 13.75C14.1667 14.2102 13.7936 14.5833 13.3334 14.5833H6.66669C6.20645 14.5833 5.83335 14.2102 5.83335 13.75Z" fill="black"/>
<path d="M5.83335 5.83333C5.37312 5.83333 5.00002 6.20643 5.00002 6.66667V7.08333C5.00002 7.54357 5.37312 7.91667 5.83335 7.91667H6.25002C6.71026 7.91667 7.08335 7.54357 7.08335 7.08333V6.66667C7.08335 6.20643 6.71026 5.83333 6.25002 5.83333H5.83335Z" fill="black"/>
<path d="M6.87502 10C6.87502 9.53976 7.24812 9.16667 7.70835 9.16667H8.12502C8.58526 9.16667 8.95835 9.53976 8.95835 10V10.4167C8.95835 10.8769 8.58526 11.25 8.12502 11.25H7.70835C7.24812 11.25 6.87502 10.8769 6.87502 10.4167V10Z" fill="black"/>
<path d="M11.875 9.16667C11.4148 9.16667 11.0417 9.53976 11.0417 10V10.4167C11.0417 10.8769 11.4148 11.25 11.875 11.25H12.2917C12.7519 11.25 13.125 10.8769 13.125 10.4167V10C13.125 9.53976 12.7519 9.16667 12.2917 9.16667H11.875Z" fill="black"/>
<path d="M8.95835 6.66667C8.95835 6.20643 9.33145 5.83333 9.79169 5.83333H10.2084C10.6686 5.83333 11.0417 6.20643 11.0417 6.66667V7.08333C11.0417 7.54357 10.6686 7.91667 10.2084 7.91667H9.79169C9.33145 7.91667 8.95835 7.54357 8.95835 7.08333V6.66667Z" fill="black"/>
<path d="M13.75 5.83333C13.2898 5.83333 12.9167 6.20643 12.9167 6.66667V7.08333C12.9167 7.54357 13.2898 7.91667 13.75 7.91667H14.1667C14.6269 7.91667 15 7.54357 15 7.08333V6.66667C15 6.20643 14.6269 5.83333 14.1667 5.83333H13.75Z" fill="black"/>
<path fill-rule="evenodd" clip-rule="evenodd" d="M5.00002 2.5C3.15907 2.5 1.66669 3.99238 1.66669 5.83333V14.1667C1.66669 16.0076 3.15907 17.5 5.00002 17.5H15C16.841 17.5 18.3334 16.0076 18.3334 14.1667V5.83333C18.3334 3.99238 16.841 2.5 15 2.5H5.00002ZM15 3.75H5.00002C3.84943 3.75 2.91669 4.68274 2.91669 5.83333V14.1667C2.91669 15.3173 3.84943 16.25 5.00002 16.25H15C16.1506 16.25 17.0834 15.3173 17.0834 14.1667V5.83333C17.0834 4.68274 16.1506 3.75 15 3.75Z" fill="black"/>
</svg>
