<svg width="20" height="20" viewBox="0 0 20 20" fill="none" xmlns="http://www.w3.org/2000/svg">
<path d="M5.83332 8.33334C5.37309 8.33334 4.99999 8.70644 4.99999 9.16668V10.8333C4.99999 11.2936 5.37309 11.6667 5.83332 11.6667H6.66666C7.12689 11.6667 7.49999 11.2936 7.49999 10.8333V9.16668C7.49999 8.70644 7.12689 8.33334 6.66666 8.33334H5.83332Z" fill="black"/>
<path fill-rule="evenodd" clip-rule="evenodd" d="M1.66666 6.66668C1.66666 4.82573 3.15904 3.33334 4.99999 3.33334H15C16.8409 3.33334 18.3333 4.82573 18.3333 6.66668V13.3333C18.3333 15.1743 16.8409 16.6667 15 16.6667H4.99999C3.15904 16.6667 1.66666 15.1743 1.66666 13.3333V6.66668ZM4.99999 4.58334H15C16.1506 4.58334 17.0833 5.51608 17.0833 6.66668V13.3333C17.0833 14.4839 16.1506 15.4167 15 15.4167H4.99999C3.8494 15.4167 2.91666 14.4839 2.91666 13.3333V6.66668C2.91666 5.51608 3.8494 4.58334 4.99999 4.58334Z" fill="black"/>
</svg>
