<svg width="20" height="20" viewBox="0 0 20 20" fill="none" xmlns="http://www.w3.org/2000/svg">
<path fill-rule="evenodd" clip-rule="evenodd" d="M7.70834 17.7083C7.70834 18.0535 7.98817 18.3333 8.33334 18.3333C8.67852 18.3333 8.95834 18.0535 8.95834 17.7083V16.2649C8.95834 16.1544 9.00224 16.0484 9.08038 15.9703L9.33883 15.7118C9.51988 15.5308 9.81984 15.5543 9.97043 15.7614L11.5914 17.9901C11.7482 18.2058 11.9987 18.3333 12.2653 18.3333H12.5683C12.9089 18.3333 13.1056 17.947 12.9053 17.6716L10.7879 14.7601C10.6673 14.5943 10.6852 14.3654 10.8302 14.2204L12.6727 12.378C12.9352 12.1155 12.7493 11.6667 12.3781 11.6667H11.9614C11.7404 11.6667 11.5284 11.7545 11.3721 11.9107L9.66964 13.6132C9.40715 13.8757 8.95834 13.6898 8.95834 13.3186V9.46739C8.95834 9.26388 9.10624 9.0926 9.30287 9.04012C10.904 8.6128 12.0833 7.15245 12.0833 5.41666C12.0833 3.34559 10.4044 1.66666 8.33334 1.66666C6.26228 1.66666 4.58334 3.34559 4.58334 5.41666C4.58334 7.15245 5.76269 8.6128 7.36382 9.04012C7.56045 9.0926 7.70834 9.26388 7.70834 9.46739V17.7083ZM10.8333 5.41666C10.8333 6.79737 9.71406 7.91666 8.33334 7.91666C6.95263 7.91666 5.83334 6.79737 5.83334 5.41666C5.83334 4.03594 6.95263 2.91666 8.33334 2.91666C9.71406 2.91666 10.8333 4.03594 10.8333 5.41666Z" fill="black"/>
</svg>
