<svg width="20" height="20" viewBox="0 0 20 20" fill="none" xmlns="http://www.w3.org/2000/svg">
<path fill-rule="evenodd" clip-rule="evenodd" d="M18.3334 9.99999C18.3334 14.6024 14.6024 18.3333 10 18.3333C5.39765 18.3333 1.66669 14.6024 1.66669 9.99999C1.66669 5.39762 5.39765 1.66666 10 1.66666C14.6024 1.66666 18.3334 5.39762 18.3334 9.99999ZM3.39856 9.37499C3.15412 9.37499 2.96112 9.1651 2.99797 8.92345C3.31918 6.81686 4.56834 5.01542 6.31531 3.94929C6.66006 3.73889 7.02484 4.14524 6.86298 4.51527C6.32791 5.73842 5.9688 7.27726 5.86463 8.97383C5.8509 9.19752 5.6675 9.37499 5.44339 9.37499H3.39856ZM2.99797 11.0765C2.96112 10.8349 3.15412 10.625 3.39856 10.625H5.44339C5.6675 10.625 5.8509 10.8025 5.86463 11.0262C5.9688 12.7227 6.32791 14.2616 6.86298 15.4847C7.02484 15.8547 6.66006 16.2611 6.31531 16.0507C4.56834 14.9846 3.31918 13.1831 2.99797 11.0765ZM7.5295 9.37499C7.29284 9.37499 7.10312 9.17788 7.11932 8.94178C7.23642 7.23484 7.63071 5.74859 8.17178 4.66645C8.85935 3.29129 9.57796 2.91666 10 2.91666C10.4221 2.91666 11.1407 3.29129 11.8283 4.66645C12.3693 5.74859 12.7636 7.23484 12.8807 8.94178C12.8969 9.17788 12.7072 9.37499 12.4705 9.37499H7.5295ZM12.8807 11.0582C12.8969 10.8221 12.7072 10.625 12.4705 10.625H7.5295C7.29284 10.625 7.10312 10.8221 7.11932 11.0582C7.23642 12.7651 7.63071 14.2514 8.17178 15.3335C8.85935 16.7087 9.57796 17.0833 10 17.0833C10.4221 17.0833 11.1407 16.7087 11.8283 15.3335C12.3693 14.2514 12.7636 12.7651 12.8807 11.0582ZM14.5567 9.37499C14.3325 9.37499 14.1491 9.19752 14.1354 8.97383C14.0312 7.27726 13.6721 5.73842 13.1371 4.51527C12.9752 4.14524 13.34 3.73889 13.6847 3.94928C15.4317 5.01542 16.6809 6.81686 17.0021 8.92345C17.0389 9.1651 16.8459 9.37499 16.6015 9.37499H14.5567ZM17.0021 11.0765C17.0389 10.8349 16.8459 10.625 16.6015 10.625H14.5567C14.3325 10.625 14.1491 10.8025 14.1354 11.0262C14.0312 12.7227 13.6721 14.2616 13.1371 15.4847C12.9752 15.8547 13.34 16.2611 13.6847 16.0507C15.4317 14.9846 16.6809 13.1831 17.0021 11.0765Z" fill="black"/>
</svg>
