<svg width="20" height="20" viewBox="0 0 20 20" fill="none" xmlns="http://www.w3.org/2000/svg">
<path d="M10 9.58332C10.6904 9.58332 11.25 9.02368 11.25 8.33332C11.25 7.64297 10.6904 7.08332 10 7.08332C9.30965 7.08332 8.75001 7.64297 8.75001 8.33332C8.75001 9.02368 9.30965 9.58332 10 9.58332Z" fill="black"/>
<path fill-rule="evenodd" clip-rule="evenodd" d="M5.83334 16.6667V3.33332C5.83334 2.41285 6.57954 1.66666 7.50001 1.66666H12.5C13.4205 1.66666 14.1667 2.41285 14.1667 3.33332V16.6667C14.1667 17.5871 13.4205 18.3333 12.5 18.3333H7.50001C6.57954 18.3333 5.83334 17.5871 5.83334 16.6667ZM7.50001 2.91666C7.26989 2.91666 7.08334 3.1032 7.08334 3.33332V8.33332C7.08334 9.94415 8.38918 11.25 10 11.25C11.6108 11.25 12.9167 9.94415 12.9167 8.33332V3.33332C12.9167 3.1032 12.7301 2.91666 12.5 2.91666H7.50001ZM10 12.5C9.22047 12.5 8.49093 12.2859 7.86697 11.9133C7.54997 11.7241 7.08334 11.9317 7.08334 12.3009V16.6667C7.08334 16.8968 7.26989 17.0833 7.50001 17.0833H12.5C12.7301 17.0833 12.9167 16.8968 12.9167 16.6667V12.3009C12.9167 11.9317 12.4501 11.7241 12.133 11.9134C11.5091 12.2859 10.7795 12.5 10 12.5Z" fill="black"/>
</svg>
