<svg width="20" height="20" viewBox="0 0 20 20" fill="none" xmlns="http://www.w3.org/2000/svg">
<path fill-rule="evenodd" clip-rule="evenodd" d="M12.5 8.33332C12.5 9.71404 11.3807 10.8333 9.99999 10.8333C8.61928 10.8333 7.49999 9.71404 7.49999 8.33332C7.49999 6.95261 8.61928 5.83332 9.99999 5.83332C11.3807 5.83332 12.5 6.95261 12.5 8.33332ZM11.25 8.33332C11.25 9.02368 10.6904 9.58332 9.99999 9.58332C9.30964 9.58332 8.74999 9.02368 8.74999 8.33332C8.74999 7.64297 9.30964 7.08332 9.99999 7.08332C10.6904 7.08332 11.25 7.64297 11.25 8.33332Z" fill="black"/>
<path fill-rule="evenodd" clip-rule="evenodd" d="M9.3622 18.1492C8.25139 17.204 3.33333 12.7687 3.33333 8.33332C3.33333 4.65143 6.3181 1.66666 9.99999 1.66666C13.6819 1.66666 16.6667 4.65143 16.6667 8.33332C16.6667 12.7687 11.7486 17.204 10.6378 18.1492C10.4937 18.2719 10.3136 18.3333 10.1243 18.3333H9.87565C9.68642 18.3333 9.50631 18.2719 9.3622 18.1492ZM13.0775 13.7886C12.058 15.1158 10.9509 16.1926 10.2718 16.8069C10.1172 16.9468 9.88282 16.9468 9.72819 16.8069C9.04905 16.1926 7.94195 15.1158 6.92251 13.7886C5.60117 12.0684 4.58333 10.1276 4.58333 8.33332C4.58333 5.34178 7.00845 2.91666 9.99999 2.91666C12.9915 2.91666 15.4167 5.34178 15.4167 8.33332C15.4167 10.1276 14.3988 12.0684 13.0775 13.7886Z" fill="black"/>
</svg>
