<svg width="20" height="20" viewBox="0 0 20 20" fill="none" xmlns="http://www.w3.org/2000/svg">
<path d="M9.99996 17.0833C13.912 17.0833 17.0833 13.912 17.0833 10C17.0833 7.67224 15.9605 5.60673 14.2269 4.31554C13.96 4.1168 13.8617 3.7534 14.0211 3.46131C14.1928 3.14638 14.5947 3.03752 14.8852 3.24804C16.9744 4.76227 18.3333 7.22245 18.3333 10C18.3333 14.6024 14.6023 18.3333 9.99996 18.3333C5.39759 18.3333 1.66663 14.6024 1.66663 10C1.66663 7.22245 3.02551 4.76227 5.11473 3.24804C5.40518 3.03752 5.80708 3.14638 5.97885 3.46131C6.13818 3.7534 6.0399 4.1168 5.77306 4.31554C4.03946 5.60673 2.91663 7.67224 2.91663 10C2.91663 13.912 6.08794 17.0833 9.99996 17.0833Z" fill="black"/>
<path d="M10.625 2.5C10.625 2.15482 10.3451 1.875 9.99996 1.875C9.65478 1.875 9.37496 2.15482 9.37496 2.5V10C9.37496 10.3452 9.65478 10.625 9.99996 10.625C10.3451 10.625 10.625 10.3452 10.625 10V2.5Z" fill="black"/>
</svg>
