<svg width="20" height="20" viewBox="0 0 20 20" fill="none" xmlns="http://www.w3.org/2000/svg">
<path d="M6.66668 16.0416C10.4636 16.0416 13.5417 12.9636 13.5417 9.16665C13.5417 8.8009 13.0995 8.61773 12.8409 8.87635L12.1086 9.60859C11.8645 9.85266 11.4688 9.85266 11.2247 9.60859C10.9807 9.36451 10.9807 8.96878 11.2247 8.7247L13.7247 6.2247C13.9688 5.98063 14.3645 5.98063 14.6086 6.2247L17.1086 8.7247C17.3527 8.96878 17.3527 9.36451 17.1086 9.60859C16.8645 9.85266 16.4688 9.85266 16.2247 9.60859L15.4925 8.87635C15.2339 8.61773 14.7917 8.8009 14.7917 9.16665C14.7917 13.654 11.154 17.2916 6.66668 17.2916H3.33334C2.98817 17.2916 2.70834 17.0118 2.70834 16.6666C2.70834 16.3215 2.98817 16.0416 3.33334 16.0416H6.66668Z" fill="black"/>
<path d="M2.70834 3.33331C2.70834 2.98814 2.98817 2.70831 3.33334 2.70831H16.6667C17.0119 2.70831 17.2917 2.98814 17.2917 3.33331C17.2917 3.67849 17.0119 3.95831 16.6667 3.95831H3.33334C2.98817 3.95831 2.70834 3.67849 2.70834 3.33331Z" fill="black"/>
</svg>
