<svg width="20" height="20" viewBox="0 0 20 20" fill="none" xmlns="http://www.w3.org/2000/svg">
<path d="M2.94194 2.05806C2.69786 1.81398 2.30214 1.81398 2.05806 2.05806C1.81398 2.30214 1.81398 2.69786 2.05806 2.94194L17.0581 17.9419C17.3021 18.186 17.6979 18.186 17.9419 17.9419C18.186 17.6979 18.186 17.3021 17.9419 17.0581L15.0357 14.1519C14.8795 13.9956 14.7917 13.7836 14.7917 13.5626V10C14.7917 9.65482 14.5118 9.375 14.1667 9.375C13.8215 9.375 13.5417 9.65482 13.5417 10V11.853C13.5417 12.15 13.1826 12.2987 12.9726 12.0887L7.09406 6.21017C6.92738 6.04349 6.93191 5.75342 7.16019 5.69468C7.16603 5.69318 7.17189 5.69174 7.17779 5.69037C7.24773 5.67409 7.33622 5.66021 7.45145 5.64987C7.722 5.62559 8.07465 5.625 8.6 5.625H9.16667C9.51185 5.625 9.79167 5.34518 9.79167 5C9.79167 4.65482 9.51185 4.375 9.16667 4.375L8.57202 4.375C8.08187 4.37499 7.67279 4.37498 7.33972 4.40487C6.99188 4.43609 6.66671 4.50372 6.36458 4.67605C6.31641 4.70353 6.26935 4.73268 6.22349 4.76344C6.03448 4.89021 5.77588 4.892 5.61495 4.73107L2.94194 2.05806Z" fill="black"/>
<path d="M15.9976 6.87676C16.0464 7.21848 16.3215 7.4999 16.6667 7.4999C17.0118 7.4999 17.2953 7.219 17.2574 6.8759C16.9696 4.26784 14.8987 2.19696 12.2907 1.90912C11.9476 1.87126 11.6667 2.15472 11.6667 2.4999C11.6667 2.84508 11.9481 3.12021 12.2898 3.16894C14.2074 3.44239 15.7242 4.95921 15.9976 6.87676Z" fill="black"/>
<path d="M6.45833 13.125V9.3689C6.45833 9.20314 6.39249 9.04417 6.27528 8.92696L5.91963 8.57131C5.65714 8.30883 5.20833 8.49473 5.20833 8.86594V14.7613C5.20832 15.2514 5.20832 15.6606 5.23821 15.9936C5.26942 16.3415 5.33705 16.6666 5.50939 16.9688C5.71273 17.3253 6.00808 17.6206 6.36458 17.8239C6.66671 17.9963 6.99188 18.0639 7.33972 18.0951C7.67279 18.125 8.08186 18.125 8.57201 18.125H11.428C11.9181 18.125 12.3272 18.125 12.6603 18.0951C13.0081 18.0639 13.3333 17.9963 13.6354 17.8239C13.8366 17.7092 14.0183 17.5651 14.175 17.3973C14.3371 17.2237 14.3051 16.9568 14.1372 16.7889L13.8389 16.4906C13.6848 16.3365 13.3919 16.4139 13.2382 16.5683C13.1724 16.6343 13.0978 16.6916 13.0161 16.7382C12.9344 16.7848 12.8106 16.8266 12.5485 16.8501C12.278 16.8744 11.9254 16.875 11.4 16.875H8.6C8.07465 16.875 7.722 16.8744 7.45145 16.8501C7.18936 16.8266 7.06562 16.7848 6.9839 16.7382C6.82185 16.6457 6.68761 16.5115 6.59518 16.3494C6.54856 16.2677 6.50672 16.144 6.4832 15.8819C6.46709 15.7024 6.46141 15.4867 6.45941 15.2084C6.45776 14.9783 6.64492 14.7917 6.87507 14.7917H11.1341C11.5053 14.7917 11.6912 14.3429 11.4287 14.0804L11.073 13.7247C10.9558 13.6075 10.7969 13.5417 10.6311 13.5417H6.875C6.64488 13.5417 6.45833 13.3551 6.45833 13.125Z" fill="black"/>
<path d="M13.4389 6.88642C13.5519 7.2126 13.8215 7.5001 14.1667 7.5001C14.5118 7.5001 14.7982 7.21746 14.73 6.87909C14.4824 5.65141 13.5154 4.68434 12.2877 4.4368C11.9493 4.36858 11.6667 4.65492 11.6667 5.0001C11.6667 5.34528 11.9542 5.6149 12.2804 5.72783C12.8222 5.91544 13.2513 6.34454 13.4389 6.88642Z" fill="black"/>
</svg>
