<svg width="20" height="20" viewBox="0 0 20 20" fill="none" xmlns="http://www.w3.org/2000/svg">
<path d="M9.99999 15.4167C10.6903 15.4167 11.25 14.857 11.25 14.1667C11.25 13.4763 10.6903 12.9167 9.99999 12.9167C9.30963 12.9167 8.74999 13.4763 8.74999 14.1667C8.74999 14.857 9.30963 15.4167 9.99999 15.4167Z" fill="black"/>
<path fill-rule="evenodd" clip-rule="evenodd" d="M4.16666 4.99999C4.16666 3.15904 5.65904 1.66666 7.49999 1.66666H12.5C14.3409 1.66666 15.8333 3.15904 15.8333 4.99999V15C15.8333 16.8409 14.3409 18.3333 12.5 18.3333H7.49999C5.65904 18.3333 4.16666 16.8409 4.16666 15V4.99999ZM5.41666 4.99999C5.41666 3.8494 6.3494 2.91666 7.49999 2.91666H12.5C13.6506 2.91666 14.5833 3.8494 14.5833 4.99999V15C14.5833 16.1506 13.6506 17.0833 12.5 17.0833H7.49999C6.3494 17.0833 5.41666 16.1506 5.41666 15V4.99999Z" fill="black"/>
</svg>
