<svg width="20" height="20" viewBox="0 0 20 20" fill="none" xmlns="http://www.w3.org/2000/svg">
<path d="M16.6666 7.49991C16.3215 7.49991 16.0463 7.21849 15.9976 6.87677C15.7242 4.95922 14.2073 3.4424 12.2898 3.16895C11.9481 3.12022 11.6666 2.84509 11.6666 2.49991C11.6666 2.15473 11.9476 1.87127 12.2906 1.90913C14.8987 2.19697 16.9696 4.26785 17.2574 6.87591C17.2953 7.21901 17.0118 7.49991 16.6666 7.49991Z" fill="black"/>
<path fill-rule="evenodd" clip-rule="evenodd" d="M9.16665 4.37501L8.572 4.37501C8.08185 4.375 7.67277 4.37499 7.3397 4.40488C6.99186 4.4361 6.66669 4.50373 6.36456 4.67606C6.00806 4.87941 5.71271 5.17475 5.50937 5.53125C5.33703 5.83338 5.2694 6.15856 5.23818 6.5064C5.2083 6.83946 5.2083 7.24853 5.20831 7.73867V14.7613C5.2083 15.2515 5.2083 15.6606 5.23818 15.9936C5.2694 16.3415 5.33703 16.6666 5.50937 16.9688C5.71271 17.3253 6.00806 17.6206 6.36456 17.824C6.66669 17.9963 6.99186 18.0639 7.3397 18.0951C7.67277 18.125 8.08184 18.125 8.57199 18.125H11.428C11.9181 18.125 12.3272 18.125 12.6603 18.0951C13.0081 18.0639 13.3333 17.9963 13.6354 17.824C13.9919 17.6206 14.2873 17.3253 14.4906 16.9688C14.6629 16.6666 14.7306 16.3415 14.7618 15.9936C14.7917 15.6606 14.7917 15.2515 14.7916 14.7613V10C14.7916 9.65483 14.5118 9.37501 14.1666 9.37501C13.8215 9.37501 13.5416 9.65483 13.5416 10V13.125C13.5416 13.3551 13.3551 13.5417 13.125 13.5417H6.87498C6.64486 13.5417 6.45831 13.3551 6.45831 13.125V7.76668C6.45831 7.24133 6.4589 6.88868 6.48318 6.61813C6.5067 6.35604 6.54854 6.2323 6.59516 6.15058C6.68759 5.98853 6.82183 5.85428 6.98388 5.76185C7.0656 5.71524 7.18934 5.6734 7.45143 5.64988C7.72198 5.6256 8.07463 5.62501 8.59998 5.62501H9.16665C9.51183 5.62501 9.79165 5.34519 9.79165 5.00001C9.79165 4.65483 9.51183 4.37501 9.16665 4.37501ZM6.87505 14.7917C6.6449 14.7917 6.45774 14.9783 6.45939 15.2084C6.46139 15.4867 6.46707 15.7024 6.48318 15.8819C6.5067 16.144 6.54854 16.2677 6.59516 16.3494C6.68759 16.5115 6.82183 16.6457 6.98388 16.7382C7.0656 16.7848 7.18934 16.8266 7.45143 16.8501C7.72198 16.8744 8.07463 16.875 8.59998 16.875H11.4C11.9253 16.875 12.278 16.8744 12.5485 16.8501C12.8106 16.8266 12.9344 16.7848 13.0161 16.7382C13.1781 16.6457 13.3124 16.5115 13.4048 16.3494C13.4514 16.2677 13.4933 16.144 13.5168 15.8819C13.5329 15.7024 13.5386 15.4867 13.5406 15.2084C13.5422 14.9783 13.3551 14.7917 13.1249 14.7917H6.87505Z" fill="black"/>
<path d="M13.4389 6.88642C13.5518 7.21261 13.8215 7.50011 14.1666 7.50011C14.5118 7.50011 14.7982 7.21747 14.7299 6.8791C14.4824 5.65142 13.5153 4.68435 12.2877 4.43681C11.9493 4.36859 11.6666 4.65493 11.6666 5.00011C11.6666 5.34529 11.9541 5.61491 12.2803 5.72784C12.8222 5.91545 13.2513 6.34455 13.4389 6.88642Z" fill="black"/>
</svg>
