<svg width="20" height="20" viewBox="0 0 20 20" fill="none" xmlns="http://www.w3.org/2000/svg">
<path fill-rule="evenodd" clip-rule="evenodd" d="M7.76841 10.625C7.57254 10.625 7.40613 10.7628 7.3425 10.948C6.94902 12.0935 5.86232 12.9167 4.58335 12.9167C2.97252 12.9167 1.66669 11.6108 1.66669 10C1.66669 8.38918 2.97252 7.08334 4.58335 7.08334C5.86232 7.08334 6.94902 7.90655 7.3425 9.05201C7.40613 9.23726 7.57254 9.37501 7.76841 9.37501H12.2316C12.4275 9.37501 12.5939 9.23726 12.6575 9.05201C13.051 7.90655 14.1377 7.08334 15.4167 7.08334C17.0275 7.08334 18.3334 8.38918 18.3334 10C18.3334 11.6108 17.0275 12.9167 15.4167 12.9167C14.1377 12.9167 13.051 12.0935 12.6575 10.948C12.5939 10.7628 12.4275 10.625 12.2316 10.625H7.76841ZM4.58335 11.6667C5.50383 11.6667 6.25002 10.9205 6.25002 10C6.25002 9.07954 5.50383 8.33334 4.58335 8.33334C3.66288 8.33334 2.91669 9.07954 2.91669 10C2.91669 10.9205 3.66288 11.6667 4.58335 11.6667ZM15.4167 11.6667C16.3372 11.6667 17.0834 10.9205 17.0834 10C17.0834 9.07954 16.3372 8.33334 15.4167 8.33334C14.4962 8.33334 13.75 9.07954 13.75 10C13.75 10.9205 14.4962 11.6667 15.4167 11.6667Z" fill="black"/>
</svg>
