<svg width="20" height="20" viewBox="0 0 20 20" fill="none" xmlns="http://www.w3.org/2000/svg">
<path fill-rule="evenodd" clip-rule="evenodd" d="M2.94194 2.05806C2.69786 1.81398 2.30214 1.81398 2.05806 2.05806C1.81398 2.30214 1.81398 2.69786 2.05806 2.94194L17.0581 17.9419C17.3021 18.186 17.6979 18.186 17.9419 17.9419C18.186 17.6979 18.186 17.3021 17.9419 17.0581L17.0103 16.1264C16.8293 15.9454 16.8544 15.6464 17.0389 15.4689C17.7084 14.8246 18.125 13.9193 18.125 12.9167C18.125 11.2224 16.9354 9.80606 15.3458 9.45729C15.5263 8.97769 15.625 8.45828 15.625 7.91667C15.625 5.50042 13.6662 3.54167 11.25 3.54167C9.6301 3.54167 8.21582 4.42206 7.45955 5.73047C7.3097 5.98972 6.94762 6.06373 6.73588 5.852L2.94194 2.05806ZM8.23696 7.0847C8.19998 7.21895 8.24464 7.36076 8.34311 7.45923L15.5342 14.6503C15.6696 14.7857 15.8826 14.8143 16.031 14.6933C16.5461 14.273 16.875 13.6333 16.875 12.9167C16.875 11.651 15.849 10.625 14.5833 10.625C14.0182 10.625 13.6468 10.0044 13.9427 9.50379C14.2172 9.03912 14.375 8.49727 14.375 7.91667C14.375 6.19078 12.9759 4.79167 11.25 4.79167C9.8122 4.79167 8.60119 5.76267 8.23696 7.0847Z" fill="black"/>
<path d="M12.2979 15.2083C12.4636 15.2083 12.6226 15.2742 12.7398 15.3914C13.1335 15.7851 12.8547 16.4583 12.2979 16.4583H6.25C3.83375 16.4583 1.875 14.4996 1.875 12.0833C1.875 10.1992 3.066 8.59328 4.73621 7.9773C5.01076 7.87605 5.31342 7.965 5.52033 8.17192L5.6884 8.33998C5.91408 8.56567 5.74951 8.98163 5.44117 9.06402C4.10735 9.42043 3.125 10.6372 3.125 12.0833C3.125 13.8092 4.52411 15.2083 6.25 15.2083H12.2979Z" fill="black"/>
</svg>
