<svg width="20" height="20" viewBox="0 0 20 20" fill="none" xmlns="http://www.w3.org/2000/svg">
<path fill-rule="evenodd" clip-rule="evenodd" d="M7.79679 14.0326C7.79679 15.0265 6.98717 15.8321 5.98846 15.8321C4.98974 15.8321 4.18012 15.0265 4.18012 14.0326C4.18012 13.0387 4.98974 12.2331 5.98846 12.2331C6.98717 12.2331 7.79679 13.0387 7.79679 14.0326ZM6.54007 14.0326C6.54007 14.3358 6.2931 14.5815 5.98846 14.5815C5.68381 14.5815 5.43685 14.3358 5.43685 14.0326C5.43685 13.7294 5.68381 13.4837 5.98846 13.4837C6.2931 13.4837 6.54007 13.7294 6.54007 14.0326Z" fill="black"/>
<path fill-rule="evenodd" clip-rule="evenodd" d="M14.2899 9.23435C14.2504 9.39421 14.1202 9.51601 13.9574 9.54524L13.1502 9.69017C12.9676 9.72294 12.8284 9.87132 12.8081 10.0548L12.6781 11.2314C12.6672 11.3296 12.6217 11.4207 12.5497 11.4886L11.7933 12.2011C11.6889 12.2994 11.6438 12.4438 11.665 12.5853C11.7016 12.8285 11.7205 13.0775 11.7205 13.3309C11.7205 16.0937 9.46986 18.3334 6.69358 18.3334C3.91729 18.3334 1.66667 16.0937 1.66667 13.3309C1.66667 10.5681 3.91729 8.32847 6.69358 8.32847C7.27356 8.32847 7.8306 8.42621 8.34898 8.60605C8.50748 8.66104 8.68535 8.62789 8.80505 8.51078L15.6785 1.78629C15.7569 1.70964 15.8624 1.66669 15.9722 1.66669H17.9143C18.1803 1.66669 18.379 1.91026 18.3242 2.16934L17.6379 5.4172C17.6079 5.55929 17.5057 5.6756 17.3683 5.72422L16.627 5.98636C16.5032 6.03017 16.4072 6.12928 16.3677 6.25406L16.034 7.30973C15.9918 7.44304 15.8854 7.54646 15.7504 7.58518L14.8493 7.84376C14.7052 7.88511 14.5943 7.99999 14.5585 8.14495L14.2899 9.23435ZM10.4638 13.3309C10.4638 13.0415 10.4308 12.7598 10.3685 12.4892L10.3607 12.4662C10.3132 12.3262 10.2597 12.1887 10.2003 12.0541C10.1899 12.0305 10.1952 12.0029 10.2139 11.985L11.4246 10.8264C11.4491 10.8033 11.4645 10.7723 11.4682 10.739L11.6616 8.98988C11.6818 8.80637 11.821 8.658 12.0036 8.62522L12.9313 8.45865C13.0941 8.42943 13.2244 8.30762 13.2638 8.14776L13.5114 7.14385C13.5471 6.99889 13.658 6.88401 13.8022 6.84266L14.7541 6.56951C14.889 6.53079 14.9955 6.42737 15.0376 6.29407L15.3569 5.28433C15.3963 5.15955 15.4923 5.06043 15.6162 5.01663L16.2834 4.78064C16.4209 4.73202 16.5231 4.61571 16.5531 4.47362L16.7944 3.3317C16.8395 3.11811 16.6758 2.9173 16.4564 2.9173C16.3658 2.9173 16.2789 2.95271 16.2143 3.0159L9.73944 9.35098L8.83228 10.2362C8.83068 10.2377 8.82819 10.2379 8.82635 10.2367C8.21979 9.82186 7.48518 9.57908 6.69358 9.57908C4.61136 9.57908 2.9234 11.2588 2.9234 13.3309C2.9234 15.403 4.61136 17.0827 6.69358 17.0827C8.77579 17.0827 10.4638 15.403 10.4638 13.3309Z" fill="black"/>
</svg>
