<svg width="20" height="20" viewBox="0 0 20 20" fill="none" xmlns="http://www.w3.org/2000/svg">
<path fill-rule="evenodd" clip-rule="evenodd" d="M10.8334 7.49999C8.9924 7.49999 7.50002 8.99237 7.50002 10.8333V15C7.50002 16.8409 8.9924 18.3333 10.8334 18.3333H15C16.841 18.3333 18.3334 16.8409 18.3334 15V10.8333C18.3334 8.99237 16.841 7.49999 15 7.49999H10.8334ZM15 8.74999H10.8334C9.68276 8.74999 8.75002 9.68273 8.75002 10.8333V15C8.75002 16.1506 9.68276 17.0833 10.8334 17.0833H15C16.1506 17.0833 17.0834 16.1506 17.0834 15V10.8333C17.0834 9.68273 16.1506 8.74999 15 8.74999Z" fill="black"/>
<path d="M11.875 5.83332C11.5298 5.83332 11.25 5.5535 11.25 5.20832V4.99999C11.25 3.8494 10.3173 2.91666 9.16669 2.91666H5.00002C3.84943 2.91666 2.91669 3.8494 2.91669 4.99999L2.91669 9.16666C2.91669 10.3173 3.84943 11.25 5.00002 11.25H5.20835C5.55353 11.25 5.83335 11.5298 5.83335 11.875C5.83335 12.2202 5.55353 12.5 5.20835 12.5H5.00002C3.15907 12.5 1.66669 11.0076 1.66669 9.16666V4.99999C1.66669 3.15904 3.15907 1.66666 5.00002 1.66666H9.16669C11.0076 1.66666 12.5 3.15904 12.5 4.99999V5.20832C12.5 5.5535 12.2202 5.83332 11.875 5.83332Z" fill="black"/>
</svg>
