<svg width="20" height="20" viewBox="0 0 20 20" fill="none" xmlns="http://www.w3.org/2000/svg">
<path fill-rule="evenodd" clip-rule="evenodd" d="M6.87501 4.375C5.60936 4.375 4.58334 5.40101 4.58334 6.66667V13.3333C4.58334 14.599 5.60936 15.625 6.87501 15.625C8.14066 15.625 9.16668 14.599 9.16668 13.3333V6.66667C9.16668 5.40101 8.14066 4.375 6.87501 4.375ZM5.83334 6.66667C5.83334 6.09137 6.29971 5.625 6.87501 5.625C7.45031 5.625 7.91668 6.09137 7.91668 6.66667V13.3333C7.91668 13.9086 7.45031 14.375 6.87501 14.375C6.29971 14.375 5.83334 13.9086 5.83334 13.3333V6.66667Z" fill="black"/>
<path fill-rule="evenodd" clip-rule="evenodd" d="M13.125 4.375C11.8594 4.375 10.8333 5.40101 10.8333 6.66667V13.3333C10.8333 14.599 11.8594 15.625 13.125 15.625C14.3907 15.625 15.4167 14.599 15.4167 13.3333V6.66667C15.4167 5.40101 14.3907 4.375 13.125 4.375ZM12.0833 6.66667C12.0833 6.09137 12.5497 5.625 13.125 5.625C13.7003 5.625 14.1667 6.09137 14.1667 6.66667V13.3333C14.1667 13.9086 13.7003 14.375 13.125 14.375C12.5497 14.375 12.0833 13.9086 12.0833 13.3333V6.66667Z" fill="black"/>
</svg>
