<svg width="20" height="20" viewBox="0 0 20 20" fill="none" xmlns="http://www.w3.org/2000/svg">
<path fill-rule="evenodd" clip-rule="evenodd" d="M18.3333 5.41666C18.3333 3.34559 16.6544 1.66666 14.5833 1.66666H10C7.23858 1.66666 5.00001 3.90523 5.00001 6.66666V7.49999C5.00001 8.42046 5.7462 9.16666 6.66667 9.16666H14.5833C16.6544 9.16666 18.3333 7.48773 18.3333 5.41666ZM14.5833 2.91666H10C7.92894 2.91666 6.25001 4.59559 6.25001 6.66666V7.49999C6.25001 7.73011 6.43655 7.91666 6.66667 7.91666H14.5833C15.9641 7.91666 17.0833 6.79737 17.0833 5.41666C17.0833 4.03594 15.9641 2.91666 14.5833 2.91666Z" fill="black"/>
<path fill-rule="evenodd" clip-rule="evenodd" d="M1.66667 14.5833C1.66667 16.6544 3.3456 18.3333 5.41667 18.3333L10 18.3333C12.7614 18.3333 15 16.0947 15 13.3333L15 12.5C15 11.5795 14.2538 10.8333 13.3333 10.8333L5.41667 10.8333C3.3456 10.8333 1.66667 12.5123 1.66667 14.5833ZM5.41667 17.0833L10 17.0833C12.0711 17.0833 13.75 15.4044 13.75 13.3333L13.75 12.5C13.75 12.2699 13.5635 12.0833 13.3333 12.0833L5.41667 12.0833C4.03596 12.0833 2.91667 13.2026 2.91667 14.5833C2.91667 15.964 4.03596 17.0833 5.41667 17.0833Z" fill="black"/>
</svg>
