<svg width="20" height="20" viewBox="0 0 20 20" fill="none" xmlns="http://www.w3.org/2000/svg">
<path fill-rule="evenodd" clip-rule="evenodd" d="M10 10.8333C11.6108 10.8333 12.9167 9.52749 12.9167 7.91666C12.9167 6.30583 11.6108 4.99999 10 4.99999C8.38917 4.99999 7.08334 6.30583 7.08334 7.91666C7.08334 9.52749 8.38917 10.8333 10 10.8333ZM10 9.58332C10.9205 9.58332 11.6667 8.83713 11.6667 7.91666C11.6667 6.99618 10.9205 6.24999 10 6.24999C9.07953 6.24999 8.33334 6.99618 8.33334 7.91666C8.33334 8.83713 9.07953 9.58332 10 9.58332Z" fill="black"/>
<path d="M13.7054 13.5609C14.01 13.7977 14.0184 14.2461 13.7214 14.4924C13.4676 14.7029 13.1025 14.6667 12.837 14.4713C12.0428 13.8869 11.0618 13.5417 10.0001 13.5417C8.9385 13.5417 7.95751 13.8869 7.16331 14.4713C6.89774 14.6667 6.53266 14.7029 6.27887 14.4924C5.98191 14.2461 5.99031 13.7977 6.29486 13.5609C7.31801 12.7654 8.60375 12.2917 10.0001 12.2917C11.3965 12.2917 12.6823 12.7654 13.7054 13.5609Z" fill="black"/>
<path fill-rule="evenodd" clip-rule="evenodd" d="M10 18.3333C14.6024 18.3333 18.3333 14.6024 18.3333 9.99999C18.3333 5.39762 14.6024 1.66666 10 1.66666C5.39763 1.66666 1.66667 5.39762 1.66667 9.99999C1.66667 14.6024 5.39763 18.3333 10 18.3333ZM10 17.0833C13.912 17.0833 17.0833 13.912 17.0833 9.99999C17.0833 6.08797 13.912 2.91666 10 2.91666C6.08799 2.91666 2.91667 6.08797 2.91667 9.99999C2.91667 13.912 6.08799 17.0833 10 17.0833Z" fill="black"/>
</svg>
