<svg width="20" height="20" viewBox="0 0 20 20" fill="none" xmlns="http://www.w3.org/2000/svg">
<path fill-rule="evenodd" clip-rule="evenodd" d="M1.66666 8.92905C1.66666 7.64467 2.63989 6.56926 3.9179 6.44146L6.94812 6.13843C8.96576 5.93667 10.9296 5.36842 12.7433 4.4616L15.9213 2.87259C17.0295 2.31851 18.3333 3.12433 18.3333 4.3633V13.9699C18.3333 15.2088 17.0295 16.0147 15.9213 15.4606L12.7433 13.8716C12.2307 13.6153 11.7061 13.386 11.1717 13.1844C10.9049 13.0838 10.625 13.2845 10.625 13.5696V15.4167C10.625 16.4522 9.78552 17.2917 8.74999 17.2917H8.33332C6.60743 17.2917 5.20832 15.8925 5.20832 14.1667V12.3978C5.20832 12.1838 5.04612 12.0045 4.83312 11.9832L3.9179 11.8917C2.63989 11.7639 1.66666 10.6885 1.66666 9.40411V8.92905ZM17.0833 4.3633V13.9699C17.0833 14.2796 16.7574 14.4811 16.4803 14.3425L13.3023 12.7535C11.3526 11.7787 9.24146 11.1678 7.0725 10.9509L4.04228 10.6479C3.40328 10.584 2.91666 10.0463 2.91666 9.40411V8.92905C2.91666 8.28686 3.40327 7.74915 4.04228 7.68525L7.0725 7.38223C9.24146 7.16534 11.3526 6.55446 13.3023 5.57964L16.4803 3.99063C16.7574 3.85211 17.0833 4.05357 17.0833 4.3633ZM6.91645 12.1916C6.67116 12.167 6.45832 12.3596 6.45832 12.6062V14.1667C6.45832 15.2022 7.29779 16.0417 8.33332 16.0417H8.74999C9.09517 16.0417 9.37499 15.7618 9.37499 15.4167V12.9449C9.37499 12.7541 9.24554 12.5871 9.0597 12.544C8.36536 12.3828 7.66009 12.2659 6.94812 12.1947L6.91645 12.1916Z" fill="black"/>
</svg>
