<svg width="20" height="20" viewBox="0 0 20 20" fill="none" xmlns="http://www.w3.org/2000/svg">
<path fill-rule="evenodd" clip-rule="evenodd" d="M3.33332 1.66666C2.41285 1.66666 1.66666 2.41285 1.66666 3.33332V7.49999C1.66666 8.42046 2.41285 9.16666 3.33332 9.16666H7.49999C8.42046 9.16666 9.16666 8.42046 9.16666 7.49999V3.33332C9.16666 2.41285 8.42046 1.66666 7.49999 1.66666H3.33332ZM7.49999 2.91666H3.33332C3.1032 2.91666 2.91666 3.1032 2.91666 3.33332V7.49999C2.91666 7.73011 3.1032 7.91666 3.33332 7.91666H7.49999C7.73011 7.91666 7.91666 7.73011 7.91666 7.49999V3.33332C7.91666 3.1032 7.73011 2.91666 7.49999 2.91666Z" fill="black"/>
<path d="M5.41666 13.3333C4.7263 13.3333 4.16666 13.893 4.16666 14.5833C4.16666 15.2737 4.7263 15.8333 5.41666 15.8333C6.10701 15.8333 6.66666 15.2737 6.66666 14.5833C6.66666 13.893 6.10701 13.3333 5.41666 13.3333Z" fill="black"/>
<path fill-rule="evenodd" clip-rule="evenodd" d="M5.41666 10.8333C3.34559 10.8333 1.66666 12.5123 1.66666 14.5833C1.66666 16.6544 3.34559 18.3333 5.41666 18.3333C7.48772 18.3333 9.16666 16.6544 9.16666 14.5833C9.16666 12.5123 7.48772 10.8333 5.41666 10.8333ZM2.91666 14.5833C2.91666 15.964 4.03594 17.0833 5.41666 17.0833C6.79737 17.0833 7.91666 15.964 7.91666 14.5833C7.91666 13.2026 6.79737 12.0833 5.41666 12.0833C4.03594 12.0833 2.91666 13.2026 2.91666 14.5833Z" fill="black"/>
<path d="M11.6667 10.8333C11.2064 10.8333 10.8333 11.2064 10.8333 11.6667V12.9167C10.8333 13.3769 11.2064 13.75 11.6667 13.75H12.9167C13.3769 13.75 13.75 13.3769 13.75 12.9167V11.6667C13.75 11.2064 13.3769 10.8333 12.9167 10.8333H11.6667Z" fill="black"/>
<path d="M15.4167 11.6667C15.4167 11.2064 15.7898 10.8333 16.25 10.8333H17.5C17.9602 10.8333 18.3333 11.2064 18.3333 11.6667V12.9167C18.3333 13.3769 17.9602 13.75 17.5 13.75H16.25C15.7898 13.75 15.4167 13.3769 15.4167 12.9167V11.6667Z" fill="black"/>
<path d="M16.25 15.4167C15.7898 15.4167 15.4167 15.7898 15.4167 16.25V17.5C15.4167 17.9602 15.7898 18.3333 16.25 18.3333H17.5C17.9602 18.3333 18.3333 17.9602 18.3333 17.5V16.25C18.3333 15.7898 17.9602 15.4167 17.5 15.4167H16.25Z" fill="black"/>
<path d="M10.8333 16.25C10.8333 15.7898 11.2064 15.4167 11.6667 15.4167H12.9167C13.3769 15.4167 13.75 15.7898 13.75 16.25V17.5C13.75 17.9602 13.3769 18.3333 12.9167 18.3333H11.6667C11.2064 18.3333 10.8333 17.9602 10.8333 17.5V16.25Z" fill="black"/>
<path d="M13.3333 4.99999C13.3333 4.53975 13.7064 4.16666 14.1667 4.16666H15C15.4602 4.16666 15.8333 4.53975 15.8333 4.99999V5.83332C15.8333 6.29356 15.4602 6.66666 15 6.66666H14.1667C13.7064 6.66666 13.3333 6.29356 13.3333 5.83332V4.99999Z" fill="black"/>
<path fill-rule="evenodd" clip-rule="evenodd" d="M10.8333 3.33332C10.8333 2.41285 11.5795 1.66666 12.5 1.66666H16.6667C17.5871 1.66666 18.3333 2.41285 18.3333 3.33332V7.49999C18.3333 8.42046 17.5871 9.16666 16.6667 9.16666H12.5C11.5795 9.16666 10.8333 8.42046 10.8333 7.49999V3.33332ZM12.5 2.91666H16.6667C16.8968 2.91666 17.0833 3.1032 17.0833 3.33332V7.49999C17.0833 7.73011 16.8968 7.91666 16.6667 7.91666H12.5C12.2699 7.91666 12.0833 7.73011 12.0833 7.49999V3.33332C12.0833 3.1032 12.2699 2.91666 12.5 2.91666Z" fill="black"/>
</svg>
