<svg width="20" height="20" viewBox="0 0 20 20" fill="none" xmlns="http://www.w3.org/2000/svg">
<path fill-rule="evenodd" clip-rule="evenodd" d="M9.68269 5.70269L4.16803 3.43195C3.71166 3.24403 3.2579 3.70582 3.4538 4.15882L9.41794 17.9509C9.51833 18.183 9.74707 18.3333 9.99999 18.3333C10.2529 18.3333 10.4816 18.183 10.582 17.9509L16.5462 4.15882C16.7421 3.70582 16.2883 3.24403 15.8319 3.43195L10.3173 5.70269C10.114 5.78638 9.88594 5.78638 9.68269 5.70269ZM9.37499 7.09849C9.37499 6.99197 9.30526 6.8991 9.20676 6.85854L6.23277 5.63396C5.88704 5.4916 5.54328 5.84143 5.69169 6.18462L8.97543 13.7783C9.06521 13.9859 9.37499 13.9218 9.37499 13.6956V7.09849ZM10.625 7.0985C10.625 6.99197 10.6947 6.8991 10.7932 6.85854L13.7672 5.63396C14.1129 5.4916 14.4567 5.84143 14.3083 6.18462L11.0245 13.7783C10.9348 13.9859 10.625 13.9218 10.625 13.6956V7.0985Z" fill="black"/>
</svg>
