<svg width="20" height="20" viewBox="0 0 20 20" fill="none" xmlns="http://www.w3.org/2000/svg">
<path d="M9.99999 5.20833C13.5668 5.20833 16.4583 8.09983 16.4583 11.6667C16.4583 15.2335 13.5668 18.125 9.99999 18.125C6.43315 18.125 3.54166 15.2335 3.54166 11.6667C3.54166 11.3215 3.82148 11.0417 4.16666 11.0417C4.51183 11.0417 4.79166 11.3215 4.79166 11.6667C4.79166 14.5431 7.12351 16.875 9.99999 16.875C12.8765 16.875 15.2083 14.5431 15.2083 11.6667C15.2083 8.79018 12.8765 6.45833 9.99999 6.45833H9.18146C8.81025 6.45833 8.62435 6.90714 8.88684 7.16963L10.4419 8.72472C10.686 8.9688 10.686 9.36453 10.4419 9.60861C10.1979 9.85269 9.80213 9.85269 9.55805 9.60861L6.22471 6.27528C5.98064 6.0312 5.98064 5.63547 6.22471 5.39139L9.55805 2.05806C9.80213 1.81398 10.1979 1.81398 10.4419 2.05806C10.686 2.30214 10.686 2.69786 10.4419 2.94194L8.88684 4.49704C8.62435 4.75952 8.81025 5.20833 9.18146 5.20833H9.99999Z" fill="black"/>
</svg>
