<svg width="20" height="20" viewBox="0 0 20 20" fill="none" xmlns="http://www.w3.org/2000/svg">
<path d="M13.3334 10.6249C13.6785 10.6249 13.9584 10.3451 13.9584 9.9999C13.9584 9.65472 13.6785 9.3749 13.3334 9.3749L6.66669 9.3749C6.32151 9.3749 6.04169 9.65472 6.04169 9.9999C6.04169 10.3451 6.32151 10.6249 6.66669 10.6249L13.3334 10.6249Z" fill="black"/>
<path fill-rule="evenodd" clip-rule="evenodd" d="M18.3334 9.9999C18.3334 14.6023 14.6024 18.3332 10 18.3332C5.39765 18.3332 1.66669 14.6023 1.66669 9.9999C1.66669 5.39752 5.39765 1.66657 10 1.66656C14.6024 1.66656 18.3334 5.39753 18.3334 9.9999ZM17.0834 9.9999C17.0834 13.9119 13.912 17.0832 10 17.0832C6.088 17.0832 2.91669 13.9119 2.91669 9.9999C2.91669 6.08788 6.088 2.91657 10 2.91656C13.912 2.91656 17.0834 6.08788 17.0834 9.9999Z" fill="black"/>
</svg>
