<svg width="20" height="20" viewBox="0 0 20 20" fill="none" xmlns="http://www.w3.org/2000/svg">
<path d="M12.9419 10.3914C12.6979 10.1473 12.3021 10.1473 12.058 10.3914C11.814 10.6355 11.814 11.0312 12.058 11.2753L13.6131 12.8304C13.8756 13.0929 13.6897 13.5417 13.3185 13.5417L9.99999 13.5417C7.12351 13.5417 4.79166 11.2098 4.79166 8.33333C4.79166 5.45685 7.12351 3.125 9.99999 3.125C10.3452 3.125 10.625 2.84518 10.625 2.5C10.625 2.15482 10.3452 1.875 9.99999 1.875C6.43315 1.875 3.54166 4.7665 3.54166 8.33333C3.54166 11.9002 6.43315 14.7917 9.99999 14.7917H13.3185C13.6897 14.7917 13.8756 15.2405 13.6131 15.503L12.058 17.0581C11.814 17.3021 11.814 17.6979 12.058 17.9419C12.3021 18.186 12.6979 18.186 12.9419 17.9419L16.2753 14.6086C16.5193 14.3645 16.5193 13.9688 16.2753 13.7247L12.9419 10.3914Z" fill="black"/>
</svg>
