<svg width="20" height="20" viewBox="0 0 20 20" fill="none" xmlns="http://www.w3.org/2000/svg">
<path d="M11.2247 5.44194C10.9806 5.19786 10.9806 4.80214 11.2247 4.55806C11.4688 4.31398 11.8645 4.31398 12.1086 4.55806L17.1086 9.55806C17.3527 9.80214 17.3527 10.1979 17.1086 10.4419L12.1086 15.4419C11.8645 15.686 11.4688 15.686 11.2247 15.4419C10.9806 15.1979 10.9806 14.8021 11.2247 14.5581L14.4465 11.3363C14.709 11.0738 14.5231 10.625 14.1519 10.625H3.33334C2.98816 10.625 2.70834 10.3452 2.70834 10C2.70834 9.65482 2.98816 9.375 3.33334 9.375H14.1519C14.5231 9.375 14.709 8.92619 14.4465 8.66371L11.2247 5.44194Z" fill="black"/>
</svg>
