<svg width="20" height="20" viewBox="0 0 20 20" fill="none" xmlns="http://www.w3.org/2000/svg">
<path d="M7.37804 15.586C7.10186 15.379 6.70838 15.3748 6.4643 15.6188C6.22022 15.8629 6.21829 16.2618 6.48779 16.4775C7.45023 17.2477 8.67124 17.7083 9.99983 17.7083C13.1064 17.7083 15.6248 15.1899 15.6248 12.0833V11.6813C15.6248 11.3101 16.0736 11.1242 16.3361 11.3867L17.0581 12.1086C17.3021 12.3527 17.6979 12.3527 17.9419 12.1086C18.186 11.8645 18.186 11.4688 17.9419 11.2247L15.4419 8.7247C15.1979 8.48063 14.8021 8.48063 14.5581 8.7247L12.0581 11.2247C11.814 11.4688 11.814 11.8645 12.0581 12.1086C12.3021 12.3527 12.6979 12.3527 12.9419 12.1086L13.6635 11.387C13.926 11.1245 14.3748 11.3104 14.3748 11.6816V12.0833C14.3748 14.4996 12.4161 16.4583 9.99983 16.4583C9.01637 16.4583 8.10869 16.1338 7.37804 15.586Z" fill="black"/>
<path d="M5.44194 11.2753L7.94194 8.77525C8.18602 8.53118 8.18602 8.13545 7.94194 7.89137C7.69786 7.64729 7.30214 7.64729 7.05806 7.89137L6.33565 8.61378C6.08578 8.86365 5.65853 8.68668 5.65853 8.33331C5.65853 5.91707 7.61729 3.95831 10.0335 3.95831C11.017 3.95831 11.9247 4.28281 12.6553 4.83059C12.9315 5.03764 13.325 5.04186 13.5691 4.79778C13.8131 4.5537 13.8151 4.15485 13.5456 3.93917C12.5831 3.16892 11.3621 2.70831 10.0335 2.70831C6.92693 2.70831 4.40853 5.22671 4.40853 8.33331V8.35204C4.40853 8.72325 3.95973 8.90915 3.69724 8.64667L2.94194 7.89137C2.69786 7.64729 2.30214 7.64729 2.05806 7.89137C1.81398 8.13545 1.81398 8.53118 2.05806 8.77525L4.55806 11.2753C4.80214 11.5193 5.19786 11.5193 5.44194 11.2753Z" fill="black"/>
</svg>
