<svg width="20" height="20" viewBox="0 0 20 20" fill="none" xmlns="http://www.w3.org/2000/svg">
<path d="M0.628662 10C0.628662 9.65482 0.908484 9.375 1.25366 9.375H18.7461C19.0912 9.375 19.3711 9.65482 19.3711 10C19.3711 10.3452 19.0912 10.625 18.7461 10.625H1.25366C0.908484 10.625 0.628662 10.3452 0.628662 10Z" fill="black"/>
<path fill-rule="evenodd" clip-rule="evenodd" d="M1.66654 5.62765C1.66654 3.44152 3.43874 1.66931 5.62487 1.66931H7.29154C7.63672 1.66931 7.91654 1.94913 7.91654 2.29431C7.91654 2.63949 7.63672 2.91931 7.29154 2.91931H5.62487C4.1291 2.91931 2.91654 4.13187 2.91654 5.62765V7.11697C2.91654 7.46215 2.63672 7.74197 2.29154 7.74197C1.94636 7.74197 1.66654 7.46215 1.66654 7.11697V5.62765Z" fill="black"/>
<path fill-rule="evenodd" clip-rule="evenodd" d="M1.66654 14.375C1.66654 16.5611 3.43874 18.3333 5.62487 18.3333H7.29154C7.63672 18.3333 7.91654 18.0535 7.91654 17.7083C7.91654 17.3632 7.63672 17.0833 7.29154 17.0833H5.62487C4.1291 17.0833 2.91654 15.8708 2.91654 14.375V12.8857C2.91654 12.5405 2.63672 12.2607 2.29154 12.2607C1.94636 12.2607 1.66654 12.5405 1.66654 12.8857V14.375Z" fill="black"/>
<path fill-rule="evenodd" clip-rule="evenodd" d="M18.3332 5.62765C18.3332 3.44152 16.561 1.66931 14.3749 1.66931H12.7082C12.363 1.66931 12.0832 1.94913 12.0832 2.29431C12.0832 2.63949 12.363 2.91931 12.7082 2.91931H14.3749C15.8706 2.91931 17.0832 4.13187 17.0832 5.62765V7.11697C17.0832 7.46215 17.363 7.74197 17.7082 7.74197C18.0534 7.74197 18.3332 7.46215 18.3332 7.11697V5.62765Z" fill="black"/>
<path fill-rule="evenodd" clip-rule="evenodd" d="M18.3332 14.375C18.3332 16.5611 16.561 18.3333 14.3749 18.3333H12.7082C12.363 18.3333 12.0832 18.0535 12.0832 17.7083C12.0832 17.3632 12.363 17.0833 12.7082 17.0833H14.3749C15.8706 17.0833 17.0832 15.8708 17.0832 14.375V12.8857C17.0832 12.5405 17.363 12.2607 17.7082 12.2607C18.0534 12.2607 18.3332 12.5405 18.3332 12.8857V14.375Z" fill="black"/>
</svg>
