<svg width="20" height="20" viewBox="0 0 20 20" fill="none" xmlns="http://www.w3.org/2000/svg">
<path fill-rule="evenodd" clip-rule="evenodd" d="M12.3754 13.2593C12.2257 13.1096 11.9886 13.0974 11.8142 13.2173C10.9428 13.8162 9.88732 14.1667 8.75001 14.1667C5.75847 14.1667 3.33334 11.7416 3.33334 8.75001C3.33334 5.75847 5.75847 3.33334 8.75001 3.33334C11.7416 3.33334 14.1667 5.75847 14.1667 8.75001C14.1667 9.88732 13.8162 10.9428 13.2173 11.8142C13.0974 11.9886 13.1096 12.2257 13.2592 12.3754L17.1086 16.2248C17.3527 16.4689 17.3527 16.8647 17.1086 17.1087C16.8645 17.3528 16.4688 17.3528 16.2247 17.1087L12.3754 13.2593ZM12.9167 8.75001C12.9167 11.0512 11.0512 12.9167 8.75001 12.9167C6.44882 12.9167 4.58334 11.0512 4.58334 8.75001C4.58334 6.44882 6.44882 4.58334 8.75001 4.58334C11.0512 4.58334 12.9167 6.44882 12.9167 8.75001Z" fill="black"/>
</svg>
