<svg width="20" height="20" viewBox="0 0 20 20" fill="none" xmlns="http://www.w3.org/2000/svg">
<path d="M9.17979 13.4432C9.29198 13.5409 9.37504 13.6744 9.37504 13.8231V15C9.37504 15.3452 9.65486 15.625 10 15.625C10.3452 15.625 10.625 15.3452 10.625 15V13.8231C10.625 13.6744 10.7081 13.5409 10.8203 13.4432C11.0836 13.2141 11.25 12.8765 11.25 12.5C11.25 11.8096 10.6904 11.25 10 11.25C9.30968 11.25 8.75004 11.8096 8.75004 12.5C8.75004 12.8765 8.91648 13.2141 9.17979 13.4432Z" fill="black"/>
<path fill-rule="evenodd" clip-rule="evenodd" d="M6.25087 8.35901C6.47923 8.33059 6.66671 8.14678 6.66671 7.91666V4.99999C6.66671 3.15904 8.15909 1.66666 10 1.66666C11.841 1.66666 13.3334 3.15904 13.3334 4.99999V7.91666C13.3334 8.14678 13.5209 8.33059 13.7492 8.35901C15.3939 8.56368 16.6667 9.96653 16.6667 11.6667V15C16.6667 16.8409 15.1743 18.3333 13.3334 18.3333H6.66671C4.82576 18.3333 3.33337 16.8409 3.33337 15V11.6667C3.33337 9.96653 4.60617 8.56368 6.25087 8.35901ZM4.58337 11.6667C4.58337 10.5161 5.51611 9.58332 6.66671 9.58332H13.3334C14.484 9.58332 15.4167 10.5161 15.4167 11.6667V15C15.4167 16.1506 14.484 17.0833 13.3334 17.0833H6.66671C5.51611 17.0833 4.58337 16.1506 4.58337 15V11.6667ZM8.33337 8.33332C8.10325 8.33332 7.91671 8.14678 7.91671 7.91666V4.99999C7.91671 3.8494 8.84945 2.91666 10 2.91666C11.1506 2.91666 12.0834 3.8494 12.0834 4.99999V7.91666C12.0834 8.14678 11.8968 8.33332 11.6667 8.33332H8.33337Z" fill="black"/>
</svg>
