<svg width="20" height="20" viewBox="0 0 20 20" fill="none" xmlns="http://www.w3.org/2000/svg">
<path d="M2.5 5.2206C2.5 4.86865 2.77982 4.58334 3.125 4.58334H8.75C9.09518 4.58334 9.375 4.86865 9.375 5.2206C9.375 5.57254 9.09518 5.85785 8.75 5.85785H3.125C2.77982 5.85785 2.5 5.57254 2.5 5.2206Z" fill="black"/>
<path d="M10.8333 5.2206C10.8333 4.86865 11.1132 4.58334 11.4583 4.58334H16.875C17.2202 4.58334 17.5 4.86865 17.5 5.2206C17.5 5.57254 17.2202 5.85785 16.875 5.85785H11.4583C11.1132 5.85785 10.8333 5.57254 10.8333 5.2206Z" fill="black"/>
<path d="M13.3333 8.40687C13.3333 8.05493 13.6132 7.76962 13.9583 7.76962H16.875C17.2202 7.76962 17.5 8.05493 17.5 8.40687C17.5 8.75882 17.2202 9.04413 16.875 9.04413H13.9583C13.6132 9.04413 13.3333 8.75882 13.3333 8.40687Z" fill="black"/>
<path d="M6.66667 11.5931C6.66667 11.2412 6.38684 10.9559 6.04167 10.9559H3.125C2.77983 10.9559 2.5 11.2412 2.5 11.5931C2.5 11.9451 2.77983 12.2304 3.125 12.2304H6.04167C6.38684 12.2304 6.66667 11.9451 6.66667 11.5931Z" fill="black"/>
<path d="M2.5 8.40687C2.5 8.05493 2.77982 7.76962 3.125 7.76962H11.25C11.5952 7.76962 11.875 8.05493 11.875 8.40687C11.875 8.75882 11.5952 9.04413 11.25 9.04413H3.125C2.77982 9.04413 2.5 8.75882 2.5 8.40687Z" fill="black"/>
<path d="M17.5 11.5931C17.5 11.2412 17.2202 10.9559 16.875 10.9559H8.75C8.40482 10.9559 8.125 11.2412 8.125 11.5931C8.125 11.9451 8.40482 12.2304 8.75 12.2304H16.875C17.2202 12.2304 17.5 11.9451 17.5 11.5931Z" fill="black"/>
<path d="M2.5 14.7794C2.5 14.4275 2.77982 14.1422 3.125 14.1422H8.75C9.09518 14.1422 9.375 14.4275 9.375 14.7794C9.375 15.1314 9.09518 15.4167 8.75 15.4167H3.125C2.77982 15.4167 2.5 15.1314 2.5 14.7794Z" fill="black"/>
<path d="M10.8333 14.7794C10.8333 14.4275 11.1132 14.1422 11.4583 14.1422H16.875C17.2202 14.1422 17.5 14.4275 17.5 14.7794C17.5 15.1314 17.2202 15.4167 16.875 15.4167H11.4583C11.1132 15.4167 10.8333 15.1314 10.8333 14.7794Z" fill="black"/>
</svg>
