<svg width="20" height="20" viewBox="0 0 20 20" fill="none" xmlns="http://www.w3.org/2000/svg">
<path fill-rule="evenodd" clip-rule="evenodd" d="M9.68269 14.2973L4.16803 16.5681C3.71166 16.756 3.2579 16.2942 3.4538 15.8412L9.41794 2.0491C9.51833 1.81695 9.74707 1.66666 9.99999 1.66666C10.2529 1.66666 10.4816 1.81695 10.582 2.0491L16.5462 15.8412C16.7421 16.2942 16.2883 16.756 15.8319 16.5681L10.3173 14.2973C10.114 14.2136 9.88594 14.2136 9.68269 14.2973ZM9.37499 12.9015C9.37499 13.008 9.30526 13.1009 9.20676 13.1415L6.23277 14.366C5.88704 14.5084 5.54328 14.1586 5.69169 13.8154L8.97543 6.22171C9.06521 6.01412 9.37499 6.07823 9.37499 6.3044V12.9015ZM10.625 12.9015C10.625 13.008 10.6947 13.1009 10.7932 13.1415L13.7672 14.366C14.1129 14.5084 14.4567 14.1586 14.3083 13.8154L11.0245 6.22171C10.9348 6.01412 10.625 6.07823 10.625 6.3044V12.9015Z" fill="black"/>
</svg>
