<svg width="20" height="20" viewBox="0 0 20 20" fill="none" xmlns="http://www.w3.org/2000/svg">
<path fill-rule="evenodd" clip-rule="evenodd" d="M10 17.0834C13.912 17.0834 17.0833 13.912 17.0833 10C17.0833 6.088 13.912 2.91669 10 2.91669C6.08798 2.91669 2.91667 6.088 2.91667 10C2.91667 13.912 6.08798 17.0834 10 17.0834ZM10 18.3334C14.6024 18.3334 18.3333 14.6024 18.3333 10C18.3333 5.39765 14.6024 1.66669 10 1.66669C5.39763 1.66669 1.66667 5.39765 1.66667 10C1.66667 14.6024 5.39763 18.3334 10 18.3334Z" fill="black"/>
<path d="M8.33333 7.91669C8.33333 8.83716 7.77369 9.58335 7.08333 9.58335C6.39298 9.58335 5.83333 8.83716 5.83333 7.91669C5.83333 6.99621 6.39298 6.25002 7.08333 6.25002C7.77369 6.25002 8.33333 6.99621 8.33333 7.91669Z" fill="black"/>
<path d="M14.1667 7.91669C14.1667 8.83716 13.607 9.58335 12.9167 9.58335C12.2263 9.58335 11.6667 8.83716 11.6667 7.91669C11.6667 6.99621 12.2263 6.25002 12.9167 6.25002C13.607 6.25002 14.1667 6.99621 14.1667 7.91669Z" fill="black"/>
<path fill-rule="evenodd" clip-rule="evenodd" d="M6.84586 12.1525C6.5045 12.1198 6.2682 12.4806 6.48243 12.7483C7.1404 13.5708 8.23318 14.375 10 14.375C11.7668 14.375 12.8596 13.5708 13.5176 12.7483C13.7318 12.4806 13.4955 12.1198 13.1541 12.1525C12.3471 12.2297 11.2957 12.2917 10 12.2917C8.70435 12.2917 7.65295 12.2297 6.84586 12.1525ZM4.82754 11.1043C5.05525 10.8428 5.41242 10.7034 5.78317 10.7618C6.52877 10.8791 7.93428 11.0417 10 11.0417C12.0657 11.0417 13.4712 10.8791 14.2168 10.7618C14.5876 10.7034 14.9447 10.8428 15.1725 11.1043C15.4081 11.3748 15.5 11.776 15.3271 12.1597C14.7989 13.3317 13.3271 15.625 10 15.625C6.67289 15.625 5.20106 13.3317 4.67291 12.1597C4.50001 11.776 4.59194 11.3748 4.82754 11.1043Z" fill="black"/>
</svg>
