<svg width="20" height="20" viewBox="0 0 20 20" fill="none" xmlns="http://www.w3.org/2000/svg">
<path fill-rule="evenodd" clip-rule="evenodd" d="M6.875 7.51089C6.87486 7.50312 6.87486 7.49537 6.875 7.48765V6.25309C6.875 4.74283 7.95508 3.44867 9.44099 3.1785L14.5901 2.24231C15.9968 1.98654 17.2917 3.06723 17.2917 4.49701V5.82237C17.2918 5.83017 17.2918 5.83795 17.2917 5.8457V13.6336C17.2917 14.726 16.5206 15.6666 15.4494 15.8808L14.5774 16.0552C13.1794 16.3348 11.875 15.2655 11.875 13.8398C11.875 12.7628 12.6352 11.8356 13.6912 11.6244L15.2043 11.3218C15.6912 11.2244 16.0417 10.7969 16.0417 10.3003V7.08146C16.0417 6.8215 15.8062 6.62501 15.5505 6.67151L8.46713 7.95939C8.26901 7.99541 8.125 8.16797 8.125 8.36934V15.3003C8.125 16.3927 7.35395 17.3332 6.28277 17.5475L5.41072 17.7219C4.01269 18.0015 2.70834 16.9322 2.70834 15.5065C2.70834 14.4295 3.4685 13.5022 4.52455 13.291L6.03762 12.9884C6.52452 12.891 6.875 12.4635 6.875 11.967V7.51089ZM14.8137 3.47214C15.4531 3.35589 16.0417 3.84711 16.0417 4.49701V4.96397C16.0417 5.16534 15.8977 5.33789 15.6995 5.37391L8.61498 6.66202C8.35985 6.7084 8.125 6.5124 8.125 6.25309C8.125 5.34693 8.77305 4.57044 9.66459 4.40834L14.8137 3.47214ZM15.4494 12.5475C15.7315 12.4911 16.0417 12.6831 16.0417 12.9707V13.6336C16.0417 14.1302 15.6912 14.5577 15.2043 14.6551L14.3322 14.8295C13.7077 14.9544 13.125 14.4767 13.125 13.8398C13.125 13.3587 13.4646 12.9444 13.9364 12.8501L15.4494 12.5475ZM6.28277 14.2141C6.56487 14.1577 6.875 14.3497 6.875 14.6374V15.3003C6.875 15.7969 6.52452 16.2244 6.03762 16.3218L5.16558 16.4962C4.54103 16.6211 3.95834 16.1434 3.95834 15.5065C3.95834 15.0253 4.29792 14.6111 4.7697 14.5168L6.28277 14.2141Z" fill="black"/>
</svg>
