<svg width="20" height="20" viewBox="0 0 20 20" fill="none" xmlns="http://www.w3.org/2000/svg">
<path d="M8.99806 14.9252C9.21084 14.9573 9.37498 15.1356 9.37498 15.3508V17.5C9.37498 17.8452 9.6548 18.125 9.99998 18.125C10.3452 18.125 10.625 17.8452 10.625 17.5V15.3508C10.625 15.1356 10.7891 14.9573 11.0019 14.9252C12.226 14.7406 13.3411 14.2232 14.252 13.4681C14.5177 13.2478 14.516 12.8495 14.2719 12.6054C14.0278 12.3613 13.6341 12.3646 13.3637 12.5791C12.4397 13.3122 11.2709 13.75 9.99982 13.75C8.72875 13.75 7.55994 13.3122 6.63595 12.5791C6.36554 12.3646 5.97179 12.3613 5.72772 12.6054C5.48364 12.8495 5.48193 13.2478 5.74766 13.4681C6.6586 14.2233 7.77379 14.7407 8.99806 14.9252Z" fill="black"/>
<path fill-rule="evenodd" clip-rule="evenodd" d="M9.99998 1.66666C8.15903 1.66666 6.66665 3.15904 6.66665 4.99999V8.33332C6.66665 10.1743 8.15903 11.6667 9.99998 11.6667C11.8409 11.6667 13.3333 10.1743 13.3333 8.33332V4.99999C13.3333 3.15904 11.8409 1.66666 9.99998 1.66666ZM12.0833 8.33332V4.99999C12.0833 3.8494 11.1506 2.91666 9.99998 2.91666C8.84939 2.91666 7.91665 3.8494 7.91665 4.99999V8.33332C7.91665 9.48392 8.84939 10.4167 9.99998 10.4167C11.1506 10.4167 12.0833 9.48392 12.0833 8.33332Z" fill="black"/>
</svg>
