<svg width="20" height="20" viewBox="0 0 20 20" fill="none" xmlns="http://www.w3.org/2000/svg">
<path d="M10.0504 9.81908C10.51 9.86859 10.9697 9.91811 11.5348 9.88555C13.0661 9.79721 13.9938 8.98323 13.928 7.76676C13.861 6.52908 12.6268 5.76667 11.3919 5.83792C9.3797 5.95418 7.89993 7.78323 7.73304 9.8741C8.0063 9.80904 8.28478 9.7684 8.5652 9.75265C9.13064 9.72 9.5905 9.76954 10.0504 9.81908Z" fill="black"/>
<path d="M6.06964 12.3572C6.13384 13.5154 7.31605 14.2292 8.49902 14.1623C10.4268 14.0537 11.8444 12.3418 12.004 10.3851C11.742 10.446 11.4753 10.484 11.2068 10.4987C10.6652 10.5293 10.2248 10.483 9.78424 10.4366C9.34391 10.3902 8.90357 10.3439 8.36225 10.3744C6.89526 10.4571 6.00651 11.2187 6.06964 12.3572Z" fill="black"/>
<path fill-rule="evenodd" clip-rule="evenodd" d="M18.3333 9.99999C18.3333 14.6024 14.6024 18.3333 10 18.3333C5.39763 18.3333 1.66667 14.6024 1.66667 9.99999C1.66667 5.39762 5.39763 1.66666 10 1.66666C14.6024 1.66666 18.3333 5.39762 18.3333 9.99999ZM17.0833 9.99999C17.0833 13.912 13.912 17.0833 10 17.0833C6.08798 17.0833 2.91667 13.912 2.91667 9.99999C2.91667 6.08797 6.08798 2.91666 10 2.91666C13.912 2.91666 17.0833 6.08797 17.0833 9.99999Z" fill="black"/>
</svg>
