<svg width="20" height="20" viewBox="0 0 20 20" fill="none" xmlns="http://www.w3.org/2000/svg">
<path d="M7.97384 12.9054C7.69088 12.7077 7.29762 12.7022 7.05354 12.9463C6.80946 13.1904 6.80732 13.5899 7.08092 13.8003C7.88915 14.422 8.90131 14.7917 9.99982 14.7917C11.0983 14.7917 12.1105 14.422 12.9187 13.8003C13.1923 13.5899 13.1902 13.1904 12.9461 12.9463C12.702 12.7022 12.3088 12.7077 12.0258 12.9054C11.4517 13.3064 10.7532 13.5417 9.99982 13.5417C9.24639 13.5417 8.54792 13.3064 7.97384 12.9054Z" fill="black"/>
<path fill-rule="evenodd" clip-rule="evenodd" d="M18.2205 11.375C18.2834 10.9956 18.2466 10.6197 18.1335 10.2646C17.9865 9.80351 17.7108 9.37748 17.3577 9.02432L10.9757 2.64234C10.6225 2.28918 10.1965 2.01348 9.73541 1.86653C9.69103 1.85239 9.64632 1.83943 9.60132 1.82772C9.2863 1.74573 8.95702 1.72445 8.62503 1.77957C8.57418 1.78801 8.52349 1.79691 8.47296 1.80627C4.59989 2.52354 1.66669 5.91923 1.66669 10C1.66669 14.6024 5.39765 18.3333 10 18.3333C14.0808 18.3333 17.4765 15.4001 18.1937 11.5271C18.2031 11.4765 18.212 11.4258 18.2205 11.375ZM2.91669 10C2.91669 6.73864 5.12187 3.99023 8.12253 3.16785C8.2298 3.13845 8.33335 3.2221 8.33335 3.33333C8.33335 7.9357 12.0643 11.6667 16.6667 11.6667C16.7779 11.6667 16.8616 11.7702 16.8322 11.8775C16.0098 14.8781 13.2614 17.0833 10 17.0833C6.088 17.0833 2.91669 13.912 2.91669 10ZM16.6667 10.4167C16.7509 10.4167 16.8034 10.328 16.7578 10.2571C16.6821 10.1395 16.5879 10.0223 16.4738 9.90821L10.0918 3.52623C9.97776 3.41217 9.86052 3.31789 9.74287 3.2422C9.67203 3.19662 9.58335 3.2491 9.58335 3.33333C9.58335 7.24535 12.7547 10.4167 16.6667 10.4167Z" fill="black"/>
</svg>
