<svg width="20" height="20" viewBox="0 0 20 20" fill="none" xmlns="http://www.w3.org/2000/svg">
<path d="M5.39139 10.3914C5.63547 10.1473 6.0312 10.1473 6.27528 10.3914C6.51935 10.6355 6.51935 11.0312 6.27528 11.2753L4.72018 12.8304C4.45769 13.0929 4.6436 13.5417 5.01481 13.5417H14.1667C15.6624 13.5417 16.875 12.3291 16.875 10.8333V10C16.875 9.65482 17.1548 9.375 17.5 9.375C17.8452 9.375 18.125 9.65482 18.125 10V10.8333C18.125 13.0195 16.3528 14.7917 14.1667 14.7917H5.01481C4.6436 14.7917 4.45769 15.2405 4.72018 15.503L6.27528 17.0581C6.51935 17.3021 6.51935 17.6979 6.27528 17.9419C6.0312 18.186 5.63547 18.186 5.39139 17.9419L2.05806 14.6086C1.81398 14.3645 1.81398 13.9688 2.05806 13.7247L5.39139 10.3914Z" fill="black"/>
<path d="M13.7247 2.05806C13.4806 2.30214 13.4806 2.69786 13.7247 2.94194L15.2798 4.49704C15.5423 4.75952 15.3564 5.20833 14.9852 5.20833H5.83333C3.64721 5.20833 1.875 6.98054 1.875 9.16667V10C1.875 10.3452 2.15482 10.625 2.5 10.625C2.84518 10.625 3.125 10.3452 3.125 10V9.16667C3.125 7.6709 4.33756 6.45833 5.83333 6.45833H14.9852C15.3564 6.45833 15.5423 6.90714 15.2798 7.16963L13.7247 8.72472C13.4806 8.9688 13.4806 9.36453 13.7247 9.60861C13.9688 9.85269 14.3645 9.85269 14.6086 9.60861L17.9419 6.27528C18.186 6.0312 18.186 5.63547 17.9419 5.39139L14.6086 2.05806C14.3645 1.81398 13.9688 1.81398 13.7247 2.05806Z" fill="black"/>
</svg>
