<svg width="20" height="20" viewBox="0 0 20 20" fill="none" xmlns="http://www.w3.org/2000/svg">
<path fill-rule="evenodd" clip-rule="evenodd" d="M10.3054 7.14033C10.1389 7.33839 9.83399 7.33839 9.66749 7.14033L8.47782 5.72522C6.9929 3.95891 4.21157 4.36142 3.26739 6.47927C2.64593 7.87324 2.8755 9.49069 3.85547 10.6031C4.4324 11.258 5.00549 11.8913 5.43375 12.328C6.00864 12.9141 7.28838 13.9237 8.50183 14.8364C8.95457 15.1769 9.38408 15.4936 9.74184 15.7549C9.88759 15.8613 10.0853 15.8613 10.231 15.7549C10.5888 15.4936 11.0183 15.1769 11.471 14.8364C12.6845 13.9237 13.9642 12.9141 14.5391 12.328C15.1108 11.7451 15.6721 11.1354 16.1792 10.5654C17.132 9.4944 17.3467 7.91752 16.7309 6.53635C15.7749 4.39189 12.9586 3.98432 11.455 5.77283L10.3054 7.14033ZM9.14725 4.58406C7.01191 2.46934 3.39046 3.10983 2.12444 5.94958C1.30391 7.79007 1.59643 9.95437 2.92142 11.4585C3.50105 12.1165 4.09272 12.771 4.54599 13.2331C5.6643 14.3733 8.84972 16.6846 9.74799 17.3295C9.89189 17.4328 10.081 17.4328 10.2249 17.3295C11.1231 16.6846 14.3086 14.3733 15.4269 13.2331C16.0167 12.6318 16.5923 12.0063 17.1091 11.4254C18.4217 9.95003 18.6823 7.82008 17.8739 6.00666C16.6046 3.15967 12.9889 2.50354 10.8294 4.58856C10.716 4.69804 10.6066 4.81509 10.5018 4.93978L10.3054 5.17341C10.1389 5.37146 9.834 5.37146 9.66749 5.17341L9.43106 4.89217C9.33982 4.78364 9.2451 4.68096 9.14725 4.58406Z" fill="black"/>
</svg>
