<svg width="20" height="20" viewBox="0 0 20 20" fill="none" xmlns="http://www.w3.org/2000/svg">
<path fill-rule="evenodd" clip-rule="evenodd" d="M1.66669 4.99999C1.66669 3.15904 3.15907 1.66666 5.00002 1.66666H10C11.841 1.66666 13.3334 3.15904 13.3334 4.99999V6.24999C13.3334 6.48011 13.5199 6.66666 13.75 6.66666H15C16.841 6.66666 18.3334 8.15904 18.3334 9.99999V15C18.3334 16.8409 16.841 18.3333 15 18.3333H10C8.15907 18.3333 6.66669 16.8409 6.66669 15V13.75C6.66669 13.5199 6.48014 13.3333 6.25002 13.3333H5.00002C3.15907 13.3333 1.66669 11.8409 1.66669 9.99999V4.99999ZM5.00002 2.91666H10C11.1506 2.91666 12.0834 3.8494 12.0834 4.99999V9.99999C12.0834 11.1506 11.1506 12.0833 10 12.0833H5.00002C3.84943 12.0833 2.91669 11.1506 2.91669 9.99999V4.99999C2.91669 3.8494 3.84943 2.91666 5.00002 2.91666ZM8.33335 13.3333C8.10324 13.3333 7.91669 13.5199 7.91669 13.75V15C7.91669 16.1506 8.84943 17.0833 10 17.0833H15C16.1506 17.0833 17.0834 16.1506 17.0834 15V9.99999C17.0834 8.8494 16.1506 7.91666 15 7.91666H13.75C13.5199 7.91666 13.3334 8.1032 13.3334 8.33332V9.99999C13.3334 11.8409 11.841 13.3333 10 13.3333H8.33335Z" fill="black"/>
</svg>
