<svg width="20" height="20" viewBox="0 0 20 20" fill="none" xmlns="http://www.w3.org/2000/svg">
<path d="M16.6223 7.54028C16.6223 5.38574 15.2429 3.62183 13.4729 3.62183H11.4648C10.6409 3.20068 9.66431 2.95654 8.59009 2.95654H7.7356C6.94214 2.95654 6.26465 3.00537 5.8252 3.11523C4.92798 3.33496 4.36035 3.97583 4.36035 4.77539C4.36035 4.91577 4.38477 5.05005 4.42139 5.17822C4.00024 5.50781 3.76221 5.98389 3.76221 6.50879C3.76221 6.75293 3.81104 6.99097 3.89648 7.19238C3.61572 7.49146 3.45093 7.9248 3.45093 8.37036C3.45093 8.66333 3.52417 8.9624 3.64624 9.19434C3.47534 9.45068 3.37769 9.79858 3.37769 10.1831C3.37769 11.1597 4.12231 11.9104 5.08667 11.9104H7.35718C7.48535 11.9104 7.5708 11.9714 7.5647 12.0874C7.53418 12.7161 6.54541 14.2297 6.54541 15.4688C6.54541 16.3782 7.18628 17.0435 8.07129 17.0435C8.71216 17.0435 9.15161 16.7078 9.57275 15.9082C10.3357 14.4434 11.2512 13.1616 12.6123 11.4832H13.7048C15.365 11.4832 16.6223 9.73145 16.6223 7.54028ZM12.8198 7.58911C12.8198 8.88306 12.533 9.70703 11.7029 10.8179C10.7812 12.0508 9.49951 13.54 8.57788 15.3833C8.38257 15.7678 8.24829 15.8594 8.05908 15.8594C7.82715 15.8594 7.67456 15.6946 7.67456 15.4016C7.67456 14.4983 8.70605 12.9846 8.70605 11.9897C8.70605 11.2573 8.11401 10.7812 7.30835 10.7812H5.11719C4.76318 10.7812 4.50073 10.5188 4.50073 10.1648C4.50073 9.91455 4.58618 9.74976 4.7937 9.54224C4.95239 9.37744 4.97681 9.14551 4.83643 8.98682C4.65942 8.73657 4.58618 8.57788 4.58618 8.37036C4.58618 8.12012 4.70215 7.90649 4.94629 7.72339C5.15381 7.5769 5.22705 7.32666 5.10498 7.08252C4.97681 6.83838 4.90967 6.71021 4.90967 6.521C4.90967 6.22803 5.09888 6.0022 5.47729 5.80078C5.67871 5.69092 5.73364 5.47729 5.64819 5.28198C5.52002 4.9707 5.50171 4.91577 5.50781 4.78149C5.50781 4.51904 5.69702 4.31152 6.10596 4.20776C6.46606 4.11621 7.03979 4.07959 7.79663 4.08569L8.58398 4.0918C11.1108 4.11621 12.8198 5.53223 12.8198 7.58911ZM15.5176 7.54028C15.5176 9.09058 14.718 10.3296 13.8025 10.3662C13.6438 10.3723 13.4851 10.3723 13.3264 10.3723C13.7598 9.52393 13.949 8.64502 13.949 7.58911C13.949 6.46606 13.5583 5.47729 12.8503 4.70215C13.0762 4.70215 13.3081 4.70825 13.54 4.70825C14.6082 4.75098 15.5176 6.0022 15.5176 7.54028Z" fill="black"/>
</svg>
