<svg width="20" height="20" viewBox="0 0 20 20" fill="none" xmlns="http://www.w3.org/2000/svg">
<path d="M9.24488 12.8173C10.2041 13.0743 11.1798 12.8219 11.8847 12.226C12.0604 12.0776 12.3219 12.0592 12.494 12.2118L12.806 12.4884C12.9782 12.6411 12.9952 12.9064 12.8259 13.0624C12.3353 13.5143 11.7414 13.8438 11.097 14.0203C10.9454 14.0618 10.8221 14.1761 10.7814 14.328L10.517 15.3149C10.4574 15.5372 10.229 15.6691 10.0067 15.6096L9.60422 15.5017C9.38195 15.4422 9.25004 15.2137 9.3096 14.9914L9.41205 14.609C9.478 14.3629 9.30877 14.1171 9.06055 14.0595C9.01414 14.0487 8.96773 14.0371 8.92136 14.0247C8.87507 14.0123 8.82917 13.9991 8.78367 13.9853C8.53991 13.9111 8.27045 14.0394 8.2045 14.2855L8.10205 14.6678C8.04249 14.8901 7.81401 15.022 7.59174 14.9625L7.18927 14.8546C6.96699 14.7951 6.83508 14.5666 6.89464 14.3443L7.15904 13.3576C7.19974 13.2057 7.15014 13.045 7.03956 12.9332C6.03262 11.9151 5.57772 10.4045 5.97508 8.92157C6.37246 7.43854 7.52177 6.35778 8.90291 5.97958C9.05459 5.93804 9.17788 5.82371 9.21858 5.67181L9.48297 4.68507C9.54253 4.4628 9.77101 4.33089 9.99329 4.39045L10.3958 4.49829C10.618 4.55785 10.7499 4.78632 10.6904 5.0086L10.5879 5.39101C10.522 5.63713 10.6912 5.88298 10.9394 5.94059C10.9857 5.95133 11.0319 5.9629 11.0782 5.97529C11.1245 5.9877 11.1704 6.00084 11.2159 6.01469C11.4597 6.08891 11.7291 5.9606 11.7951 5.71448L11.8975 5.33215C11.9571 5.10987 12.1856 4.97796 12.4078 5.03752L12.8103 5.14536C13.0326 5.20492 13.1645 5.43339 13.1049 5.65567L12.8405 6.64241C12.7998 6.79431 12.8494 6.95494 12.96 7.06675C13.4299 7.54184 13.7795 8.12417 13.9785 8.76089C14.0472 8.98065 13.8998 9.2019 13.6742 9.24806L13.2657 9.33165C13.0404 9.37776 12.8231 9.23104 12.7452 9.01463C12.4326 8.14608 11.7139 7.43971 10.7547 7.1827C9.19872 6.76578 7.5994 7.68915 7.18249 9.24509C6.76557 10.801 7.68894 12.4004 9.24488 12.8173Z" fill="black"/>
<path fill-rule="evenodd" clip-rule="evenodd" d="M18.3334 9.99999C18.3334 14.6024 14.6024 18.3333 10 18.3333C5.39765 18.3333 1.66669 14.6024 1.66669 9.99999C1.66669 5.39762 5.39765 1.66666 10 1.66666C14.6024 1.66666 18.3334 5.39762 18.3334 9.99999ZM17.0834 9.99999C17.0834 13.912 13.912 17.0833 10 17.0833C6.088 17.0833 2.91669 13.912 2.91669 9.99999C2.91669 6.08797 6.088 2.91666 10 2.91666C13.912 2.91666 17.0834 6.08797 17.0834 9.99999Z" fill="black"/>
</svg>
