<svg width="20" height="20" viewBox="0 0 20 20" fill="none" xmlns="http://www.w3.org/2000/svg">
<path d="M9.24118 17.9934C9.50467 18.1857 9.87208 18.0932 10.0316 17.8087C10.1812 17.5418 10.0904 17.206 9.84063 17.0292C7.54506 15.4042 6.475 12.7151 6.475 10.8892C6.475 9.51729 7.3875 8.47562 8.5875 8.47562C9.85 8.47562 10.775 9.35214 10.775 10.5462C10.775 12.4136 12.25 13.8872 14.125 13.8872C16.05 13.8872 17.5 12.2358 17.5 10.0254C17.5 5.29981 13.625 1.66668 8.575 1.66668C6.69789 1.66668 4.96709 2.19203 3.52045 3.18144C3.21098 3.3931 3.18463 3.82967 3.44387 4.10054C3.67372 4.34071 4.04733 4.36263 4.32335 4.17736C5.53803 3.36208 6.99815 2.937 8.575 2.937C12.925 2.937 16.25 5.99848 16.25 10.0254C16.25 11.5244 15.3625 12.6042 14.125 12.6042C12.9375 12.6042 12.0125 11.7022 12.0125 10.5462C12.0125 8.57725 10.6625 7.218 8.7125 7.218C6.675 7.218 5.2375 8.74239 5.2375 10.8892C5.2375 13.1158 6.6139 16.0756 9.24118 17.9934ZM4.35413 16.8989C4.54628 17.2069 4.96383 17.2639 5.24621 17.0358C5.50217 16.829 5.55392 16.4608 5.38217 16.1801C4.38726 14.5543 3.75 12.5666 3.75 10.9655C3.75 7.89127 5.7375 5.73172 8.575 5.73172C11.4 5.73172 13.575 7.73883 13.575 10.3684C13.575 11.2449 14.8125 11.2195 14.8125 10.3684C14.8125 7.04015 12.0875 4.44869 8.575 4.44869C5.05 4.44869 2.5 7.16718 2.5 10.9655C2.5 12.8283 3.21693 15.0762 4.35413 16.8989ZM13.4544 16.6202C13.8091 16.6504 14.0943 16.3537 14.0874 15.9978C14.0805 15.6454 13.789 15.369 13.4384 15.3328C11.0016 15.0814 9.25 13.1902 9.25 10.6733C9.25 10.2414 9.0375 10 8.6625 10C8.2625 10 8.0125 10.2541 8.0125 10.6733C8.0125 13.8865 10.3164 16.3528 13.4544 16.6202Z" fill="black"/>
</svg>
