<svg width="20" height="20" viewBox="0 0 20 20" fill="none" xmlns="http://www.w3.org/2000/svg">
<path d="M14.0892 12.357C14.0892 12.7022 14.369 12.982 14.7142 12.982C15.0593 12.982 15.3392 12.7022 15.3392 12.357L15.3392 5.28597C15.3392 4.9408 15.0593 4.66097 14.7142 4.66097L7.6431 4.66098C7.29792 4.66098 7.0181 4.9408 7.0181 5.28598C7.0181 5.63115 7.29792 5.91098 7.6431 5.91098L12.1994 5.91097C12.5706 5.91097 12.7565 6.35979 12.494 6.62227L4.84413 14.2721C4.60006 14.5162 4.60006 14.9119 4.84413 15.156C5.08821 15.4001 5.48394 15.4001 5.72802 15.156L13.3779 7.50615C13.6404 7.24367 14.0892 7.42957 14.0892 7.80078L14.0892 12.357Z" fill="black"/>
</svg>
