<svg width="20" height="20" viewBox="0 0 20 20" fill="none" xmlns="http://www.w3.org/2000/svg">
<path d="M5.44194 8.77525C5.19786 9.01933 4.80214 9.01933 4.55806 8.77525C4.31398 8.53118 4.31398 8.13545 4.55806 7.89137L9.55806 2.89137C9.80214 2.64729 10.1979 2.64729 10.4419 2.89137L15.4419 7.89137C15.686 8.13545 15.686 8.53118 15.4419 8.77525C15.1979 9.01933 14.8021 9.01933 14.5581 8.77525L11.3363 5.55349C11.0738 5.29101 10.625 5.47691 10.625 5.84812L10.625 16.6666C10.625 17.0118 10.3452 17.2916 10 17.2916C9.65482 17.2916 9.375 17.0118 9.375 16.6666L9.375 5.84812C9.375 5.47691 8.92619 5.29101 8.66371 5.55349L5.44194 8.77525Z" fill="black"/>
</svg>
