<svg width="20" height="20" viewBox="0 0 20 20" fill="none" xmlns="http://www.w3.org/2000/svg">
<path fill-rule="evenodd" clip-rule="evenodd" d="M9.99996 1.66666C5.39759 1.66666 1.66663 5.39762 1.66663 9.99999C1.66663 14.6024 5.39759 18.3333 9.99996 18.3333C10.3451 18.3333 10.625 18.0535 10.625 17.7083C10.625 17.3631 10.3451 17.0833 9.99996 17.0833C6.08794 17.0833 2.91663 13.912 2.91663 9.99999C2.91663 6.08797 6.08794 2.91666 9.99996 2.91666C13.912 2.91666 17.0833 6.08797 17.0833 9.99999V11.9792C17.0833 12.8421 16.3837 13.5417 15.5208 13.5417C14.6578 13.5417 13.9583 12.8421 13.9583 11.9792V6.66666C13.9583 6.32148 13.6785 6.04166 13.3333 6.04166C12.9881 6.04166 12.7083 6.32148 12.7083 6.66666C12.7083 6.76466 12.5891 6.81621 12.5142 6.75305C11.8159 6.1645 10.9286 5.83332 9.99996 5.83332C7.69877 5.83332 5.83329 7.6988 5.83329 9.99999C5.83329 12.3012 7.69877 14.1667 9.99996 14.1667C10.8591 14.1667 11.6828 13.8832 12.3542 13.3748C12.6045 13.1852 13.0002 13.267 13.1734 13.5288C13.6767 14.2898 14.5401 14.7917 15.5208 14.7917C17.0741 14.7917 18.3333 13.5325 18.3333 11.9792V9.99999C18.3333 5.39762 14.6023 1.66666 9.99996 1.66666ZM12.7083 9.99999C12.7083 11.8096 11.3929 12.9167 9.99996 12.9167C8.38913 12.9167 7.08329 11.6108 7.08329 9.99999C7.08329 8.38916 8.38913 7.08332 9.99996 7.08332C11.3929 7.08332 12.7083 8.19035 12.7083 9.99999Z" fill="black"/>
</svg>
