<svg width="20" height="20" viewBox="0 0 20 20" fill="none" xmlns="http://www.w3.org/2000/svg">
<path d="M5.00001 4.37499C4.65483 4.37499 4.37501 4.65481 4.37501 4.99999C4.37501 5.34517 4.65483 5.62499 5.00001 5.62499H15C15.3452 5.62499 15.625 5.34517 15.625 4.99999C15.625 4.65481 15.3452 4.37499 15 4.37499H5.00001Z" fill="black"/>
<path fill-rule="evenodd" clip-rule="evenodd" d="M5.00001 1.66666C3.15906 1.66666 1.66667 3.15904 1.66667 4.99999V15C1.66667 16.8409 3.15906 18.3333 5.00001 18.3333H15C16.841 18.3333 18.3333 16.8409 18.3333 15V4.99999C18.3333 3.15904 16.841 1.66666 15 1.66666H5.00001ZM5.00001 2.91666C3.84941 2.91666 2.91667 3.8494 2.91667 4.99999C2.91667 6.15058 3.84941 7.08332 5.00001 7.08332H15C16.1506 7.08332 17.0833 6.15058 17.0833 4.99999C17.0833 3.8494 16.1506 2.91666 15 2.91666H5.00001ZM17.0833 15V8.47026C17.0833 8.12069 16.6633 7.91048 16.3435 8.05151C15.9325 8.23271 15.478 8.33332 15 8.33332H5.00001C4.522 8.33332 4.0675 8.23271 3.65652 8.05151C3.33666 7.91048 2.91667 8.12069 2.91667 8.47026V15C2.91667 16.1506 3.84941 17.0833 5.00001 17.0833H15C16.1506 17.0833 17.0833 16.1506 17.0833 15Z" fill="black"/>
</svg>
