<svg width="20" height="20" viewBox="0 0 20 20" fill="none" xmlns="http://www.w3.org/2000/svg">
<path d="M10 5.20832C10.3452 5.20832 10.625 5.48815 10.625 5.83332V11.6667C10.625 12.0118 10.3452 12.2917 10 12.2917C9.65484 12.2917 9.37502 12.0118 9.37502 11.6667V5.83332C9.37502 5.48815 9.65484 5.20832 10 5.20832Z" fill="black"/>
<path d="M10 15.625C10.5753 15.625 11.0417 15.1586 11.0417 14.5833C11.0417 14.008 10.5753 13.5417 10 13.5417C9.42472 13.5417 8.95835 14.008 8.95835 14.5833C8.95835 15.1586 9.42472 15.625 10 15.625Z" fill="black"/>
<path fill-rule="evenodd" clip-rule="evenodd" d="M1.66669 9.99999C1.66669 14.6024 5.39765 18.3333 10 18.3333C14.6024 18.3333 18.3334 14.6024 18.3334 9.99999C18.3334 5.39762 14.6024 1.66666 10 1.66666C5.39765 1.66666 1.66669 5.39762 1.66669 9.99999ZM2.91669 9.99999C2.91669 13.912 6.088 17.0833 10 17.0833C13.912 17.0833 17.0834 13.912 17.0834 9.99999C17.0834 6.08797 13.912 2.91666 10 2.91666C6.088 2.91666 2.91669 6.08797 2.91669 9.99999Z" fill="black"/>
</svg>
