<svg width="26" height="26" viewBox="0 0 26 26" fill="none" xmlns="http://www.w3.org/2000/svg">
<path fill-rule="evenodd" clip-rule="evenodd" d="M19.5002 9.09993C21.6541 9.09993 23.4002 7.35384 23.4002 5.19993C23.4002 3.04602 21.6541 1.29993 19.5002 1.29993C17.3463 1.29993 15.6002 3.04602 15.6002 5.19993C15.6002 7.35384 17.3463 9.09993 19.5002 9.09993ZM23.5301 12.9998C23.5301 11.7068 23.5001 10.5595 23.4158 9.54631C22.9725 9.94594 22.4677 10.2787 21.9174 10.5287C21.9546 11.2648 21.9701 12.0849 21.9701 12.9998C21.9701 15.1045 21.888 16.7073 21.6492 17.9397C21.4118 19.1643 21.0329 19.9515 20.4923 20.4921C19.9517 21.0326 19.1645 21.4116 17.9399 21.6489C16.7075 21.8878 15.1048 21.9698 13.0001 21.9698C10.8954 21.9698 9.29266 21.8878 8.06018 21.6489C6.83565 21.4116 6.04843 21.0326 5.50786 20.4921C4.96728 19.9515 4.58828 19.1643 4.35097 17.9397C4.11212 16.7073 4.03006 15.1045 4.03006 12.9998C4.03006 10.8952 4.11212 9.29244 4.35097 8.05997C4.58828 6.83544 4.96728 6.04822 5.50786 5.50764C6.04843 4.96706 6.83565 4.58807 8.06018 4.35076C9.29266 4.1119 10.8954 4.02985 13.0001 4.02985C13.2633 4.02985 13.5187 4.03113 13.7664 4.03384C13.8775 3.48484 14.0654 2.96371 14.3185 2.48217C13.8969 2.47359 13.4576 2.46985 13.0001 2.46985C10.8798 2.46985 9.15122 2.55029 7.76338 2.81925C6.3676 3.08975 5.24544 3.56388 4.40477 4.40455C3.5641 5.24523 3.08997 6.36738 2.81947 7.76317C2.55051 9.151 2.47006 10.8795 2.47006 12.9998C2.47006 15.1202 2.55051 16.8487 2.81947 18.2365C3.08997 19.6323 3.5641 20.7545 4.40477 21.5951C5.24544 22.4358 6.3676 22.9099 7.76338 23.1804C9.15122 23.4494 10.8798 23.5298 13.0001 23.5298C15.1204 23.5298 16.8489 23.4494 18.2367 23.1804C19.6325 22.9099 20.7547 22.4358 21.5954 21.5951C22.436 20.7545 22.9102 19.6323 23.1807 18.2365C23.4496 16.8487 23.5301 15.1202 23.5301 12.9998Z" />
</svg>
