<svg width="20" height="20" viewBox="0 0 20 20" fill="none" xmlns="http://www.w3.org/2000/svg">
<path fill-rule="evenodd" clip-rule="evenodd" d="M14.1667 6.66667C14.1667 8.96785 12.3012 10.8333 10 10.8333C7.69881 10.8333 5.83333 8.96785 5.83333 6.66667C5.83333 4.36548 7.69881 2.5 10 2.5C12.3012 2.5 14.1667 4.36548 14.1667 6.66667ZM12.9167 6.66667C12.9167 8.2775 11.6108 9.58333 10 9.58333C8.38917 9.58333 7.08333 8.2775 7.08333 6.66667C7.08333 5.05584 8.38917 3.75 10 3.75C11.6108 3.75 12.9167 5.05584 12.9167 6.66667Z" />
<path d="M10.0916 14.5839C10.4407 14.5883 10.7498 14.3346 10.7788 13.9866C10.8071 13.6468 10.5574 13.3448 10.2166 13.3361C10.1446 13.3343 10.0723 13.3333 9.99987 13.3333C7.4661 13.3333 5.19645 14.4641 3.66806 16.2486C3.46818 16.482 3.49433 16.8278 3.7116 17.045C3.98144 17.3149 4.42812 17.276 4.6802 16.9895C5.97829 15.5142 7.88037 14.5833 9.99987 14.5833C10.0305 14.5833 10.061 14.5835 10.0916 14.5839Z" />
<path d="M12.7083 13.9583C12.7083 13.6132 12.9882 13.3333 13.3333 13.3333H14.375C14.6051 13.3333 14.7917 13.1468 14.7917 12.9167V11.875C14.7917 11.5298 15.0715 11.25 15.4167 11.25C15.7618 11.25 16.0417 11.5298 16.0417 11.875V12.9167C16.0417 13.1468 16.2282 13.3333 16.4583 13.3333H17.5C17.8452 13.3333 18.125 13.6132 18.125 13.9583C18.125 14.3035 17.8452 14.5833 17.5 14.5833H16.4583C16.2282 14.5833 16.0417 14.7699 16.0417 15V16.0417C16.0417 16.3868 15.7618 16.6667 15.4167 16.6667C15.0715 16.6667 14.7917 16.3868 14.7917 16.0417V15C14.7917 14.7699 14.6051 14.5833 14.375 14.5833H13.3333C12.9882 14.5833 12.7083 14.3035 12.7083 13.9583Z" />
</svg>
