<svg width="25" height="25" viewBox="0 0 25 25" fill="none" xmlns="http://www.w3.org/2000/svg">
<path fill-rule="evenodd" clip-rule="evenodd" d="M17.7124 7.15638C17.7124 10.8901 14.6856 13.9169 10.9518 13.9169C7.21804 13.9169 4.19123 10.8901 4.19123 7.15638C4.19123 3.42262 7.21804 0.395813 10.9518 0.395813C14.6856 0.395813 17.7124 3.42262 17.7124 7.15638ZM15.6842 7.15638C15.6842 9.77001 13.5654 11.8888 10.9518 11.8888C8.33817 11.8888 6.2194 9.77001 6.2194 7.15638C6.2194 4.54275 8.33817 2.42398 10.9518 2.42398C13.5654 2.42398 15.6842 4.54275 15.6842 7.15638Z" />
<path d="M11.1003 20.0024C11.6669 20.0096 12.1684 19.5978 12.2154 19.0332C12.2614 18.4819 11.8562 17.9919 11.3032 17.9778C11.1863 17.9748 11.0691 17.9733 10.9516 17.9733C6.84046 17.9733 3.15787 19.8081 0.677997 22.7034C0.353679 23.0821 0.396107 23.6431 0.748644 23.9957C1.18646 24.4335 1.91122 24.3704 2.32023 23.9055C4.42644 21.5119 7.51262 20.0014 10.9516 20.0014C11.0012 20.0014 11.0508 20.0018 11.1003 20.0024Z" />
<path d="M19.0622 15.1913C19.4478 14.8443 20.0333 14.8443 20.4189 15.1913L23.7992 18.2336C24.2155 18.6083 24.2492 19.2495 23.8746 19.6657C23.4999 20.082 22.8587 20.1158 22.4424 19.7411L21.8829 19.2376C21.4479 18.846 20.7546 19.1548 20.7546 19.7401V23.3817C20.7546 23.9418 20.3006 24.3958 19.7405 24.3958C19.1805 24.3958 18.7265 23.9418 18.7265 23.3817V19.7401C18.7265 19.1548 18.0332 18.846 17.5981 19.2376L17.0386 19.7411C16.6223 20.1158 15.9812 20.082 15.6065 19.6657C15.2318 19.2495 15.2656 18.6083 15.6819 18.2336L19.0622 15.1913Z" />
</svg>
