<svg width="24" height="24" viewBox="0 0 24 24" fill="none" xmlns="http://www.w3.org/2000/svg">
<path fill-rule="evenodd" clip-rule="evenodd" d="M8.82737 17.8069C8.82737 19.2381 7.66152 20.3982 6.22337 20.3982C4.78522 20.3982 3.61937 19.2381 3.61937 17.8069C3.61937 16.3758 4.78522 15.2156 6.22337 15.2156C7.66152 15.2156 8.82737 16.3758 8.82737 17.8069ZM7.01769 17.8069C7.01769 18.2435 6.66206 18.5974 6.22337 18.5974C5.78468 18.5974 5.42906 18.2435 5.42906 17.8069C5.42906 17.3704 5.78468 17.0165 6.22337 17.0165C6.66206 17.0165 7.01769 17.3704 7.01769 17.8069Z" />
<path fill-rule="evenodd" clip-rule="evenodd" d="M18.1774 10.8974C18.1206 11.1276 17.933 11.303 17.6986 11.3451L16.5362 11.5538C16.2733 11.601 16.0729 11.8147 16.0437 12.0789L15.8564 13.7732C15.8408 13.9146 15.7753 14.0458 15.6715 14.1436L14.5823 15.1695C14.4321 15.311 14.367 15.5191 14.3976 15.7228C14.4502 16.0731 14.4775 16.4316 14.4775 16.7965C14.4775 20.7749 11.2366 24 7.23874 24C3.2409 24 0 20.7749 0 16.7965C0 12.8181 3.2409 9.59297 7.23874 9.59297C8.07392 9.59297 8.87606 9.73372 9.62252 9.99268C9.85077 10.0719 10.1069 10.0241 10.2793 9.8555L20.1771 0.172221C20.2899 0.0618494 20.4418 0 20.6 0H23.3965C23.7796 0 24.0657 0.350747 23.9869 0.723819L22.9986 5.40074C22.9554 5.60535 22.8083 5.77284 22.6103 5.84285L21.5429 6.22033C21.3646 6.28341 21.2263 6.42614 21.1695 6.60582L20.6889 8.12599C20.6282 8.31795 20.4749 8.46688 20.2806 8.52263L18.983 8.89498C18.7754 8.95453 18.6157 9.11995 18.5643 9.3287L18.1774 10.8974ZM12.6678 16.7965C12.6678 16.3798 12.6204 15.9741 12.5307 15.5845L12.5194 15.5514C12.451 15.3496 12.3739 15.1517 12.2884 14.9579C12.2734 14.9239 12.2811 14.8842 12.308 14.8584L14.0514 13.1899C14.0866 13.1567 14.1089 13.1121 14.1142 13.0641L14.3926 10.5454C14.4218 10.2811 14.6222 10.0675 14.8851 10.0203L16.2211 9.78043C16.4555 9.73834 16.6431 9.56294 16.6999 9.33275L17.0564 7.88712C17.1079 7.67837 17.2676 7.51295 17.4751 7.4534L18.8459 7.06007C19.0402 7.00431 19.1935 6.85538 19.2542 6.66342L19.7139 5.2094C19.7707 5.02972 19.9089 4.88699 20.0873 4.82392L21.0481 4.4841C21.2461 4.41408 21.3932 4.2466 21.4365 4.04199L21.7839 2.39762C21.8489 2.09005 21.6131 1.80088 21.2972 1.80088C21.1668 1.80088 21.0416 1.85187 20.9486 1.94287L11.6248 11.0654L10.3185 12.34C10.3162 12.3423 10.3126 12.3426 10.3099 12.3408C9.43649 11.7434 8.37865 11.3938 7.23874 11.3938C4.24036 11.3938 1.80969 13.8127 1.80969 16.7965C1.80969 19.7803 4.24036 22.1991 7.23874 22.1991C10.2371 22.1991 12.6678 19.7803 12.6678 16.7965Z" />
</svg>
