<svg width="27" height="27" viewBox="0 0 27 27" fill="none" xmlns="http://www.w3.org/2000/svg">
<path fill-rule="evenodd" clip-rule="evenodd" d="M13.6667 26.6667C6.48695 26.6667 0.666656 20.8464 0.666656 13.6667C0.666656 6.48695 6.48695 0.666656 13.6667 0.666656C20.8464 0.666656 26.6667 6.48695 26.6667 13.6667C26.6667 20.8464 20.8464 26.6667 13.6667 26.6667ZM5.69586 20.2586C5.4261 20.5284 4.98162 20.5097 4.75576 20.2023C3.41101 18.3719 2.61666 16.1121 2.61666 13.6667C2.61666 7.56391 7.56391 2.61666 13.6667 2.61666C16.1121 2.61666 18.3719 3.41101 20.2023 4.75576C20.5097 4.98163 20.5284 5.42611 20.2586 5.69586L5.69586 20.2586ZM7.07471 21.6375C6.80496 21.9072 6.82357 22.3517 7.13101 22.5776C8.96139 23.9223 11.2213 24.7167 13.6667 24.7167C19.7694 24.7167 24.7167 19.7694 24.7167 13.6667C24.7167 11.2213 23.9223 8.96139 22.5776 7.13101C22.3517 6.82357 21.9072 6.80496 21.6375 7.07471L7.07471 21.6375Z" />
</svg>
