<svg width="26" height="26" viewBox="0 0 26 26" fill="none" xmlns="http://www.w3.org/2000/svg">
<path fill-rule="evenodd" clip-rule="evenodd" d="M13 24.375C19.2822 24.375 24.375 19.2822 24.375 13C24.375 6.71776 19.2822 1.625 13 1.625C6.71776 1.625 1.625 6.71776 1.625 13C1.625 19.2822 6.71776 24.375 13 24.375ZM17.8751 8.125C18.2717 8.52163 18.2717 9.16469 17.8751 9.56131L14.4364 13L17.8751 16.4387C18.2717 16.8353 18.2717 17.4784 17.8751 17.875C17.4784 18.2716 16.8354 18.2716 16.4388 17.875L13.0001 14.4363L9.56139 17.875C9.16476 18.2716 8.5217 18.2716 8.12508 17.875C7.72845 17.4784 7.72845 16.8353 8.12508 16.4387L11.5638 13L8.12508 9.56132C7.72845 9.16469 7.72845 8.52163 8.12508 8.12501C8.5217 7.72838 9.16476 7.72838 9.56139 8.12501L13.0001 11.5637L16.4388 8.125C16.8354 7.72838 17.4784 7.72838 17.8751 8.125Z" />
</svg>
