<svg width="26" height="26" viewBox="0 0 26 26" fill="none" xmlns="http://www.w3.org/2000/svg">
<path fill-rule="evenodd" clip-rule="evenodd" d="M2.4375 19.5C2.4375 10.0766 10.0766 2.4375 19.5 2.4375H20.5833C22.2287 2.4375 23.5625 3.77132 23.5625 5.41667V14.0833C23.5625 15.7287 22.2287 17.0625 20.5833 17.0625H19.5C18.1538 17.0625 17.0625 18.1538 17.0625 19.5V20.5833C17.0625 22.2287 15.7287 23.5625 14.0833 23.5625H5.41667C3.77132 23.5625 2.4375 22.2287 2.4375 20.5833V19.5ZM19.5 4.0625C10.9741 4.0625 4.0625 10.9741 4.0625 19.5V20.5833C4.0625 21.3312 4.66878 21.9375 5.41667 21.9375H6.22917C6.52832 21.9375 6.77083 21.695 6.77083 21.3958V19.5C6.77083 12.4699 12.4699 6.77083 19.5 6.77083H21.3958C21.695 6.77083 21.9375 6.52832 21.9375 6.22917V5.41667C21.9375 4.66878 21.3312 4.0625 20.5833 4.0625H19.5ZM11.1042 21.3958C11.1042 21.695 10.8617 21.9375 10.5625 21.9375H8.9375C8.63835 21.9375 8.39583 21.695 8.39583 21.3958V19.5C8.39583 13.3673 13.3673 8.39583 19.5 8.39583H21.3958C21.695 8.39583 21.9375 8.63835 21.9375 8.9375V10.5625C21.9375 10.8617 21.695 11.1042 21.3958 11.1042H19.5C14.8631 11.1042 11.1042 14.8631 11.1042 19.5V21.3958ZM12.7292 21.3958C12.7292 21.695 12.9717 21.9375 13.2708 21.9375H14.0833C14.8312 21.9375 15.4375 21.3312 15.4375 20.5833V19.5C15.4375 17.2563 17.2563 15.4375 19.5 15.4375H20.5833C21.3312 15.4375 21.9375 14.8312 21.9375 14.0833V13.2708C21.9375 12.9717 21.695 12.7292 21.3958 12.7292H19.5C15.7606 12.7292 12.7292 15.7606 12.7292 19.5V21.3958Z" />
</svg>
