<svg width="27" height="27" viewBox="0 0 27 27" fill="none" xmlns="http://www.w3.org/2000/svg">
<path d="M6.19169 11.7167C6.73016 11.7167 7.16669 11.2801 7.16669 10.7417C7.16669 10.2032 6.73016 9.76666 6.19169 9.76666H5.86669C2.99481 9.76666 0.666687 12.0948 0.666687 14.9667V21.4667C0.666687 24.3385 2.99481 26.6667 5.86669 26.6667H12.3667C15.2386 26.6667 17.5667 24.3385 17.5667 21.4667V21.1417C17.5667 20.6032 17.1302 20.1667 16.5917 20.1667C16.0532 20.1667 15.6167 20.6032 15.6167 21.1417V21.4667C15.6167 23.2616 14.1616 24.7167 12.3667 24.7167H5.86669C4.07176 24.7167 2.61669 23.2616 2.61669 21.4667V14.9667C2.61669 13.1717 4.07176 11.7167 5.86669 11.7167H6.19169Z" />
<path fill-rule="evenodd" clip-rule="evenodd" d="M9.76669 5.86666C9.76669 2.99478 12.0948 0.666656 14.9667 0.666656H21.4667C24.3386 0.666656 26.6667 2.99478 26.6667 5.86666V12.3667C26.6667 15.2385 24.3386 17.5667 21.4667 17.5667H14.9667C12.0948 17.5667 9.76669 15.2385 9.76669 12.3667V5.86666ZM14.9667 2.61666H21.4667C23.2616 2.61666 24.7167 4.07173 24.7167 5.86666V12.3667C24.7167 14.1616 23.2616 15.6167 21.4667 15.6167H14.9667C13.1718 15.6167 11.7167 14.1616 11.7167 12.3667V5.86666C11.7167 4.07173 13.1718 2.61666 14.9667 2.61666Z" />
</svg>
