<svg width="26" height="26" viewBox="0 0 26 26" fill="none" xmlns="http://www.w3.org/2000/svg">
<path fill-rule="evenodd" clip-rule="evenodd" d="M12.9997 4.68C8.40467 4.68 4.67967 8.40499 4.67967 13C4.67967 17.595 8.40467 21.32 12.9997 21.32C17.5947 21.32 21.3197 17.595 21.3197 13C21.3197 8.40499 17.5947 4.68 12.9997 4.68ZM3.11967 13C3.11967 7.54342 7.5431 3.12 12.9997 3.12C18.4562 3.12 22.8797 7.54342 22.8797 13C22.8797 18.4566 18.4562 22.88 12.9997 22.88C7.5431 22.88 3.11967 18.4566 3.11967 13Z" fill="#E95460"/>
<path fill-rule="evenodd" clip-rule="evenodd" d="M16.7686 10.334L10.3339 16.7686L9.23082 15.6656L15.6655 9.23088L16.7686 10.334Z" fill="#E95460"/>
<path fill-rule="evenodd" clip-rule="evenodd" d="M15.6657 16.7686L9.23102 10.334L10.3341 9.23088L16.7688 15.6656L15.6657 16.7686Z" fill="#E95460"/>
</svg>
