
<svg width="26" height="26" viewBox="0 0 26 26" fill="none" xmlns="http://www.w3.org/2000/svg">
<path fill-rule="evenodd" clip-rule="evenodd" d="M10.1756 2.4375C8.89351 2.4375 7.85417 3.47684 7.85417 4.75893C7.85417 5.42134 7.31718 5.95833 6.65476 5.95833H3.25C2.80127 5.95833 2.4375 6.3221 2.4375 6.77083C2.4375 7.21956 2.80127 7.58333 3.25 7.58333H4.05033C4.32427 7.58333 4.5551 7.78787 4.58806 8.05982L6.03795 20.0214C6.30167 22.1971 8.14823 23.8333 10.3398 23.8333H15.6602C17.8518 23.8333 19.6983 22.1971 19.962 20.0214L21.4119 8.05982C21.4449 7.78787 21.6757 7.58333 21.9497 7.58333H22.75C23.1987 7.58333 23.5625 7.21956 23.5625 6.77083C23.5625 6.3221 23.1987 5.95833 22.75 5.95833H19.3452C18.6828 5.95833 18.1458 5.42134 18.1458 4.75893C18.1458 3.47684 17.1065 2.4375 15.8244 2.4375L10.1756 2.4375ZM15.9345 5.95833C16.3314 5.95833 16.6003 5.53677 16.5468 5.14352C16.5297 5.01776 16.5208 4.88938 16.5208 4.75893C16.5208 4.3743 16.209 4.0625 15.8244 4.0625L10.1756 4.0625C9.79097 4.0625 9.47917 4.3743 9.47917 4.75893C9.47917 4.88938 9.47032 5.01776 9.4532 5.14352C9.39966 5.53677 9.66859 5.95833 10.0655 5.95833L15.9345 5.95833ZM19.3452 7.58333C19.6045 7.58333 19.8053 7.81002 19.7741 8.06736L18.3489 19.8259C18.184 21.1857 17.0299 22.2083 15.6602 22.2083H10.3398C8.97007 22.2083 7.81597 21.1857 7.65114 19.8259L6.22587 8.06736C6.19467 7.81002 6.39554 7.58333 6.65476 7.58333L19.3452 7.58333Z" />
</svg>
