<svg width="26" height="26" viewBox="0 0 26 26" fill="none" xmlns="http://www.w3.org/2000/svg">
<path fill-rule="evenodd" clip-rule="evenodd" d="M4.67987 13C4.67987 8.40499 8.40486 4.68 12.9999 4.68C17.5949 4.68 21.3199 8.40499 21.3199 13C21.3199 17.595 17.5949 21.32 12.9999 21.32C8.40486 21.32 4.67987 17.595 4.67987 13ZM12.9999 3.12C7.5433 3.12 3.11987 7.54342 3.11987 13C3.11987 18.4566 7.5433 22.88 12.9999 22.88C18.4564 22.88 22.8799 18.4566 22.8799 13C22.8799 7.54342 18.4564 3.12 12.9999 3.12ZM12.6404 16.4037L17.1904 10.5537L15.9591 9.59599L11.8796 14.841L9.89275 13.3509L8.95675 14.5989L11.5567 16.5489L12.1699 17.0087L12.6404 16.4037Z" fill="#23ADA0"/>
</svg>
