<svg width="26" height="26" viewBox="0 0 26 26" fill="none" xmlns="http://www.w3.org/2000/svg">
<path d="M12.1875 3.79159C12.6362 3.79159 13 3.42782 13 2.97909C13 2.53036 12.6362 2.16659 12.1875 2.16659L6.50001 2.16659C4.10677 2.16659 2.16667 4.10669 2.16667 6.49992L2.16667 19.4999C2.16667 21.8931 4.10677 23.8332 6.50001 23.8332H19.5C21.8932 23.8332 23.8333 21.8931 23.8333 19.4999V13.8124C23.8333 13.3637 23.4696 12.9999 23.0208 12.9999C22.5721 12.9999 22.2083 13.3637 22.2083 13.8124V19.4999C22.2083 20.9957 20.9958 22.2082 19.5 22.2082H6.50001C5.00423 22.2082 3.79167 20.9957 3.79167 19.4999L3.79167 6.49992C3.79167 5.00415 5.00423 3.79159 6.50001 3.79159L12.1875 3.79159Z" />
<path fill-rule="evenodd" clip-rule="evenodd" d="M23.0537 2.94623C21.9885 1.88104 20.2615 1.88104 19.1963 2.94623L10.1141 12.0284C9.75614 12.3864 9.49528 12.8297 9.3562 13.3165L8.4271 16.5684C8.34604 16.8521 8.42517 17.1575 8.63382 17.3661C8.84246 17.5748 9.14783 17.6539 9.43155 17.5728L12.6834 16.6437C13.1702 16.5046 13.6135 16.2438 13.9715 15.8858L23.0537 6.80361C24.1189 5.73843 24.1189 4.01142 23.0537 2.94623ZM20.3454 4.09528C20.7759 3.66469 21.4741 3.66469 21.9046 4.09528C22.3352 4.52586 22.3352 5.22398 21.9046 5.65456L12.8225 14.7367C12.6598 14.8995 12.4582 15.018 12.237 15.0813C11.4325 15.3111 10.6888 14.5674 10.9187 13.763C10.9819 13.5417 11.1005 13.3402 11.2632 13.1774L20.3454 4.09528Z" />
</svg>
