<svg width="26" height="26" viewBox="0 0 26 26" fill="none" xmlns="http://www.w3.org/2000/svg">
<path fill-rule="evenodd" clip-rule="evenodd" d="M10.8333 20.0417C15.919 20.0417 20.0417 15.919 20.0417 10.8333C20.0417 5.74771 15.919 1.625 10.8333 1.625C5.74771 1.625 1.625 5.74771 1.625 10.8333C1.625 15.919 5.74771 20.0417 10.8333 20.0417ZM10.8333 21.6667C16.8164 21.6667 21.6667 16.8164 21.6667 10.8333C21.6667 4.85025 16.8164 0 10.8333 0C4.85025 0 0 4.85025 0 10.8333C0 16.8164 4.85025 21.6667 10.8333 21.6667Z" />
<path d="M8.1993 14.2724C7.83145 14.0154 7.32021 14.0084 7.00291 14.3257C6.68561 14.643 6.68282 15.1623 7.0385 15.4359C8.0892 16.2441 9.40501 16.7247 10.8331 16.7247C12.2611 16.7247 13.5769 16.2441 14.6276 15.4359C14.9833 15.1623 14.9805 14.643 14.6632 14.3257C14.3459 14.0084 13.8347 14.0154 13.4668 14.2724C12.7205 14.7938 11.8125 15.0997 10.8331 15.0997C9.85362 15.0997 8.9456 14.7938 8.1993 14.2724Z" />
<path d="M16.25 9.20833C16.25 10.1058 15.5225 10.8333 14.625 10.8333C13.7275 10.8333 13 10.1058 13 9.20833C13 8.31087 13.7275 7.58333 14.625 7.58333C15.5225 7.58333 16.25 8.31087 16.25 9.20833Z" />
<path d="M8.66667 9.20833C8.66667 10.1058 7.93913 10.8333 7.04167 10.8333C6.1442 10.8333 5.41667 10.1058 5.41667 9.20833C5.41667 8.31087 6.1442 7.58333 7.04167 7.58333C7.93913 7.58333 8.66667 8.31087 8.66667 9.20833Z" />
</svg>
