<svg width="26" height="26" viewBox="0 0 26 26" fill="none" xmlns="http://www.w3.org/2000/svg">
<path fill-rule="evenodd" clip-rule="evenodd" d="M16.0088 9.07338L13.5002 3.04199C13.3151 2.59713 12.6849 2.59713 12.4999 3.04199L9.9913 9.07338L3.47992 9.59539C2.99965 9.63389 2.80491 10.2333 3.17082 10.5467L8.13181 14.7963L6.61615 21.1503C6.50435 21.619 7.0142 21.9894 7.42538 21.7383L13 18.3333L18.5747 21.7383C18.9859 21.9894 19.4957 21.619 19.3839 21.1503L17.8683 14.7963L22.8292 10.5467C23.1952 10.2333 23.0004 9.63389 22.5201 9.59539L16.0088 9.07338ZM19.2994 11.4307C19.4824 11.2739 19.385 10.9743 19.1449 10.955L15.8789 10.6932C15.2715 10.6445 14.7424 10.2601 14.5084 9.69743L13.2501 6.6722C13.1576 6.44976 12.8425 6.44976 12.75 6.6722L11.4917 9.69743C11.2577 10.2601 10.7286 10.6445 10.1212 10.6932L6.85517 10.955C6.61504 10.9743 6.51767 11.2739 6.70063 11.4307L9.18896 13.5622C9.65175 13.9586 9.85385 14.5806 9.71246 15.1734L8.95223 18.3604C8.89634 18.5947 9.15126 18.78 9.35685 18.6544L12.153 16.9465C12.673 16.6289 13.327 16.6289 13.8471 16.9465L16.6432 18.6544C16.8488 18.78 17.1037 18.5947 17.0478 18.3604L16.2876 15.1734C16.1462 14.5806 16.3483 13.9586 16.8111 13.5622L19.2994 11.4307Z" />
</svg>
