<svg width="26" height="26" viewBox="0 0 26 26" fill="none" xmlns="http://www.w3.org/2000/svg">
<path fill-rule="evenodd" clip-rule="evenodd" d="M16.0087 9.07329L13.5001 3.0419C13.3151 2.59703 12.6849 2.59704 12.4999 3.0419L9.99129 9.07329L3.47991 9.5953C2.99963 9.6338 2.80489 10.2332 3.17081 10.5466L8.1318 14.7962L6.61613 21.1502C6.50434 21.6189 7.01418 21.9893 7.42536 21.7382L13 18.3332L18.5747 21.7382C18.9858 21.9893 19.4957 21.6189 19.3839 21.1502L17.8682 14.7962L22.8292 10.5466C23.1951 10.2332 23.0004 9.6338 22.5201 9.5953L16.0087 9.07329ZM19.2994 11.4306C19.4824 11.2739 19.385 10.9742 19.1449 10.9549L15.8789 10.6931C15.2715 10.6444 14.7424 10.26 14.5083 9.69734L13.2501 6.6721C13.1576 6.44967 12.8425 6.44967 12.7499 6.6721L11.4917 9.69734C11.2577 10.26 10.7286 10.6444 10.1211 10.6931L6.85516 10.9549C6.61502 10.9742 6.51765 11.2739 6.70061 11.4306L9.18895 13.5621C9.65173 13.9585 9.85384 14.5805 9.71245 15.1733L8.95222 18.3603C8.89632 18.5946 9.15124 18.7799 9.35683 18.6543L12.153 16.9464C12.673 16.6288 13.327 16.6288 13.8471 16.9464L16.6432 18.6543C16.8488 18.7799 17.1037 18.5946 17.0478 18.3603L16.2876 15.1733C16.1462 14.5805 16.3483 13.9585 16.8111 13.5621L19.2994 11.4306Z" />
</svg>
