<svg width="26" height="26" viewBox="0 0 26 26" fill="none" xmlns="http://www.w3.org/2000/svg">
<path fill-rule="evenodd" clip-rule="evenodd" d="M19.5 3.79175H6.50002C5.00425 3.79175 3.79169 5.00431 3.79169 6.50008V19.5001C3.79169 20.9959 5.00425 22.2084 6.50002 22.2084H19.5C20.9958 22.2084 22.2084 20.9959 22.2084 19.5001V6.50008C22.2084 5.00431 20.9958 3.79175 19.5 3.79175ZM6.50002 2.16675C4.10679 2.16675 2.16669 4.10685 2.16669 6.50008V19.5001C2.16669 21.8933 4.10679 23.8334 6.50002 23.8334H19.5C21.8933 23.8334 23.8334 21.8933 23.8334 19.5001V6.50008C23.8334 4.10685 21.8933 2.16675 19.5 2.16675H6.50002Z" />
<path d="M11.6162 14.6108V13.4478C11.6162 12.995 11.2457 12.6245 10.7929 12.6245H8.90948C8.55956 12.6245 8.28168 12.9023 8.28168 13.2523C8.28168 13.6228 8.55956 13.9006 8.90948 13.9006H10.1548V14.724C9.87689 14.9813 9.30056 15.2488 8.69335 15.2488C7.44806 15.2488 6.54239 14.2917 6.54239 12.995C6.54239 11.6982 7.44806 10.7411 8.69335 10.7411C9.21823 10.7411 9.73281 10.9675 10.1239 11.3483C10.2577 11.4821 10.4429 11.5541 10.6179 11.5541C10.9781 11.5541 11.3074 11.2557 11.3074 10.8955C11.3074 10.7411 11.2457 10.5764 11.1325 10.4529C10.5973 9.87659 9.80485 9.44434 8.69335 9.44434C6.68648 9.44434 5.03981 10.8234 5.03981 12.995C5.03981 15.1562 6.68648 16.5559 8.69335 16.5559C10.0827 16.5559 11.6162 15.8561 11.6162 14.6108Z" />
<path d="M14.5592 15.7737V10.2265C14.5592 9.83542 14.2299 9.50609 13.8388 9.50609C13.4271 9.50609 13.0978 9.83542 13.0978 10.2265V15.7737C13.0978 16.1648 13.4271 16.4941 13.8182 16.4941C14.2299 16.4941 14.5592 16.1648 14.5592 15.7737Z" />
<path d="M20.9602 10.2162C20.9602 9.85601 20.672 9.56785 20.3324 9.56785H16.8641C16.4113 9.56785 16.0408 9.93835 16.0408 10.3912V15.7737C16.0408 16.1648 16.3701 16.4941 16.7612 16.4941C17.1729 16.4941 17.5022 16.1648 17.5022 15.7737V14.1336C17.5022 13.8344 17.7447 13.5919 18.0439 13.5919H19.7628C20.1024 13.5919 20.3905 13.3037 20.3905 12.9538C20.3905 12.5936 20.1024 12.3054 19.7628 12.3054H18.0439C17.7447 12.3054 17.5022 12.0629 17.5022 11.7638V11.396C17.5022 11.0968 17.7447 10.8543 18.0439 10.8543H20.3324C20.672 10.8543 20.9602 10.5661 20.9602 10.2162Z" />
</svg>
