<svg width="26" height="26" viewBox="0 0 26 26" fill="none" xmlns="http://www.w3.org/2000/svg">
<path fill-rule="evenodd" clip-rule="evenodd" d="M15.4392 13.5044C15.7014 13.3719 16.0263 13.4409 16.2183 13.6633C17.0129 14.584 18.1884 15.1667 19.5 15.1667C21.8932 15.1667 23.8333 13.2266 23.8333 10.8333C23.8333 8.4401 21.8932 6.5 19.5 6.5C19.1817 6.5 18.8715 6.5343 18.5728 6.59942C18.2858 6.66197 17.9845 6.52263 17.8538 6.25959C16.9675 4.47586 15.1269 3.25 13 3.25C10.8731 3.25 9.03249 4.47586 8.1462 6.25959C8.0155 6.52263 7.71417 6.66198 7.42718 6.59942C7.12846 6.53431 6.81823 6.5 6.49999 6.5C4.10676 6.5 2.16666 8.4401 2.16666 10.8333C2.16666 13.2266 4.10676 15.1667 6.49999 15.1667C7.81157 15.1667 8.98704 14.584 9.78168 13.6633C9.97367 13.4409 10.2985 13.3719 10.5608 13.5044C11.2939 13.8747 12.1226 14.0833 13 14.0833C13.8774 14.0833 14.7061 13.8747 15.4392 13.5044ZM16.7917 8.66667C16.7917 10.7607 15.0941 12.4583 13 12.4583C10.9059 12.4583 9.20832 10.7607 9.20832 8.66667C9.20832 6.57259 10.9059 4.875 13 4.875C15.0941 4.875 16.7917 6.57259 16.7917 8.66667ZM17.3718 11.8654C17.238 12.0479 17.2086 12.2953 17.3459 12.4753C17.8408 13.1234 18.6215 13.5417 19.5 13.5417C20.9957 13.5417 22.2083 12.3291 22.2083 10.8333C22.2083 9.33756 20.9957 8.125 19.5 8.125C19.2217 8.125 18.9532 8.16697 18.7005 8.24494C18.5208 8.30037 18.4167 8.47864 18.4167 8.66667C18.4167 9.86314 18.0287 10.969 17.3718 11.8654ZM7.29951 8.24495C7.0468 8.16698 6.7783 8.125 6.49999 8.125C5.00422 8.125 3.79166 9.33756 3.79166 10.8333C3.79166 12.3291 5.00422 13.5417 6.49999 13.5417C7.37845 13.5417 8.15922 13.1234 8.65405 12.4752C8.7914 12.2953 8.76198 12.0479 8.62818 11.8653C7.97124 10.969 7.58332 9.86314 7.58332 8.66667C7.58332 8.47865 7.47918 8.30038 7.29951 8.24495Z" />
<path d="M5.57628 22.7899C5.99188 22.8938 6.41272 22.6569 6.59058 22.2672C7.70022 19.8357 10.1528 18.1458 13 18.1458C15.8908 18.1458 18.3747 19.8877 19.4594 22.3792C19.6396 22.7931 20.0935 23.0385 20.5244 22.9038C20.9501 22.7708 21.1924 22.3173 21.0233 21.9046C19.7295 18.7459 16.6246 16.5208 13 16.5208C9.42937 16.5208 6.36306 18.6802 5.03569 21.7642C4.8493 22.1973 5.1189 22.6756 5.57628 22.7899Z" />
</svg>
