<svg width="20" height="20" viewBox="0 0 20 20" fill="none" xmlns="http://www.w3.org/2000/svg">
<path fill-rule="evenodd" clip-rule="evenodd" d="M5.35398 17.4239V16.7739L5.35398 13.8929H3.65H3L3 12.5929H3.65H5.35398L5.35398 6.83097H3.65H3L3 5.53097H3.65H5.35398L5.35398 2.65V2L6.65398 2V2.65L6.65398 5.53097L12.4159 5.53097V2.65V2L13.7159 2V2.65V5.53097H15.4199H16.0699V6.83097H15.4199H13.7159L13.7159 12.5929H15.4199H16.0699V13.8929H15.4199H13.7159V16.7739V17.4239H12.4159V16.7739V13.8929H6.65398L6.65398 16.7739V17.4239H5.35398ZM12.4159 12.5929L12.4159 6.83097L6.65398 6.83097L6.65398 12.5929L12.4159 12.5929Z" />
</svg>
