<svg width="25" height="19" viewBox="0 0 25 19" fill="none" xmlns="http://www.w3.org/2000/svg">
<path fill-rule="evenodd" clip-rule="evenodd" d="M3.62931 3.94771C3.92988 4.18148 3.94446 4.6304 3.66975 4.89407C2.06082 6.43836 0.925622 8.03493 0.38053 8.86919C0.144438 9.23053 0.144438 9.68606 0.38053 10.0474C1.64198 11.978 6.06376 17.9913 12.2036 17.9913C14.528 17.9913 16.6061 17.1295 18.3597 15.9537C18.5836 15.8036 18.879 15.8086 19.0918 15.9741L22.6133 18.713C23.0118 19.023 23.5862 18.9512 23.8962 18.5526C24.2062 18.1541 24.1344 17.5797 23.7359 17.2697L1.79392 0.203734C1.39536 -0.106259 0.820957 -0.0344592 0.510963 0.364104C0.200969 0.762667 0.272769 1.33707 0.671333 1.64706L3.62931 3.94771ZM16.5447 13.993C16.8748 14.2498 16.8539 14.7553 16.4889 14.9594C15.1714 15.6962 13.7317 16.1628 12.2036 16.1628C9.74459 16.1628 7.51436 14.9546 5.65426 13.3564C4.67537 12.5154 3.84695 11.6067 3.19762 10.8055C2.55935 10.0179 2.55935 8.89872 3.19762 8.11111C3.84695 7.30987 4.67538 6.4012 5.65426 5.56017C5.6676 5.54871 5.68716 5.54825 5.70104 5.55905L7.4625 6.92908C7.69358 7.10881 7.7602 7.42612 7.65455 7.69913C7.44338 8.24484 7.32757 8.83804 7.32757 9.45829C7.32757 12.1512 9.51062 14.3343 12.2036 14.3343C13.2562 14.3343 14.2309 14.0007 15.0278 13.4336C15.2662 13.2639 15.59 13.2505 15.821 13.4301L16.5447 13.993ZM9.16663 9.20264C9.2007 8.79245 9.67742 8.65179 10.0023 8.90449L13.2822 11.4555C13.6069 11.7081 13.5884 12.2049 13.1995 12.3393C12.8874 12.4472 12.5523 12.5058 12.2036 12.5058C10.5205 12.5058 9.15606 11.1414 9.15606 9.45829C9.15606 9.37219 9.15963 9.28693 9.16663 9.20264Z" />
<path d="M8.3723 2.65237C8.01747 2.37639 8.07469 1.82629 8.4924 1.66022C9.64022 1.20385 10.882 0.925355 12.2033 0.925355C18.3432 0.925356 22.7649 6.93858 24.0264 8.86923C24.2625 9.23056 24.2625 9.68609 24.0264 10.0474C23.649 10.625 22.9888 11.568 22.0843 12.6061C21.8756 12.8456 21.5163 12.8755 21.2655 12.6804L20.7862 12.3076C20.5039 12.0881 20.471 11.6743 20.7059 11.4047C20.8839 11.2003 21.0519 10.9998 21.2093 10.8055C21.8476 10.0179 21.8476 8.89875 21.2093 8.11114C20.56 7.3099 19.7315 6.40123 18.7527 5.56021C16.8926 3.96206 14.6623 2.75385 12.2033 2.75385C11.2908 2.75385 10.4098 2.92022 9.56755 3.21116C9.36513 3.28108 9.13999 3.24946 8.97095 3.11799L8.3723 2.65237Z" />
<path d="M16.9105 8.18194C17.0434 8.6734 16.4887 8.96516 16.0869 8.65259L14.3781 7.32353C14.1874 7.12928 13.9709 6.96047 13.7341 6.82265L11.9661 5.44752C11.5891 5.15433 11.7257 4.58234 12.2033 4.58234C14.4546 4.58234 16.3495 6.10808 16.9105 8.18194Z" />
</svg>
