<svg width="26" height="26" viewBox="0 0 26 26" fill="none" xmlns="http://www.w3.org/2000/svg">
<path fill-rule="evenodd" clip-rule="evenodd" d="M20.0417 10.2917C20.0417 12.0866 18.5866 13.5417 16.7917 13.5417C14.9967 13.5417 13.5417 12.0866 13.5417 10.2917C13.5417 8.49674 14.9967 7.04167 16.7917 7.04167C18.5866 7.04167 20.0417 8.49674 20.0417 10.2917ZM18.4167 10.2917C18.4167 11.1891 17.6891 11.9167 16.7917 11.9167C15.8942 11.9167 15.1667 11.1891 15.1667 10.2917C15.1667 9.3942 15.8942 8.66667 16.7917 8.66667C17.6891 8.66667 18.4167 9.3942 18.4167 10.2917Z" />
<path fill-rule="evenodd" clip-rule="evenodd" d="M6.50001 3.25C4.10677 3.25 2.16667 5.1901 2.16667 7.58333V18.4167C2.16667 20.8099 4.10677 22.75 6.5 22.75H19.5C21.8932 22.75 23.8333 20.8099 23.8333 18.4167V7.58333C23.8333 5.1901 21.8932 3.25 19.5 3.25H6.50001ZM19.5 4.875H6.50001C5.00423 4.875 3.79167 6.08756 3.79167 7.58333V11.0849C3.79167 11.5675 4.37512 11.8092 4.71636 11.4679L6.24278 9.94151C6.98315 9.20114 8.18353 9.20114 8.9239 9.94151L19.8447 20.8623C19.9736 20.9912 20.1602 21.0503 20.3337 20.9943C21.4215 20.6427 22.2083 19.6216 22.2083 18.4167V7.58333C22.2083 6.08756 20.9958 4.875 19.5 4.875ZM3.82453 14.6579C3.80417 14.6782 3.79167 14.7054 3.79167 14.7342V18.4167C3.79167 19.9124 5.00423 21.125 6.5 21.125H16.5016C16.9842 21.125 17.2258 20.5415 16.8846 20.2003L7.77485 11.0906C7.66908 10.9848 7.4976 10.9848 7.39183 11.0906L3.82453 14.6579Z" />
</svg>
