<svg width="26" height="26" viewBox="0 0 26 26" fill="none" xmlns="http://www.w3.org/2000/svg">
<path d="M11.4079 7.07452C11.7252 6.75722 11.7252 6.24278 11.4079 5.92548C11.0906 5.60817 10.5761 5.60817 10.2588 5.92548L3.75882 12.4255C3.44152 12.7428 3.44152 13.2572 3.75882 13.5745L10.2588 20.0745C10.5761 20.3918 11.0906 20.3918 11.4079 20.0745C11.7252 19.7572 11.7252 19.2428 11.4079 18.9255L7.21957 14.7372C6.87834 14.396 7.12002 13.8125 7.60259 13.8125H21.6667C22.1154 13.8125 22.4792 13.4487 22.4792 13C22.4792 12.5513 22.1154 12.1875 21.6667 12.1875H7.60259C7.12002 12.1875 6.87834 11.604 7.21957 11.2628L11.4079 7.07452Z" />
</svg>
