<svg width="26" height="22" viewBox="0 0 26 22" fill="none" xmlns="http://www.w3.org/2000/svg">
<path d="M10.8165 2.87363C11.2516 2.43848 11.2516 1.73295 10.8165 1.29779C10.3813 0.862639 9.6758 0.862639 9.24065 1.29779L0.326362 10.2121C-0.108794 10.6472 -0.108794 11.3528 0.326362 11.7879L9.24065 20.7022C9.6758 21.1374 10.3813 21.1374 10.8165 20.7022C11.2516 20.2671 11.2516 19.5615 10.8165 19.1264L5.07254 13.3824C4.60457 12.9144 4.93601 12.1143 5.59782 12.1143H24.8857C25.5011 12.1143 26 11.6154 26 11C26 10.3846 25.5011 9.88571 24.8857 9.88571H5.59782C4.93601 9.88571 4.60457 9.08555 5.07254 8.61758L10.8165 2.87363Z" />
</svg>
