<svg width="20" height="20" viewBox="0 0 20 20" fill="none" xmlns="http://www.w3.org/2000/svg">
<path fill-rule="evenodd" clip-rule="evenodd" d="M11.8763 10.388C12.078 10.2861 12.3279 10.3392 12.4756 10.5103C13.0869 11.2184 13.9911 11.6667 15 11.6667C16.8409 11.6667 18.3333 10.1743 18.3333 8.33333C18.3333 6.49238 16.8409 5 15 5C14.7552 5 14.5165 5.02639 14.2868 5.07647C14.066 5.12459 13.8342 5.01741 13.7337 4.81507C13.0519 3.44297 11.6361 2.5 9.99999 2.5C8.36391 2.5 6.94807 3.44297 6.26631 4.81507C6.16577 5.01741 5.93397 5.1246 5.71322 5.07648C5.48343 5.02639 5.24479 5 4.99999 5C3.15904 5 1.66666 6.49238 1.66666 8.33333C1.66666 10.1743 3.15904 11.6667 4.99999 11.6667C6.00889 11.6667 6.91311 11.2184 7.52437 10.5103C7.67205 10.3392 7.92193 10.286 8.12368 10.388C8.68758 10.6729 9.32504 10.8333 9.99999 10.8333C10.6749 10.8333 11.3124 10.6729 11.8763 10.388ZM12.9167 6.66667C12.9167 8.2775 11.6108 9.58333 9.99999 9.58333C8.38916 9.58333 7.08332 8.2775 7.08332 6.66667C7.08332 5.05584 8.38916 3.75 9.99999 3.75C11.6108 3.75 12.9167 5.05584 12.9167 6.66667ZM13.3629 9.1272C13.26 9.26764 13.2374 9.45795 13.343 9.59635C13.7237 10.095 14.3242 10.4167 15 10.4167C16.1506 10.4167 17.0833 9.48393 17.0833 8.33333C17.0833 7.18274 16.1506 6.25 15 6.25C14.7859 6.25 14.5794 6.28229 14.385 6.34226C14.2468 6.3849 14.1667 6.52203 14.1667 6.66667C14.1667 7.58703 13.8683 8.4377 13.3629 9.1272ZM5.61501 6.34227C5.42061 6.28229 5.21407 6.25 4.99999 6.25C3.8494 6.25 2.91666 7.18274 2.91666 8.33333C2.91666 9.48393 3.8494 10.4167 4.99999 10.4167C5.67572 10.4167 6.27632 10.095 6.65696 9.59634C6.76262 9.45794 6.73999 9.26763 6.63706 9.12719C6.13172 8.43769 5.83332 7.58703 5.83332 6.66667C5.83332 6.52204 5.75321 6.38491 5.61501 6.34227Z"/>
<path d="M4.28944 17.5307C4.60914 17.6106 4.93286 17.4284 5.06967 17.1286C5.92324 15.2582 7.80983 13.9583 10 13.9583C12.2237 13.9583 14.1344 15.2983 14.9688 17.2148C15.1074 17.5332 15.4565 17.7219 15.788 17.6183C16.1155 17.516 16.3018 17.1671 16.1718 16.8497C15.1765 14.4199 12.7882 12.7083 10 12.7083C7.25336 12.7083 4.89466 14.3694 3.8736 16.7417C3.73023 17.0748 3.93761 17.4427 4.28944 17.5307Z"/>
</svg>
