<svg width="25" height="25" viewBox="0 0 25 25" fill="none" xmlns="http://www.w3.org/2000/svg">
<path fill-rule="evenodd" clip-rule="evenodd" d="M10.9459 13.9439C14.696 13.9439 17.736 10.9038 17.736 7.15378C17.736 3.40373 14.696 0.363708 10.9459 0.363708C7.19586 0.363708 4.15584 3.40373 4.15584 7.15378C4.15584 10.9038 7.19586 13.9439 10.9459 13.9439ZM10.9459 11.9068C13.5709 11.9068 15.699 9.77882 15.699 7.15378C15.699 4.52874 13.5709 2.40073 10.9459 2.40073C8.32088 2.40073 6.19286 4.52874 6.19286 7.15378C6.19286 9.77882 8.32088 11.9068 10.9459 11.9068Z" />
<path d="M12.215 19.0825C12.1678 19.6495 11.6641 20.0631 11.0951 20.0559C11.0454 20.0552 10.9956 20.0549 10.9457 20.0549C7.49173 20.0549 4.39207 21.5719 2.27668 23.976C1.86588 24.4429 1.13796 24.5063 0.698232 24.0666C0.344156 23.7125 0.301544 23.149 0.627277 22.7687C3.11797 19.8607 6.81663 18.0179 10.9457 18.0179C11.0638 18.0179 11.1815 18.0194 11.2988 18.0224C11.8543 18.0366 12.2612 18.5288 12.215 19.0825Z" />
<path d="M24.079 14.3993C24.3306 13.8962 24.1267 13.2844 23.6235 13.0329C23.1204 12.7813 22.5086 12.9852 22.2571 13.4884L19.2363 19.5299C19.029 19.9444 18.4765 20.0341 18.1488 19.7064L17.0982 18.6557C16.7004 18.258 16.0555 18.258 15.6578 18.6557C15.26 19.0535 15.26 19.6984 15.6578 20.0961L17.7077 22.146C18.527 22.9653 19.9081 22.7411 20.4263 21.7048L24.079 14.3993Z" />
</svg>
