<svg width="26" height="26" viewBox="0 0 26 26" fill="none" xmlns="http://www.w3.org/2000/svg">
<path d="M13 20.0416C13.8975 20.0416 14.625 19.3141 14.625 18.4166C14.625 17.5192 13.8975 16.7916 13 16.7916C12.1025 16.7916 11.375 17.5192 11.375 18.4166C11.375 19.3141 12.1025 20.0416 13 20.0416Z" />
<path fill-rule="evenodd" clip-rule="evenodd" d="M5.41667 6.49996C5.41667 4.10673 7.35677 2.16663 9.75001 2.16663H16.25C18.6432 2.16663 20.5833 4.10673 20.5833 6.49996V19.5C20.5833 21.8932 18.6432 23.8333 16.25 23.8333H9.75C7.35677 23.8333 5.41667 21.8932 5.41667 19.5V6.49996ZM7.04167 6.49996C7.04167 5.00419 8.25423 3.79163 9.75001 3.79163H16.25C17.7458 3.79163 18.9583 5.00419 18.9583 6.49996V19.5C18.9583 20.9957 17.7458 22.2083 16.25 22.2083H9.75C8.25423 22.2083 7.04167 20.9957 7.04167 19.5V6.49996Z" />
</svg>
