<svg width="26" height="26" viewBox="0 0 26 26" fill="none" xmlns="http://www.w3.org/2000/svg">
<path d="M7.58333 13C7.58333 14.1967 6.61328 15.1667 5.41667 15.1667C4.22005 15.1667 3.25 14.1967 3.25 13C3.25 11.8034 4.22005 10.8334 5.41667 10.8334C6.61328 10.8334 7.58333 11.8034 7.58333 13Z" />
<path d="M15.1667 13C15.1667 14.1967 14.1966 15.1667 13 15.1667C11.8034 15.1667 10.8333 14.1967 10.8333 13C10.8333 11.8034 11.8034 10.8334 13 10.8334C14.1966 10.8334 15.1667 11.8034 15.1667 13Z" />
<path d="M20.5833 15.1667C21.78 15.1667 22.75 14.1967 22.75 13C22.75 11.8034 21.78 10.8334 20.5833 10.8334C19.3867 10.8334 18.4167 11.8034 18.4167 13C18.4167 14.1967 19.3867 15.1667 20.5833 15.1667Z" />
</svg>
