<svg width="26" height="26" viewBox="0 0 26 26" fill="none" xmlns="http://www.w3.org/2000/svg">
<path fill-rule="evenodd" clip-rule="evenodd" d="M9.54523 20.1907C9.62795 19.9499 9.84428 19.7708 10.0989 19.7708H15.9011C16.1557 19.7708 16.3721 19.9499 16.4548 20.1907C16.9663 21.6798 18.379 22.75 20.0417 22.75C22.1358 22.75 23.8333 21.0524 23.8333 18.9583C23.8333 16.8642 22.1358 15.1666 20.0417 15.1666C19.8289 15.1666 19.6203 15.1842 19.4171 15.2178C19.1662 15.2594 18.9064 15.1544 18.7853 14.9309L15.6854 9.21159C15.5641 8.98789 15.6182 8.71262 15.7905 8.52541C16.4121 7.85007 16.7917 6.94851 16.7917 5.95829C16.7917 3.86421 15.0941 2.16663 13 2.16663C10.9059 2.16663 9.20834 3.86421 9.20834 5.95829C9.20834 6.94852 9.58793 7.85009 10.2095 8.52543C10.3819 8.71264 10.4359 8.9879 10.3147 9.2116L7.21491 14.9309C7.09376 15.1545 6.83391 15.2594 6.58309 15.2179C6.37984 15.1842 6.17114 15.1666 5.95834 15.1666C3.86426 15.1666 2.16667 16.8642 2.16667 18.9583C2.16667 21.0524 3.86426 22.75 5.95834 22.75C7.621 22.75 9.03371 21.6798 9.54523 20.1907ZM11.7435 9.98566C11.8646 9.76214 12.1244 9.65716 12.3753 9.69874C12.5785 9.73243 12.7872 9.74996 13 9.74996C13.2128 9.74996 13.4215 9.73243 13.6248 9.69873C13.8756 9.65715 14.1354 9.76213 14.2566 9.98565L17.3564 15.7049C17.4777 15.9286 17.4236 16.2039 17.2513 16.3911C16.9004 16.7722 16.6267 17.2254 16.4548 17.726C16.372 17.9668 16.1557 18.1458 15.9011 18.1458H10.0989C9.84428 18.1458 9.62797 17.9668 9.54525 17.726C9.37334 17.2255 9.09962 16.7723 8.74881 16.3912C8.5765 16.204 8.52246 15.9287 8.64369 15.705L11.7435 9.98566ZM8.12501 18.9583C8.12501 20.1549 7.15496 21.125 5.95834 21.125C4.76172 21.125 3.79167 20.1549 3.79167 18.9583C3.79167 17.7617 4.76172 16.7916 5.95834 16.7916C7.15496 16.7916 8.12501 17.7617 8.12501 18.9583ZM22.2083 18.9583C22.2083 20.1549 21.2383 21.125 20.0417 21.125C18.8451 21.125 17.875 20.1549 17.875 18.9583C17.875 17.7617 18.8451 16.7916 20.0417 16.7916C21.2383 16.7916 22.2083 17.7617 22.2083 18.9583ZM15.1667 5.95829C15.1667 7.15491 14.1966 8.12496 13 8.12496C11.8034 8.12496 10.8333 7.15491 10.8333 5.95829C10.8333 4.76168 11.8034 3.79163 13 3.79163C14.1966 3.79163 15.1667 4.76168 15.1667 5.95829Z" />
</svg>
