<svg width="26" height="26" viewBox="0 0 26 26" fill="none" xmlns="http://www.w3.org/2000/svg">
<path fill-rule="evenodd" clip-rule="evenodd" d="M16.5544 20.5833C16.1901 20.5833 15.9283 20.9386 15.9622 21.3013C15.9731 21.4178 15.9791 21.5396 15.9791 21.6666C15.9791 23.1713 14.6722 24.6458 12.9999 24.6458C11.3276 24.6458 10.0207 23.1713 10.0207 21.6666C10.0207 21.5396 10.0267 21.4178 10.0376 21.3013C10.0715 20.9386 9.80975 20.5833 9.44542 20.5833H5.98111C4.10014 20.5833 3.11263 18.351 4.37791 16.9592L5.65284 15.5567C6.20611 14.9481 6.57475 14.1946 6.71568 13.3843L7.9241 6.43588C8.35328 3.96813 10.4951 2.16663 12.9999 2.16663C15.5047 2.16663 17.6466 3.96813 18.0757 6.43588L19.2842 13.3843C19.4251 14.1946 19.7937 14.9481 20.347 15.5567L21.6219 16.9592C22.8872 18.351 21.8997 20.5833 20.0187 20.5833H16.5544ZM11.9516 20.614L11.9505 20.6151L11.9589 20.6064L11.9616 20.6037C11.9629 20.6022 11.9636 20.6015 11.9637 20.6014C11.9641 20.6009 11.9637 20.6014 11.9637 20.6014L11.9616 20.6037C11.9735 20.5912 11.9904 20.5833 12.0076 20.5833H13.9922C14.0094 20.5833 14.0258 20.5907 14.0377 20.6032C14.0408 20.6068 14.0485 20.616 14.0596 20.6307C14.0845 20.6639 14.1255 20.7242 14.169 20.8112C14.2548 20.9827 14.3541 21.2653 14.3541 21.6666C14.3541 22.3286 13.7209 23.0208 12.9999 23.0208C12.279 23.0208 11.6457 22.3286 11.6457 21.6666C11.6457 21.2653 11.7451 20.9827 11.8308 20.8112C11.8743 20.7242 11.9154 20.6639 11.9403 20.6307C11.9513 20.616 11.9584 20.6073 11.9616 20.6037L11.9589 20.6064L11.9569 20.6085L11.9536 20.612L11.9516 20.614ZM5.58031 18.0523L6.85524 16.6498C7.61599 15.813 8.12287 14.777 8.31665 13.6627L9.52507 6.71431C9.81888 5.02492 11.2852 3.79163 12.9999 3.79163C14.7147 3.79163 16.181 5.02491 16.4748 6.71431L17.6832 13.6627C17.877 14.777 18.3838 15.813 19.1446 16.6498L20.4195 18.0523C20.7358 18.4002 20.489 18.9583 20.0187 18.9583H5.98111C5.51087 18.9583 5.26399 18.4002 5.58031 18.0523Z" />
</svg>
