<svg width="26" height="26" viewBox="0 0 26 26" fill="none" xmlns="http://www.w3.org/2000/svg">
<path fill-rule="evenodd" clip-rule="evenodd" d="M17.3333 13.0001C17.3333 15.3933 15.3932 17.3334 13 17.3334C10.6068 17.3334 8.66668 15.3933 8.66668 13.0001C8.66668 10.6068 10.6068 8.66675 13 8.66675C15.3932 8.66675 17.3333 10.6068 17.3333 13.0001ZM15.7083 13.0001C15.7083 14.4959 14.4958 15.7084 13 15.7084C11.5042 15.7084 10.2917 14.4959 10.2917 13.0001C10.2917 11.5043 11.5042 10.2917 13 10.2917C14.4958 10.2917 15.7083 11.5043 15.7083 13.0001Z" />
<path fill-rule="evenodd" clip-rule="evenodd" d="M2.49278 13.5236C3.61385 15.2394 7.54352 20.5834 13.0001 20.5834C18.4566 20.5834 22.3863 15.2394 23.5073 13.5236C23.7172 13.2025 23.7172 12.7977 23.5073 12.4765C22.3863 10.7608 18.4566 5.41675 13.0001 5.41675C7.54352 5.41675 3.61385 10.7608 2.49278 12.4765C2.28296 12.7977 2.28296 13.2025 2.49278 13.5236ZM13.0001 18.9584C10.8147 18.9584 8.83268 17.8847 7.17959 16.4644C6.30965 15.717 5.57342 14.9094 4.99636 14.1973C4.42912 13.4974 4.42912 12.5028 4.99636 11.8028C5.57342 11.0908 6.30965 10.2832 7.17959 9.53578C8.83268 8.1155 10.8147 7.04175 13.0001 7.04175C15.1854 7.04175 17.1674 8.1155 18.8205 9.53578C19.6905 10.2832 20.4267 11.0908 21.0038 11.8028C21.571 12.5028 21.571 13.4974 21.0038 14.1973C20.4267 14.9094 19.6905 15.717 18.8205 16.4644C17.1674 17.8847 15.1854 18.9584 13.0001 18.9584Z" />
</svg>
