<svg width="20" height="20" viewBox="0 0 20 20" fill="none" xmlns="http://www.w3.org/2000/svg">
<path d="M1.33333 17.8541C0.884602 17.8541 0.520833 18.2179 0.520833 18.6666C0.520833 19.1154 0.884602 19.4791 1.33333 19.4791H18.6667C19.1154 19.4791 19.4792 19.1154 19.4792 18.6666C19.4792 18.2179 19.1154 17.8541 18.6667 17.8541H1.33333Z" />
<path d="M10.8125 1.33331C10.8125 0.884582 10.4487 0.520813 10 0.520813C9.55127 0.520813 9.1875 0.884582 9.1875 1.33331V6.23477C9.1875 6.56949 8.88695 6.8241 8.55678 6.76907L3.63357 5.94853C3.19095 5.87476 2.77233 6.17378 2.69855 6.6164C2.62478 7.05903 2.9238 7.47765 3.36643 7.55142L7.91865 8.31013C8.29393 8.37268 8.48949 8.79245 8.29594 9.11999L5.77966 13.3783C5.55138 13.7646 5.6795 14.2629 6.06582 14.4911C6.45215 14.7194 6.95039 14.5913 7.17867 14.205L9.53366 10.2196C9.74332 9.86481 10.2567 9.86481 10.4663 10.2196L12.8213 14.205C13.0496 14.5913 13.5479 14.7194 13.9342 14.4911C14.3205 14.2629 14.4486 13.7646 14.2203 13.3783L11.7041 9.11999C11.5105 8.79245 11.7061 8.37268 12.0813 8.31013L16.6336 7.55142C17.0762 7.47765 17.3752 7.05903 17.3014 6.6164C17.2277 6.17378 16.8091 5.87476 16.3664 5.94853L11.4432 6.76907C11.1131 6.8241 10.8125 6.56949 10.8125 6.23477V1.33331Z" />
</svg>
