<svg width="20" height="20" viewBox="0 0 20 20" fill="none" xmlns="http://www.w3.org/2000/svg">
<path d="M12.413 6.07046C12.413 5.3801 11.8728 4.6741 11.2065 4.49356C10.5402 4.31302 10 4.72631 10 5.41667C10 6.10702 10.5402 6.81302 11.2065 6.99356C11.8728 7.1741 12.413 6.76081 12.413 6.07046Z" />
<path fill-rule="evenodd" clip-rule="evenodd" d="M10 1.66667C7.23858 1.66667 5 3.90524 5 6.66667C5 9.08975 6.72362 11.1103 9.01168 11.569C9.21776 11.6103 9.375 11.7857 9.375 11.9959L9.375 17.5C9.375 17.8452 9.65482 18.125 10 18.125C10.3452 18.125 10.625 17.8452 10.625 17.5L10.625 11.9959C10.625 11.7857 10.7822 11.6103 10.9883 11.569C13.2764 11.1103 15 9.08975 15 6.66667C15 3.90524 12.7614 1.66667 10 1.66667ZM6.25 6.66667C6.25 8.73773 7.92893 10.4167 10 10.4167C12.0711 10.4167 13.75 8.73773 13.75 6.66667C13.75 4.5956 12.0711 2.91667 10 2.91667C7.92893 2.91667 6.25 4.5956 6.25 6.66667Z" />
</svg>
