<svg width="26" height="26" viewBox="0 0 26 26" fill="none" xmlns="http://www.w3.org/2000/svg">
<path d="M12.9999 7.85413C13.4486 7.85413 13.8124 8.2179 13.8124 8.66663L13.8124 11.6458C13.8124 11.9449 14.0549 12.1875 14.3541 12.1875L17.3332 12.1875C17.782 12.1875 18.1457 12.5512 18.1457 13C18.1457 13.4487 17.782 13.8125 17.3332 13.8125L14.3541 13.8125C14.0549 13.8125 13.8124 14.055 13.8124 14.3541L13.8124 17.3333C13.8124 17.782 13.4486 18.1458 12.9999 18.1458C12.5512 18.1458 12.1874 17.782 12.1874 17.3333L12.1874 14.3541C12.1874 14.055 11.9449 13.8125 11.6457 13.8125L8.66656 13.8125C8.21783 13.8125 7.85406 13.4487 7.85406 13C7.85406 12.5512 8.21783 12.1875 8.66656 12.1875L11.6457 12.1875C11.9449 12.1875 12.1874 11.9449 12.1874 11.6458L12.1874 8.66663C12.1874 8.2179 12.5512 7.85413 12.9999 7.85413Z" />
<path fill-rule="evenodd" clip-rule="evenodd" d="M12.9999 23.8333C18.983 23.8333 23.8332 18.983 23.8332 13C23.8332 7.01688 18.983 2.16663 12.9999 2.16663C7.01681 2.16663 2.16656 7.01687 2.16656 13C2.16657 18.983 7.01681 23.8333 12.9999 23.8333ZM12.9999 22.2083C18.0855 22.2083 22.2082 18.0856 22.2082 13C22.2082 7.91434 18.0855 3.79163 12.9999 3.79163C7.91428 3.79163 3.79157 7.91434 3.79157 13C3.79157 18.0856 7.91428 22.2083 12.9999 22.2083Z" />
</svg>
