<svg width="26" height="26" viewBox="0 0 26 26" fill="none" xmlns="http://www.w3.org/2000/svg">
<path fill-rule="evenodd" clip-rule="evenodd" d="M23.8333 7.04163C23.8333 4.34924 21.6507 2.16663 18.9583 2.16663H13C9.41015 2.16663 6.5 5.07678 6.5 8.66663V9.74996C6.5 10.9466 7.47005 11.9166 8.66666 11.9166H18.9583C21.6507 11.9166 23.8333 9.73402 23.8333 7.04163ZM18.9583 3.79163H13C10.3076 3.79163 8.125 5.97424 8.125 8.66663V9.74996C8.125 10.0491 8.36751 10.2916 8.66666 10.2916H18.9583C20.7533 10.2916 22.2083 8.83655 22.2083 7.04163C22.2083 5.2467 20.7533 3.79163 18.9583 3.79163Z" />
<path fill-rule="evenodd" clip-rule="evenodd" d="M2.16666 18.9583C2.16666 21.6507 4.34928 23.8333 7.04166 23.8333L13 23.8333C16.5898 23.8333 19.5 20.9231 19.5 17.3333L19.5 16.25C19.5 15.0533 18.5299 14.0833 17.3333 14.0833L7.04167 14.0833C4.34928 14.0833 2.16666 16.2659 2.16666 18.9583ZM7.04166 22.2083L13 22.2083C15.6924 22.2083 17.875 20.0257 17.875 17.3333L17.875 16.25C17.875 15.9508 17.6325 15.7083 17.3333 15.7083L7.04167 15.7083C5.24674 15.7083 3.79166 17.1634 3.79166 18.9583C3.79166 20.7532 5.24674 22.2083 7.04166 22.2083Z" />
</svg>
