<svg width="24" height="24" viewBox="0 0 24 24" fill="none" xmlns="http://www.w3.org/2000/svg">
<path fill-rule="evenodd" clip-rule="evenodd" d="M12 13C13.933 13 15.5 11.433 15.5 9.49999C15.5 7.567 13.933 5.99999 12 5.99999C10.067 5.99999 8.5 7.567 8.5 9.49999C8.5 11.433 10.067 13 12 13ZM12 11.5C13.1046 11.5 14 10.6046 14 9.49999C14 8.39542 13.1046 7.49999 12 7.49999C10.8954 7.49999 10 8.39542 10 9.49999C10 10.6046 10.8954 11.5 12 11.5Z" />
<path d="M16.4465 16.2731C16.812 16.5572 16.8221 17.0953 16.4657 17.3909C16.1611 17.6435 15.723 17.6 15.4044 17.3656C14.4513 16.6643 13.2741 16.25 12.0001 16.25C10.7262 16.25 9.549 16.6643 8.59596 17.3656C8.27728 17.6 7.83918 17.6435 7.53463 17.3909C7.17828 17.0953 7.18836 16.5572 7.55382 16.2731C8.7816 15.3185 10.3245 14.75 12.0001 14.75C13.6758 14.75 15.2188 15.3185 16.4465 16.2731Z" />
<path fill-rule="evenodd" clip-rule="evenodd" d="M12 22C17.5229 22 22 17.5229 22 12C22 6.47715 17.5229 1.99999 12 1.99999C6.47715 1.99999 2 6.47715 2 12C2 17.5229 6.47715 22 12 22ZM12 20.5C16.6944 20.5 20.5 16.6944 20.5 12C20.5 7.30556 16.6944 3.49999 12 3.49999C7.30558 3.49999 3.5 7.30556 3.5 12C3.5 16.6944 7.30558 20.5 12 20.5Z" />
</svg>
