<svg width="26" height="26" viewBox="0 0 26 26" fill="none" xmlns="http://www.w3.org/2000/svg">
<path fill-rule="evenodd" clip-rule="evenodd" d="M2.16667 11.6077C2.16667 9.93805 3.43188 8.54001 5.09328 8.37387L9.03257 7.97994C11.6555 7.71764 14.2086 6.97892 16.5663 5.80005L20.6977 3.73434C22.1383 3.01403 23.8333 4.06161 23.8333 5.67227V18.1608C23.8333 19.7714 22.1383 20.819 20.6977 20.0987L16.5663 18.033C15.8999 17.6998 15.218 17.4018 14.5232 17.1397C14.1764 17.0089 13.8125 17.2699 13.8125 17.6405V20.0416C13.8125 21.3878 12.7212 22.4791 11.375 22.4791H10.8333C8.58968 22.4791 6.77083 20.6603 6.77083 18.4166V16.1171C6.77083 15.8389 6.55997 15.6059 6.28307 15.5782L5.09328 15.4592C3.43188 15.293 2.16667 13.895 2.16667 12.2253V11.6077ZM22.2083 5.67227V18.1608C22.2083 18.5635 21.7846 18.8253 21.4244 18.6453L17.293 16.5796C14.7585 15.3123 12.0139 14.5181 9.19426 14.2362L5.25498 13.8423C4.42427 13.7592 3.79167 13.0602 3.79167 12.2253V11.6077C3.79167 10.7729 4.42427 10.0739 5.25497 9.9908L9.19426 9.59687C12.0139 9.31491 14.7584 8.52078 17.293 7.2535L21.4244 5.18779C21.7846 5.00771 22.2083 5.26961 22.2083 5.67227ZM8.9914 15.849C8.67253 15.8171 8.39583 16.0675 8.39583 16.388V18.4166C8.39583 19.7628 9.48714 20.8541 10.8333 20.8541H11.375C11.8237 20.8541 12.1875 20.4904 12.1875 20.0416V16.8283C12.1875 16.5803 12.0192 16.3633 11.7776 16.3072C10.875 16.0976 9.95813 15.9457 9.03257 15.8531L8.9914 15.849Z" />
</svg>
