<svg width="20" height="20" viewBox="0 0 20 20" fill="none" xmlns="http://www.w3.org/2000/svg">
<path d="M12.9419 10.3914C12.6979 10.1473 12.3021 10.1473 12.0581 10.3914C11.814 10.6355 11.814 11.0312 12.0581 11.2753L13.6132 12.8304C13.8756 13.0929 13.6897 13.5417 13.3185 13.5417L10 13.5417C7.12352 13.5417 4.79167 11.2098 4.79167 8.33333C4.79167 5.45685 7.12352 3.125 10 3.125C10.3452 3.125 10.625 2.84518 10.625 2.5C10.625 2.15482 10.3452 1.875 10 1.875C6.43316 1.875 3.54167 4.7665 3.54167 8.33333C3.54167 11.9002 6.43316 14.7917 10 14.7917H13.3185C13.6897 14.7917 13.8756 15.2405 13.6132 15.503L12.0581 17.0581C11.814 17.3021 11.814 17.6979 12.0581 17.9419C12.3021 18.186 12.6979 18.186 12.9419 17.9419L16.2753 14.6086C16.5194 14.3645 16.5194 13.9688 16.2753 13.7247L12.9419 10.3914Z" />
</svg>
