<svg width="26" height="26" viewBox="0 0 26 26" fill="none" xmlns="http://www.w3.org/2000/svg">
<path fill-rule="evenodd" clip-rule="evenodd" d="M16.25 13C16.25 14.7949 14.7949 16.25 13 16.25C11.2051 16.25 9.75 14.7949 9.75 13C9.75 11.2051 11.2051 9.75 13 9.75C14.7949 9.75 16.25 11.2051 16.25 13ZM14.625 13C14.625 13.8975 13.8975 14.625 13 14.625C12.1025 14.625 11.375 13.8975 11.375 13C11.375 12.1025 12.1025 11.375 13 11.375C13.8975 11.375 14.625 12.1025 14.625 13Z" fill="black"/>
<path fill-rule="evenodd" clip-rule="evenodd" d="M13.2662 23.5625H12.7338C11.8874 23.5625 11.1435 23.0014 10.9109 22.1875L10.4326 20.5135C10.3395 20.1873 9.97293 20.0261 9.66958 20.1778L8.10342 20.9609C7.37354 21.3258 6.49203 21.1827 5.91502 20.6057L5.39427 20.085C4.81725 19.508 4.6742 18.6265 5.03914 17.8966L5.82222 16.3304C5.97389 16.0271 5.81265 15.6605 5.48654 15.5674L3.81251 15.0891C2.99862 14.8565 2.4375 14.1126 2.4375 13.2662V12.7338C2.4375 11.8874 2.99862 11.1435 3.81251 10.9109L5.48654 10.4326C5.81265 10.3395 5.97389 9.97293 5.82222 9.66957L5.03914 8.10342C4.6742 7.37354 4.81725 6.49203 5.39427 5.91502L5.91502 5.39427C6.49203 4.81725 7.37354 4.6742 8.10342 5.03914L9.66957 5.82222C9.97293 5.97389 10.3395 5.81265 10.4326 5.48654L10.9109 3.81251C11.1435 2.99862 11.8874 2.4375 12.7338 2.4375H13.2662C14.1126 2.4375 14.8565 2.99862 15.0891 3.81251L15.5674 5.48654C15.6605 5.81265 16.0271 5.97389 16.3304 5.82222L17.8966 5.03914C18.6265 4.6742 19.508 4.81725 20.085 5.39427L20.6057 5.91502C21.1827 6.49203 21.3258 7.37354 20.9609 8.10342L20.1778 9.66957C20.0261 9.97293 20.1873 10.3395 20.5135 10.4326L22.1875 10.9109C23.0014 11.1435 23.5625 11.8874 23.5625 12.7338V13.2662C23.5625 14.1126 23.0014 14.8565 22.1875 15.0891L20.5135 15.5674C20.1873 15.6605 20.0261 16.0271 20.1778 16.3304L20.9609 17.8966C21.3258 18.6265 21.1827 19.508 20.6057 20.085L20.085 20.6057C19.508 21.1827 18.6265 21.3258 17.8966 20.9609L16.3304 20.1778C16.0271 20.0261 15.6605 20.1873 15.5674 20.5135L15.0891 22.1875C14.8565 23.0014 14.1126 23.5625 13.2662 23.5625ZM12.7338 21.9375H13.2662C13.3871 21.9375 13.4934 21.8573 13.5266 21.7411L14.2721 19.1318C14.4388 18.5482 14.9723 18.1458 15.5792 18.1458C15.7903 18.1458 15.9984 18.195 16.1872 18.2894L18.6233 19.5074C18.7276 19.5596 18.8535 19.5391 18.9359 19.4567L19.4567 18.9359C19.5391 18.8535 19.5596 18.7276 19.5074 18.6233L18.2894 16.1872C18.195 15.9984 18.1458 15.7903 18.1458 15.5792C18.1458 14.9723 18.5482 14.4388 19.1318 14.2721L21.7411 13.5266C21.8573 13.4934 21.9375 13.3871 21.9375 13.2662V12.7338C21.9375 12.6129 21.8573 12.5066 21.7411 12.4734L19.1318 11.7279C18.5482 11.5612 18.1458 11.0277 18.1458 10.4208C18.1458 10.2097 18.195 10.0016 18.2894 9.81282L19.5074 7.37669C19.5596 7.27243 19.5391 7.1465 19.4567 7.06407L18.9359 6.54332C18.8535 6.46089 18.7276 6.44045 18.6233 6.49258L16.1872 7.71065C15.9984 7.80503 15.7903 7.85417 15.5792 7.85417C14.9723 7.85417 14.4388 7.4518 14.2721 6.8682L13.5266 4.25893C13.4934 4.14266 13.3871 4.0625 13.2662 4.0625H12.7338C12.6129 4.0625 12.5066 4.14266 12.4734 4.25893L11.7279 6.8682C11.5612 7.4518 11.0277 7.85417 10.4208 7.85417C10.2097 7.85417 10.0016 7.80503 9.81282 7.71065L7.37669 6.49258C7.27243 6.44045 7.1465 6.46089 7.06407 6.54332L6.54332 7.06407C6.46089 7.1465 6.44045 7.27243 6.49258 7.37669L7.71065 9.81282C7.80503 10.0016 7.85417 10.2097 7.85417 10.4208C7.85417 11.0277 7.45181 11.5612 6.8682 11.7279L4.25893 12.4734C4.14266 12.5066 4.0625 12.6129 4.0625 12.7338V13.2662C4.0625 13.3871 4.14266 13.4934 4.25893 13.5266L6.8682 14.2721C7.45181 14.4388 7.85417 14.9723 7.85417 15.5792C7.85417 15.7903 7.80503 15.9984 7.71065 16.1872L6.49258 18.6233C6.44045 18.7276 6.46089 18.8535 6.54332 18.9359L7.06407 19.4567C7.1465 19.5391 7.27243 19.5596 7.37669 19.5074L9.81282 18.2894C10.0016 18.195 10.2097 18.1458 10.4208 18.1458C11.0277 18.1458 11.5612 18.5482 11.7279 19.1318L12.4734 21.7411C12.5066 21.8573 12.6129 21.9375 12.7338 21.9375Z" fill="black"/>
</svg>
