<svg width="26" height="26" viewBox="0 0 26 26" fill="none" xmlns="http://www.w3.org/2000/svg">
<path fill-rule="evenodd" clip-rule="evenodd" d="M17 13C17 15.2091 15.2091 17 13 17C10.7909 17 9 15.2091 9 13C9 10.7909 10.7909 9 13 9C15.2091 9 17 10.7909 17 13ZM15 13C15 14.1046 14.1046 15 13 15C11.8954 15 11 14.1046 11 13C11 11.8954 11.8954 11 13 11C14.1046 11 15 11.8954 15 13Z" />
<path fill-rule="evenodd" clip-rule="evenodd" d="M13.3276 26H12.6724C11.6306 26 10.715 25.3094 10.4288 24.3077L9.84017 22.2473C9.7255 21.846 9.27437 21.6475 8.90102 21.8342L6.97344 22.798C6.07513 23.2471 4.9902 23.0711 4.28002 22.3609L3.6391 21.72C2.92892 21.0098 2.75286 19.9249 3.20202 19.0266L4.16581 17.099C4.35249 16.7256 4.15403 16.2745 3.75267 16.1598L1.69232 15.5712C0.690614 15.285 0 14.3694 0 13.3276V12.6724C0 11.6306 0.690614 10.715 1.69232 10.4288L3.75267 9.84017C4.15403 9.7255 4.35249 9.27437 4.16581 8.90102L3.20202 6.97344C2.75286 6.07513 2.92892 4.9902 3.6391 4.28002L4.28002 3.6391C4.9902 2.92892 6.07513 2.75286 6.97344 3.20202L8.90102 4.16581C9.27437 4.35249 9.7255 4.15404 9.84017 3.75267L10.4288 1.69232C10.715 0.690613 11.6306 0 12.6724 0H13.3276C14.3694 0 15.285 0.690613 15.5712 1.69232L16.1598 3.75267C16.2745 4.15404 16.7256 4.35249 17.099 4.16581L19.0266 3.20202C19.9249 2.75286 21.0098 2.92892 21.72 3.6391L22.3609 4.28002C23.0711 4.9902 23.2471 6.07513 22.798 6.97344L21.8342 8.90102C21.6475 9.27437 21.846 9.7255 22.2473 9.84017L24.3077 10.4288C25.3094 10.715 26 11.6306 26 12.6724V13.3276C26 14.3694 25.3094 15.285 24.3077 15.5712L22.2473 16.1598C21.846 16.2745 21.6475 16.7256 21.8342 17.099L22.798 19.0266C23.2471 19.9249 23.0711 21.0098 22.3609 21.72L21.72 22.3609C21.0098 23.0711 19.9249 23.2471 19.0266 22.798L17.099 21.8342C16.7256 21.6475 16.2745 21.846 16.1598 22.2473L15.5712 24.3077C15.285 25.3094 14.3694 26 13.3276 26ZM12.6724 24H13.3276C13.4764 24 13.6072 23.9013 13.6481 23.7582L14.5657 20.5468C14.7709 19.8285 15.4274 19.3333 16.1744 19.3333C16.4342 19.3333 16.6904 19.3938 16.9227 19.51L19.921 21.0091C20.0493 21.0733 20.2043 21.0481 20.3058 20.9467L20.9467 20.3058C21.0481 20.2043 21.0733 20.0493 21.0091 19.921L19.51 16.9227C19.3938 16.6904 19.3333 16.4342 19.3333 16.1744C19.3333 15.4274 19.8285 14.7709 20.5468 14.5657L23.7582 13.6481C23.9013 13.6072 24 13.4764 24 13.3276V12.6724C24 12.5236 23.9013 12.3928 23.7582 12.3519L20.5468 11.4343C19.8285 11.2291 19.3333 10.5726 19.3333 9.82558C19.3333 9.56583 19.3938 9.30965 19.51 9.07732L21.0091 6.07901C21.0733 5.95068 21.0481 5.79569 20.9467 5.69423L20.3058 5.05331C20.2043 4.95186 20.0493 4.92671 19.921 4.99087L16.9227 6.49003C16.6904 6.60619 16.4342 6.66667 16.1744 6.66667C15.4274 6.66667 14.7709 6.17145 14.5657 5.45317L13.6481 2.24176C13.6072 2.09866 13.4764 2 13.3276 2H12.6724C12.5236 2 12.3928 2.09866 12.3519 2.24176L11.4343 5.45317C11.2291 6.17145 10.5726 6.66667 9.82558 6.66667C9.56583 6.66667 9.30965 6.60619 9.07732 6.49003L6.07901 4.99087C5.95068 4.92671 5.79569 4.95186 5.69424 5.05331L5.05331 5.69423C4.95186 5.79569 4.92671 5.95068 4.99087 6.07901L6.49003 9.07732C6.60619 9.30965 6.66667 9.56583 6.66667 9.82558C6.66667 10.5726 6.17145 11.2291 5.45317 11.4343L2.24176 12.3519C2.09866 12.3928 2 12.5236 2 12.6724V13.3276C2 13.4764 2.09866 13.6072 2.24176 13.6481L5.45317 14.5657C6.17145 14.7709 6.66667 15.4274 6.66667 16.1744C6.66667 16.4342 6.60619 16.6904 6.49003 16.9227L4.99087 19.921C4.92671 20.0493 4.95186 20.2043 5.05331 20.3058L5.69424 20.9467C5.79569 21.0481 5.95068 21.0733 6.07901 21.0091L9.07732 19.51C9.30965 19.3938 9.56583 19.3333 9.82558 19.3333C10.5726 19.3333 11.2291 19.8285 11.4343 20.5468L12.3519 23.7582C12.3928 23.9013 12.5236 24 12.6724 24Z" />
</svg>
