<svg width="26" height="26" viewBox="0 0 26 26" fill="none" xmlns="http://www.w3.org/2000/svg">
<path fill-rule="evenodd" clip-rule="evenodd" d="M11.1666 20.8542C10.9989 20.8542 10.8421 20.9331 10.7325 21.06C9.83853 22.095 8.51659 22.75 7.04167 22.75C4.34928 22.75 2.16667 20.5674 2.16667 17.875C2.16667 15.1826 4.34928 13 7.04167 13C8.51659 13 9.83853 13.655 10.7325 14.69C10.8421 14.8169 10.9989 14.8958 11.1666 14.8958H20.5833C22.2287 14.8958 23.5625 16.2297 23.5625 17.875C23.5625 19.5203 22.2287 20.8542 20.5833 20.8542H11.1666ZM10.2917 17.875C10.2917 19.6699 8.83659 21.125 7.04167 21.125C5.24674 21.125 3.79167 19.6699 3.79167 17.875C3.79167 16.0801 5.24674 14.625 7.04167 14.625C8.83659 14.625 10.2917 16.0801 10.2917 17.875ZM12.4462 19.2292C12.0857 19.2292 11.8261 18.8824 11.8737 18.5251C11.902 18.3124 11.9167 18.0954 11.9167 17.875C11.9167 17.6546 11.902 17.4376 11.8737 17.2249C11.8261 16.8676 12.0857 16.5208 12.4462 16.5208H20.5833C21.3312 16.5208 21.9375 17.1271 21.9375 17.875C21.9375 18.6229 21.3312 19.2292 20.5833 19.2292H12.4462Z" />
<path fill-rule="evenodd" clip-rule="evenodd" d="M23.8333 8.125C23.8333 10.8174 21.6507 13 18.9583 13C17.4834 13 16.1615 12.345 15.2675 11.31C15.1579 11.1831 15.0011 11.1042 14.8334 11.1042H5.41667C3.77132 11.1042 2.4375 9.77035 2.4375 8.125C2.4375 6.47965 3.77132 5.14583 5.41667 5.14583H14.8334C15.0011 5.14583 15.1579 5.0669 15.2675 4.93998C16.1615 3.905 17.4834 3.25 18.9583 3.25C21.6507 3.25 23.8333 5.43261 23.8333 8.125ZM22.2083 8.125C22.2083 9.91993 20.7533 11.375 18.9583 11.375C17.1634 11.375 15.7083 9.91993 15.7083 8.125C15.7083 6.33007 17.1634 4.875 18.9583 4.875C20.7533 4.875 22.2083 6.33007 22.2083 8.125ZM13.5538 6.77083C13.9143 6.77083 14.1739 7.11764 14.1263 7.47495C14.098 7.6876 14.0833 7.90459 14.0833 8.125C14.0833 8.34541 14.098 8.5624 14.1263 8.77505C14.1739 9.13236 13.9143 9.47917 13.5538 9.47917H5.41667C4.66878 9.47917 4.0625 8.87289 4.0625 8.125C4.0625 7.37712 4.66878 6.77083 5.41667 6.77083H13.5538Z" />
</svg>
