<svg width="27" height="27" viewBox="0 0 27 27" fill="none" xmlns="http://www.w3.org/2000/svg">
<path d="M18.8667 12.0649C18.8667 12.6102 19.3065 13.0436 19.8376 13.1334C22.6064 13.6018 24.7167 16.0395 24.7167 18.9763C24.7167 22.248 22.0976 24.9003 18.8667 24.9003H8.46669C5.23582 24.9003 2.61669 22.248 2.61669 18.9763C2.61669 16.0395 4.72699 13.6018 7.49577 13.1334C8.02689 13.0436 8.46669 12.6102 8.46669 12.0649C8.46669 11.5196 8.02798 11.0711 7.49362 11.1384C3.64503 11.6234 0.666687 14.9476 0.666687 18.9763C0.666687 23.3386 4.15887 26.875 8.46669 26.875H18.8667C23.1745 26.875 26.6667 23.3386 26.6667 18.9763C26.6667 14.9476 23.6883 11.6234 19.8397 11.1384C19.3054 11.0711 18.8667 11.5196 18.8667 12.0649Z" />
<path d="M14.6417 5.8351C14.6417 5.24868 15.3418 4.955 15.7513 5.36966L18.1773 7.82632C18.558 8.2119 19.1754 8.2119 19.5561 7.82632C19.9369 7.44074 19.9369 6.81559 19.5561 6.43001L14.3561 1.16418C13.9754 0.778605 13.358 0.778605 12.9773 1.16419L7.77726 6.43001C7.3965 6.81559 7.3965 7.44074 7.77726 7.82632C8.15802 8.2119 8.77536 8.2119 9.15612 7.82632L11.5821 5.36966C11.9915 4.955 12.6917 5.24868 12.6917 5.8351V18.9763C12.6917 19.5216 13.1282 19.9636 13.6667 19.9636C14.2052 19.9636 14.6417 19.5216 14.6417 18.9763V5.8351Z" />
</svg>
