<svg width="26" height="26" viewBox="0 0 26 26" fill="none" xmlns="http://www.w3.org/2000/svg">
<path d="M13 23.9917C19.1027 23.9917 24.05 19.0444 24.05 12.9417C24.05 9.31036 22.2984 6.08816 19.5939 4.07391C19.1777 3.76387 19.0243 3.19697 19.2729 2.7413C19.5409 2.25002 20.1678 2.08019 20.6209 2.4086C23.8801 4.77081 26 8.60868 26 12.9417C26 20.1214 20.1797 25.9417 13 25.9417C5.82027 25.9417 -3.02037e-05 20.1214 -3.05176e-05 12.9417C-3.0707e-05 8.60868 2.11983 4.77081 5.37901 2.4086C5.83212 2.08019 6.45907 2.25002 6.72705 2.7413C6.97559 3.19697 6.82227 3.76387 6.406 4.07391C3.70159 6.08816 1.94997 9.31036 1.94997 12.9417C1.94997 19.0444 6.89722 23.9917 13 23.9917Z" />
<path d="M13.975 1.24166C13.975 0.703186 13.5384 0.266663 13 0.266663C12.4615 0.266663 12.025 0.703186 12.025 1.24166V12.9417C12.025 13.4801 12.4615 13.9167 13 13.9167C13.5384 13.9167 13.975 13.4801 13.975 12.9417V1.24166Z" />
</svg>
