<svg width="24" height="25" viewBox="0 0 24 25" xmlns="http://www.w3.org/2000/svg">
<path d="M11.0901 2.80188C11.5868 2.80188 11.9894 2.3993 11.9894 1.90268C11.9894 1.40607 11.5868 1.00348 11.0901 1.00348L4.79574 1.00348C2.14713 1.00348 -1.15775e-07 3.15061 0 5.79922L6.28885e-07 20.1864C7.4466e-07 22.8351 2.14713 24.9822 4.79574 24.9822H19.183C21.8316 24.9822 23.9787 22.8351 23.9787 20.1864V13.892C23.9787 13.3954 23.5761 12.9928 23.0795 12.9928C22.5829 12.9928 22.1803 13.3954 22.1803 13.892V20.1864C22.1803 21.8418 20.8383 23.1838 19.183 23.1838H4.79574C3.14036 23.1838 1.7984 21.8418 1.7984 20.1864L1.7984 5.79922C1.7984 4.14383 3.14036 2.80188 4.79574 2.80188L11.0901 2.80188Z"/>
<path fill-rule="evenodd" clip-rule="evenodd" d="M23.1159 1.86632C21.937 0.687466 20.0257 0.687464 18.8469 1.86632L8.79554 11.9176C8.39934 12.3138 8.11064 12.8045 7.95671 13.3432L6.92847 16.9421C6.83876 17.2561 6.92633 17.594 7.15725 17.8249C7.38816 18.0558 7.72611 18.1434 8.04011 18.0537L11.6389 17.0255C12.1777 16.8715 12.6683 16.5828 13.0645 16.1866L23.1159 6.13532C24.2947 4.95647 24.2947 3.04517 23.1159 1.86632ZM20.1185 3.13798C20.5951 2.66145 21.3677 2.66145 21.8442 3.13798C22.3207 3.61451 22.3207 4.38712 21.8442 4.86366L11.7929 14.915C11.6128 15.0951 11.3898 15.2263 11.1449 15.2963C10.2546 15.5506 9.43156 14.7276 9.68592 13.8373C9.75589 13.5924 9.88711 13.3694 10.0672 13.1893L20.1185 3.13798Z" />
</svg>
