<svg width="26" height="26" viewBox="0 0 26 26" fill="none" xmlns="http://www.w3.org/2000/svg">
<path d="M10.366 16.777C9.99812 16.52 9.48688 16.5129 9.16958 16.8302C8.85228 17.1475 8.84949 17.6669 9.20517 17.9405C10.2559 18.7487 11.5717 19.2292 12.9997 19.2292C14.4278 19.2292 15.7436 18.7487 16.7943 17.9405C17.15 17.6669 17.1472 17.1475 16.8299 16.8302C16.5126 16.5129 16.0014 16.52 15.6335 16.777C14.8872 17.2984 13.9792 17.6042 12.9997 17.6042C12.0203 17.6042 11.1123 17.2984 10.366 16.777Z" />
<path fill-rule="evenodd" clip-rule="evenodd" d="M23.6866 14.7875C23.7685 14.2943 23.7206 13.8056 23.5735 13.344C23.3825 12.7446 23.0241 12.1908 22.565 11.7317L14.2684 3.43507C13.8093 2.97597 13.2554 2.61755 12.656 2.42652C12.5983 2.40813 12.5402 2.3913 12.4817 2.37607C12.0722 2.26948 11.6441 2.24181 11.2125 2.31347C11.1464 2.32444 11.0805 2.33601 11.0148 2.34818C5.97983 3.28064 2.16667 7.69503 2.16667 13C2.16667 18.9831 7.01692 23.8334 13 23.8334C18.305 23.8334 22.7194 20.0202 23.6518 14.9852C23.664 14.9195 23.6756 14.8536 23.6866 14.7875ZM3.79167 13C3.79167 8.76027 6.65841 5.18733 10.5593 4.11824C10.6987 4.08002 10.8333 4.18877 10.8333 4.33336C10.8333 10.3164 15.6836 15.1667 21.6667 15.1667C21.8113 15.1667 21.92 15.3013 21.8818 15.4408C20.8127 19.3416 17.2398 22.2084 13 22.2084C7.91438 22.2084 3.79167 18.0857 3.79167 13ZM21.6667 13.5417C21.7762 13.5417 21.8444 13.4264 21.7851 13.3343C21.6867 13.1814 21.5642 13.029 21.4159 12.8807L13.1193 4.58412C12.9711 4.43585 12.8186 4.31329 12.6657 4.21489C12.5736 4.15563 12.4583 4.22386 12.4583 4.33336C12.4583 9.41898 16.581 13.5417 21.6667 13.5417Z" />
</svg>
