<svg width="26" height="26" viewBox="0 0 26 26" fill="none" xmlns="http://www.w3.org/2000/svg">
<path d="M12.0183 16.6625C13.2653 16.9966 14.5337 16.6686 15.4501 15.8939C15.6785 15.7009 16.0185 15.6769 16.2422 15.8753L16.6477 16.2349C16.8717 16.4335 16.8938 16.7784 16.6736 16.9812C16.0359 17.5686 15.2638 17.9969 14.4261 18.2264C14.229 18.2804 14.0688 18.429 14.0159 18.6265L13.6721 19.9094C13.5947 20.1984 13.2976 20.3699 13.0087 20.2924L12.4855 20.1523C12.1965 20.0748 12.025 19.7778 12.1025 19.4889L12.2356 18.9918C12.3214 18.6718 12.1014 18.3522 11.7787 18.2773C11.7184 18.2633 11.658 18.2483 11.5977 18.2321C11.5376 18.216 11.4779 18.1989 11.4187 18.1809C11.1019 18.0844 10.7516 18.2512 10.6658 18.5712L10.5326 19.0682C10.4552 19.3572 10.1582 19.5287 9.86924 19.4513L9.34603 19.3111C9.05706 19.2336 8.88558 18.9366 8.96301 18.6477L9.30673 17.3649C9.35964 17.1674 9.29516 16.9586 9.15141 16.8132C7.84239 15.4897 7.25101 13.5259 7.76758 11.5981C8.28417 9.67013 9.77827 8.26515 11.5738 7.77348C11.7709 7.71949 11.9312 7.57085 11.9841 7.37338L12.3278 6.09063C12.4053 5.80167 12.7023 5.63019 12.9912 5.70761L13.5145 5.84781C13.8034 5.92523 13.9749 6.22225 13.8975 6.51121L13.7643 7.00835C13.6785 7.3283 13.8985 7.64791 14.2212 7.7228C14.2813 7.73677 14.3415 7.7518 14.4016 7.76791C14.4618 7.78404 14.5215 7.80112 14.5807 7.81913C14.8975 7.91562 15.2478 7.74882 15.3336 7.42886L15.4668 6.93183C15.5442 6.64287 15.8412 6.47138 16.1302 6.54881L16.6534 6.689C16.9423 6.76643 17.1138 7.06345 17.0364 7.35241L16.6927 8.63517C16.6398 8.83264 16.7042 9.04146 16.848 9.18681C17.4588 9.80443 17.9134 10.5615 18.172 11.3892C18.2613 11.6749 18.0697 11.9625 17.7765 12.0225L17.2454 12.1312C16.9525 12.1911 16.67 12.0004 16.5688 11.7191C16.1624 10.5899 15.228 9.67166 13.981 9.33754C11.9583 8.79555 9.8792 9.99593 9.33721 12.0187C8.79522 14.0414 9.9956 16.1205 12.0183 16.6625Z" />
<path fill-rule="evenodd" clip-rule="evenodd" d="M23.8333 13C23.8333 18.9831 18.9831 23.8334 13 23.8334C7.01692 23.8334 2.16667 18.9831 2.16667 13C2.16667 7.01694 7.01692 2.16669 13 2.16669C18.9831 2.16669 23.8333 7.01694 23.8333 13ZM22.2083 13C22.2083 18.0856 18.0856 22.2084 13 22.2084C7.91438 22.2084 3.79167 18.0856 3.79167 13C3.79167 7.9144 7.91438 3.79169 13 3.79169C18.0856 3.79169 22.2083 7.9144 22.2083 13Z" />
</svg>
