<svg width="26" height="26" viewBox="0 0 26 26" fill="none" xmlns="http://www.w3.org/2000/svg">
<path fill-rule="evenodd" clip-rule="evenodd" d="M14.3507 8.70087C12.734 8.70087 11.4234 10.0115 11.4234 11.6281C11.4234 13.2448 12.734 14.5554 14.3507 14.5554C15.9674 14.5554 17.2779 13.2448 17.2779 11.6281C17.2779 10.0115 15.9674 8.70087 14.3507 8.70087ZM13.0484 11.6281C13.0484 10.9089 13.6314 10.3259 14.3507 10.3259C15.0699 10.3259 15.6529 10.9089 15.6529 11.6281C15.6529 12.3474 15.0699 12.9304 14.3507 12.9304C13.6314 12.9304 13.0484 12.3474 13.0484 11.6281Z" />
<path fill-rule="evenodd" clip-rule="evenodd" d="M9.78541 20.3622C9.51253 20.3971 9.29836 20.6166 9.24587 20.8861C9.11678 21.5489 8.79506 22.1818 8.28069 22.6951C7.86392 23.1111 7.26881 23.3444 6.73592 23.4885C6.17984 23.6389 5.57074 23.723 5.0222 23.7707C4.46964 23.8189 3.95535 23.832 3.58067 23.8333C3.39267 23.834 3.23824 23.8316 3.12978 23.8291C3.07552 23.8279 3.03266 23.8265 3.00275 23.8255L2.96777 23.8242L2.95791 23.8238L2.95495 23.8237L2.70537 23.8126C2.42466 23.8002 2.19993 23.5759 2.18747 23.2957L2.17639 23.0466L2.17626 23.0437L2.17586 23.0338L2.17457 22.9989C2.17354 22.9691 2.17223 22.9263 2.17096 22.8721C2.16843 22.7639 2.16611 22.6098 2.16677 22.4221C2.16808 22.0482 2.18125 21.5349 2.22945 20.9834C2.2773 20.4359 2.36154 19.828 2.51223 19.2729C2.65663 18.7411 2.89037 18.1471 3.30713 17.7312C3.81549 17.2238 4.44074 16.9042 5.09637 16.7724C5.36772 16.7179 5.58713 16.5004 5.61878 16.2259C5.62286 16.1905 5.62729 16.154 5.63211 16.1164C5.70083 15.5801 5.84711 14.8255 6.15581 13.914C6.2261 13.7064 6.30473 13.491 6.39268 13.2683C6.50551 12.9826 6.31886 12.6622 6.01269 12.6322C5.5046 12.5826 5.00062 12.5343 4.62356 12.4985L3.69091 12.4106C3.36594 12.3802 3.14129 12.0723 3.212 11.7542L3.27859 11.4547C3.67553 9.66942 4.39597 8.44279 5.33267 7.6595C6.27097 6.87488 7.34383 6.60405 8.31457 6.57765C9.10182 6.55623 9.83934 6.69417 10.4277 6.85873C10.6213 6.91289 10.8303 6.86435 10.9771 6.72716C13.5172 4.35372 16.4559 3.2159 18.7762 2.67074C19.9948 2.38442 21.0524 2.25916 21.8089 2.20546C22.1875 2.17858 22.4917 2.16954 22.7042 2.16734C22.8104 2.16624 22.8939 2.16684 22.9523 2.16779C22.9815 2.16826 23.0045 2.16882 23.021 2.16929L23.0407 2.16991L23.0469 2.1702L23.049 2.17021L23.0505 2.17178L23.0505 2.17027L23.3014 2.18045C23.5846 2.19194 23.8112 2.41903 23.8215 2.70168L23.8307 2.95212L23.8308 2.95576L23.831 2.96189L23.8316 2.98157C23.832 2.99795 23.8324 3.0208 23.8328 3.04985C23.8335 3.10795 23.8337 3.19091 23.8322 3.29658C23.8291 3.50786 23.8189 3.81034 23.7905 4.1868C23.7338 4.93898 23.6045 5.99085 23.3138 7.20323C22.7606 9.5106 21.6143 12.4336 19.239 14.9662C19.1014 15.1129 19.0529 15.3217 19.1074 15.5151C19.2735 16.1038 19.4133 16.8436 19.3917 17.6336C19.3653 18.6025 19.0939 19.6732 18.3078 20.6097C17.5216 21.5462 16.294 22.2637 14.5052 22.6599L14.2052 22.7263C13.8865 22.7969 13.578 22.5727 13.5475 22.2483L13.4594 21.3175C13.4235 20.9412 13.3752 20.4381 13.3254 19.931C13.2964 19.6348 12.9842 19.4551 12.7077 19.5666C12.4876 19.6554 12.2746 19.735 12.0695 19.8064C11.164 20.1215 10.4155 20.2748 9.88358 20.349C9.84999 20.3537 9.81726 20.3581 9.78541 20.3622ZM7.08237 11.106C7.29462 11.1275 7.49931 11.0231 7.61034 10.8413C7.96781 10.2559 8.3875 9.64659 8.88012 9.02112C9.13755 8.69426 8.96273 8.2067 8.54622 8.20033C8.48399 8.19938 8.42152 8.1997 8.35891 8.2014C7.65917 8.22044 6.96926 8.41008 6.37787 8.90461C6.01962 9.20419 5.6675 9.64077 5.36961 10.2779C5.22155 10.5946 5.44955 10.9456 5.79806 10.9793L6.17131 11.0156C6.48206 11.046 6.79513 11.077 7.08237 11.106ZM14.8549 18.867C14.884 19.1527 14.9149 19.4639 14.9452 19.7727L14.9816 20.1453C15.0154 20.4931 15.367 20.7207 15.6843 20.5729C16.3227 20.2756 16.7601 19.9241 17.0603 19.5666C17.5557 18.9763 17.7458 18.2877 17.7648 17.5893C17.7666 17.5241 17.7669 17.459 17.7658 17.3941C17.7586 16.9783 17.2697 16.8046 16.9429 17.0626C16.3149 17.5582 15.7039 17.9811 15.1177 18.3416C14.937 18.4528 14.8335 18.6562 14.8549 18.867ZM9.58987 18.7495C9.43057 18.7702 9.27231 18.7117 9.15872 18.5984L7.38819 16.8313C7.27645 16.7197 7.21784 16.565 7.23598 16.4083C7.23918 16.3807 7.24266 16.3521 7.24645 16.3225C7.30267 15.8838 7.42633 15.2352 7.69762 14.4341C8.23888 12.8358 9.37365 10.6129 11.7626 8.22855C13.4266 6.56774 15.3242 5.52491 17.088 4.87142C17.3654 4.76864 17.6674 4.91878 17.7926 5.1864C18.0619 5.76221 18.4347 6.30174 18.911 6.7771C19.4695 7.33447 20.1163 7.74987 20.8065 8.02331C21.0927 8.13673 21.2617 8.44775 21.1562 8.73657C20.5003 10.5319 19.4405 12.4798 17.7313 14.1858C15.34 16.5724 13.1236 17.7193 11.5336 18.2726C10.7368 18.5499 10.093 18.6797 9.65823 18.7403C9.63484 18.7436 9.61205 18.7467 9.58987 18.7495ZM21.8934 6.07819C22.049 5.28084 22.128 4.58966 22.1676 4.06494C22.1778 3.92879 22.0651 3.81577 21.9286 3.82542L21.9244 3.82572C21.3682 3.86521 20.6262 3.94785 19.7697 4.11755C19.4468 4.18152 19.2647 4.52483 19.4298 4.80907C19.6 5.10194 19.8106 5.37779 20.0618 5.62851C20.4119 5.97788 20.8108 6.2487 21.2367 6.44097C21.5205 6.56913 21.8338 6.38339 21.8934 6.07819ZM7.12988 18.8798C6.39204 18.1433 5.19578 18.1433 4.45795 18.8798C4.3469 18.9906 4.20509 19.2484 4.08307 19.6978C3.96733 20.1241 3.89427 20.627 3.85078 21.1245C3.8351 21.304 3.8235 21.4799 3.81504 21.6475C3.79961 21.9532 4.05055 22.2036 4.35677 22.1882C4.52475 22.1798 4.70093 22.1682 4.88077 22.1525C5.37925 22.1091 5.88314 22.0362 6.31025 21.9207C6.76055 21.7989 7.01883 21.6574 7.12988 21.5465C7.86771 20.8101 7.86771 19.6162 7.12988 18.8798Z" />
</svg>
