<svg width="26" height="26" viewBox="0 0 26 26" fill="none" xmlns="http://www.w3.org/2000/svg">
<path d="M18.2 13.975C18.7385 13.975 19.175 13.5385 19.175 13C19.175 12.4615 18.7385 12.025 18.2 12.025L7.8 12.025C7.26152 12.025 6.825 12.4615 6.825 13C6.825 13.5385 7.26152 13.975 7.8 13.975L18.2 13.975Z" />
<path fill-rule="evenodd" clip-rule="evenodd" d="M26 13C26 20.1797 20.1797 26 13 26C5.8203 26 3.13835e-07 20.1797 0 13C-3.13835e-07 5.8203 5.8203 3.13835e-07 13 0C20.1797 -3.13835e-07 26 5.8203 26 13ZM24.05 13C24.05 19.1027 19.1027 24.05 13 24.05C6.89725 24.05 1.95 19.1027 1.95 13C1.95 6.89725 6.89725 1.95 13 1.95C19.1027 1.95 24.05 6.89725 24.05 13Z" />
</svg>
