<svg width="28" height="28" viewBox="0 0 28 28" fill="none" xmlns="http://www.w3.org/2000/svg">
<path fill-rule="evenodd" clip-rule="evenodd" d="M8.99999 4.95001L8.97176 4.95001C8.15561 4.95001 7.50347 4.95 6.97666 4.99304C6.43621 5.0372 5.97069 5.12988 5.54292 5.34784C4.85613 5.69778 4.29775 6.25616 3.94781 6.94295C3.72985 7.37072 3.63718 7.83623 3.59302 8.37669C3.54998 8.90349 3.54998 9.55564 3.54999 10.3718L3.54999 10.4V17.6L3.54999 17.6282C3.54998 18.4444 3.54998 19.0965 3.59302 19.6233C3.63718 20.1638 3.72985 20.6293 3.94781 21.0571C4.29775 21.7439 4.85613 22.3022 5.54292 22.6522C5.97069 22.8701 6.43621 22.9628 6.97666 23.007C7.50347 23.05 8.15562 23.05 8.97176 23.05H8.99999H14.8H14.8282C15.6444 23.05 16.2965 23.05 16.8233 23.007C17.3638 22.9628 17.8293 22.8701 18.2571 22.6522C18.9438 22.3022 19.5022 21.7439 19.8522 21.0571C20.0701 20.6293 20.1628 20.1638 20.207 19.6233C20.2459 19.1467 20.2496 18.5675 20.25 17.8571L20.4917 18.1391L20.5126 18.1635C20.9295 18.6499 21.2705 19.0477 21.5553 19.3274C21.8233 19.5905 22.1614 19.8763 22.5824 19.9323C23.1237 20.0044 23.6655 19.8039 24.0296 19.397C24.3128 19.0805 24.3835 18.6434 24.4157 18.2692C24.45 17.8716 24.45 17.3477 24.45 16.707V16.6748V10.8628V10.8307C24.45 10.2521 24.45 9.77406 24.4175 9.40723C24.3863 9.05502 24.317 8.64983 24.0547 8.34264C23.7116 7.94101 23.1971 7.72787 22.6705 7.76931C22.2678 7.80101 21.9323 8.03854 21.6612 8.26552C21.3788 8.50192 21.0408 8.83998 20.6317 9.24906L20.6317 9.24908L20.609 9.27176L20.2486 9.63221C20.2455 9.14814 20.2361 8.73364 20.207 8.37669C20.1628 7.83623 20.0701 7.37072 19.8522 6.94295C19.5022 6.25616 18.9438 5.69778 18.2571 5.34784C17.8293 5.12988 17.3638 5.0372 16.8233 4.99304C16.2965 4.95 15.6444 4.95001 14.8282 4.95001L14.8 4.95001H8.99999ZM20.25 11.4693V15.8596L21.4787 17.2931C21.9217 17.8099 22.2262 18.1642 22.466 18.3997C22.6538 18.5841 22.7421 18.6324 22.7613 18.6429C22.7633 18.6439 22.7645 18.6446 22.7651 18.645C22.8724 18.6558 22.9787 18.6164 23.0531 18.5384C23.0533 18.5378 23.0538 18.5365 23.0546 18.5344C23.0623 18.5139 23.098 18.4198 23.1205 18.1576C23.1494 17.8227 23.15 17.3555 23.15 16.6748V10.8628C23.15 10.2441 23.1494 9.82433 23.1226 9.52198C23.1012 9.28035 23.0676 9.1979 23.0614 9.18271C23.061 9.18168 23.0607 9.18095 23.0605 9.18051C22.9897 9.10158 22.8869 9.05899 22.781 9.06474C22.7806 9.06494 22.7799 9.06524 22.7789 9.06568C22.7637 9.07204 22.6817 9.1066 22.4957 9.26231C22.2629 9.45716 21.9657 9.75353 21.5282 10.191L20.25 11.4693ZM6.13311 6.50615C6.34707 6.39713 6.62247 6.32631 7.08252 6.28873C7.55017 6.25052 8.14918 6.25001 8.99999 6.25001H14.8C15.6508 6.25001 16.2498 6.25052 16.7175 6.28873C17.1775 6.32631 17.4529 6.39713 17.6669 6.50615C18.109 6.73145 18.4686 7.09095 18.6939 7.53313C18.8029 7.7471 18.8737 8.02249 18.9113 8.48255C18.9495 8.9502 18.95 9.54921 18.95 10.4V17.6C18.95 18.4508 18.9495 19.0498 18.9113 19.5175C18.8737 19.9775 18.8029 20.2529 18.6939 20.4669C18.4686 20.9091 18.109 21.2686 17.6669 21.4939C17.4529 21.6029 17.1775 21.6737 16.7175 21.7113C16.2498 21.7495 15.6508 21.75 14.8 21.75H8.99999C8.14919 21.75 7.55017 21.7495 7.08253 21.7113C6.62247 21.6737 6.34707 21.6029 6.13311 21.4939C5.69093 21.2686 5.33143 20.9091 5.10612 20.4669C4.9971 20.2529 4.92629 19.9775 4.8887 19.5175C4.85049 19.0498 4.84999 18.4508 4.84999 17.6V10.4C4.84999 9.54921 4.85049 8.9502 4.8887 8.48255C4.92629 8.02249 4.9971 7.7471 5.10612 7.53313C5.33143 7.09095 5.69093 6.73145 6.13311 6.50615Z" />
</svg>
