<svg width="26" height="26" viewBox="0 0 26 26" fill="none" xmlns="http://www.w3.org/2000/svg">
<path fill-rule="evenodd" clip-rule="evenodd" d="M8.7 4.54999L8.67177 4.54999C7.85562 4.54998 7.20348 4.54998 6.67668 4.59302C6.13622 4.63718 5.67071 4.72985 5.24293 4.94781C4.55614 5.29775 3.99776 5.85613 3.64783 6.54292C3.42987 6.97069 3.33719 7.43621 3.29303 7.97666C3.24999 8.50347 3.24999 9.15561 3.25 9.97175L3.25 9.99999V16L3.25 16.0282C3.24999 16.8444 3.24999 17.4965 3.29303 18.0233C3.33719 18.5638 3.42987 19.0293 3.64783 19.4571C3.99776 20.1438 4.55614 20.7022 5.24293 21.0522C5.67071 21.2701 6.13622 21.3628 6.67668 21.407C7.20348 21.45 7.85563 21.45 8.67177 21.45H8.7H13.4H13.4282C14.2444 21.45 14.8965 21.45 15.4233 21.407C15.9638 21.3628 16.4293 21.2701 16.8571 21.0522C17.5439 20.7022 18.1022 20.1438 18.4522 19.4571C18.6701 19.0293 18.7628 18.5638 18.807 18.0233C18.8374 17.6512 18.8463 17.2166 18.8489 16.7058C19.2494 17.1731 19.5788 17.5559 19.8553 17.8273C20.1233 18.0905 20.4614 18.3763 20.8824 18.4323C21.4237 18.5043 21.9655 18.3039 22.3297 17.8969C22.6128 17.5804 22.6835 17.1434 22.7158 16.7692C22.75 16.3716 22.75 15.8477 22.75 15.2071V15.2069V15.1748V10.3627V10.3306C22.75 9.75212 22.75 9.27404 22.7175 8.9072C22.6863 8.55499 22.617 8.14981 22.3547 7.84261C22.0116 7.44099 21.4971 7.22785 20.9705 7.26929C20.5678 7.30098 20.2323 7.53852 19.9612 7.7655C19.6788 8.00191 19.3408 8.33997 18.9317 8.74907L18.909 8.77174L18.8441 8.83661C18.8386 8.5175 18.8279 8.23232 18.807 7.97666C18.7628 7.43621 18.6701 6.97069 18.4522 6.54292C18.1022 5.85613 17.5439 5.29775 16.8571 4.94781C16.4293 4.72985 15.9638 4.63718 15.4233 4.59302C14.8965 4.54998 14.2444 4.54998 13.4282 4.54999L13.4 4.54999H8.7ZM18.85 10.6692V14.7095L19.7787 15.793C20.2217 16.3098 20.5262 16.6642 20.7661 16.8997C20.9538 17.0841 21.0421 17.1323 21.0613 17.1428C21.0633 17.1439 21.0645 17.1446 21.0651 17.145C21.1724 17.1558 21.2787 17.1164 21.3532 17.0384C21.3533 17.0378 21.3538 17.0364 21.3546 17.0343C21.3624 17.0139 21.398 16.9197 21.4206 16.6576C21.4494 16.3227 21.45 15.8554 21.45 15.1748V10.3627C21.45 9.74405 21.4494 9.32431 21.4226 9.02195C21.4012 8.78032 21.3676 8.69788 21.3614 8.68269C21.361 8.68165 21.3607 8.68093 21.3605 8.68049C21.2897 8.60155 21.1869 8.55896 21.081 8.56472C21.0806 8.56492 21.0799 8.56522 21.0789 8.56565C21.0637 8.57202 20.9817 8.60657 20.7957 8.76229C20.563 8.95714 20.2657 9.25351 19.8282 9.69098L18.85 10.6692ZM5.83312 6.10612C6.04709 5.9971 6.32248 5.92629 6.78254 5.8887C7.25018 5.85049 7.8492 5.84999 8.7 5.84999H13.4C14.2508 5.84999 14.8498 5.85049 15.3175 5.8887C15.7775 5.92629 16.0529 5.9971 16.2669 6.10612C16.7091 6.33143 17.0686 6.69093 17.2939 7.13311C17.4029 7.34707 17.4737 7.62247 17.5113 8.08252C17.5495 8.55017 17.55 9.14918 17.55 9.99999V16C17.55 16.8508 17.5495 17.4498 17.5113 17.9175C17.4737 18.3775 17.4029 18.6529 17.2939 18.8669C17.0686 19.309 16.7091 19.6685 16.2669 19.8939C16.0529 20.0029 15.7775 20.0737 15.3175 20.1113C14.8498 20.1495 14.2508 20.15 13.4 20.15H8.7C7.8492 20.15 7.25019 20.1495 6.78254 20.1113C6.32248 20.0737 6.04709 20.0029 5.83312 19.8939C5.39094 19.6685 5.03144 19.309 4.80613 18.8669C4.69712 18.6529 4.6263 18.3775 4.58871 17.9175C4.55051 17.4498 4.55 16.8508 4.55 16V9.99999C4.55 9.14918 4.55051 8.55017 4.58871 8.08252C4.6263 7.62247 4.69712 7.34707 4.80613 7.13311C5.03144 6.69093 5.39094 6.33143 5.83312 6.10612Z" />
</svg>
