<svg width="26" height="26" viewBox="0 0 26 26" fill="none" xmlns="http://www.w3.org/2000/svg">
<path fill-rule="evenodd" clip-rule="evenodd" d="M17.3333 13C17.3333 15.3933 15.3932 17.3334 13 17.3334C10.6068 17.3334 8.66667 15.3933 8.66667 13C8.66667 10.6068 10.6068 8.66669 13 8.66669C15.3932 8.66669 17.3333 10.6068 17.3333 13ZM15.7083 13C15.7083 14.4958 14.4958 15.7084 13 15.7084C11.5042 15.7084 10.2917 14.4958 10.2917 13C10.2917 11.5042 11.5042 10.2917 13 10.2917C14.4958 10.2917 15.7083 11.5042 15.7083 13Z" />
<path fill-rule="evenodd" clip-rule="evenodd" d="M2.49277 13.5236C3.61384 15.2393 7.54351 20.5834 13 20.5834C18.4566 20.5834 22.3863 15.2393 23.5073 13.5236C23.7171 13.2024 23.7171 12.7976 23.5073 12.4765C22.3863 10.7607 18.4566 5.41669 13 5.41669C7.54351 5.41669 3.61384 10.7607 2.49277 12.4765C2.28296 12.7976 2.28296 13.2024 2.49277 13.5236ZM13 18.9584C10.8147 18.9584 8.83267 17.8846 7.17959 16.4643C6.30964 15.7169 5.57342 14.9093 4.99635 14.1973C4.42911 13.4973 4.42911 12.5027 4.99635 11.8028C5.57342 11.0907 6.30964 10.2832 7.17959 9.53572C8.83267 8.11544 10.8147 7.04169 13 7.04169C15.1854 7.04169 17.1674 8.11544 18.8205 9.53572C19.6905 10.2832 20.4267 11.0907 21.0037 11.8028C21.571 12.5027 21.571 13.4973 21.0037 14.1973C20.4267 14.9093 19.6905 15.7169 18.8205 16.4643C17.1674 17.8846 15.1854 18.9584 13 18.9584Z" />
</svg>
