<svg width="26" height="26" viewBox="0 0 26 26" fill="none" xmlns="http://www.w3.org/2000/svg">
<path d="M6.49999 5.68758C6.05126 5.68758 5.68749 6.05135 5.68749 6.50008C5.68749 6.94881 6.05126 7.31258 6.49999 7.31258H19.5C19.9487 7.31258 20.3125 6.94881 20.3125 6.50008C20.3125 6.05135 19.9487 5.68758 19.5 5.68758H6.49999Z" />
<path fill-rule="evenodd" clip-rule="evenodd" d="M6.49999 2.16675C4.10676 2.16675 2.16666 4.10685 2.16666 6.50008V19.5001C2.16666 21.8933 4.10676 23.8334 6.49999 23.8334H19.5C21.8932 23.8334 23.8333 21.8933 23.8333 19.5001V6.50008C23.8333 4.10685 21.8932 2.16675 19.5 2.16675H6.49999ZM6.49999 3.79175C5.00422 3.79175 3.79166 5.00431 3.79166 6.50008C3.79166 7.99585 5.00422 9.20841 6.49999 9.20841H19.5C20.9958 9.20841 22.2083 7.99585 22.2083 6.50008C22.2083 5.00431 20.9958 3.79175 19.5 3.79175H6.49999ZM22.2083 19.5001V11.0114C22.2083 10.557 21.6623 10.2837 21.2465 10.4671C20.7122 10.7026 20.1214 10.8334 19.5 10.8334H6.49999C5.87859 10.8334 5.28774 10.7026 4.75346 10.4671C4.33764 10.2837 3.79166 10.557 3.79166 11.0114V19.5001C3.79166 20.9959 5.00422 22.2084 6.49999 22.2084H19.5C20.9958 22.2084 22.2083 20.9959 22.2083 19.5001Z" />
</svg>
