<svg width="26" height="26" viewBox="0 0 26 26" fill="none" xmlns="http://www.w3.org/2000/svg">
<path fill-rule="evenodd" clip-rule="evenodd" d="M10.4 7.80002C10.4 6.36408 11.5641 5.20002 13 5.20002C14.4359 5.20002 15.6 6.36408 15.6 7.80002C15.6 9.23597 14.4359 10.4 13 10.4C11.5641 10.4 10.4 9.23597 10.4 7.80002ZM13 3.90002C10.8461 3.90002 9.1 5.64611 9.1 7.80002C9.1 9.95394 10.8461 11.7 13 11.7C15.1539 11.7 16.9 9.95394 16.9 7.80002C16.9 5.64611 15.1539 3.90002 13 3.90002ZM10.075 14.95C7.7416 14.95 5.85 16.8416 5.85 19.175C5.85 19.7135 6.28652 20.15 6.825 20.15H14.3V21.45H6.825C5.56855 21.45 4.55 20.4315 4.55 19.175C4.55 16.1236 7.02363 13.65 10.075 13.65H14.3V14.95H10.075ZM17.55 18.2V20.8H18.85V18.2H21.45V16.9H18.85V14.3H17.55V16.9H14.95V18.2H17.55Z" />
</svg>
