<svg width="26" height="26" viewBox="0 0 26 26" fill="none" xmlns="http://www.w3.org/2000/svg">
<path fill-rule="evenodd" clip-rule="evenodd" d="M13.6816 4.15452C13.23 4.07927 12.7691 4.07927 12.3175 4.15452C10.9107 4.38893 9.87956 5.60608 9.87956 7.03228V13.118C9.87956 14.544 10.9105 15.7611 12.3172 15.9956C12.769 16.0709 13.2301 16.0709 13.6819 15.9956C15.0886 15.7611 16.1196 14.544 16.1196 13.118V7.03228C16.1196 5.60608 15.0884 4.38893 13.6816 4.15452ZM12.0611 2.61574C12.6825 2.5122 13.3167 2.5122 13.938 2.61574C16.0971 2.97549 17.6796 4.84347 17.6796 7.03228V13.118C17.6796 15.3066 16.0973 17.1745 13.9385 17.5344C13.3168 17.638 12.6823 17.638 12.0607 17.5344C9.90182 17.1745 8.31956 15.3066 8.31956 13.118V7.03228C8.31956 4.84347 9.90204 2.97549 12.0611 2.61574ZM4.42352 14.3786C4.42348 14.3782 4.42343 14.3777 5.19956 14.3001C5.97569 14.2225 5.97565 14.2221 5.97562 14.2218L5.97629 14.2276C5.97719 14.2352 5.97885 14.2486 5.98142 14.2675C5.98658 14.3052 5.99542 14.3645 6.00931 14.4423C6.03712 14.598 6.08491 14.8265 6.1633 15.1031C6.32079 15.659 6.59758 16.3947 7.0723 17.125C7.9991 18.5509 9.714 20.0201 12.9996 20.0201C16.2851 20.0201 18 18.5509 18.9268 17.125C19.4015 16.3947 19.6783 15.659 19.8358 15.1031C19.9142 14.8265 19.962 14.598 19.9898 14.4423C20.0037 14.3645 20.0125 14.3052 20.0177 14.2675C20.0203 14.2486 20.0219 14.2352 20.0228 14.2276L20.0235 14.2218C20.0235 14.2221 20.0234 14.2225 20.7996 14.3001C21.5757 14.3777 21.5756 14.3782 21.5756 14.3786L21.5755 14.3797L21.5752 14.3822L21.5745 14.3891L21.5721 14.41C21.5701 14.4269 21.5673 14.45 21.5633 14.4787C21.5555 14.5362 21.5434 14.6166 21.5255 14.7165C21.4899 14.9163 21.431 15.1957 21.3367 15.5284C21.1489 16.1913 20.8163 17.0805 20.2348 17.9752C19.1313 19.6729 17.1623 21.3329 13.7796 21.555V24.0501H12.2196V21.555C8.83685 21.3329 6.8678 19.6729 5.76433 17.9752C5.1828 17.0805 4.85021 16.1913 4.66238 15.5284C4.56812 15.1957 4.50927 14.9163 4.4736 14.7165C4.45575 14.6166 4.44365 14.5362 4.43579 14.4787C4.43186 14.45 4.42899 14.4269 4.427 14.41L4.42463 14.3891L4.42389 14.3822L4.42363 14.3797L4.42352 14.3786ZM5.97547 14.2204C5.97544 14.22 5.97544 14.2201 5.97549 14.2205L5.97547 14.2204ZM20.0237 14.2204C20.0237 14.22 20.0237 14.2201 20.0236 14.2205L20.0237 14.2204Z" fill="#09101C"/>
</svg>
