<svg width="26" height="26" viewBox="0 0 26 26" fill="none" xmlns="http://www.w3.org/2000/svg">
<path fill-rule="evenodd" clip-rule="evenodd" d="M4.02978 13C4.02978 8.046 8.04578 4.03 12.9998 4.03C15.1959 4.03 17.2078 4.81924 18.7671 6.12957L6.12935 18.7673C4.81902 17.208 4.02978 15.1962 4.02978 13ZM7.23244 19.8704C8.79176 21.1807 10.8036 21.97 12.9998 21.97C17.9538 21.97 21.9698 17.954 21.9698 13C21.9698 10.8038 21.1805 8.79199 19.8702 7.23266L7.23244 19.8704ZM12.9998 2.47C7.18422 2.47 2.46978 7.18444 2.46978 13C2.46978 18.8156 7.18422 23.53 12.9998 23.53C18.8153 23.53 23.5298 18.8156 23.5298 13C23.5298 7.18444 18.8153 2.47 12.9998 2.47Z" fill="#E95460"/>
</svg>
