<svg width="26" height="26" viewBox="0 0 26 26" fill="none" xmlns="http://www.w3.org/2000/svg">
<path fill-rule="evenodd" clip-rule="evenodd" d="M5.07 13C5.07 8.62038 8.62038 5.07 13 5.07C14.8854 5.07 16.6172 5.728 17.9781 6.82689L6.82689 17.9782C5.728 16.6172 5.07 14.8854 5.07 13ZM8.02191 19.1732C9.38286 20.272 11.1146 20.93 13 20.93C17.3796 20.93 20.93 17.3796 20.93 13C20.93 11.1146 20.272 9.38286 19.1732 8.02191L8.02191 19.1732ZM13 3.38C7.68702 3.38 3.38 7.68702 3.38 13C3.38 18.313 7.68702 22.62 13 22.62C18.313 22.62 22.62 18.313 22.62 13C22.62 7.68702 18.313 3.38 13 3.38Z" />
</svg>
