<svg width="26" height="26" viewBox="0 0 26 26" fill="none" xmlns="http://www.w3.org/2000/svg">
<path fill-rule="evenodd" clip-rule="evenodd" d="M11.8534 5.39502C11.2827 5.39502 10.761 5.71746 10.5058 6.22792L10.4048 6.42996C9.92518 7.38913 8.94483 7.99502 7.87245 7.99502C6.1452 7.99502 4.745 9.39523 4.745 11.1225V14.3C4.745 16.1757 4.75417 16.9263 4.93252 17.5142C5.35474 18.9061 6.44395 19.9953 7.83581 20.4175C8.42376 20.5958 9.17429 20.605 11.05 20.605H14.95C16.8257 20.605 17.5762 20.5958 18.1642 20.4175C19.5561 19.9953 20.6453 18.9061 21.0675 17.5142C21.2458 16.9263 21.255 16.1757 21.255 14.3V11.1225C21.255 9.39523 19.8548 7.99502 18.1276 7.99502C17.0552 7.99502 16.0748 7.38913 15.5952 6.42996L15.4942 6.22792C15.239 5.71746 14.7173 5.39502 14.1466 5.39502H11.8534ZM8.99421 5.47213C9.53571 4.38913 10.6426 3.70502 11.8534 3.70502H14.1466C15.3574 3.70502 16.4643 4.38913 17.0058 5.47213L17.1068 5.67417C17.3001 6.0608 17.6953 6.30502 18.1276 6.30502C20.7882 6.30502 22.945 8.46187 22.945 11.1225V14.3C22.945 14.3566 22.945 14.4124 22.945 14.4676C22.9453 16.1212 22.9455 17.1451 22.6847 18.0048C22.0986 19.9368 20.5868 21.4487 18.6548 22.0347C17.7951 22.2955 16.7712 22.2953 15.1175 22.295C15.0624 22.295 15.0066 22.295 14.95 22.295H11.05C10.9934 22.295 10.9376 22.295 10.8825 22.295C9.22878 22.2953 8.20488 22.2955 7.34523 22.0347C5.41324 21.4487 3.90136 19.9368 3.3153 18.0048C3.05452 17.1451 3.0547 16.1212 3.05498 14.4676C3.05499 14.4124 3.055 14.3566 3.055 14.3V11.1225C3.055 8.46187 5.21184 6.30502 7.87245 6.30502C8.30471 6.30502 8.69987 6.0608 8.89319 5.67417L8.99421 5.47213Z" />
<path fill-rule="evenodd" clip-rule="evenodd" d="M13 10.595C11.3127 10.595 9.94497 11.9628 9.94497 13.65C9.94497 15.3373 11.3127 16.705 13 16.705C14.6872 16.705 16.055 15.3373 16.055 13.65C16.055 11.9628 14.6872 10.595 13 10.595ZM8.25497 13.65C8.25497 11.0294 10.3794 8.90502 13 8.90502C15.6206 8.90502 17.745 11.0294 17.745 13.65C17.745 16.2706 15.6206 18.395 13 18.395C10.3794 18.395 8.25497 16.2706 8.25497 13.65Z" />
</svg>
