<svg width="26" height="26" viewBox="0 0 26 26" fill="none" xmlns="http://www.w3.org/2000/svg">
<path d="M3.90002 11.1224C3.90002 8.92852 5.67855 7.14999 7.87247 7.14999V7.14999C8.6248 7.14999 9.31255 6.72493 9.649 6.05203L9.75002 5.84999C9.84388 5.66227 9.89081 5.56842 9.94265 5.48592C10.272 4.96174 10.8256 4.61963 11.4417 4.55946C11.5387 4.54999 11.6436 4.54999 11.8535 4.54999H14.1466C14.3565 4.54999 14.4614 4.54999 14.5584 4.55946C15.1745 4.61963 15.728 4.96174 16.0574 5.48592C16.1092 5.56842 16.1562 5.66227 16.25 5.84999L16.351 6.05203C16.6875 6.72493 17.3753 7.14999 18.1276 7.14999V7.14999C20.3215 7.14999 22.1 8.92851 22.1 11.1224V15.05C22.1 17.2902 22.1 18.4103 21.6641 19.266C21.2806 20.0186 20.6686 20.6305 19.916 21.014C19.0603 21.45 17.9402 21.45 15.7 21.45H10.3C8.05981 21.45 6.93971 21.45 6.08406 21.014C5.33141 20.6305 4.71949 20.0186 4.336 19.266C3.90002 18.4103 3.90002 17.2902 3.90002 15.05V11.1224Z" stroke="#09101C" stroke-width="1.3"/>
<circle cx="13" cy="13.65" r="3.9" stroke="#09101C" stroke-width="1.3"/>
</svg>
