<svg width="26" height="26" viewBox="0 0 26 26" fill="none" xmlns="http://www.w3.org/2000/svg">
<path d="M3.89999 11.1224C3.89999 8.92852 5.67852 7.14999 7.87244 7.14999V7.14999C8.62477 7.14999 9.31252 6.72493 9.64897 6.05203L9.74999 5.84999C10.1484 5.05326 10.9627 4.54999 11.8534 4.54999H14.1465C15.0373 4.54999 15.8516 5.05326 16.25 5.84999L16.351 6.05203C16.6875 6.72493 17.3752 7.14999 18.1275 7.14999V7.14999C20.3215 7.14999 22.1 8.92851 22.1 11.1224V14.3C22.1 16.1142 22.1 17.0213 21.8761 17.7595C21.3719 19.4214 20.0714 20.7219 18.4095 21.2261C17.6713 21.45 16.7642 21.45 14.95 21.45H11.05C9.23576 21.45 8.32865 21.45 7.59052 21.2261C5.92859 20.7219 4.62804 19.4214 4.1239 17.7595C3.89999 17.0213 3.89999 16.1142 3.89999 14.3V11.1224Z" stroke="#09101C" stroke-width="1.69"/>
<circle cx="13" cy="13.65" r="3.9" stroke="#09101C" stroke-width="1.69"/>
</svg>
