<svg width="28" height="28" viewBox="0 0 28 28" fill="none" xmlns="http://www.w3.org/2000/svg">
<path fill-rule="evenodd" clip-rule="evenodd" d="M0 22.6154C0 10.1253 10.1253 0 22.6154 0H24.0513C26.2321 0 28 1.7679 28 3.94872V15.4359C28 17.6167 26.2321 19.3846 24.0513 19.3846H22.6154C20.8311 19.3846 19.3846 20.8311 19.3846 22.6154V24.0513C19.3846 26.2321 17.6167 28 15.4359 28H3.94872C1.7679 28 0 26.2321 0 24.0513V22.6154ZM22.6154 2.15385C11.3148 2.15385 2.15385 11.3148 2.15385 22.6154V24.0513C2.15385 25.0426 2.95744 25.8462 3.94872 25.8462H5.02564C5.42215 25.8462 5.74359 25.5247 5.74359 25.1282V22.6154C5.74359 13.2973 13.2973 5.74359 22.6154 5.74359H25.1282C25.5247 5.74359 25.8462 5.42215 25.8462 5.02564V3.94872C25.8462 2.95744 25.0426 2.15385 24.0513 2.15385H22.6154ZM11.4872 25.1282C11.4872 25.5247 11.1657 25.8462 10.7692 25.8462H8.61539C8.21887 25.8462 7.89744 25.5247 7.89744 25.1282V22.6154C7.89744 14.4869 14.4869 7.89744 22.6154 7.89744H25.1282C25.5247 7.89744 25.8462 8.21887 25.8462 8.61539V10.7692C25.8462 11.1657 25.5247 11.4872 25.1282 11.4872H22.6154C16.4694 11.4872 11.4872 16.4694 11.4872 22.6154V25.1282ZM13.641 25.1282C13.641 25.5247 13.9625 25.8462 14.359 25.8462H15.4359C16.4272 25.8462 17.2308 25.0426 17.2308 24.0513V22.6154C17.2308 19.6415 19.6415 17.2308 22.6154 17.2308H24.0513C25.0426 17.2308 25.8462 16.4272 25.8462 15.4359V14.359C25.8462 13.9625 25.5247 13.641 25.1282 13.641H22.6154C17.659 13.641 13.641 17.659 13.641 22.6154V25.1282Z" />
</svg>
