<svg width="26" height="26" viewBox="0 0 26 26" fill="none" xmlns="http://www.w3.org/2000/svg">
<path fill-rule="evenodd" clip-rule="evenodd" d="M22.1086 2.6C11.3343 2.6 2.6 11.3343 2.6 22.1086C2.6 22.468 2.89129 22.7593 3.25062 22.7593H5.39923C6.05679 13.4743 13.4743 6.05681 22.7593 5.39927V3.25062C22.7593 2.89129 22.468 2.6 22.1086 2.6ZM22.7593 7.00373C14.3584 7.65486 7.65484 14.3584 7.00369 22.7593H10.8586C11.4881 16.4806 16.4806 11.4881 22.7593 10.8587V7.00373ZM16.5782 22.7593H12.4679C13.0842 17.3651 17.3651 13.0842 22.7593 12.4679V16.5782C22.7593 16.6871 22.6709 16.7755 22.562 16.7755C19.3662 16.7755 16.7755 19.3662 16.7755 22.562C16.7755 22.6709 16.6871 22.7593 16.5782 22.7593ZM1 22.1086C1 10.4507 10.4507 1 22.1086 1C23.3516 1 24.3593 2.00764 24.3593 3.25062V16.5782C24.3593 17.5708 23.5546 18.3755 22.562 18.3755C20.2498 18.3755 18.3755 20.2498 18.3755 22.562C18.3755 23.5546 17.5708 24.3593 16.5782 24.3593H3.25062C2.00764 24.3593 1 23.3516 1 22.1086Z" />
</svg>
