<svg width="26" height="26" viewBox="0 0 26 26" fill="none" xmlns="http://www.w3.org/2000/svg">
<path fill-rule="evenodd" clip-rule="evenodd" d="M15.6333 4.14998C9.29127 4.14998 4.15001 9.29124 4.15001 15.6333C4.15001 15.753 4.24701 15.85 4.36667 15.85H5.86952C6.19247 10.4858 10.4859 6.19244 15.85 5.86949V4.36664C15.85 4.24698 15.753 4.14998 15.6333 4.14998ZM9.37915 15.85H7.17225C7.49127 11.2041 11.2041 7.49124 15.85 7.17222V9.37912C12.4199 9.68823 9.68826 12.4198 9.37915 15.85ZM10.6857 15.85H13.3542C13.4292 14.5059 14.5059 13.4292 15.85 13.3541V10.6857C13.1385 10.9854 10.9855 13.1384 10.6857 15.85ZM2.85001 15.6333C2.85001 8.57327 8.5733 2.84998 15.6333 2.84998C16.471 2.84998 17.15 3.52901 17.15 4.36664V13.5C17.15 14.1351 16.6351 14.65 16 14.65C15.2544 14.65 14.65 15.2544 14.65 16C14.65 16.6351 14.1351 17.15 13.5 17.15H4.36667C3.52904 17.15 2.85001 16.4709 2.85001 15.6333Z" />
</svg>
