<svg width="26" height="26" viewBox="0 0 26 26" fill="none" xmlns="http://www.w3.org/2000/svg">
<path d="M21.7751 13C21.7751 17.8463 17.8464 21.775 13.0001 21.775C8.1538 21.775 4.2251 17.8463 4.2251 13C4.2251 8.15371 8.1538 4.22501 13.0001 4.22501C17.8464 4.22501 21.7751 8.15371 21.7751 13Z" fill="#2A4AF5"/>
<path fill-rule="evenodd" clip-rule="evenodd" d="M13.0001 5.20001C8.69228 5.20001 5.2001 8.69219 5.2001 13C5.2001 17.3078 8.69228 20.8 13.0001 20.8C17.3079 20.8 20.8001 17.3078 20.8001 13C20.8001 8.69219 17.3079 5.20001 13.0001 5.20001ZM3.2501 13C3.2501 7.61524 7.61532 3.25001 13.0001 3.25001C18.3849 3.25001 22.7501 7.61524 22.7501 13C22.7501 18.3848 18.3849 22.75 13.0001 22.75C7.61532 22.75 3.2501 18.3848 3.2501 13Z" fill="#2A4AF5"/>
<path fill-rule="evenodd" clip-rule="evenodd" d="M6.42551 19.0653C7.788 16.7945 10.242 15.405 12.8902 15.405H13.11C15.7582 15.405 18.2122 16.7945 19.5747 19.0653L18.1255 19.9348C17.0684 18.173 15.1645 17.095 13.11 17.095H12.8902C10.8357 17.095 8.93174 18.173 7.87468 19.9348L6.42551 19.0653Z" fill="white"/>
<path fill-rule="evenodd" clip-rule="evenodd" d="M13.0001 8.64502C12.0308 8.64502 11.2451 9.43076 11.2451 10.4C11.2451 11.3693 12.0308 12.155 13.0001 12.155C13.9693 12.155 14.7551 11.3693 14.7551 10.4C14.7551 9.43076 13.9693 8.64502 13.0001 8.64502ZM9.55507 10.4C9.55507 8.4974 11.0974 6.95502 13.0001 6.95502C14.9027 6.95502 16.4451 8.4974 16.4451 10.4C16.4451 12.3026 14.9027 13.845 13.0001 13.845C11.0974 13.845 9.55507 12.3026 9.55507 10.4Z" fill="white"/>
<path fill-rule="evenodd" clip-rule="evenodd" d="M13.0001 5.20001C8.69228 5.20001 5.2001 8.69219 5.2001 13C5.2001 17.3078 8.69228 20.8 13.0001 20.8C17.3079 20.8 20.8001 17.3078 20.8001 13C20.8001 8.69219 17.3079 5.20001 13.0001 5.20001ZM3.2501 13C3.2501 7.61524 7.61532 3.25001 13.0001 3.25001C18.3849 3.25001 22.7501 7.61524 22.7501 13C22.7501 18.3848 18.3849 22.75 13.0001 22.75C7.61532 22.75 3.2501 18.3848 3.2501 13Z" fill="#2A4AF5"/>
<path fill-rule="evenodd" clip-rule="evenodd" d="M13.0001 20.475C17.1284 20.475 20.4751 17.1283 20.4751 13C20.4751 8.87168 17.1284 5.52501 13.0001 5.52501C8.87177 5.52501 5.5251 8.87168 5.5251 13C5.5251 17.1283 8.87177 20.475 13.0001 20.475ZM13.0001 21.775C17.8464 21.775 21.7751 17.8463 21.7751 13C21.7751 8.15371 17.8464 4.22501 13.0001 4.22501C8.1538 4.22501 4.2251 8.15371 4.2251 13C4.2251 17.8463 8.1538 21.775 13.0001 21.775Z" fill="#2A4AF5"/>
</svg>
