<svg width="26" height="26" viewBox="0 0 26 26" fill="none" xmlns="http://www.w3.org/2000/svg">
<path fill-rule="evenodd" clip-rule="evenodd" d="M4.26887 7.02136C4.09769 7.88411 4.02988 8.98539 4.02988 10.3999C4.02988 11.8144 4.09769 12.9156 4.26887 13.7784C4.4391 14.6363 4.70162 15.2057 5.05307 15.6033C5.55739 16.1739 6.3714 16.53 7.81394 16.683C7.8292 17.2215 7.85875 17.7491 7.91099 18.2605C6.13837 18.1062 4.79235 17.6639 3.88419 16.6364C3.28772 15.9616 2.94086 15.1009 2.7387 14.082C2.53748 13.0679 2.46988 11.8454 2.46988 10.3999C2.46988 8.95435 2.53748 7.73188 2.7387 6.71776C2.94086 5.69885 3.28772 4.83818 3.88419 4.16332C5.08392 2.80591 7.04781 2.46987 9.74988 2.46987C12.4519 2.46987 14.4158 2.80591 15.6156 4.16332C16.1697 4.79026 16.5084 5.57757 16.7158 6.50313C16.5627 6.5009 16.4074 6.49984 16.25 6.49984C15.8572 6.49984 15.478 6.50643 15.1124 6.52133C14.9473 5.93347 14.7249 5.51116 14.4467 5.19642C13.7506 4.40883 12.4645 4.02987 9.74988 4.02987C7.03528 4.02987 5.74917 4.40883 5.05307 5.19642C4.70162 5.59406 4.4391 6.1634 4.26887 7.02136ZM10.53 15.5998C10.53 14.1854 10.5978 13.0841 10.769 12.2213C10.9392 11.3634 11.2017 10.794 11.5532 10.3964C12.2493 9.6088 13.5354 9.22984 16.25 9.22984C18.9646 9.22984 20.2507 9.6088 20.9468 10.3964C21.2983 10.794 21.5608 11.3634 21.731 12.2213C21.9022 13.0841 21.97 14.1854 21.97 15.5998C21.97 17.0143 21.9022 18.1156 21.731 18.9784C21.5608 19.8363 21.2983 20.4056 20.9468 20.8033C20.2507 21.5909 18.9646 21.9698 16.25 21.9698C13.5354 21.9698 12.2493 21.5909 11.5532 20.8033C11.2017 20.4056 10.9392 19.8363 10.769 18.9784C10.5978 18.1156 10.53 17.0143 10.53 15.5998ZM16.25 7.66984C13.5479 7.66984 11.584 8.00588 10.3843 9.36329C9.78784 10.0381 9.44099 10.8988 9.23882 11.9177C9.03761 12.9319 8.97 14.1543 8.97 15.5998C8.97 17.0454 9.03761 18.2678 9.23882 19.282C9.44099 20.3009 9.78784 21.1615 10.3843 21.8364C11.584 23.1938 13.5479 23.5298 16.25 23.5298C18.9521 23.5298 20.916 23.1938 22.1157 21.8364C22.7122 21.1615 23.059 20.3009 23.2612 19.282C23.4624 18.2678 23.53 17.0454 23.53 15.5998C23.53 14.1543 23.4624 12.9319 23.2612 11.9177C23.059 10.8988 22.7122 10.0381 22.1157 9.36329C20.916 8.00588 18.9521 7.66984 16.25 7.66984Z" />
</svg>
