<svg width="26" height="26" viewBox="0 0 26 26" fill="none" xmlns="http://www.w3.org/2000/svg">
<path fill-rule="evenodd" clip-rule="evenodd" d="M9.75 5.84997C9.75 4.05505 11.2051 2.59998 13 2.59998C14.7949 2.59998 16.25 4.05505 16.25 5.84997V6.66129C17.5182 6.78586 18.6413 6.9673 19.564 7.14998H20.15V7.27156C20.7386 7.39942 21.2219 7.52197 21.5804 7.61975C21.8103 7.68244 21.989 7.73499 22.1115 7.77228C22.1728 7.79092 22.22 7.80576 22.2526 7.81615L22.2903 7.82831L22.3008 7.83175L22.3039 7.83277L22.3049 7.83311L22.3053 7.83324C22.3054 7.83329 22.3055 7.83333 22.1 8.44998C21.8945 9.06662 21.8946 9.06665 21.8946 9.06669L21.8935 9.06632L21.887 9.06418L21.8573 9.0546C21.8302 9.04595 21.7885 9.03286 21.733 9.01595C21.6219 8.98215 21.4554 8.93313 21.2383 8.87395C20.9566 8.79712 20.5902 8.70322 20.15 8.60324V16.65V16.6782C20.15 17.4943 20.15 18.1465 20.107 18.6733C20.0628 19.2138 19.9701 19.6793 19.7522 20.107C19.4022 20.7938 18.8439 21.3522 18.1571 21.7022C17.7293 21.9201 17.2638 22.0128 16.7233 22.0569C16.1965 22.1 15.5444 22.1 14.7282 22.1H14.7H11.3H11.2718C10.4556 22.1 9.80348 22.1 9.27667 22.0569C8.73622 22.0128 8.27071 21.9201 7.84293 21.7022C7.15614 21.3522 6.59776 20.7938 6.24783 20.107C6.02987 19.6793 5.93719 19.2138 5.89303 18.6733C5.84999 18.1465 5.84999 17.4944 5.85 16.6782V16.65V8.60324C5.40982 8.70322 5.04336 8.79712 4.76165 8.87395C4.54463 8.93313 4.37806 8.98215 4.26699 9.01595C4.21146 9.03286 4.16982 9.04595 4.14269 9.0546L4.11299 9.06418L4.10645 9.06632L4.10535 9.06669C4.10544 9.06665 4.10555 9.06662 3.9 8.44998C3.69445 7.83333 3.69459 7.83329 3.69474 7.83324L3.69511 7.83311L3.69613 7.83277L3.69924 7.83175L3.7097 7.82831L3.74744 7.81615C3.77999 7.80576 3.82721 7.79092 3.88848 7.77228C4.011 7.73499 4.18974 7.68244 4.4196 7.61975C4.77813 7.52197 5.2614 7.39942 5.85 7.27156V7.14998H6.43596C7.35871 6.9673 8.48178 6.78586 9.75 6.66129V5.84997ZM7.15 8.33736V16.65C7.15 17.5008 7.1505 18.0998 7.18871 18.5674C7.2263 19.0275 7.29711 19.3029 7.40613 19.5169C7.63144 19.959 7.99094 20.3185 8.43312 20.5438C8.64709 20.6529 8.92248 20.7237 9.38254 20.7613C9.85018 20.7995 10.4492 20.8 11.3 20.8H14.7C15.5508 20.8 16.1498 20.7995 16.6175 20.7613C17.0775 20.7237 17.3529 20.6529 17.5669 20.5438C18.0091 20.3185 18.3686 19.959 18.5939 19.5169C18.7029 19.3029 18.7737 19.0275 18.8113 18.5674C18.8495 18.0998 18.85 17.5008 18.85 16.65V8.33736C17.3068 8.05521 15.2801 7.79998 13 7.79998C10.7199 7.79998 8.69316 8.05521 7.15 8.33736ZM13 6.49998H14.95V5.84997C14.95 4.77302 14.077 3.89998 13 3.89998C11.923 3.89998 11.05 4.77302 11.05 5.84997V6.49998H13ZM10.4 11.7V16.9H11.7V11.7H10.4ZM14.3 16.9V11.7H15.6V16.9H14.3Z" />
</svg>
