<svg width="24" height="24" viewBox="0 0 24 24" xmlns="http://www.w3.org/2000/svg">
<path fill-rule="evenodd" clip-rule="evenodd" d="M8.95 5.4C8.95 3.71553 10.3155 2.35 12 2.35C13.6845 2.35 15.05 3.71553 15.05 5.4V6.10361C16.231 6.22131 17.2743 6.39199 18.1275 6.56262C18.1898 6.57509 18.2511 6.58755 18.3114 6.6H18.65V6.67196C19.1765 6.78707 19.6098 6.89713 19.9335 6.9854C20.1462 7.0434 20.3117 7.09204 20.4252 7.1266C20.482 7.14388 20.5258 7.15764 20.556 7.16729L20.5912 7.17862L20.601 7.18184L20.6039 7.18281L20.6049 7.18314L20.6053 7.18326C20.6054 7.18331 20.6055 7.18335 20.4 7.8C20.1945 8.41664 20.1946 8.41668 20.1947 8.41671L20.1938 8.41642L20.1879 8.41449L20.1608 8.40575C20.1359 8.39783 20.0977 8.38581 20.0467 8.37027C19.9446 8.3392 19.7913 8.29409 19.5915 8.2396C19.3452 8.17243 19.0285 8.09107 18.65 8.00418V15V15.0282V15.0282V15.0283V15.0283V15.0283C18.65 15.8444 18.65 16.4965 18.607 17.0233C18.5628 17.5638 18.4701 18.0293 18.2522 18.4571C17.9022 19.1439 17.3439 19.7022 16.6571 20.0522C16.2293 20.2701 15.7638 20.3628 15.2233 20.407C14.6965 20.45 14.0444 20.45 13.2282 20.45H13.2H10.8H10.7718C9.95563 20.45 9.30348 20.45 8.77667 20.407C8.23622 20.3628 7.77071 20.2701 7.34293 20.0522C6.65614 19.7022 6.09776 19.1439 5.74783 18.4571C5.52987 18.0293 5.43719 17.5638 5.39303 17.0233C5.34999 16.4965 5.34999 15.8444 5.35 15.0282V15V8.00418C4.97153 8.09107 4.6548 8.17243 4.40853 8.2396C4.2087 8.29409 4.0554 8.3392 3.95332 8.37027C3.90228 8.38581 3.86405 8.39783 3.83923 8.40575L3.81211 8.41449L3.80623 8.41642L3.80535 8.41671C3.80544 8.41668 3.80555 8.41664 3.6 7.8C3.39445 7.18335 3.39459 7.18331 3.39473 7.18326L3.3951 7.18314L3.39608 7.18281L3.39902 7.18184L3.40883 7.17862L3.44397 7.16729C3.47423 7.15764 3.51803 7.14388 3.57481 7.1266C3.68835 7.09204 3.8538 7.0434 4.06647 6.9854C4.39016 6.89712 4.82354 6.78707 5.35 6.67196V6.6H5.6886C5.74889 6.58755 5.8102 6.57509 5.87252 6.56262C6.72567 6.39199 7.76901 6.22131 8.95 6.10361V5.4ZM6.65 7.73776V15C6.65 15.8508 6.65051 16.4498 6.68871 16.9175C6.7263 17.3775 6.79711 17.6529 6.90613 17.8669C7.13144 18.3091 7.49094 18.6686 7.93312 18.8939C8.14709 19.0029 8.42248 19.0737 8.88254 19.1113C9.35018 19.1495 9.9492 19.15 10.8 19.15H13.2C14.0508 19.15 14.6498 19.1495 15.1175 19.1113C15.5775 19.0737 15.8529 19.0029 16.0669 18.8939C16.5091 18.6686 16.8686 18.3091 17.0939 17.8669C17.2029 17.6529 17.2737 17.3775 17.3113 16.9175C17.3495 16.4498 17.35 15.8508 17.35 15V7.73776C15.933 7.48073 14.0809 7.25 12 7.25C9.91907 7.25 8.06695 7.48073 6.65 7.73776ZM12 5.95L13.75 5.95V5.4C13.75 4.4335 12.9665 3.65 12 3.65C11.0335 3.65 10.25 4.4335 10.25 5.4V5.95L12 5.95ZM9.55 10.8V15.6H10.85V10.8H9.55ZM13.15 15.6V10.8H14.45V15.6H13.15Z" />
</svg>
