<svg width="24" height="24" viewBox="0 0 24 24" fill="none" xmlns="http://www.w3.org/2000/svg">
<path fill-rule="evenodd" clip-rule="evenodd" d="M18.8237 5.17642L18.8079 5.16061C18.4919 4.84457 18.2316 4.58429 18.0041 4.38586C17.7684 4.18029 17.5331 4.00926 17.2569 3.89486C16.6076 3.62591 15.878 3.62591 15.2287 3.89486C14.9525 4.00926 14.7171 4.18029 14.4814 4.38586C14.254 4.58429 13.9937 4.84457 13.6776 5.16061L13.6618 5.17642L6.42005 12.4182L6.37869 12.4595C6.11514 12.7229 5.91759 12.9203 5.76567 13.1537C5.63155 13.3598 5.52676 13.5835 5.45431 13.8185C5.37225 14.0846 5.34708 14.3627 5.3135 14.7338L5.30822 14.792L4.98885 18.3051C4.97138 18.4972 5.04015 18.6872 5.17656 18.8236C5.31296 18.96 5.50291 19.0288 5.69503 19.0113L9.20813 18.6919L9.26637 18.6866L9.2664 18.6866C9.63744 18.6531 9.91556 18.6279 10.1817 18.5458C10.4166 18.4734 10.6404 18.3686 10.8464 18.2345C11.0799 18.0826 11.2772 17.885 11.5406 17.6214L11.5819 17.5801L18.8237 10.3383L18.8395 10.3225C19.1556 10.0065 19.4159 9.74618 19.6143 9.51869C19.8198 9.28302 19.9909 9.04764 20.1053 8.77147C20.3742 8.12215 20.3742 7.39257 20.1053 6.74325C19.9909 6.46708 19.8198 6.2317 19.6143 5.99602C19.4159 5.76854 19.1556 5.50827 18.8395 5.19223L18.8395 5.19222L18.8237 5.17642ZM16.7594 5.09591C16.8508 5.13375 16.9639 5.20358 17.1496 5.36554C17.3397 5.53135 17.5687 5.7599 17.9045 6.09566C18.2402 6.43142 18.4688 6.66047 18.6346 6.85056C18.7966 7.03624 18.8664 7.14937 18.9042 7.24074C19.0412 7.57152 19.0412 7.94319 18.9042 8.27398C18.8664 8.36535 18.7966 8.47848 18.6346 8.66416C18.4688 8.85425 18.2402 9.0833 17.9045 9.41906L16.2427 11.0808L12.9193 7.75743L14.5811 6.09566C14.9168 5.7599 15.1459 5.53135 15.336 5.36554C15.5217 5.20358 15.6348 5.13375 15.7262 5.09591C16.0569 4.95889 16.4286 4.95889 16.7594 5.09591ZM12.0001 8.67666L7.33929 13.3375C7.01685 13.6599 6.92366 13.7577 6.85522 13.8628C6.78689 13.9678 6.73351 14.0818 6.6966 14.2015C6.65963 14.3214 6.64417 14.4556 6.60288 14.9097L6.35413 17.646L9.09043 17.3973C9.54456 17.356 9.67875 17.3405 9.79865 17.3035C9.91835 17.2666 10.0323 17.2132 10.1373 17.1449C10.2425 17.0765 10.3403 16.9833 10.6627 16.6609L15.3235 12.0001L12.0001 8.67666Z"/>
</svg>
