<svg width="26" height="26" viewBox="0 0 26 26" fill="none" xmlns="http://www.w3.org/2000/svg">
<path fill-rule="evenodd" clip-rule="evenodd" d="M20.5218 2.63432L20.5028 2.61515L20.5028 2.61514C20.1253 2.23306 19.8144 1.91844 19.5406 1.68323C19.2565 1.43914 18.9701 1.24239 18.6297 1.13047C18.1006 0.956511 17.5307 0.956511 17.0016 1.13047C16.6612 1.24239 16.3748 1.43914 16.0907 1.68323C15.8169 1.91845 15.506 2.23307 15.1284 2.61516L15.1095 2.63432L2.65038 15.2423L2.60927 15.2839C2.34728 15.5488 2.15091 15.7474 1.99989 15.9822C1.86657 16.1895 1.7624 16.4145 1.69039 16.6509C1.60882 16.9186 1.5838 17.1983 1.55042 17.5716L1.54517 17.6302L1.00266 23.6691C0.985296 23.8624 1.05366 24.0535 1.18925 24.1907C1.32484 24.3279 1.51366 24.3971 1.70463 24.3795L7.67228 23.8305L7.73019 23.8252C8.09903 23.7914 8.37549 23.7661 8.64004 23.6836C8.8736 23.6107 9.096 23.5053 9.30084 23.3704C9.53286 23.2175 9.72908 23.0188 9.99085 22.7537L10.0319 22.7121L22.4911 10.1041L22.51 10.0849C22.8876 9.70286 23.1985 9.38824 23.4309 9.11117C23.6721 8.82364 23.8666 8.53382 23.9772 8.18935C24.1491 7.65397 24.1491 7.07725 23.9772 6.54186C23.8666 6.1974 23.6721 5.90757 23.4309 5.62005C23.1985 5.34297 22.8876 5.02836 22.51 4.64629L22.4911 4.62713L20.5218 2.63432ZM18.2303 2.37416C18.3439 2.4115 18.4813 2.48856 18.7043 2.68014C18.9331 2.87668 19.2068 3.15301 19.608 3.559L21.5773 5.55181C21.9785 5.9578 22.2516 6.23485 22.4458 6.46636C22.6351 6.69203 22.7113 6.83107 22.7481 6.94597C22.8357 7.21871 22.8357 7.51251 22.7481 7.78525C22.7113 7.90015 22.6351 8.03919 22.4458 8.26486C22.2516 8.49637 21.9785 8.77342 21.5773 9.17941L17.8155 12.9861L12.2615 7.36572L16.0233 3.559C16.4245 3.15301 16.6982 2.87668 16.927 2.68014C17.15 2.48856 17.2874 2.4115 17.401 2.37416C17.6705 2.28554 17.9608 2.28554 18.2303 2.37416ZM11.3477 8.2904L3.56414 16.167C3.24362 16.4914 3.15099 16.5897 3.08295 16.6955C3.01503 16.8011 2.96197 16.9158 2.92528 17.0362C2.88853 17.1568 2.87316 17.2918 2.83212 17.7486L2.3598 23.0061L7.55529 22.5282C8.00671 22.4867 8.1401 22.4711 8.25929 22.4339C8.37827 22.3968 8.49157 22.3431 8.59592 22.2744C8.70045 22.2055 8.79766 22.1118 9.11818 21.7874L16.9018 13.9108L11.3477 8.2904Z" />
<path fill-rule="evenodd" clip-rule="evenodd" d="M18.5984 1.22549C18.0896 1.0582 17.5416 1.0582 17.0329 1.22549C16.7101 1.3316 16.4353 1.51906 16.1558 1.75911C15.8858 1.99107 15.5782 2.30233 15.1996 2.68547L2.7215 15.3126L2.68037 15.3542C2.41655 15.621 2.22827 15.812 2.08399 16.0363C1.95566 16.2358 1.85538 16.4525 1.78604 16.68C1.70808 16.9359 1.68363 17.2047 1.65001 17.5805L1.64477 17.6391L1.10225 23.6781C1.0875 23.8423 1.14561 24.0043 1.26037 24.1204C1.37508 24.2365 1.53449 24.2948 1.69546 24.2799L7.66312 23.731L7.72106 23.7256C8.09255 23.6916 8.35776 23.6669 8.61025 23.5881C8.83486 23.518 9.04877 23.4166 9.24583 23.2869C9.46739 23.1409 9.65604 22.9505 9.91969 22.6835L9.96079 22.6418L22.4389 10.0147C22.8175 9.63154 23.1251 9.32018 23.3543 9.04693C23.5915 8.76419 23.7769 8.48585 23.8819 8.15881C24.0475 7.6433 24.0475 7.08797 23.8819 6.57246C23.7769 6.24541 23.5915 5.96708 23.3543 5.68434C23.1251 5.41109 22.8175 5.09972 22.4389 4.7166L22.4199 4.69744L20.4317 2.68547L20.43 2.68374C20.0522 2.30139 19.745 1.99072 19.4754 1.75911C19.196 1.51906 18.9212 1.3316 18.5984 1.22549ZM16.9704 1.0355C17.5197 0.854867 18.1115 0.854867 18.6609 1.0355C19.019 1.15323 19.3169 1.35927 19.6057 1.6074C19.8826 1.84525 20.1958 2.16221 20.571 2.54191L20.574 2.54487L20.5757 2.54664L20.5929 2.56405L22.5811 4.57602L22.5839 4.57882C22.9592 4.9586 23.2725 5.2756 23.5075 5.5558C23.7528 5.84812 23.9562 6.14944 24.0724 6.51132C24.2506 7.06658 24.2506 7.66468 24.0724 8.21995C23.9562 8.58183 23.7528 8.88315 23.5075 9.17547C23.2725 9.45567 22.9592 9.77267 22.5839 10.1524L10.1031 22.7824L10.0566 22.8294C9.79929 23.0901 9.59666 23.2953 9.35583 23.4539C9.14321 23.5939 8.91232 23.7034 8.66982 23.779C8.39512 23.8647 8.10946 23.8909 7.74688 23.9241L7.68144 23.9301L1.71378 24.4791C1.49281 24.4994 1.2746 24.4193 1.11811 24.261C0.961694 24.1027 0.883075 23.8826 0.903052 23.6602L1.44556 17.6213L1.45081 17.5627L1.45148 17.5552C1.48431 17.1881 1.51013 16.8994 1.59473 16.6217C1.66942 16.3766 1.77746 16.1431 1.91578 15.9281C2.07246 15.6845 2.27523 15.4795 2.53286 15.219L2.53815 15.2136L2.57924 15.1721L15.0601 2.54207C15.4354 2.1623 15.7486 1.84529 16.0255 1.6074C16.3144 1.35927 16.6123 1.15323 16.9704 1.0355ZM17.3697 2.27919C17.6595 2.1839 17.9717 2.1839 18.2616 2.27919C18.3928 2.32234 18.5418 2.40873 18.7694 2.60431C19.002 2.80414 19.2791 3.08395 19.6791 3.48873L21.6484 5.48154C22.0484 5.88633 22.3249 6.16674 22.5224 6.40211C22.7157 6.63252 22.8009 6.78307 22.8434 6.91542C22.9373 7.20804 22.9373 7.52322 22.8434 7.81585C22.8009 7.9482 22.7157 8.09874 22.5224 8.32915C22.3249 8.56452 22.0484 8.84493 21.6484 9.24972L17.8867 13.0564C17.8679 13.0755 17.8423 13.0862 17.8155 13.0862C17.7888 13.0862 17.7632 13.0755 17.7444 13.0564L12.1904 7.43603C12.1519 7.39708 12.1519 7.33441 12.1904 7.29545L15.9521 3.48874C16.3521 3.08395 16.6292 2.80414 16.8618 2.60431C17.0895 2.40873 17.2385 2.32234 17.3697 2.27919ZM18.1991 2.46918C17.9499 2.38724 17.6814 2.38724 17.4322 2.46918C17.3364 2.50069 17.2105 2.56843 16.9922 2.75602C16.7672 2.94927 16.4968 3.22211 16.0944 3.62931L12.4021 7.36574L17.8155 12.8439L21.5062 9.10914C21.9085 8.70195 22.1782 8.42826 22.3692 8.20061C22.5545 7.97968 22.6216 7.85214 22.6529 7.7547C22.7341 7.50184 22.7341 7.22942 22.6529 6.97656C22.6216 6.87912 22.5545 6.75159 22.3692 6.53065C22.1782 6.303 21.9085 6.02931 21.5062 5.62212L19.5369 3.62931C19.1345 3.22211 18.864 2.94927 18.6391 2.75602C18.4207 2.56843 18.2949 2.50069 18.1991 2.46918ZM11.3477 8.19043C11.3744 8.19043 11.4001 8.20113 11.4189 8.22014L16.9729 13.8405C17.0114 13.8795 17.0114 13.9422 16.9729 13.9811L9.1893 21.8577C8.87209 22.1787 8.76634 22.2819 8.65092 22.3579C8.53878 22.4317 8.417 22.4895 8.28907 22.5294C8.15733 22.5705 8.01116 22.5867 7.56444 22.6278L2.36896 23.1057C2.33941 23.1085 2.31017 23.0979 2.28916 23.077C2.26815 23.056 2.25754 23.0268 2.2602 22.9972L2.73252 17.7396C2.77314 17.2874 2.78912 17.1399 2.82962 17.007C2.86898 16.8778 2.92593 16.7548 2.99884 16.6414C3.07389 16.5247 3.17575 16.4178 3.493 16.0967L11.2766 8.22014C11.2954 8.20113 11.321 8.19043 11.3477 8.19043ZM11.3477 8.4327L3.63526 16.2373C3.31148 16.565 3.22807 16.6547 3.16705 16.7496C3.10413 16.8475 3.05494 16.9537 3.02093 17.0653C2.98793 17.1736 2.97316 17.2961 2.93171 17.7575L2.47013 22.8956L7.54612 22.4286C8.00224 22.3867 8.12286 22.3717 8.2295 22.3385C8.33953 22.3041 8.44434 22.2545 8.54091 22.1909C8.63455 22.1292 8.72322 22.0448 9.04704 21.7171L16.7612 13.9108L11.3477 8.4327Z" />
</svg>
