<svg width="26" height="26" viewBox="0 0 26 26" fill="none" xmlns="http://www.w3.org/2000/svg">
<path fill-rule="evenodd" clip-rule="evenodd" d="M15.763 4.23702L15.7151 4.18906L15.7151 4.18905C15.4334 3.90712 15.2261 3.69973 15.0079 3.55391C14.1167 2.95843 12.9546 2.95843 12.0634 3.55391C11.8451 3.69973 11.6379 3.90712 11.3562 4.18906L11.3083 4.23702L5.40997 10.1353L5.36861 10.1766L5.36861 10.1766C5.10505 10.44 4.90751 10.6374 4.75559 10.8708C4.62146 11.0769 4.51668 11.3006 4.44423 11.5355C4.36217 11.8017 4.337 12.0798 4.30342 12.4509L4.29814 12.5091L4.04948 15.2444C4.03201 15.4365 4.10078 15.6265 4.23719 15.7629C4.3736 15.8993 4.56354 15.968 4.75566 15.9506L7.49094 15.7019L7.54917 15.6966H7.54918C7.92024 15.663 8.19836 15.6379 8.4645 15.5558C8.69946 15.4834 8.92319 15.3786 9.12925 15.2445C9.36267 15.0925 9.56006 14.895 9.82341 14.6314L9.86474 14.5901L15.763 8.69179L15.811 8.64386L15.811 8.64384C16.0929 8.36213 16.3003 8.1549 16.4461 7.93667C17.0416 7.04548 17.0416 5.88334 16.4461 4.99215C16.3003 4.77391 16.0929 4.56667 15.811 4.28495L15.763 4.23702ZM14.2857 4.63482C14.3828 4.69972 14.4932 4.80567 14.8438 5.15626C15.1944 5.50685 15.3003 5.61725 15.3652 5.71439C15.6686 6.16839 15.6686 6.76042 15.3652 7.21443C15.3003 7.31156 15.1944 7.42196 14.8438 7.77255L13.5356 9.08076L10.9193 6.46446L12.2275 5.15626C12.5781 4.80567 12.6885 4.69972 12.7856 4.63482C13.2396 4.33146 13.8317 4.33146 14.2857 4.63482ZM10.0001 7.3837L6.32921 11.0545C6.00677 11.377 5.91358 11.4748 5.84514 11.5799C5.77681 11.6849 5.72343 11.7989 5.68652 11.9186C5.64955 12.0385 5.63409 12.1727 5.5928 12.6268L5.41476 14.5853L7.37325 14.4072C7.82737 14.366 7.96156 14.3505 8.08147 14.3135C8.20116 14.2766 8.31514 14.2232 8.42011 14.1549C8.52527 14.0865 8.62306 13.9933 8.9455 13.6708L12.6164 10L10.0001 7.3837Z" />
</svg>
