<svg width="26" height="26" viewBox="0 0 26 26" fill="none" xmlns="http://www.w3.org/2000/svg">
<path d="M1.29999 13C1.29999 9.3657 1.29999 7.54853 1.89373 6.11512C2.68538 4.2039 4.20384 2.68544 6.11506 1.89379C7.54847 1.30005 9.36564 1.30005 13 1.30005V1.30005C16.6343 1.30005 18.4515 1.30005 19.8849 1.89379C21.7961 2.68544 23.3146 4.2039 24.1062 6.11512C24.7 7.54853 24.7 9.3657 24.7 13V13C24.7 16.6344 24.7 18.4516 24.1062 19.885C23.3146 21.7962 21.7961 23.3147 19.8849 24.1063C18.4515 24.7 16.6343 24.7 13 24.7V24.7C9.36564 24.7 7.54847 24.7 6.11506 24.1063C4.20384 23.3147 2.68538 21.7962 1.89373 19.885C1.29999 18.4516 1.29999 16.6344 1.29999 13V13Z" fill="#2A4AF5"/>
<path d="M9.13959 15.5687V14.2992L13.6337 7.19995H14.6341V9.0687H13.9994L10.7849 14.157V14.2382H16.9447V15.5687H9.13959ZM14.0704 17.6V15.1828L14.0806 14.6039V7.19995H15.5685V17.6H14.0704Z" fill="white"/>
</svg>
