<svg width="26" height="26" viewBox="0 0 26 26" fill="none" xmlns="http://www.w3.org/2000/svg">
<rect x="4.55" y="4.55005" width="16.9" height="16.9" rx="4" stroke="#09101C" stroke-width="1.3"/>
<path d="M10.6797 12.1005L10.6907 12.1356H10.7274H11.677H11.7353L11.7264 12.0779C11.6869 11.823 11.6036 11.5894 11.4761 11.3777C11.349 11.1664 11.1866 10.9839 10.9893 10.8302C10.7936 10.6765 10.5698 10.5586 10.3185 10.4761C10.0668 10.3919 9.79597 10.35 9.50643 10.35C9.16383 10.35 8.84579 10.4104 8.55286 10.5317C8.2599 10.6514 8.00446 10.8268 7.78691 11.0577C7.56909 11.2872 7.39992 11.5658 7.27892 11.8927L7.27884 11.893C7.15926 12.2207 7.09996 12.5916 7.09996 13.005C7.09996 13.545 7.20078 14.0145 7.40442 14.4118L7.40454 14.412C7.60959 14.8071 7.89481 15.1133 8.26004 15.3292L8.26028 15.3293C8.62737 15.5436 9.05251 15.65 9.53406 15.65C9.96624 15.65 10.3512 15.5638 10.6875 15.3899L10.6877 15.3898C11.0241 15.2142 11.289 14.9638 11.4813 14.6394C11.6742 14.3141 11.7697 13.9301 11.7697 13.4894V12.8814V12.8314H11.7197H9.63204H9.58204V12.8814V13.5981V13.6481H9.63204H10.7658C10.7554 13.8518 10.7059 14.03 10.6186 14.1838C10.5198 14.3563 10.3789 14.4897 10.1946 14.5842L10.1944 14.5843C10.0119 14.6788 9.79406 14.727 9.53909 14.727C9.25931 14.727 9.01589 14.6607 8.80709 14.5296C8.59857 14.397 8.43458 14.2031 8.31582 13.9454C8.19737 13.6884 8.13702 13.3722 8.13702 12.9951C8.13702 12.6213 8.19733 12.3077 8.31573 12.0523C8.43623 11.7944 8.60029 11.6013 8.80714 11.4704C9.01454 11.3391 9.25131 11.273 9.51899 11.273C9.66879 11.273 9.8062 11.2922 9.93158 11.3302L9.93158 11.3302L9.93214 11.3304C10.0574 11.3667 10.1674 11.421 10.2626 11.4928L10.263 11.493C10.3605 11.5654 10.4436 11.6527 10.5125 11.7551L10.5125 11.7551L10.513 11.7559C10.5836 11.8568 10.6392 11.9715 10.6797 12.1005ZM13.9846 10.4692V10.4192H13.9346H13.0026H12.9526V10.4692V15.5308V15.5808H13.0026H13.9346H13.9846V15.5308V10.4692ZM15.504 15.5308V15.5808H15.554H16.486H16.536V15.5308V13.4306H18.6239H18.6739V13.3806V12.612V12.562H18.6239H16.536V11.2879H18.85H18.9V11.2379V10.4692V10.4192H18.85H15.554H15.504V10.4692V15.5308Z"  stroke="#09101C" stroke-width="0.1"/>
</svg>
