<svg width="26" height="26" viewBox="0 0 26 26" fill="none" xmlns="http://www.w3.org/2000/svg">
<path fill-rule="evenodd" clip-rule="evenodd" d="M19.5 3.79163H6.50002C5.00425 3.79163 3.79169 5.00419 3.79169 6.49996V19.5C3.79169 20.9957 5.00425 22.2083 6.50002 22.2083H19.5C20.9958 22.2083 22.2084 20.9957 22.2084 19.5V6.49996C22.2084 5.00419 20.9958 3.79163 19.5 3.79163ZM6.50002 2.16663C4.10679 2.16663 2.16669 4.10673 2.16669 6.49996V19.5C2.16669 21.8932 4.10679 23.8333 6.50002 23.8333H19.5C21.8933 23.8333 23.8334 21.8932 23.8334 19.5V6.49996C23.8334 4.10673 21.8933 2.16663 19.5 2.16663H6.50002Z" />
<path d="M11.6162 14.6106V13.4477C11.6162 12.9949 11.2457 12.6244 10.7929 12.6244H8.90948C8.55956 12.6244 8.28168 12.9022 8.28168 13.2521C8.28168 13.6226 8.55956 13.9005 8.90948 13.9005H10.1548V14.7239C9.87689 14.9811 9.30056 15.2487 8.69335 15.2487C7.44806 15.2487 6.54239 14.2916 6.54239 12.9949C6.54239 11.6981 7.44806 10.741 8.69335 10.741C9.21822 10.741 9.73281 10.9674 10.1239 11.3482C10.2577 11.482 10.4429 11.554 10.6179 11.554C10.9781 11.554 11.3074 11.2556 11.3074 10.8954C11.3074 10.741 11.2457 10.5763 11.1325 10.4528C10.5973 9.87648 9.80485 9.44423 8.69335 9.44423C6.68647 9.44423 5.03981 10.8233 5.03981 12.9949C5.03981 15.1561 6.68647 16.5558 8.69335 16.5558C10.0827 16.5558 11.6162 15.8559 11.6162 14.6106Z" />
<path d="M14.5592 15.7736V10.2264C14.5592 9.83531 14.2299 9.50597 13.8388 9.50597C13.4271 9.50597 13.0978 9.83531 13.0978 10.2264V15.7736C13.0978 16.1647 13.4271 16.494 13.8182 16.494C14.2299 16.494 14.5592 16.1647 14.5592 15.7736Z" />
<path d="M20.9602 10.2161C20.9602 9.8559 20.672 9.56773 20.3324 9.56773H16.8641C16.4113 9.56773 16.0408 9.93823 16.0408 10.3911V15.7736C16.0408 16.1647 16.3701 16.494 16.7612 16.494C17.1729 16.494 17.5022 16.1647 17.5022 15.7736V14.1334C17.5022 13.8343 17.7447 13.5918 18.0439 13.5918H19.7628C20.1024 13.5918 20.3905 13.3036 20.3905 12.9537C20.3905 12.5935 20.1024 12.3053 19.7628 12.3053H18.0439C17.7447 12.3053 17.5022 12.0628 17.5022 11.7636V11.3959C17.5022 11.0967 17.7447 10.8542 18.0439 10.8542H20.3324C20.672 10.8542 20.9602 10.566 20.9602 10.2161Z" />
</svg>
