<svg width="26" height="26" viewBox="0 0 26 26" fill="none" xmlns="http://www.w3.org/2000/svg">
<path fill-rule="evenodd" clip-rule="evenodd" d="M7.93968 8.095C7.93968 6.76675 9.01644 5.69 10.3447 5.69C11.6729 5.69 12.7497 6.76675 12.7497 8.095C12.7497 9.42324 11.6729 10.5 10.3447 10.5C9.01644 10.5 7.93968 9.42324 7.93968 8.095ZM10.3447 4C8.08308 4 6.24968 5.83339 6.24968 8.095C6.24968 10.3566 8.08308 12.19 10.3447 12.19C12.6063 12.19 14.4397 10.3566 14.4397 8.095C14.4397 5.83339 12.6063 4 10.3447 4ZM8.72 13.75C5.56093 13.75 3 16.3109 3 19.47C3 20.8341 4.10586 21.94 5.47 21.94H15.22C16.5841 21.94 17.69 20.8341 17.69 19.47C17.69 16.3109 15.1291 13.75 11.97 13.75H8.72ZM4.69 19.47C4.69 17.2443 6.49429 15.44 8.72 15.44H11.97C14.1957 15.44 16 17.2443 16 19.47C16 19.9008 15.6508 20.25 15.22 20.25H5.47C5.03922 20.25 4.69 19.9008 4.69 19.47Z" />
<path fill-rule="evenodd" clip-rule="evenodd" d="M17.8201 15.44H17.4949V13.75H17.8201C20.9791 13.75 23.5401 16.3109 23.5401 19.47C23.5401 20.8341 22.4342 21.94 21.0701 21.94H18.7949V20.25H21.0701C21.5008 20.25 21.8501 19.9008 21.8501 19.47C21.8501 17.2443 20.0458 15.44 17.8201 15.44Z" />
<path fill-rule="evenodd" clip-rule="evenodd" d="M17.1663 8.09499C17.1663 7.15959 16.364 6.33999 15.2971 6.33999V4.64999C17.2282 4.64999 18.8563 6.15852 18.8563 8.09499C18.8563 10.0315 17.2282 11.54 15.2971 11.54V9.84999C16.364 9.84999 17.1663 9.0304 17.1663 8.09499Z" />
</svg>
