<svg width="26" height="26" viewBox="0 0 26 26" fill="none" xmlns="http://www.w3.org/2000/svg">
<path fill-rule="evenodd" clip-rule="evenodd" d="M7.33886 1.95246e-07L7.30994 7.60367e-08C6.21433 -4.2751e-06 5.35226 -7.67257e-06 4.65874 0.0566557C3.95153 0.114437 3.36253 0.234363 2.8278 0.50682C1.95285 0.952631 1.24149 1.66399 0.79568 2.53894C0.523222 3.07367 0.403296 3.66267 0.345515 4.36987C0.288852 5.0634 0.288855 5.92546 0.28886 7.02107L0.28886 7.04999V10.3302C0.192672 10.3285 0.0963818 10.3276 0 10.3276V11.6276C0.0963908 11.6276 0.192682 11.6285 0.28886 11.6305V18.6606L0.28886 18.6895C0.288855 19.7851 0.288852 20.6472 0.345515 21.3407C0.403296 22.0479 0.523222 22.6369 0.79568 23.1717C1.24149 24.0466 1.95285 24.758 2.8278 25.2038C3.36253 25.4763 3.95153 25.5962 4.65873 25.654C5.35223 25.7106 6.21425 25.7106 7.30979 25.7106H7.30984H7.30989H7.30993H7.33885H14.369C14.3709 25.8068 14.3719 25.9031 14.3719 25.9995H15.6719C15.6719 25.9031 15.671 25.8068 15.6693 25.7106H18.9495H18.9784H18.9784H18.9785H18.9785C20.0741 25.7106 20.9361 25.7106 21.6296 25.654C22.3368 25.5962 22.9258 25.4763 23.4605 25.2038C24.3355 24.758 25.0468 24.0466 25.4927 23.1717C25.7651 22.6369 25.885 22.0479 25.9428 21.3407C25.9995 20.6472 25.9995 19.7852 25.9995 18.6897V18.6896V18.6896V18.6895V18.6606V7.05V7.02108V7.02104V7.02099V7.02094C25.9995 5.92539 25.9995 5.06337 25.9428 4.36988C25.885 3.66267 25.7651 3.07367 25.4927 2.53894C25.0468 1.66399 24.3355 0.952631 23.4605 0.50682C22.9258 0.234363 22.3368 0.114437 21.6296 0.0566557C20.9361 -7.67257e-06 20.074 -4.2751e-06 18.9784 7.60367e-08L18.9495 1.95246e-07H7.33886ZM1.58886 18.6606V11.7156C4.81599 12.0745 7.8444 13.5189 10.1625 15.837C11.4899 17.1644 12.5308 18.7247 13.2454 20.4219C13.2384 20.4283 13.2314 20.4348 13.2244 20.4413L13.2774 20.4984C13.7929 21.7426 14.1336 23.0592 14.2839 24.4106H7.33885C6.20802 24.4106 5.39899 24.4101 4.7646 24.3583C4.13779 24.3071 3.73891 24.209 3.41799 24.0455C2.78765 23.7243 2.27516 23.2118 1.95399 22.5815C1.79047 22.2606 1.69241 21.8617 1.6412 21.2349C1.58937 20.6005 1.58886 19.7914 1.58886 18.6606ZM14.791 20.8192C15.1958 21.975 15.4658 23.1801 15.5912 24.4106H18.9495C20.0803 24.4106 20.8893 24.4101 21.5237 24.3583C22.1505 24.3071 22.5494 24.209 22.8703 24.0455C23.5007 23.7243 24.0132 23.2118 24.3343 22.5815C24.4979 22.2606 24.5959 21.8617 24.6471 21.2349C24.6838 20.786 24.6948 20.2497 24.6981 19.5738L24.0455 20.5358C22.4996 19.4873 20.7336 19.0152 18.9737 19.1659C17.4888 19.293 16.05 19.86 14.791 20.8192ZM24.6987 19.4085C24.6994 19.1758 24.6995 18.9272 24.6995 18.6606V7.05C24.6995 5.91917 24.699 5.11014 24.6471 4.47574C24.5959 3.84893 24.4979 3.45005 24.3343 3.12913C24.0132 2.49879 23.5007 1.9863 22.8703 1.66513C22.5494 1.50161 22.1505 1.40355 21.5237 1.35234C20.8893 1.30051 20.0803 1.3 18.9495 1.3H7.33886C6.20803 1.3 5.399 1.30051 4.7646 1.35234C4.13779 1.40355 3.73891 1.50161 3.41799 1.66513C2.78765 1.9863 2.27516 2.49879 1.95399 3.12913C1.79047 3.45005 1.69241 3.84893 1.6412 4.47574C1.58937 5.11014 1.58886 5.91916 1.58886 7.04999V10.4083C5.16164 10.7723 8.51958 12.3556 11.0817 14.9178C12.4387 16.2748 13.5212 17.855 14.2933 19.5722C15.6682 18.5997 17.2323 18.0102 18.8629 17.8706C20.9044 17.6959 22.9357 18.2364 24.6987 19.4085ZM14.733 9.09977C14.733 7.90318 15.703 6.93316 16.8996 6.93316C18.0962 6.93316 19.0662 7.90318 19.0662 9.09977C19.0662 10.2964 18.0962 11.2664 16.8996 11.2664C15.703 11.2664 14.733 10.2964 14.733 9.09977ZM16.8996 5.63316C14.9851 5.63316 13.433 7.18521 13.433 9.09977C13.433 11.0143 14.9851 12.5664 16.8996 12.5664C18.8142 12.5664 20.3662 11.0143 20.3662 9.09977C20.3662 7.18521 18.8142 5.63316 16.8996 5.63316Z" />
</svg>
