<svg width="28" height="28" viewBox="0 0 28 28" fill="none" xmlns="http://www.w3.org/2000/svg">
<path d="M12.2775 19.7847C12.5131 19.9487 12.6875 20.1729 12.6875 20.4228V22.4C12.6875 22.9799 13.2751 23.45 14 23.45C14.7249 23.45 15.3125 22.9799 15.3125 22.4V20.4228C15.3125 20.1729 15.4869 19.9487 15.7225 19.7847C16.2755 19.3997 16.625 18.8325 16.625 18.2C16.625 17.0402 15.4497 16.1 14 16.1C12.5503 16.1 11.375 17.0402 11.375 18.2C11.375 18.8325 11.7245 19.3997 12.2775 19.7847Z" fill="black"/>
<path fill-rule="evenodd" clip-rule="evenodd" d="M6.12674 11.2432C6.60629 11.1954 7 10.8866 7 10.5V5.6C7 2.50721 10.134 0 14 0C17.866 0 21 2.50721 21 5.6V10.5C21 10.8866 21.3937 11.1954 21.8733 11.2432C25.3271 11.587 28 13.9438 28 16.8V22.4C28 25.4928 24.866 28 21 28H7C3.13401 28 0 25.4928 0 22.4V16.8C0 13.9438 2.67287 11.587 6.12674 11.2432ZM2.625 16.8C2.625 14.867 4.58375 13.3 7 13.3H21C23.4162 13.3 25.375 14.867 25.375 16.8V22.4C25.375 24.333 23.4162 25.9 21 25.9H7C4.58375 25.9 2.625 24.333 2.625 22.4V16.8ZM10.5 11.2C10.0168 11.2 9.625 10.8866 9.625 10.5V5.6C9.625 3.667 11.5838 2.1 14 2.1C16.4162 2.1 18.375 3.667 18.375 5.6V10.5C18.375 10.8866 17.9832 11.2 17.5 11.2H10.5Z" />
</svg>
