<svg width="26" height="26" viewBox="0 0 26 26" fill="none" xmlns="http://www.w3.org/2000/svg">
<path fill-rule="evenodd" clip-rule="evenodd" d="M13 1.94999L12.9052 1.94998C12.1597 1.94981 11.6692 1.9497 11.2479 2.05084C9.91329 2.37126 8.87125 3.4133 8.55084 4.74792C8.44969 5.16923 8.4498 5.6597 8.44997 6.40516V6.40517L8.44999 6.49999V8.46603C8.2818 8.47228 8.12431 8.48096 7.97666 8.49303C7.43621 8.53718 6.97069 8.62986 6.54292 8.84782C5.85613 9.19776 5.29775 9.75614 4.94781 10.4429C4.72985 10.8707 4.63718 11.3362 4.59302 11.8767C4.54998 12.4035 4.54998 13.0556 4.54999 13.8718L4.54999 13.9V17.3L4.54999 17.3282C4.54998 18.1444 4.54998 18.7965 4.59302 19.3233C4.63718 19.8638 4.72985 20.3293 4.94781 20.7571C5.29775 21.4439 5.85613 22.0022 6.54292 22.3522C6.97069 22.5701 7.43621 22.6628 7.97666 22.707C8.50345 22.75 9.15558 22.75 9.97169 22.75H9.97176H9.99999H16H16.0282H16.0283C16.8444 22.75 17.4965 22.75 18.0233 22.707C18.5638 22.6628 19.0293 22.5701 19.4571 22.3522C20.1438 22.0022 20.7022 21.4439 21.0522 20.7571C21.2701 20.3293 21.3628 19.8638 21.407 19.3233C21.45 18.7965 21.45 18.1444 21.45 17.3282V17.3V13.9V13.8718C21.45 13.0556 21.45 12.4035 21.407 11.8767C21.3628 11.3362 21.2701 10.8707 21.0522 10.4429C20.7022 9.75614 20.1438 9.19776 19.4571 8.84782C19.0293 8.62986 18.5638 8.53718 18.0233 8.49303C17.8757 8.48096 17.7182 8.47228 17.55 8.46603V6.49999L17.55 6.40517C17.5502 5.6597 17.5503 5.16924 17.4491 4.74792C17.1287 3.4133 16.0867 2.37126 14.7521 2.05084C14.3307 1.9497 13.8403 1.94981 13.0948 1.94998L13 1.94999ZM16 9.75H9.99999C9.14918 9.75 8.55017 9.7505 8.08252 9.78871C7.62246 9.8263 7.34707 9.89711 7.13311 10.0061C6.69093 10.2314 6.33143 10.5909 6.10612 11.0331C5.9971 11.2471 5.92629 11.5225 5.8887 11.9825C5.85049 12.4502 5.84999 13.0492 5.84999 13.9V17.3C5.84999 18.1508 5.85049 18.7498 5.8887 19.2175C5.92629 19.6775 5.9971 19.9529 6.10612 20.1669C6.33143 20.6091 6.69093 20.9686 7.13311 21.1939C7.34707 21.3029 7.62246 21.3737 8.08252 21.4113C8.55017 21.4495 9.14918 21.45 9.99999 21.45H16C16.8508 21.45 17.4498 21.4495 17.9174 21.4113C18.3775 21.3737 18.6529 21.3029 18.8669 21.1939C19.309 20.9686 19.6685 20.6091 19.8939 20.1669C20.0029 19.9529 20.0737 19.6775 20.1113 19.2175C20.1495 18.7498 20.15 18.1508 20.15 17.3V13.9C20.15 13.0492 20.1495 12.4502 20.1113 11.9825C20.0737 11.5225 20.0029 11.2471 19.8939 11.0331C19.6685 10.5909 19.309 10.2314 18.8669 10.0061C18.6529 9.89711 18.3775 9.8263 17.9174 9.78871C17.4498 9.7505 16.8508 9.75 16 9.75ZM16.0768 8.45H16.25V6.49999C16.25 5.62574 16.2455 5.303 16.1851 5.0514C15.9788 4.19212 15.3079 3.52122 14.4486 3.31493C14.197 3.25452 13.8742 3.24999 13 3.24999C12.1257 3.24999 11.803 3.25452 11.5514 3.31493C10.6921 3.52122 10.0212 4.19212 9.81492 5.0514C9.75452 5.303 9.74999 5.62574 9.74999 6.49999V8.45H9.92318C9.93931 8.45 9.9555 8.45 9.97176 8.45H9.99999H16H16.0282C16.0445 8.45 16.0607 8.45 16.0768 8.45ZM12.35 17.55V13.65H13.65V17.55H12.35Z" />
</svg>
