<svg width="26" height="26" viewBox="0 0 26 26" fill="none" xmlns="http://www.w3.org/2000/svg">
<path fill-rule="evenodd" clip-rule="evenodd" d="M12.2673 5.81164L10.595 5.81164C9.40932 5.81164 8.57456 5.81234 7.92286 5.86559C7.28174 5.91797 6.89796 6.01665 6.59979 6.16858C5.98358 6.48255 5.48259 6.98355 5.16861 7.59975C5.01669 7.89793 4.91801 8.2817 4.86562 8.92283C4.81238 9.57453 4.81167 10.4093 4.81167 11.5949L4.81167 14.9395C4.81167 16.1252 4.81238 16.9599 4.86562 17.6116C4.918 18.2527 5.01669 18.6365 5.16861 18.9347C5.48259 19.5509 5.98358 20.0519 6.59979 20.3659C6.89796 20.5178 7.28174 20.6165 7.92286 20.6689C8.57456 20.7221 9.40932 20.7228 10.595 20.7228L12.2673 20.7228L12.2673 22.5344L10.5556 22.5344C9.41828 22.5345 8.50948 22.5345 7.77534 22.4745C7.02218 22.4129 6.37345 22.2838 5.77732 21.98C4.82023 21.4924 4.04209 20.7142 3.55443 19.7572C3.25069 19.161 3.12154 18.5123 3.06 17.7591C3.00002 17.025 3.00003 16.1162 3.00004 14.9788L3.00004 11.5556C3.00003 10.4183 3.00002 9.50944 3.06 8.7753C3.12154 8.02214 3.25069 7.37342 3.55443 6.77729C4.0421 5.8202 4.82023 5.04206 5.77732 4.5544C6.37345 4.25065 7.02218 4.1215 7.77534 4.05997C8.50948 3.99999 9.41828 3.99999 10.5556 4L12.2673 4L12.2673 5.81164Z" fill="#1B273D" fill-opacity="0.3"/>
<path fill-rule="evenodd" clip-rule="evenodd" d="M20.5322 12.3614L16.5042 8.33347L17.7853 7.05245L23.3595 12.6267L24 13.2672L23.3595 13.9077L17.7853 19.482L16.5042 18.201L20.5322 14.173L8.78334 14.173V12.3614L20.5322 12.3614Z" fill="#09101C"/>
</svg>
