<svg width="24" height="24" viewBox="0 0 24 24" xmlns="http://www.w3.org/2000/svg">
<path d="M4.47857 19.5214L4.61293 20.1574C4.39786 20.2028 4.17439 20.1365 4.01895 19.981C3.86352 19.8256 3.79717 19.6021 3.84261 19.3871L4.47857 19.5214ZM5.12758 16.4495L4.49162 16.3151L5.12758 16.4495ZM7.55053 18.8724L7.68489 19.5084L7.55053 18.8724ZM4.55 12V12.3356H3.25V12H4.55ZM11.6644 19.45H12V20.75H11.6644V19.45ZM4.34421 18.8855L7.41617 18.2365L7.68489 19.5084L4.61293 20.1574L4.34421 18.8855ZM5.76354 16.5838L5.11453 19.6558L3.84261 19.3871L4.49162 16.3151L5.76354 16.5838ZM5.63714 15.9262C5.76599 16.1195 5.81156 16.3565 5.76354 16.5838L4.49162 16.3151C4.46736 16.4299 4.49038 16.5497 4.55547 16.6473L5.63714 15.9262ZM7.41617 18.2365C7.64346 18.1884 7.8805 18.234 8.07379 18.3629L7.35268 19.4445C7.45032 19.5096 7.57007 19.5326 7.68489 19.5084L7.41617 18.2365ZM4.55 12.3356C4.55 13.6136 4.92827 14.8629 5.63714 15.9262L4.55547 16.6473C3.70424 15.3705 3.25 13.8702 3.25 12.3356H4.55ZM20.75 12C20.75 16.8325 16.8325 20.75 12 20.75V19.45C16.1145 19.45 19.45 16.1145 19.45 12H20.75ZM12 4.55C7.88548 4.55 4.55 7.88548 4.55 12H3.25C3.25 7.16751 7.16751 3.25 12 3.25V4.55ZM11.6644 20.75C10.1298 20.75 8.62953 20.2958 7.35268 19.4445L8.07379 18.3629C9.13709 19.0717 10.3864 19.45 11.6644 19.45V20.75ZM12 3.25C16.8325 3.25 20.75 7.16751 20.75 12H19.45C19.45 7.88548 16.1145 4.55 12 4.55V3.25Z" />
<path d="M9 10.85H15V9.55H9V10.85Z" />
<path d="M9 14.45H13.8V13.15H9V14.45Z" />
</svg>
