<svg width="26" height="26" viewBox="0 0 26 26" fill="none" xmlns="http://www.w3.org/2000/svg">
<path d="M21.775 13C21.775 8.15368 17.8463 4.22498 13 4.22498V4.22498C8.1537 4.22498 4.22499 8.15367 4.22499 13V13.3636C4.22499 14.887 4.67594 16.3764 5.52099 17.644V17.644C5.55553 17.6958 5.56774 17.7593 5.55487 17.8202L4.85178 21.1482L8.17974 20.4451C8.24066 20.4322 8.30419 20.4444 8.356 20.479V20.479C9.62358 21.324 11.1129 21.775 12.6364 21.775H13C17.8463 21.775 21.775 17.8463 21.775 13V13Z" stroke="#09101C" stroke-width="1.3" stroke-linejoin="round"/>
<path d="M9.75 11.05H16.25" stroke="#09101C" stroke-width="1.3" stroke-linejoin="round"/>
<path d="M9.75 14.95H14.95" stroke="#09101C" stroke-width="1.3" stroke-linejoin="round"/>
</svg>
