<svg width="28" height="7" viewBox="0 0 28 7" fill="none" xmlns="http://www.w3.org/2000/svg">
<path d="M6.22222 3.11111C6.22222 4.82933 4.82933 6.22222 3.11111 6.22222C1.39289 6.22222 0 4.82933 0 3.11111C0 1.39289 1.39289 0 3.11111 0C4.82933 0 6.22222 1.39289 6.22222 3.11111Z" />
<path d="M17.1111 3.11111C17.1111 4.82933 15.7182 6.22222 14 6.22222C12.2818 6.22222 10.8889 4.82933 10.8889 3.11111C10.8889 1.39289 12.2818 0 14 0C15.7182 0 17.1111 1.39289 17.1111 3.11111Z" />
<path d="M24.8889 6.22222C26.6071 6.22222 28 4.82933 28 3.11111C28 1.39289 26.6071 0 24.8889 0C23.1707 0 21.7778 1.39289 21.7778 3.11111C21.7778 4.82933 23.1707 6.22222 24.8889 6.22222Z" />
</svg>
