<svg width="26" height="26" viewBox="0 0 26 26" fill="none" xmlns="http://www.w3.org/2000/svg">
<path fill-rule="evenodd" clip-rule="evenodd" d="M13.0007 2.47006H16.901V2.54816L16.901 2.54817V4.11056C15.8364 4.04937 14.5577 4.03019 13.0157 4.03006H12.9858C11.4441 4.03019 10.1655 4.04936 9.10103 4.11052V4.03006H9.10096V2.47006H13.0007ZM13.0008 7.67003C10.7274 7.67003 8.93742 7.70999 7.54456 7.87883C6.16115 8.04651 5.06105 8.35184 4.24546 8.96353C3.39604 9.6006 2.95876 10.4888 2.73108 11.5816C2.50929 12.6461 2.47092 13.9822 2.47092 15.6C2.47092 17.2178 2.50925 18.5539 2.73099 19.6185C2.9586 20.7112 3.39581 21.5994 4.2452 22.2365C5.06076 22.8482 6.16086 23.1536 7.54429 23.3212C8.93718 23.4901 10.7273 23.53 13.0008 23.53C15.2742 23.53 17.0644 23.4901 18.4573 23.3212C19.8407 23.1536 20.9409 22.8482 21.7565 22.2365C22.6059 21.5995 23.0431 20.7113 23.2708 19.6185C23.4926 18.5539 23.5309 17.2179 23.5309 15.6C23.5309 13.9822 23.4925 12.6461 23.2707 11.5815C23.043 10.4887 22.6057 9.60057 21.7562 8.96352C20.9406 8.35184 19.8404 8.04651 18.457 7.87883C17.0641 7.70999 15.2741 7.67003 13.0008 7.67003ZM4.03092 15.6C4.03092 13.9679 4.07381 12.7852 4.25829 11.8998C4.43688 11.0425 4.73087 10.5495 5.18146 10.2115C5.66586 9.84823 6.43449 9.5848 7.73228 9.42749C9.02061 9.27133 10.7242 9.23003 13.0008 9.23003C15.2773 9.23003 16.9809 9.27133 18.2693 9.42749C19.5671 9.5848 20.3358 9.84823 20.8202 10.2115C21.2709 10.5495 21.5649 11.0426 21.7435 11.8998C21.928 12.7852 21.9709 13.9679 21.9709 15.6C21.9709 17.2322 21.928 18.4149 21.7436 19.3003C21.565 20.1575 21.271 20.6506 20.8205 20.9885C20.3361 21.3518 19.5675 21.6152 18.2699 21.7725C18.0996 20.4938 17.5745 19.5556 16.6983 18.9423C15.6771 18.2274 14.3286 18.07 13.001 18.07C11.6735 18.07 10.325 18.2274 9.30373 18.9423C8.42755 19.5556 7.9024 20.4938 7.73219 21.7726C7.73213 21.7726 7.73207 21.7726 7.73201 21.7726C6.43419 21.6153 5.66559 21.3518 5.18124 20.9885C4.73071 20.6506 4.43676 20.1576 4.25821 19.3004C4.07377 18.4149 4.03092 17.2322 4.03092 15.6ZM9.28872 21.8998C10.3185 21.9531 11.542 21.97 13.0008 21.97C14.4598 21.97 15.6835 21.9531 16.7133 21.8998C16.5792 21.0023 16.2253 20.5154 15.8037 20.2203C15.2 19.7977 14.2735 19.63 13.001 19.63C11.7286 19.63 10.8021 19.7977 10.1983 20.2203C9.77673 20.5154 9.42288 21.0023 9.28872 21.8998ZM19.501 5.44511C19.1731 5.37783 18.8251 5.32347 18.457 5.27885C17.0641 5.11002 15.274 5.07006 13.0007 5.07006C10.7274 5.07006 8.93738 5.11002 7.54452 5.27885C7.17665 5.32344 6.82881 5.37777 6.50103 5.445V7.0443C6.84777 6.95784 7.25409 6.88548 7.73224 6.82752C9.02057 6.67135 10.7242 6.63006 13.0007 6.63006C15.2772 6.63006 16.9809 6.67135 18.2693 6.82752C18.7477 6.88551 19.1542 6.95791 19.501 7.04443V5.44511ZM13.001 12.48C11.9959 12.48 11.181 13.2949 11.181 14.3C11.181 15.3052 11.9959 16.12 13.001 16.12C14.0062 16.12 14.821 15.3052 14.821 14.3C14.821 13.2949 14.0062 12.48 13.001 12.48ZM9.62103 14.3C9.62103 12.4333 11.1343 10.92 13.001 10.92C14.8678 10.92 16.381 12.4333 16.381 14.3C16.381 16.1668 14.8678 17.68 13.001 17.68C11.1343 17.68 9.62103 16.1668 9.62103 14.3Z" />
</svg>
