<svg width="26" height="26" viewBox="0 0 26 26" fill="none" xmlns="http://www.w3.org/2000/svg">
<path fill-rule="evenodd" clip-rule="evenodd" d="M13 3.46252C9.47141 3.46252 6.61093 6.323 6.61093 9.85159V10.9817C6.61093 11.914 6.31365 12.822 5.76227 13.5737L5.18123 14.3659C4.85639 14.8088 4.68124 15.3438 4.68124 15.893C4.68124 17.319 5.83725 18.475 7.26326 18.475H18.7367C20.1627 18.475 21.3187 17.319 21.3187 15.893C21.3187 15.3438 21.1436 14.8088 20.8188 14.3659L20.2377 13.5737C19.6863 12.822 19.3891 11.914 19.3891 10.9817V9.85159C19.3891 6.323 16.5286 3.46252 13 3.46252ZM7.81093 9.85159C7.81093 6.98575 10.1342 4.66252 13 4.66252C15.8658 4.66252 18.1891 6.98575 18.1891 9.85159V10.9817C18.1891 12.1693 18.5677 13.3259 19.2701 14.2835L19.8511 15.0757C20.025 15.3127 20.1187 15.599 20.1187 15.893C20.1187 16.6563 19.5 17.275 18.7367 17.275H7.26326C6.49999 17.275 5.88124 16.6563 5.88124 15.893C5.88124 15.599 5.97499 15.3127 6.14886 15.0757L6.7299 14.2835C7.43225 13.3259 7.81093 12.1693 7.81093 10.9817V9.85159ZM13 22.9438C13.6998 22.9438 14.3891 22.7772 15.0272 22.4581C15.6647 22.1393 16.236 21.6762 16.712 21.1015L15.7879 20.336C15.4104 20.7918 14.9683 21.1459 14.4906 21.3848C14.0134 21.6234 13.5073 21.7438 13 21.7438C12.4927 21.7438 11.9866 21.6234 11.5094 21.3848C11.0317 21.1459 10.5896 20.7918 10.212 20.336L9.28795 21.1015C9.76398 21.6762 10.3352 22.1393 10.9728 22.4581C11.6109 22.7772 12.3001 22.9438 13 22.9438Z" />
</svg>
