<svg width="26" height="26" viewBox="0 0 26 26" fill="none" xmlns="http://www.w3.org/2000/svg">
<g clip-path="url(#clip0_205_72)">
<path fill-rule="evenodd" clip-rule="evenodd" d="M17.5384 4.03003L17.5491 4.03003C17.5491 4.03004 17.5492 4.03005 17.5494 4.03006C17.5526 4.03037 17.5837 4.03329 17.6482 4.05976C17.7219 4.08998 17.8201 4.14309 17.9426 4.22861C18.1898 4.40115 18.4844 4.669 18.8141 5.02736C19.4714 5.74174 20.1946 6.73498 20.8711 7.80938C21.5456 8.88066 22.1578 10.0075 22.5984 10.9767C22.8188 11.4617 22.9916 11.897 23.1078 12.2594C23.2291 12.6376 23.2699 12.8797 23.2699 13C23.2699 13.1203 23.2291 13.3625 23.1078 13.7407C22.9916 14.1031 22.8188 14.5384 22.5984 15.0234C22.1578 15.9926 21.5456 17.1194 20.8711 18.1907C20.5956 18.6282 20.3124 19.0522 20.029 19.4495C19.6984 18.9049 19.3198 18.4376 18.8979 18.0392C17.2152 16.4499 15.0127 16.12 12.9999 16.12C10.987 16.12 8.78455 16.4499 7.10179 18.0392C6.67124 18.4458 6.28572 18.9242 5.95029 19.4833C5.6608 19.0774 5.37201 18.6426 5.09185 18.1935C4.42428 17.1233 3.82172 15.9971 3.38903 15.0281C3.17254 14.5433 3.00306 14.1078 2.88913 13.7451C2.77038 13.3671 2.72988 13.123 2.72988 13C2.72988 12.8797 2.77069 12.6376 2.89195 12.2594C3.00814 11.897 3.18092 11.4617 3.40137 10.9767C3.84192 10.0075 4.45418 8.88066 5.12869 7.80938C5.80516 6.73498 6.52839 5.74174 7.18562 5.02735C7.5153 4.669 7.80994 4.40115 8.05714 4.22861C8.17968 4.14309 8.27784 4.08998 8.35153 4.05976C8.41607 4.03329 8.44714 4.03037 8.45039 4.03006C8.45058 4.03005 8.45067 4.03004 8.45067 4.03003L8.46134 4.03003H8.47288H8.48449H8.49617H8.50793H8.51976H8.53166H8.54364H8.55569H8.56781H8.58H8.59226H8.60459H8.61699H8.62947H8.64201H8.65463H8.66731H8.68006H8.69288H8.70577H8.71873H8.73176H8.74485H8.75801H8.77124H8.78453H8.79789H8.81132H8.82482H8.83838H8.852H8.86569H8.87945H8.89326H8.90715H8.9211H8.93511H8.94918H8.96332H8.97752H8.99178H9.0061H9.02049H9.03494H9.04945H9.06402H9.07865H9.09334H9.1081H9.12291H9.13778H9.15271H9.1677H9.18275H9.19785H9.21302H9.22824H9.24352H9.25886H9.27425H9.2897H9.30521H9.32078H9.33639H9.35207H9.3678H9.38358H9.39942H9.41532H9.43127H9.44727H9.46332H9.47943H9.49559H9.51181H9.52807H9.54439H9.56076H9.57718H9.59365H9.61018H9.62675H9.64337H9.66005H9.67677H9.69355H9.71037H9.72724H9.74416H9.76113H9.77814H9.79521H9.81232H9.82947H9.84668H9.86393H9.88123H9.89857H9.91596H9.93339H9.95087H9.9684H9.98597H10.0036H10.0212H10.0389H10.0567H10.0745H10.0923H10.1102H10.1281H10.146H10.164H10.1821H10.2001H10.2183H10.2364H10.2546H10.2729H10.2911H10.3095H10.3278H10.3462H10.3647H10.3831H10.4016L10.4202 4.03003H10.4388H10.4574H10.4761H10.4948H10.5135H10.5322H10.5511H10.5699H10.5888H10.6077H10.6266H10.6456H10.6646H10.6836H10.7027H10.7218H10.741H10.7601H10.7793H10.7986H10.8178H10.8371H10.8565H10.8758H10.8952H10.9146H10.9341H10.9536H10.9731H10.9926H11.0122H11.0318H11.0514H11.0711H11.0907H11.1104H11.1302H11.1499H11.1697H11.1895H11.2094H11.2292H11.2491H11.269H11.2889H11.3089H11.3289H11.3489H11.3689H11.389H11.409H11.4291H11.4493H11.4694H11.4896H11.5097H11.53H11.5502H11.5704H11.5907H11.611H11.6313H11.6516H11.6719H11.6923H11.7127H11.7331H11.7535H11.7739H11.7944H11.8149H11.8353H11.8558H11.8764H11.8969H11.9174H11.938H11.9586H11.9792H11.9998H12.0204H12.041H12.0617H12.0823H12.103H12.1237H12.1444H12.1651H12.1858H12.2065H12.2273H12.248H12.2688H12.2896H12.3104H12.3312H12.352H12.3728H12.3936H12.4144H12.4353H12.4561H12.477H12.4978H12.5187H12.5396H12.5604H12.5813H12.6022H12.6231H12.644H12.6649H12.6858H12.7067H12.7277H12.7486H12.7695H12.7905H12.8114H12.8323H12.8533H12.8742H12.8951H12.9161H12.937H12.958H12.9789H12.9999H13.0208H13.0418H13.0627H13.0837H13.1046H13.1255L13.1465 4.03003H13.1674H13.1884H13.2093H13.2302H13.2512H13.2721H13.293H13.3139H13.3348H13.3557H13.3766H13.3975H13.4184H13.4393H13.4602H13.4811H13.5019H13.5228H13.5437H13.5645H13.5853H13.6062H13.627H13.6478H13.6686H13.6894H13.7102H13.731H13.7517H13.7725H13.7932H13.8139H13.8347H13.8554H13.8761H13.8968H13.9174H13.9381H13.9587H13.9794H14H14.0206H14.0412H14.0618H14.0823H14.1029H14.1234H14.1439H14.1644H14.1849H14.2054H14.2258H14.2463H14.2667H14.2871H14.3074H14.3278H14.3481H14.3685H14.3888H14.4091H14.4293H14.4496H14.4698H14.49H14.5102H14.5304H14.5505H14.5706H14.5907H14.6108H14.6308H14.6509H14.6709H14.6909H14.7108H14.7307H14.7507H14.7705H14.7904H14.8102H14.83H14.8498H14.8696H14.8893H14.909H14.9287H14.9483H14.968H14.9876H15.0071H15.0267H15.0462H15.0657H15.0851H15.1045H15.1239H15.1433H15.1626H15.1819H15.2012H15.2204H15.2396H15.2588H15.2779H15.297H15.3161H15.3352H15.3542H15.3731H15.3921H15.411H15.4299H15.4487H15.4675H15.4863H15.505H15.5237H15.5424H15.561H15.5796H15.5981H15.6166H15.6351H15.6535H15.6719H15.6903H15.7086H15.7269H15.7451H15.7633H15.7815H15.7996H15.8177H15.8357H15.8537L15.8717 4.03003H15.8896H15.9075H15.9253H15.9431H15.9608H15.9785H15.9962H16.0138H16.0314H16.0489H16.0664H16.0838H16.1012H16.1185H16.1358H16.1531H16.1703H16.1874H16.2045H16.2216H16.2386H16.2556H16.2725H16.2894H16.3062H16.323H16.3397H16.3564H16.373H16.3896H16.4061H16.4226H16.439H16.4554H16.4717H16.4879H16.5042H16.5203H16.5364H16.5525H16.5685H16.5844H16.6003H16.6162H16.632H16.6477H16.6634H16.679H16.6945H16.71H16.7255H16.7409H16.7562H16.7715H16.7867H16.8019H16.817H16.8321H16.847H16.862H16.8768H16.8917H16.9064H16.9211H16.9357H16.9503H16.9648H16.9793H16.9936H17.008H17.0222H17.0364H17.0506H17.0646H17.0787H17.0926H17.1065H17.1203H17.1341H17.1478H17.1614H17.1749H17.1884H17.2019H17.2152H17.2285H17.2417H17.2549H17.268H17.281H17.294H17.3069H17.3197H17.3324H17.3451H17.3577H17.3703H17.3828H17.3952H17.4075H17.4198H17.4319H17.4441H17.4561H17.4681H17.48H17.4918H17.5036H17.5153H17.5269H17.5384ZM7.00272 20.8191C7.04888 20.8709 7.09478 20.9215 7.14041 20.9708C7.47128 21.3279 7.76882 21.5948 8.02089 21.7668C8.28817 21.9492 8.42417 21.97 8.44988 21.97H8.46134H8.47288H8.48449H8.49617H8.50793H8.51976H8.53166H8.54364H8.55569H8.5678H8.58H8.59226H8.60459H8.61699H8.62947H8.64201H8.65463H8.66731H8.68006H8.69288H8.70577H8.71873H8.73175H8.74485H8.75801H8.77124H8.78453H8.79789H8.81132H8.82482H8.83837H8.852H8.86569H8.87944H8.89326H8.90715H8.92109H8.9351H8.94918H8.96332H8.97752H8.99178H9.0061H9.02049H9.03494H9.04945H9.06402H9.07865H9.09334H9.10809H9.12291H9.13778H9.15271H9.1677H9.18275H9.19785H9.21302H9.22824H9.24352H9.25886H9.27425H9.2897H9.30521H9.32077H9.33639H9.35207H9.3678H9.38358H9.39942H9.41532H9.43126H9.44727H9.46332H9.47943H9.49559H9.51181H9.52807H9.54439H9.56076H9.57718H9.59365H9.61018H9.62675H9.64337H9.66005H9.67677H9.69354H9.71037H9.72724H9.74416H9.76113H9.77814H9.7952H9.81232H9.82947H9.84668H9.86393H9.88123H9.89857H9.91596H9.93339H9.95087H9.9684H9.98596H10.0036H10.0212H10.0389H10.0567H10.0745H10.0923H10.1102H10.1281H10.146H10.164H10.1821H10.2001H10.2183H10.2364H10.2546H10.2729H10.2911H10.3095H10.3278H10.3462H10.3647H10.3831H10.4016H10.4202H10.4388H10.4574H10.4761H10.4948H10.5135H10.5322H10.5511H10.5699H10.5888H10.6077H10.6266H10.6456H10.6646H10.6836H10.7027H10.7218H10.741H10.7601H10.7793H10.7986H10.8178H10.8371H10.8565H10.8758H10.8952H10.9146H10.9341H10.9536H10.9731H10.9926H11.0122H11.0318H11.0514H11.0711H11.0907H11.1104H11.1302H11.1499H11.1697H11.1895H11.2094H11.2292H11.2491H11.269H11.2889H11.3089H11.3289H11.3489H11.3689H11.389H11.409H11.4291H11.4493H11.4694H11.4896H11.5097H11.53H11.5502H11.5704H11.5907H11.611H11.6313H11.6516H11.6719H11.6923H11.7127H11.7331H11.7535H11.7739H11.7944H11.8149H11.8353H11.8558H11.8763H11.8969H11.9174H11.938H11.9586H11.9792H11.9998H12.0204H12.041H12.0617H12.0823H12.103H12.1237H12.1444H12.1651H12.1858H12.2065H12.2273H12.248H12.2688H12.2896H12.3104H12.3312H12.352H12.3728H12.3936H12.4144H12.4353H12.4561H12.477H12.4978H12.5187H12.5396H12.5604H12.5813H12.6022H12.6231H12.644H12.6649H12.6858H12.7067H12.7277H12.7486H12.7695H12.7905H12.8114H12.8323H12.8533H12.8742H12.8951H12.9161H12.937H12.958H12.9789H12.9999H13.0208H13.0418H13.0627H13.0837H13.1046H13.1255H13.1465H13.1674H13.1884H13.2093H13.2302H13.2512H13.2721H13.293H13.3139H13.3348H13.3557H13.3766H13.3975H13.4184H13.4393H13.4602H13.4811H13.5019H13.5228H13.5437H13.5645H13.5853H13.6062H13.627H13.6478H13.6686H13.6894H13.7102H13.731H13.7517H13.7725H13.7932H13.8139H13.8347H13.8554H13.8761H13.8968H13.9174H13.9381H13.9587H13.9794H14H14.0206H14.0412H14.0618H14.0823H14.1029H14.1234H14.1439H14.1644H14.1849H14.2054H14.2258H14.2463H14.2667H14.2871H14.3074H14.3278H14.3481H14.3685H14.3888H14.4091H14.4293H14.4496H14.4698H14.49H14.5102H14.5303H14.5505H14.5706H14.5907H14.6108H14.6308H14.6509H14.6709H14.6908H14.7108H14.7307H14.7507H14.7705H14.7904H14.8102H14.83H14.8498H14.8696H14.8893H14.909H14.9287H14.9483H14.968H14.9876H15.0071H15.0267H15.0462H15.0657H15.0851H15.1045H15.1239H15.1433H15.1626H15.1819H15.2012H15.2204H15.2396H15.2588H15.2779H15.297H15.3161H15.3352H15.3542H15.3731H15.3921H15.411H15.4299H15.4487H15.4675H15.4863H15.505H15.5237H15.5424H15.561H15.5796H15.5981H15.6166H15.6351H15.6535H15.6719H15.6903H15.7086H15.7269H15.7451H15.7633H15.7815H15.7996H15.8177H15.8357H15.8537H15.8717H15.8896H15.9075H15.9253H15.9431H15.9608H15.9785H15.9962H16.0138H16.0314H16.0489H16.0664H16.0838H16.1012H16.1185H16.1358H16.1531H16.1703H16.1874H16.2045H16.2216H16.2386H16.2556H16.2725H16.2894H16.3062H16.323H16.3397H16.3564H16.373H16.3896H16.4061H16.4226H16.439H16.4554H16.4717H16.4879H16.5042H16.5203H16.5364H16.5525H16.5685H16.5844H16.6003H16.6162H16.632H16.6477H16.6634H16.679H16.6945H16.71H16.7255H16.7409H16.7562H16.7715H16.7867H16.8019H16.817H16.8321H16.847H16.862H16.8768H16.8917H16.9064H16.9211H16.9357H16.9503H16.9648H16.9793H16.9936H17.008H17.0222H17.0364H17.0506H17.0646H17.0787H17.0926H17.1065H17.1203H17.1341H17.1478H17.1614H17.1749H17.1884H17.2019H17.2152H17.2285H17.2417H17.2549H17.268H17.281H17.294H17.3069H17.3197H17.3324H17.3451H17.3577H17.3703H17.3828H17.3952H17.4075H17.4198H17.4319H17.4441H17.4561H17.4681H17.48H17.4918H17.5036H17.5153H17.5269H17.5384H17.5491C17.5491 21.97 17.5492 21.97 17.5494 21.97C17.5526 21.9697 17.5837 21.9668 17.6482 21.9403C17.7219 21.9101 17.8201 21.857 17.9426 21.7715C18.1898 21.5989 18.4844 21.3311 18.8141 20.9727C18.8694 20.9126 18.9252 20.8505 18.9813 20.7866C18.6489 20.1025 18.2548 19.5775 17.8268 19.1733C16.5846 18.0001 14.887 17.68 12.9999 17.68C11.1127 17.68 9.41516 18.0001 8.17292 19.1733C7.73816 19.5839 7.33845 20.119 7.00272 20.8191ZM24.8299 13C24.8299 12.6328 24.7285 12.2047 24.5933 11.7831C24.4531 11.3457 24.2551 10.8517 24.0186 10.3312C23.5451 9.28946 22.8979 8.10066 22.1912 6.97819C21.4864 5.85884 20.7065 4.7802 19.9622 3.97115C19.5911 3.56778 19.2103 3.21102 18.8355 2.94938C18.4792 2.7007 18.033 2.47003 17.5499 2.47003L17.5384 2.47003L17.5269 2.47003L17.5153 2.47003L17.5036 2.47003L17.4918 2.47003L17.48 2.47003L17.4681 2.47003L17.4561 2.47003L17.4441 2.47003L17.4319 2.47003L17.4198 2.47003L17.4075 2.47003L17.3952 2.47003L17.3828 2.47003L17.3703 2.47003L17.3577 2.47003L17.3451 2.47003L17.3324 2.47003L17.3197 2.47003L17.3069 2.47003L17.294 2.47003L17.281 2.47003L17.268 2.47003L17.2549 2.47003L17.2417 2.47003L17.2285 2.47003L17.2152 2.47003L17.2019 2.47003L17.1884 2.47003L17.1749 2.47003L17.1614 2.47003L17.1478 2.47003L17.1341 2.47003L17.1203 2.47003L17.1065 2.47003L17.0926 2.47003L17.0787 2.47003L17.0646 2.47003L17.0506 2.47003L17.0364 2.47003L17.0222 2.47003L17.008 2.47003L16.9936 2.47003L16.9793 2.47003L16.9648 2.47003L16.9503 2.47003L16.9357 2.47003L16.9211 2.47003L16.9064 2.47003L16.8917 2.47003L16.8768 2.47003L16.862 2.47003L16.847 2.47003L16.8321 2.47003L16.817 2.47003L16.8019 2.47003L16.7867 2.47003L16.7715 2.47003L16.7562 2.47003L16.7409 2.47003L16.7255 2.47003L16.7101 2.47003L16.6945 2.47003L16.679 2.47003L16.6634 2.47003L16.6477 2.47003L16.632 2.47003L16.6162 2.47003L16.6003 2.47003L16.5844 2.47003L16.5685 2.47003L16.5525 2.47003L16.5364 2.47003L16.5203 2.47003L16.5042 2.47003L16.4879 2.47003L16.4717 2.47003L16.4554 2.47003L16.439 2.47003L16.4226 2.47003L16.4061 2.47003L16.3896 2.47003L16.373 2.47003L16.3564 2.47003L16.3397 2.47003L16.323 2.47003L16.3062 2.47003L16.2894 2.47003L16.2725 2.47003L16.2556 2.47003L16.2386 2.47003L16.2216 2.47003L16.2045 2.47003L16.1874 2.47003L16.1703 2.47003L16.1531 2.47003L16.1358 2.47003L16.1185 2.47003L16.1012 2.47003L16.0838 2.47003L16.0664 2.47003L16.0489 2.47003L16.0314 2.47003L16.0138 2.47003L15.9962 2.47003L15.9785 2.47003L15.9608 2.47003L15.9431 2.47003L15.9253 2.47003L15.9075 2.47003L15.8896 2.47003L15.8717 2.47003L15.8537 2.47003L15.8357 2.47003L15.8177 2.47003L15.7996 2.47003L15.7815 2.47003L15.7633 2.47003L15.7451 2.47003L15.7269 2.47003L15.7086 2.47003L15.6903 2.47003L15.6719 2.47003L15.6535 2.47003L15.6351 2.47003L15.6166 2.47003L15.5981 2.47003L15.5796 2.47003L15.561 2.47003L15.5424 2.47003L15.5237 2.47003L15.505 2.47003L15.4863 2.47003L15.4675 2.47003L15.4487 2.47003L15.4299 2.47003L15.411 2.47003L15.3921 2.47003L15.3731 2.47003L15.3542 2.47003L15.3352 2.47003L15.3161 2.47003L15.297 2.47003L15.2779 2.47003L15.2588 2.47003L15.2396 2.47003L15.2204 2.47003L15.2012 2.47003L15.1819 2.47003L15.1626 2.47003L15.1433 2.47003L15.1239 2.47003L15.1045 2.47003L15.0851 2.47003L15.0657 2.47003L15.0462 2.47003L15.0267 2.47003L15.0071 2.47003L14.9876 2.47003L14.968 2.47003L14.9483 2.47003L14.9287 2.47003L14.909 2.47003L14.8893 2.47003L14.8696 2.47003L14.8498 2.47003L14.83 2.47003L14.8102 2.47003L14.7904 2.47003L14.7705 2.47003L14.7507 2.47003L14.7307 2.47003L14.7108 2.47003L14.6909 2.47003L14.6709 2.47003L14.6509 2.47003L14.6308 2.47003L14.6108 2.47003L14.5907 2.47003L14.5706 2.47003L14.5505 2.47003L14.5304 2.47003L14.5102 2.47003L14.49 2.47003L14.4698 2.47003L14.4496 2.47003L14.4293 2.47003L14.4091 2.47003L14.3888 2.47003L14.3685 2.47003L14.3481 2.47003L14.3278 2.47003L14.3074 2.47003L14.2871 2.47003L14.2667 2.47003L14.2463 2.47003L14.2258 2.47003L14.2054 2.47003L14.1849 2.47003L14.1644 2.47003L14.1439 2.47003L14.1234 2.47003L14.1029 2.47003L14.0823 2.47003L14.0618 2.47003L14.0412 2.47003L14.0206 2.47003L14 2.47003L13.9794 2.47003L13.9587 2.47003L13.9381 2.47003L13.9174 2.47003L13.8968 2.47003L13.8761 2.47003L13.8554 2.47003L13.8347 2.47003L13.8139 2.47003L13.7932 2.47003L13.7725 2.47003L13.7517 2.47003L13.731 2.47003L13.7102 2.47003L13.6894 2.47003L13.6686 2.47003L13.6478 2.47003L13.627 2.47003L13.6062 2.47003L13.5853 2.47003L13.5645 2.47003L13.5437 2.47003L13.5228 2.47003L13.5019 2.47003L13.4811 2.47003L13.4602 2.47003L13.4393 2.47003L13.4184 2.47003L13.3975 2.47003L13.3766 2.47003L13.3557 2.47003L13.3348 2.47003L13.3139 2.47003L13.293 2.47003L13.2721 2.47003L13.2512 2.47003L13.2302 2.47003L13.2093 2.47003L13.1884 2.47003L13.1674 2.47003L13.1465 2.47003L13.1255 2.47003L13.1046 2.47003L13.0837 2.47003L13.0627 2.47003L13.0418 2.47003L13.0208 2.47003L12.9999 2.47003L12.9789 2.47003L12.958 2.47003L12.937 2.47003L12.9161 2.47003L12.8951 2.47003L12.8742 2.47003L12.8533 2.47003L12.8323 2.47003L12.8114 2.47003L12.7905 2.47003L12.7695 2.47003L12.7486 2.47003L12.7277 2.47003L12.7067 2.47003L12.6858 2.47003L12.6649 2.47003L12.644 2.47003L12.6231 2.47003L12.6022 2.47003L12.5813 2.47003L12.5604 2.47003L12.5396 2.47003L12.5187 2.47003L12.4978 2.47003L12.477 2.47003L12.4561 2.47003L12.4353 2.47003L12.4144 2.47003L12.3936 2.47003L12.3728 2.47003L12.352 2.47003L12.3312 2.47003L12.3104 2.47003L12.2896 2.47003L12.2688 2.47003L12.248 2.47003L12.2273 2.47003L12.2065 2.47003L12.1858 2.47003L12.1651 2.47003L12.1444 2.47003L12.1237 2.47003L12.103 2.47003L12.0823 2.47003L12.0617 2.47003L12.041 2.47003L12.0204 2.47003L11.9998 2.47003L11.9792 2.47003L11.9586 2.47003L11.938 2.47003L11.9174 2.47003L11.8969 2.47003L11.8764 2.47003L11.8558 2.47003L11.8353 2.47003L11.8149 2.47003L11.7944 2.47003L11.7739 2.47003L11.7535 2.47003L11.7331 2.47003L11.7127 2.47003L11.6923 2.47003L11.6719 2.47003L11.6516 2.47003L11.6313 2.47003L11.611 2.47003L11.5907 2.47003L11.5704 2.47003L11.5502 2.47003L11.53 2.47003L11.5097 2.47003L11.4896 2.47003L11.4694 2.47003L11.4493 2.47003L11.4291 2.47003L11.409 2.47003L11.389 2.47003L11.3689 2.47003L11.3489 2.47003L11.3289 2.47003L11.3089 2.47003L11.2889 2.47003L11.269 2.47003L11.2491 2.47003L11.2292 2.47003L11.2094 2.47003L11.1895 2.47003L11.1697 2.47003L11.1499 2.47003L11.1302 2.47003L11.1104 2.47003L11.0907 2.47003L11.0711 2.47003L11.0514 2.47003L11.0318 2.47003L11.0122 2.47003L10.9926 2.47003L10.9731 2.47003L10.9536 2.47003L10.9341 2.47003L10.9146 2.47003L10.8952 2.47003L10.8758 2.47003L10.8565 2.47003L10.8371 2.47003L10.8178 2.47003L10.7986 2.47003L10.7793 2.47003L10.7601 2.47003L10.741 2.47003L10.7218 2.47003L10.7027 2.47003L10.6836 2.47003L10.6646 2.47003L10.6456 2.47003L10.6266 2.47003L10.6077 2.47003L10.5888 2.47003L10.5699 2.47003L10.5511 2.47003L10.5322 2.47003L10.5135 2.47003L10.4948 2.47003L10.4761 2.47003L10.4574 2.47003L10.4388 2.47003L10.4202 2.47003L10.4016 2.47003L10.3831 2.47003L10.3647 2.47003L10.3462 2.47003L10.3278 2.47003L10.3095 2.47003L10.2911 2.47003L10.2729 2.47003L10.2546 2.47003L10.2364 2.47003L10.2183 2.47003L10.2001 2.47003L10.1821 2.47003L10.164 2.47003L10.146 2.47003L10.1281 2.47003L10.1102 2.47003L10.0923 2.47003L10.0745 2.47003L10.0567 2.47003L10.0389 2.47003L10.0212 2.47003L10.0036 2.47003L9.98597 2.47003L9.9684 2.47003L9.95087 2.47003L9.93339 2.47003L9.91596 2.47003L9.89857 2.47003L9.88123 2.47003L9.86393 2.47003L9.84668 2.47003L9.82947 2.47003L9.81232 2.47003L9.79521 2.47003L9.77814 2.47003L9.76113 2.47003L9.74416 2.47003L9.72724 2.47003L9.71037 2.47003L9.69355 2.47003L9.67677 2.47003L9.66005 2.47003L9.64337 2.47003L9.62675 2.47003L9.61018 2.47003L9.59365 2.47003L9.57718 2.47003L9.56076 2.47003L9.54439 2.47003L9.52807 2.47003L9.51181 2.47003L9.49559 2.47003L9.47943 2.47003L9.46332 2.47003L9.44727 2.47003L9.43127 2.47003L9.41532 2.47003L9.39942 2.47003L9.38358 2.47003L9.3678 2.47003L9.35207 2.47003L9.33639 2.47003L9.32078 2.47003L9.30521 2.47003L9.2897 2.47003L9.27425 2.47003L9.25886 2.47003L9.24352 2.47003L9.22824 2.47003L9.21302 2.47003L9.19785 2.47003L9.18275 2.47003L9.1677 2.47003L9.15271 2.47003L9.13778 2.47003L9.12291 2.47003L9.1081 2.47003L9.09334 2.47003L9.07865 2.47003L9.06402 2.47003L9.04945 2.47003L9.03494 2.47003L9.02049 2.47003L9.0061 2.47003L8.99178 2.47003L8.97752 2.47003L8.96332 2.47003L8.94918 2.47003L8.93511 2.47003L8.9211 2.47003L8.90715 2.47003L8.89326 2.47003L8.87945 2.47003L8.86569 2.47003L8.852 2.47003L8.83838 2.47003L8.82482 2.47003L8.81132 2.47003L8.79789 2.47003L8.78453 2.47003L8.77124 2.47003L8.75801 2.47003L8.74485 2.47003L8.73176 2.47003L8.71873 2.47003L8.70577 2.47003L8.69288 2.47003L8.68006 2.47003L8.66731 2.47003L8.65463 2.47003L8.64201 2.47003L8.62947 2.47003L8.61699 2.47003L8.60459 2.47003L8.59226 2.47003L8.58 2.47003L8.56781 2.47003L8.55569 2.47003L8.54364 2.47003L8.53166 2.47003L8.51976 2.47003L8.50793 2.47003L8.49617 2.47003L8.48449 2.47003L8.47288 2.47003L8.46134 2.47003L8.44988 2.47003C7.96676 2.47003 7.52059 2.7007 7.16429 2.94938C6.78943 3.21102 6.40867 3.56778 6.03757 3.97115C5.29324 4.7802 4.51334 5.85884 3.80857 6.97819C3.10182 8.10066 2.4547 9.28946 1.9812 10.3312C1.74461 10.8517 1.54669 11.3457 1.40644 11.7831C1.27125 12.2047 1.16988 12.6328 1.16988 13C1.16988 13.3646 1.26834 13.7908 1.40082 14.2126C1.5381 14.6497 1.7321 15.1435 1.9646 15.6642C2.42989 16.7061 3.06742 17.8956 3.76824 19.0191C4.46696 20.1393 5.24472 21.2199 5.99597 22.0309C6.3707 22.4354 6.75739 22.7932 7.14146 23.0553C7.51032 23.3071 7.96236 23.53 8.44988 23.53H8.46134H8.47288H8.48449H8.49617H8.50793H8.51976H8.53166H8.54364H8.55569H8.5678H8.58H8.59226H8.60459H8.61699H8.62947H8.64201H8.65463H8.66731H8.68006H8.69288H8.70577H8.71873H8.73175H8.74485H8.75801H8.77124H8.78453H8.79789H8.81132H8.82482H8.83837H8.852H8.86569H8.87944H8.89326H8.90715H8.92109H8.9351H8.94918H8.96332H8.97752H8.99178H9.0061H9.02049H9.03494H9.04945H9.06402H9.07865H9.09334H9.10809H9.12291H9.13778H9.15271H9.1677H9.18275H9.19785H9.21302H9.22824H9.24352H9.25886H9.27425H9.2897H9.30521H9.32077H9.33639H9.35207H9.3678H9.38358H9.39942H9.41532H9.43126H9.44727H9.46332H9.47943H9.49559H9.51181H9.52807H9.54439H9.56076H9.57718H9.59365H9.61018H9.62675H9.64337H9.66005H9.67677H9.69354H9.71037H9.72724H9.74416H9.76113H9.77814H9.7952H9.81232H9.82947H9.84668H9.86393H9.88123H9.89857H9.91596H9.93339H9.95087H9.9684H9.98596H10.0036H10.0212H10.0389H10.0567H10.0745H10.0923H10.1102H10.1281H10.146H10.164H10.1821H10.2001H10.2183H10.2364H10.2546H10.2729H10.2911H10.3095H10.3278H10.3462H10.3647H10.3831H10.4016H10.4202H10.4388H10.4574H10.4761H10.4948H10.5135H10.5322H10.5511H10.5699H10.5888H10.6077H10.6266H10.6456H10.6646H10.6836H10.7027H10.7218H10.741H10.7601H10.7793H10.7986H10.8178H10.8371H10.8565H10.8758H10.8952H10.9146H10.9341H10.9536H10.9731H10.9926H11.0122H11.0318H11.0514H11.0711H11.0907H11.1104H11.1302H11.1499H11.1697H11.1895H11.2094H11.2292H11.2491H11.269H11.2889H11.3089H11.3289H11.3489H11.3689H11.389H11.409H11.4291H11.4493H11.4694H11.4896H11.5097H11.53H11.5502H11.5704H11.5907H11.611H11.6313H11.6516H11.6719H11.6923H11.7127H11.7331H11.7535H11.7739H11.7944H11.8149H11.8353H11.8558H11.8763H11.8969H11.9174H11.938H11.9586H11.9792H11.9998H12.0204H12.041H12.0617H12.0823H12.103H12.1237H12.1444H12.1651H12.1858H12.2065H12.2273H12.248H12.2688H12.2896H12.3104H12.3312H12.352H12.3728H12.3936H12.4144H12.4353H12.4561H12.477H12.4978H12.5187H12.5396H12.5604H12.5813H12.6022H12.6231H12.644H12.6649H12.6858H12.7067H12.7277H12.7486H12.7695H12.7905H12.8114H12.8323H12.8533H12.8742H12.8951H12.9161H12.937H12.958H12.9789H12.9999H13.0208H13.0418H13.0627H13.0837H13.1046H13.1255H13.1465H13.1674H13.1884H13.2093H13.2302H13.2512H13.2721H13.293H13.3139H13.3348H13.3557H13.3766H13.3975H13.4184H13.4393H13.4602H13.4811H13.5019H13.5228H13.5437H13.5645H13.5853H13.6062H13.627H13.6478H13.6686H13.6894H13.7102H13.731H13.7517H13.7725H13.7932H13.8139H13.8347H13.8554H13.8761H13.8968H13.9174H13.9381H13.9587H13.9794H14H14.0206H14.0412H14.0618H14.0823H14.1029H14.1234H14.1439H14.1644H14.1849H14.2054H14.2258H14.2463H14.2667H14.2871H14.3074H14.3278H14.3481H14.3685H14.3888H14.4091H14.4293H14.4496H14.4698H14.49H14.5102H14.5303H14.5505H14.5706H14.5907H14.6108H14.6308H14.6509H14.6709H14.6908H14.7108H14.7307H14.7507H14.7705H14.7904H14.8102H14.83H14.8498H14.8696H14.8893H14.909H14.9287H14.9483H14.968H14.9876H15.0071H15.0267H15.0462H15.0657H15.0851H15.1045H15.1239H15.1433H15.1626H15.1819H15.2012H15.2204H15.2396H15.2588H15.2779H15.297H15.3161H15.3352H15.3542H15.3731H15.3921H15.411H15.4299H15.4487H15.4675H15.4863H15.505H15.5237H15.5424H15.561H15.5796H15.5981H15.6166H15.6351H15.6535H15.6719H15.6903H15.7086H15.7269H15.7451H15.7633H15.7815H15.7996H15.8177H15.8357H15.8537H15.8717H15.8896H15.9075H15.9253H15.9431H15.9608H15.9785H15.9962H16.0138H16.0314H16.0489H16.0664H16.0838H16.1012H16.1185H16.1358H16.1531H16.1703H16.1874H16.2045H16.2216H16.2386H16.2556H16.2725H16.2894H16.3062H16.323H16.3397H16.3564H16.373H16.3896H16.4061H16.4226H16.439H16.4554H16.4717H16.4879H16.5042H16.5203H16.5364H16.5525H16.5685H16.5844H16.6003H16.6162H16.632H16.6477H16.6634H16.679H16.6945H16.71H16.7255H16.7409H16.7562H16.7715H16.7867H16.8019H16.817H16.8321H16.847H16.862H16.8768H16.8917H16.9064H16.9211H16.9357H16.9503H16.9648H16.9793H16.9936H17.008H17.0222H17.0364H17.0506H17.0646H17.0787H17.0926H17.1065H17.1203H17.1341H17.1478H17.1614H17.1749H17.1884H17.2019H17.2152H17.2285H17.2417H17.2549H17.268H17.281H17.294H17.3069H17.3197H17.3324H17.3451H17.3577H17.3703H17.3828H17.3952H17.4075H17.4198H17.4319H17.4441H17.4561H17.4681H17.48H17.4918H17.5036H17.5153H17.5269H17.5384H17.5499C18.033 23.53 18.4792 23.2994 18.8355 23.0507C19.2103 22.789 19.5911 22.4323 19.9622 22.0289C20.7065 21.2199 21.4864 20.1412 22.1912 19.0219C22.8979 17.8994 23.5451 16.7106 24.0186 15.6689C24.2551 15.1484 24.4531 14.6544 24.5933 14.217C24.7285 13.7954 24.8299 13.3672 24.8299 13ZM4.41986 26.65C4.41986 26.4291 4.42246 26.2125 4.42761 26.0001H21.5721C21.5773 26.2125 21.5799 26.4291 21.5799 26.65V27.43H20.7999H5.19986H4.41986V26.65ZM10.5299 10.4C10.5299 9.03587 11.6357 7.93002 12.9999 7.93002C14.364 7.93002 15.4699 9.03587 15.4699 10.4C15.4699 11.7642 14.364 12.87 12.9999 12.87C11.6357 12.87 10.5299 11.7642 10.5299 10.4ZM12.9999 6.37002C10.7742 6.37002 8.96986 8.17431 8.96986 10.4C8.96986 12.6257 10.7742 14.43 12.9999 14.43C15.2256 14.43 17.0299 12.6257 17.0299 10.4C17.0299 8.17431 15.2256 6.37002 12.9999 6.37002Z" fill="#09101C"/>
</g>
<defs>
<clipPath id="clip0_205_72">
<rect width="26" height="26" fill="white"/>
</clipPath>
</defs>
</svg>
