<svg width="26" height="26" viewBox="0 0 26 26" fill="none" xmlns="http://www.w3.org/2000/svg">
<path d="M7.15001 9.75003C7.15001 6.51916 9.76915 3.90002 13 3.90002V3.90002C16.2309 3.90002 18.85 6.51916 18.85 9.75003V10.725C18.85 11.7798 19.1921 12.8062 19.825 13.65L20.41 14.43C20.6632 14.7676 20.8 15.1781 20.8 15.6V15.6C20.8 16.677 19.927 17.55 18.85 17.55H7.15001C6.07306 17.55 5.20001 16.677 5.20001 15.6V15.6C5.20001 15.1781 5.33686 14.7676 5.59001 14.43L6.17501 13.65C6.8079 12.8062 7.15001 11.7798 7.15001 10.725V9.75003Z" stroke="#09101C" stroke-width="1.69" stroke-linejoin="round"/>
<path d="M10.242 20.9577C10.6041 21.3198 11.0341 21.6071 11.5072 21.8031C11.9804 21.9991 12.4875 22.1 12.9997 22.1C13.5119 22.1 14.019 21.9991 14.4922 21.8031C14.9653 21.6071 15.3953 21.3198 15.7574 20.9577" stroke="#09101C" stroke-width="1.69" stroke-linejoin="round"/>
</svg>
