<svg width="26" height="26" viewBox="0 0 26 26" fill="none" xmlns="http://www.w3.org/2000/svg">
<path fill-rule="evenodd" clip-rule="evenodd" d="M19.5 9.75C21.2949 9.75 22.75 8.29493 22.75 6.5C22.75 4.70507 21.2949 3.25 19.5 3.25C17.7051 3.25 16.25 4.70507 16.25 6.5C16.25 8.29493 17.7051 9.75 19.5 9.75ZM12.9998 4.355L12.9686 4.355C11.7836 4.355 10.8511 4.35499 10.0971 4.40644C9.32887 4.45885 8.68441 4.56748 8.08648 4.81515C6.60529 5.42868 5.42848 6.60548 4.81495 8.08668C4.56728 8.68461 4.45865 9.32907 4.40624 10.0973C4.35479 10.8513 4.3548 11.7838 4.3548 12.9688L4.3548 13L4.3548 13.0312C4.3548 14.2162 4.35479 15.1487 4.40624 15.9027C4.45865 16.6709 4.56728 17.3154 4.81495 17.9133C5.42848 19.3945 6.60529 20.5713 8.08648 21.1849C8.68441 21.4325 9.32887 21.5411 10.0971 21.5936C10.8511 21.645 11.7835 21.645 12.9685 21.645H12.9686H12.9998H13.031H13.0311C14.2161 21.645 15.1485 21.645 15.9025 21.5936C16.6707 21.5411 17.3152 21.4325 17.9131 21.1849C19.3943 20.5713 20.5711 19.3945 21.1847 17.9133C21.4323 17.3154 21.541 16.6709 21.5934 15.9027C21.6448 15.1487 21.6448 14.2163 21.6448 13.0313V13.0312V13V12.4429H19.9548V13C19.9548 14.223 19.9543 15.0979 19.9073 15.7877C19.8607 16.4698 19.7715 16.9089 19.6233 17.2666C19.1813 18.3337 18.3335 19.1815 17.2664 19.6235C16.9087 19.7717 16.4696 19.8609 15.7875 19.9075C15.0977 19.9545 14.2228 19.955 12.9998 19.955C11.7768 19.955 10.9019 19.9545 10.2121 19.9075C9.52996 19.8609 9.0909 19.7717 8.73321 19.6235C7.66612 19.1815 6.81831 18.3337 6.37631 17.2666C6.22815 16.9089 6.13886 16.4698 6.09232 15.7877C6.04526 15.0979 6.0448 14.223 6.0448 13C6.0448 11.777 6.04526 10.9021 6.09232 10.2123C6.13886 9.53016 6.22815 9.09109 6.37631 8.73341C6.81831 7.66632 7.66612 6.81851 8.73321 6.37651C9.0909 6.22835 9.52996 6.13906 10.2121 6.09252C10.9019 6.04546 11.7768 6.045 12.9998 6.045H13.5569V4.355H12.9998Z" fill="#09101C"/>
</svg>
