<svg width="26" height="26" viewBox="0 0 26 26" fill="none" xmlns="http://www.w3.org/2000/svg">
<path fill-rule="evenodd" clip-rule="evenodd" d="M19.5001 9.0998C21.654 9.0998 23.4001 7.35371 23.4001 5.1998C23.4001 3.04589 21.654 1.2998 19.5001 1.2998C17.3462 1.2998 15.6001 3.04589 15.6001 5.1998C15.6001 7.35371 17.3462 9.0998 19.5001 9.0998ZM23.53 12.9997C23.53 11.7067 23.5001 10.5594 23.4157 9.54618C22.9724 9.94581 22.4676 10.2786 21.9173 10.5286C21.9545 11.2647 21.97 12.0848 21.97 12.9997C21.97 15.1044 21.8879 16.7071 21.6491 17.9396C21.4118 19.1641 21.0328 19.9514 20.4922 20.4919C19.9516 21.0325 19.1644 21.4115 17.9399 21.6488C16.7074 21.8877 15.1047 21.9697 13 21.9697C10.8953 21.9697 9.29257 21.8877 8.06009 21.6488C6.83556 21.4115 6.04834 21.0325 5.50776 20.4919C4.96719 19.9514 4.58819 19.1641 4.35088 17.9396C4.11203 16.7071 4.02997 15.1044 4.02997 12.9997C4.02997 10.895 4.11203 9.29232 4.35088 8.05985C4.58819 6.83531 4.96719 6.0481 5.50776 5.50752C6.04834 4.96694 6.83556 4.58795 8.06009 4.35063C9.29257 4.11178 10.8953 4.02973 13 4.02973C13.2632 4.02973 13.5186 4.03101 13.7664 4.03372C13.8774 3.48471 14.0653 2.96358 14.3184 2.48205C13.8968 2.47347 13.4575 2.46973 13 2.46973C10.8797 2.46973 9.15113 2.55017 7.76329 2.81913C6.36751 3.08963 5.24535 3.56376 4.40468 4.40443C3.56401 5.2451 3.08987 6.36726 2.81937 7.76304C2.55041 9.15088 2.46997 10.8794 2.46997 12.9997C2.46997 15.12 2.55041 16.8486 2.81937 18.2364C3.08987 19.6322 3.56401 20.7543 4.40468 21.595C5.24535 22.4357 6.36751 22.9098 7.76329 23.1803C9.15113 23.4493 10.8797 23.5297 13 23.5297C15.1203 23.5297 16.8488 23.4493 18.2367 23.1803C19.6324 22.9098 20.7546 22.4357 21.5953 21.595C22.4359 20.7543 22.9101 19.6322 23.1806 18.2364C23.4495 16.8486 23.53 15.12 23.53 12.9997Z" fill="#09101C"/>
</svg>
