<svg width="26" height="26" viewBox="0 0 26 26" fill="none" xmlns="http://www.w3.org/2000/svg">
<path fill-rule="evenodd" clip-rule="evenodd" d="M13.1577 3.37444L11.7832 2L10.4598 3.32347L11.8342 4.69791L5.01329 11.5188L4.14793 10.6535L2.82446 11.9769L3.68983 12.8423L4.35157 13.504L7.76208 16.9146L2.31554 22.3611L3.63901 23.6846L9.08555 18.238L12.496 21.6485L13.1577 22.3102L14.0231 23.1755L15.3465 21.8521L14.4812 20.9867L21.3021 14.1658L22.6764 15.5401L23.9999 14.2167L22.6256 12.8424L22.6257 12.8423L21.9639 12.1805L13.8195 4.03611L13.1577 3.37437L13.1577 3.37444ZM13.1577 6.02138L19.9786 12.8424L13.1577 19.6633L6.33677 12.8423L13.1577 6.02138Z" />
</svg>
