<svg width="26" height="26" viewBox="0 0 26 26" fill="none" xmlns="http://www.w3.org/2000/svg">
<path fill-rule="evenodd" clip-rule="evenodd" d="M8.35199 6.69899C8.48595 6.25246 9.03255 6.08797 9.39069 6.38642L12.3758 8.87403L13.0598 9.44404L13.6894 8.81444L16.0094 6.49452C16.3393 6.16455 16.8992 6.27947 17.0725 6.71273L18.8724 11.2125H6.99793L8.35199 6.69899ZM4.96207 11.2125L6.48422 6.13866C7.02006 4.35253 9.20649 3.69459 10.6391 4.88839L12.9402 6.80599L14.6305 5.11566C15.9504 3.79579 18.1898 4.25544 18.883 5.98852L20.9726 11.2125H22.75V13.1625H3.25V11.2125H4.96207ZM8.125 17.225C7.09292 17.225 6.25625 18.0617 6.25625 19.0938C6.25625 20.1258 7.09292 20.9625 8.125 20.9625C9.15708 20.9625 9.99375 20.1258 9.99375 19.0938C9.99375 18.0617 9.15708 17.225 8.125 17.225ZM4.30625 19.0938C4.30625 16.9847 6.01596 15.275 8.125 15.275C9.82863 15.275 11.2717 16.3906 11.7635 17.9311C12.5762 17.739 13.4238 17.739 14.2365 17.9311C14.7283 16.3906 16.1714 15.275 17.875 15.275C19.984 15.275 21.6938 16.9847 21.6938 19.0938C21.6938 21.2028 19.984 22.9125 17.875 22.9125C16.0553 22.9125 14.5329 21.6397 14.1494 19.9358C13.4067 19.6707 12.5933 19.6707 11.8506 19.9358C11.4672 21.6397 9.94472 22.9125 8.125 22.9125C6.01596 22.9125 4.30625 21.2028 4.30625 19.0938ZM16.0063 19.0938C16.0063 18.0617 16.8429 17.225 17.875 17.225C18.9071 17.225 19.7437 18.0617 19.7437 19.0938C19.7437 20.1258 18.9071 20.9625 17.875 20.9625C16.8429 20.9625 16.0063 20.1258 16.0063 19.0938Z" />
</svg>
