<svg width="26" height="26" viewBox="0 0 26 26" fill="none" xmlns="http://www.w3.org/2000/svg">
<path fill-rule="evenodd" clip-rule="evenodd" d="M12.5 4.84459C7.71975 4.84459 3.84459 8.71975 3.84459 13.5C3.84459 18.2802 7.71975 22.1554 12.5 22.1554C17.2802 22.1554 21.1554 18.2802 21.1554 13.5C21.1554 8.71975 17.2802 4.84459 12.5 4.84459ZM2 13.5C2 7.70101 6.70101 3 12.5 3C18.299 3 23 7.70101 23 13.5C23 19.299 18.299 24 12.5 24C6.70101 24 2 19.299 2 13.5Z" />
<path fill-rule="evenodd" clip-rule="evenodd" d="M11.135 17.7998C9.36336 17.7998 7.9272 19.2359 7.9272 21.0075H6.1527C6.1527 18.2559 8.38333 16.0253 11.135 16.0253H13.865C16.6166 16.0253 18.8472 18.2559 18.8472 21.0075H17.0727C17.0727 19.2359 15.6365 17.7998 13.865 17.7998H11.135Z" />
<path fill-rule="evenodd" clip-rule="evenodd" d="M12.4999 8.92721C11.4822 8.92721 10.6572 9.75224 10.6572 10.77C10.6572 11.7877 11.4822 12.6127 12.4999 12.6127C13.5177 12.6127 14.3427 11.7877 14.3427 10.77C14.3427 9.75224 13.5177 8.92721 12.4999 8.92721ZM8.88268 10.77C8.88268 8.77221 10.5022 7.15271 12.4999 7.15271C14.4977 7.15271 16.1172 8.77221 16.1172 10.77C16.1172 12.7677 14.4977 14.3872 12.4999 14.3872C10.5022 14.3872 8.88268 12.7677 8.88268 10.77Z" />
</svg>
