<svg width="26" height="26" viewBox="0 0 26 26" fill="none" xmlns="http://www.w3.org/2000/svg">
<path fill-rule="evenodd" clip-rule="evenodd" d="M6.5993 3.705C6.6095 3.705 6.61973 3.705 6.62999 3.705L9.00068 3.705C9.33841 3.70498 9.64106 3.70497 9.89264 3.72552C10.1617 3.7475 10.4458 3.79714 10.7238 3.9388C11.1274 4.14444 11.4555 4.47259 11.6612 4.87619C11.8029 5.15421 11.8525 5.43832 11.8745 5.70736C11.895 5.95893 11.895 6.26159 11.895 6.59932V9.00069C11.895 9.33842 11.895 9.64108 11.8745 9.89265C11.8525 10.1617 11.8029 10.4458 11.6612 10.7238C11.4555 11.1274 11.1274 11.4556 10.7238 11.6612C10.4458 11.8029 10.1617 11.8525 9.89264 11.8745C9.64106 11.895 9.3384 11.895 9.00068 11.895H6.5993C6.26157 11.895 5.95891 11.895 5.70734 11.8745C5.43831 11.8525 5.1542 11.8029 4.87618 11.6612C4.47257 11.4556 4.14443 11.1274 3.93878 10.7238C3.79712 10.4458 3.74749 10.1617 3.72551 9.89265C3.70495 9.64108 3.70497 9.33842 3.70499 9.00069L3.70499 6.63C3.70499 6.61974 3.70499 6.60951 3.70499 6.59931C3.70497 6.26159 3.70495 5.95893 3.72551 5.70736C3.74749 5.43832 3.79712 5.15421 3.93878 4.87619C4.14443 4.47259 4.47257 4.14444 4.87618 3.9388C5.1542 3.79714 5.43831 3.7475 5.70734 3.72552C5.95891 3.70497 6.26157 3.70498 6.5993 3.705ZM5.64342 5.4446C5.55781 5.48822 5.4882 5.55782 5.44458 5.64344C5.44428 5.64398 5.42325 5.68152 5.40989 5.84498C5.39565 6.01936 5.39499 6.25203 5.39499 6.63V8.97C5.39499 9.34798 5.39565 9.58064 5.40989 9.75503C5.42325 9.91846 5.44427 9.95601 5.44458 9.95656C5.4882 10.0422 5.55781 10.1118 5.64342 10.1554C5.64398 10.1557 5.68154 10.1767 5.84496 10.1901C6.01935 10.2043 6.25201 10.205 6.62999 10.205H8.96999C9.34797 10.205 9.58063 10.2043 9.75502 10.1901C9.91954 10.1767 9.95649 10.1554 9.95655 10.1554C10.0422 10.1118 10.1118 10.0422 10.1554 9.95657C10.1554 9.9565 10.1766 9.91955 10.1901 9.75503C10.2043 9.58064 10.205 9.34798 10.205 8.97V6.63C10.205 6.25203 10.2043 6.01936 10.1901 5.84498C10.1767 5.68155 10.1557 5.644 10.1554 5.64344C10.1118 5.55783 10.0422 5.48822 9.95655 5.4446C9.956 5.44428 9.91845 5.42326 9.75502 5.40991C9.58063 5.39566 9.34797 5.395 8.96999 5.395H6.62999C6.25201 5.395 6.01935 5.39566 5.84496 5.40991C5.68151 5.42326 5.64397 5.44429 5.64342 5.4446Z" />
<path fill-rule="evenodd" clip-rule="evenodd" d="M17.5371 13.7735C17.9679 13.6335 18.432 13.6335 18.8628 13.7735C19.1596 13.8699 19.3956 14.0357 19.6013 14.2104C19.7938 14.3737 20.0078 14.5877 20.2466 14.8266L21.5734 16.1534C21.8122 16.3922 22.0262 16.6062 22.1896 16.7986C22.3643 17.0044 22.5301 17.2404 22.6265 17.5372C22.7665 17.968 22.7665 18.432 22.6265 18.8628C22.5301 19.1596 22.3643 19.3956 22.1896 19.6014C22.0263 19.7938 21.8122 20.0078 21.5734 20.2466L20.2466 21.5734C20.0078 21.8122 19.7938 22.0263 19.6013 22.1896C19.3956 22.3643 19.1596 22.5301 18.8628 22.6265C18.432 22.7665 17.9679 22.7665 17.5371 22.6265C17.2404 22.5301 17.0044 22.3643 16.7986 22.1896C16.6062 22.0263 16.3922 21.8122 16.1534 21.5734L14.8265 20.2466C14.5877 20.0078 14.3737 19.7938 14.2104 19.6014C14.0357 19.3956 13.8699 19.1596 13.7734 18.8628C13.6335 18.432 13.6335 17.968 13.7734 17.5372C13.8699 17.2404 14.0357 17.0044 14.2104 16.7986C14.3737 16.6062 14.5877 16.3922 14.8266 16.1534C14.8338 16.1462 14.841 16.139 14.8483 16.1317L16.1317 14.8483C16.1389 14.841 16.1462 14.8338 16.1534 14.8266C16.3922 14.5877 16.6062 14.3737 16.7986 14.2104C17.0044 14.0357 17.2404 13.8699 17.5371 13.7735ZM18.3406 15.3807C18.2492 15.351 18.1508 15.351 18.0594 15.3807C18.0588 15.3809 18.0174 15.3926 17.8923 15.4987C17.759 15.612 17.594 15.776 17.3267 16.0433L16.0433 17.3267C15.776 17.594 15.6119 17.759 15.4987 17.8924C15.3926 18.0174 15.3809 18.0588 15.3807 18.0594C15.351 18.1508 15.351 18.2492 15.3807 18.3406C15.3809 18.3412 15.3926 18.3826 15.4987 18.5076C15.6119 18.641 15.776 18.806 16.0433 19.0733L17.3267 20.3567C17.594 20.624 17.759 20.788 17.8923 20.9013C18.0182 21.0081 18.0593 21.0192 18.0594 21.0192C18.1508 21.0489 18.2492 21.0489 18.3406 21.0192C18.3407 21.0192 18.3818 21.0081 18.5076 20.9013C18.641 20.788 18.806 20.624 19.0733 20.3567L20.3567 19.0733C20.624 18.806 20.788 18.641 20.9013 18.5076C21.0074 18.3826 21.0191 18.3412 21.0192 18.3406C21.0489 18.2492 21.0489 18.1508 21.0192 18.0594C21.0192 18.0593 21.0081 18.0182 20.9013 17.8924C20.788 17.759 20.624 17.594 20.3567 17.3267L19.0733 16.0433C18.806 15.776 18.641 15.612 18.5076 15.4987C18.3826 15.3926 18.3412 15.3809 18.3406 15.3807Z" />
<path fill-rule="evenodd" clip-rule="evenodd" d="M16.9993 3.705C17.0095 3.705 17.0198 3.705 17.03 3.705L19.4007 3.705C19.7384 3.70498 20.0411 3.70497 20.2927 3.72552C20.5617 3.7475 20.8458 3.79714 21.1238 3.9388C21.5274 4.14444 21.8556 4.47259 22.0612 4.87619C22.2029 5.15421 22.2525 5.43832 22.2745 5.70736C22.2951 5.95893 22.295 6.26159 22.295 6.59932V9.00069C22.295 9.33842 22.2951 9.64108 22.2745 9.89265C22.2525 10.1617 22.2029 10.4458 22.0612 10.7238C21.8556 11.1274 21.5274 11.4556 21.1238 11.6612C20.8458 11.8029 20.5617 11.8525 20.2927 11.8745C20.0411 11.895 19.7384 11.895 19.4007 11.895H16.9993C16.6616 11.895 16.359 11.895 16.1074 11.8745C15.8383 11.8525 15.5542 11.8029 15.2762 11.6612C14.8726 11.4556 14.5445 11.1274 14.3388 10.7238C14.1972 10.4458 14.1475 10.1617 14.1255 9.89265C14.105 9.64108 14.105 9.33842 14.105 9.00069L14.105 6.63C14.105 6.61974 14.105 6.60951 14.105 6.59931C14.105 6.26159 14.105 5.95893 14.1255 5.70736C14.1475 5.43832 14.1972 5.15421 14.3388 4.87619C14.5445 4.47259 14.8726 4.14444 15.2762 3.9388C15.5542 3.79714 15.8383 3.7475 16.1074 3.72552C16.359 3.70497 16.6616 3.70498 16.9993 3.705ZM16.0435 5.4446C15.9578 5.48822 15.8882 5.55782 15.8446 5.64344C15.8443 5.64398 15.8233 5.68152 15.8099 5.84498C15.7957 6.01936 15.795 6.25203 15.795 6.63V8.97C15.795 9.34798 15.7957 9.58064 15.8099 9.75503C15.8233 9.91846 15.8443 9.95601 15.8446 9.95656C15.8882 10.0422 15.9578 10.1118 16.0435 10.1554C16.044 10.1557 16.0816 10.1767 16.245 10.1901C16.4194 10.2043 16.6521 10.205 17.03 10.205H19.37C19.748 10.205 19.9807 10.2043 20.1551 10.1901C20.3196 10.1767 20.3565 10.1554 20.3566 10.1554C20.4422 10.1118 20.5118 10.0422 20.5554 9.95657C20.5555 9.9565 20.5767 9.91955 20.5901 9.75503C20.6044 9.58064 20.605 9.34798 20.605 8.97V6.63C20.605 6.25203 20.6044 6.01936 20.5901 5.84498C20.5768 5.68155 20.5558 5.644 20.5554 5.64344C20.5118 5.55783 20.4422 5.48822 20.3566 5.4446C20.356 5.44428 20.3185 5.42326 20.1551 5.40991C19.9807 5.39566 19.748 5.395 19.37 5.395H17.03C16.6521 5.395 16.4194 5.39566 16.245 5.40991C16.0815 5.42326 16.044 5.44429 16.0435 5.4446Z" />
<path d="M17.0302 7.67001C17.0302 7.30597 17.0302 7.12395 17.101 6.98491C17.1633 6.86261 17.2628 6.76317 17.3851 6.70085C17.5241 6.63 17.7061 6.63 18.0702 6.63H18.3302C18.6942 6.63 18.8762 6.63 19.0153 6.70085C19.1376 6.76317 19.237 6.86261 19.2993 6.98491C19.3702 7.12395 19.3702 7.30597 19.3702 7.67V7.93C19.3702 8.29404 19.3702 8.47606 19.2993 8.6151C19.237 8.7374 19.1376 8.83684 19.0153 8.89916C18.8762 8.97 18.6942 8.97 18.3302 8.97H18.0702C17.7061 8.97 17.5241 8.97 17.3851 8.89916C17.2628 8.83684 17.1633 8.7374 17.101 8.6151C17.0302 8.47606 17.0302 8.29404 17.0302 7.93V7.67001Z" />
<path fill-rule="evenodd" clip-rule="evenodd" d="M3.70502 18.2C3.70502 15.9384 5.53841 14.105 7.80002 14.105C10.0616 14.105 11.895 15.9384 11.895 18.2C11.895 20.4616 10.0616 22.295 7.80002 22.295C5.53841 22.295 3.70502 20.4616 3.70502 18.2ZM7.80002 15.795C6.47177 15.795 5.39502 16.8718 5.39502 18.2C5.39502 19.5282 6.47177 20.605 7.80002 20.605C9.12826 20.605 10.205 19.5282 10.205 18.2C10.205 16.8718 9.12826 15.795 7.80002 15.795Z" />
<path d="M6.63019 18.2C6.63019 17.5538 7.15401 17.03 7.80019 17.03V17.03C8.44636 17.03 8.97019 17.5538 8.97019 18.2V18.2C8.97019 18.8462 8.44636 19.37 7.80019 19.37V19.37C7.15401 19.37 6.63019 18.8462 6.63019 18.2V18.2Z" />
</svg>
