<svg width="26" height="26" viewBox="0 0 26 26" fill="none" xmlns="http://www.w3.org/2000/svg">
<path fill-rule="evenodd" clip-rule="evenodd" d="M6.5993 3.705C6.6095 3.705 6.61973 3.705 6.62999 3.705L9.00068 3.705C9.33841 3.70498 9.64107 3.70496 9.89264 3.72552C10.1617 3.7475 10.4458 3.79713 10.7238 3.93879C11.1274 4.14444 11.4556 4.47258 11.6612 4.87619C11.8029 5.15421 11.8525 5.43832 11.8745 5.70735C11.895 5.95893 11.895 6.26159 11.895 6.59931V9.00069C11.895 9.33842 11.895 9.64107 11.8745 9.89265C11.8525 10.1617 11.8029 10.4458 11.6612 10.7238C11.4556 11.1274 11.1274 11.4556 10.7238 11.6612C10.4458 11.8029 10.1617 11.8525 9.89264 11.8745C9.64107 11.895 9.33841 11.895 9.00068 11.895H6.59931C6.26158 11.895 5.95892 11.895 5.70735 11.8745C5.43831 11.8525 5.1542 11.8029 4.87618 11.6612C4.47258 11.4556 4.14443 11.1274 3.93879 10.7238C3.79713 10.4458 3.74749 10.1617 3.72551 9.89265C3.70496 9.64108 3.70497 9.33842 3.70499 9.00069L3.70499 6.63C3.70499 6.61974 3.70499 6.60951 3.70499 6.59931C3.70497 6.26158 3.70496 5.95892 3.72551 5.70735C3.74749 5.43832 3.79713 5.15421 3.93879 4.87619C4.14443 4.47258 4.47258 4.14444 4.87618 3.93879C5.1542 3.79713 5.43831 3.7475 5.70735 3.72552C5.95892 3.70496 6.26158 3.70498 6.5993 3.705ZM5.64343 5.44459C5.55781 5.48821 5.48821 5.55782 5.44459 5.64343C5.44428 5.64398 5.42325 5.68152 5.4099 5.84497C5.39565 6.01936 5.39499 6.25202 5.39499 6.63V8.97C5.39499 9.34798 5.39565 9.58064 5.4099 9.75503C5.42325 9.91846 5.44427 9.956 5.44458 9.95656C5.48821 10.0422 5.55781 10.1118 5.64343 10.1554C5.64399 10.1557 5.68154 10.1767 5.84497 10.1901C6.01935 10.2043 6.25202 10.205 6.62999 10.205H8.96999C9.34797 10.205 9.58064 10.2043 9.75502 10.1901C9.91954 10.1767 9.95649 10.1554 9.95656 10.1554C10.0422 10.1118 10.1118 10.0422 10.1554 9.95657C10.1554 9.9565 10.1766 9.91955 10.1901 9.75503C10.2043 9.58064 10.205 9.34798 10.205 8.97V6.63C10.205 6.25202 10.2043 6.01936 10.1901 5.84497C10.1767 5.68155 10.1557 5.644 10.1554 5.64344C10.1118 5.55783 10.0422 5.48821 9.95656 5.44459C9.956 5.44428 9.91845 5.42326 9.75502 5.40991C9.58064 5.39566 9.34797 5.395 8.96999 5.395H6.62999C6.25202 5.395 6.01935 5.39566 5.84497 5.40991C5.68151 5.42326 5.64397 5.44429 5.64343 5.44459Z" />
<path fill-rule="evenodd" clip-rule="evenodd" d="M17.5371 13.7735C17.968 13.6335 18.432 13.6335 18.8628 13.7735C19.1596 13.8699 19.3956 14.0357 19.6014 14.2104C19.7938 14.3737 20.0078 14.5877 20.2466 14.8266L21.5734 16.1534C21.8122 16.3922 22.0263 16.6062 22.1896 16.7986C22.3643 17.0044 22.5301 17.2404 22.6265 17.5372C22.7665 17.968 22.7665 18.432 22.6265 18.8628C22.5301 19.1596 22.3643 19.3956 22.1896 19.6014C22.0263 19.7938 21.8122 20.0078 21.5734 20.2466L20.2466 21.5734C20.0078 21.8122 19.7938 22.0263 19.6014 22.1896C19.3956 22.3643 19.1596 22.5301 18.8628 22.6265C18.432 22.7665 17.968 22.7665 17.5371 22.6265C17.2404 22.5301 17.0044 22.3643 16.7986 22.1896C16.6062 22.0263 16.3922 21.8122 16.1534 21.5734L14.8266 20.2466C14.5877 20.0078 14.3737 19.7938 14.2104 19.6014C14.0357 19.3956 13.8699 19.1596 13.7735 18.8628C13.6335 18.432 13.6335 17.968 13.7735 17.5372C13.8699 17.2404 14.0357 17.0044 14.2104 16.7986C14.3737 16.6062 14.5877 16.3922 14.8266 16.1534C14.8338 16.1462 14.841 16.139 14.8483 16.1317L16.1317 14.8483C16.139 14.841 16.1462 14.8338 16.1534 14.8266C16.3922 14.5877 16.6062 14.3737 16.7986 14.2104C17.0044 14.0357 17.2404 13.8699 17.5371 13.7735ZM18.3406 15.3807C18.2492 15.3511 18.1508 15.3511 18.0594 15.3807C18.0588 15.3809 18.0174 15.3926 17.8924 15.4987C17.759 15.612 17.594 15.776 17.3267 16.0433L16.0433 17.3267C15.776 17.594 15.612 17.759 15.4987 17.8924C15.3926 18.0174 15.3809 18.0588 15.3807 18.0594C15.351 18.1508 15.351 18.2492 15.3807 18.3406C15.3809 18.3412 15.3926 18.3826 15.4987 18.5076C15.612 18.641 15.776 18.806 16.0433 19.0733L17.3267 20.3567C17.594 20.624 17.759 20.788 17.8924 20.9013C18.0182 21.0081 18.0593 21.0192 18.0594 21.0192C18.1508 21.0489 18.2492 21.0489 18.3406 21.0192C18.3407 21.0192 18.3818 21.0081 18.5076 20.9013C18.641 20.788 18.806 20.624 19.0733 20.3567L20.3567 19.0733C20.624 18.806 20.788 18.641 20.9013 18.5076C21.0074 18.3826 21.0191 18.3412 21.0192 18.3406C21.0489 18.2492 21.0489 18.1508 21.0192 18.0594C21.0192 18.0593 21.0081 18.0182 20.9013 17.8924C20.788 17.759 20.624 17.594 20.3567 17.3267L19.0733 16.0433C18.806 15.776 18.641 15.612 18.5076 15.4987C18.3826 15.3926 18.3412 15.3809 18.3406 15.3807Z" />
<path fill-rule="evenodd" clip-rule="evenodd" d="M16.9993 3.705C17.0095 3.705 17.0198 3.705 17.03 3.705L19.4007 3.705C19.7384 3.70498 20.0411 3.70496 20.2927 3.72551C20.5617 3.7475 20.8458 3.79713 21.1238 3.93879C21.5274 4.14444 21.8556 4.47258 22.0612 4.87619C22.2029 5.1542 22.2525 5.43832 22.2745 5.70735C22.2951 5.95892 22.2951 6.26158 22.295 6.59931V9.00068C22.2951 9.33841 22.2951 9.64107 22.2745 9.89264C22.2525 10.1617 22.2029 10.4458 22.0612 10.7238C21.8556 11.1274 21.5274 11.4556 21.1238 11.6612C20.8458 11.8029 20.5617 11.8525 20.2927 11.8745C20.0411 11.895 19.7384 11.895 19.4007 11.895H16.9993C16.6616 11.895 16.359 11.895 16.1074 11.8745C15.8384 11.8525 15.5542 11.8029 15.2762 11.6612C14.8726 11.4556 14.5445 11.1274 14.3388 10.7238C14.1972 10.4458 14.1475 10.1617 14.1255 9.89264C14.105 9.64107 14.105 9.33841 14.105 9.00069L14.105 6.63C14.105 6.61973 14.105 6.6095 14.105 6.59931C14.105 6.26158 14.105 5.95892 14.1255 5.70735C14.1475 5.43832 14.1972 5.1542 14.3388 4.87619C14.5445 4.47258 14.8726 4.14444 15.2762 3.93879C15.5542 3.79713 15.8384 3.7475 16.1074 3.72551C16.359 3.70496 16.6616 3.70498 16.9993 3.705ZM16.0435 5.44459C15.9579 5.48821 15.8882 5.55782 15.8446 5.64343C15.8443 5.64398 15.8233 5.68151 15.8099 5.84497C15.7957 6.01936 15.795 6.25202 15.795 6.63V8.97C15.795 9.34797 15.7957 9.58064 15.8099 9.75502C15.8233 9.91846 15.8443 9.956 15.8446 9.95656C15.8882 10.0422 15.9579 10.1118 16.0435 10.1554C16.044 10.1557 16.0816 10.1767 16.245 10.1901C16.4194 10.2043 16.6521 10.205 17.03 10.205H19.37C19.748 10.205 19.9807 10.2043 20.1551 10.1901C20.3196 10.1766 20.3565 10.1554 20.3566 10.1554C20.4422 10.1118 20.5118 10.0422 20.5554 9.95656C20.5555 9.95649 20.5767 9.91955 20.5901 9.75502C20.6044 9.58064 20.605 9.34797 20.605 8.97V6.63C20.605 6.25202 20.6044 6.01936 20.5901 5.84497C20.5768 5.68155 20.5558 5.644 20.5554 5.64344C20.5118 5.55782 20.4422 5.48821 20.3566 5.44459C20.356 5.44428 20.3185 5.42325 20.1551 5.4099C19.9807 5.39565 19.748 5.395 19.37 5.395H17.03C16.6521 5.395 16.4194 5.39565 16.245 5.4099C16.0815 5.42326 16.044 5.44428 16.0435 5.44459Z" />
<path d="M17.0302 7.66999C17.0302 7.30596 17.0302 7.12394 17.101 6.9849C17.1634 6.8626 17.2628 6.76316 17.3851 6.70084C17.5241 6.62999 17.7062 6.62999 18.0702 6.62999H18.3302C18.6942 6.62999 18.8762 6.62999 19.0153 6.70084C19.1376 6.76316 19.237 6.8626 19.2993 6.9849C19.3702 7.12394 19.3702 7.30596 19.3702 7.66999V7.92999C19.3702 8.29403 19.3702 8.47605 19.2993 8.61509C19.237 8.73739 19.1376 8.83683 19.0153 8.89915C18.8762 8.96999 18.6942 8.96999 18.3302 8.96999H18.0702C17.7062 8.96999 17.5241 8.96999 17.3851 8.89915C17.2628 8.83683 17.1634 8.73739 17.101 8.61509C17.0302 8.47605 17.0302 8.29403 17.0302 7.92999V7.66999Z" />
<path fill-rule="evenodd" clip-rule="evenodd" d="M3.70503 18.2C3.70503 15.9384 5.53842 14.105 7.80003 14.105C10.0616 14.105 11.895 15.9384 11.895 18.2C11.895 20.4616 10.0616 22.295 7.80003 22.295C5.53842 22.295 3.70503 20.4616 3.70503 18.2ZM7.80003 15.795C6.47178 15.795 5.39503 16.8717 5.39503 18.2C5.39503 19.5282 6.47178 20.605 7.80003 20.605C9.12827 20.605 10.205 19.5282 10.205 18.2C10.205 16.8717 9.12827 15.795 7.80003 15.795Z"/>
<path d="M6.63019 18.2C6.63019 17.5538 7.15401 17.03 7.80019 17.03C8.44636 17.03 8.97019 17.5538 8.97019 18.2C8.97019 18.8462 8.44636 19.37 7.80019 19.37C7.15401 19.37 6.63019 18.8462 6.63019 18.2Z" />
</svg>
