<svg width="26" height="26" viewBox="0 0 26 26" fill="none" xmlns="http://www.w3.org/2000/svg">
<g clip-path="url(#clip0_133_25475)">
<path fill-rule="evenodd" clip-rule="evenodd" d="M13 1.89998C6.86964 1.89998 1.9 6.86961 1.9 13C1.9 19.1303 6.86964 24.1 13 24.1C19.1304 24.1 24.1 19.1303 24.1 13C24.1 6.86961 19.1304 1.89998 13 1.89998ZM0.0999985 13C0.0999985 5.8755 5.87552 0.0999756 13 0.0999756C20.1245 0.0999756 25.9 5.8755 25.9 13C25.9 20.1244 20.1245 25.9 13 25.9C5.87552 25.9 0.0999985 20.1244 0.0999985 13Z" />
<path fill-rule="evenodd" clip-rule="evenodd" d="M10.2746 18.7359C9.41045 18.378 8.6253 17.8533 7.96394 17.192L9.23674 15.9192C9.73095 16.4134 10.3177 16.8054 10.9634 17.0729C11.6091 17.3404 12.3012 17.478 13.0001 17.478C13.699 17.478 14.3911 17.3404 15.0368 17.0729C15.6826 16.8054 16.2693 16.4134 16.7635 15.9192L18.0363 17.192C17.3749 17.8533 16.5898 18.378 15.7257 18.7359C14.8616 19.0938 13.9354 19.278 13.0001 19.278C12.0648 19.278 11.1387 19.0938 10.2746 18.7359Z" />
<path d="M11.2222 10.3333C11.2222 11.3152 10.4262 12.1111 9.4444 12.1111C8.46256 12.1111 7.66663 11.3152 7.66663 10.3333C7.66663 9.35148 8.46256 8.55554 9.4444 8.55554C10.4262 8.55554 11.2222 9.35148 11.2222 10.3333Z" />
<path d="M18.3334 10.3333C18.3334 11.3152 17.5374 12.1111 16.5556 12.1111C15.5738 12.1111 14.7778 11.3152 14.7778 10.3333C14.7778 9.35148 15.5738 8.55554 16.5556 8.55554C17.5374 8.55554 18.3334 9.35148 18.3334 10.3333Z" />
</g>
<defs>
<clipPath id="clip0_133_25475">
<rect width="26" height="26" fill="white"/>
</clipPath>
</defs>
</svg>
