<svg width="26" height="26" viewBox="0 0 26 26" fill="none" xmlns="http://www.w3.org/2000/svg">
<path fill-rule="evenodd" clip-rule="evenodd" d="M12 2.75C9.71567 2.75 7.62475 3.57804 6.011 4.95034L12 10.9393L17.989 4.95034C16.3753 3.57804 14.2843 2.75 12 2.75ZM19.0497 6.011L13.0607 12L19.0497 17.989C20.422 16.3753 21.25 14.2843 21.25 12C21.25 9.71567 20.422 7.62475 19.0497 6.011ZM10.9393 12L4.95034 6.011C3.57804 7.62475 2.75 9.71567 2.75 12C2.75 14.2843 3.57804 16.3753 4.95034 17.989L10.9393 12ZM6.011 19.0497L12 13.0607L17.989 19.0497C16.3753 20.422 14.2843 21.25 12 21.25C9.71567 21.25 7.62475 20.422 6.011 19.0497ZM1.25 12C1.25 6.06294 6.06294 1.25 12 1.25C17.9371 1.25 22.75 6.06294 22.75 12C22.75 17.9371 17.9371 22.75 12 22.75C6.06294 22.75 1.25 17.9371 1.25 12Z" />
</svg>
