<svg width="24" height="24" viewBox="0 0 24 24" fill="none" xmlns="http://www.w3.org/2000/svg">
<path fill-rule="evenodd" clip-rule="evenodd" d="M9.65002 7.2C9.65002 5.90213 10.7022 4.85 12 4.85C13.2979 4.85 14.35 5.90213 14.35 7.2C14.35 8.49787 13.2979 9.55 12 9.55C10.7022 9.55 9.65002 8.49787 9.65002 7.2ZM12 3.55C9.98419 3.55 8.35002 5.18416 8.35002 7.2C8.35002 9.21584 9.98419 10.85 12 10.85C14.0159 10.85 15.65 9.21584 15.65 7.2C15.65 5.18416 14.0159 3.55 12 3.55ZM9.30002 13.85C7.17373 13.85 5.45002 15.5737 5.45002 17.7C5.45002 18.1694 5.83058 18.55 6.30002 18.55H11.4V19.85H6.30002C5.11261 19.85 4.15002 18.8874 4.15002 17.7C4.15002 14.8557 6.45576 12.55 9.30002 12.55H11.4V13.85H9.30002ZM19.8 16.85H13.8V15.55H19.8V16.85Z" />
</svg>
