<svg width="26" height="26" viewBox="0 0 26 26" fill="none" xmlns="http://www.w3.org/2000/svg">
<path fill-rule="evenodd" clip-rule="evenodd" d="M6.76924 12.35L11.5096 17.0904L10.5904 18.0096L4.74038 12.1596L4.28076 11.7L4.74038 11.2404L10.5904 5.39038L11.5096 6.30962L6.76924 11.05L14.4 11.05H14.4289H14.4289C15.5245 11.05 16.3866 11.05 17.0801 11.1067C17.7873 11.1644 18.3763 11.2844 18.9111 11.5568C19.786 12.0026 20.4974 12.714 20.9432 13.5889C21.2156 14.1237 21.3356 14.7127 21.3933 15.4199C21.45 16.1134 21.45 16.9754 21.45 18.071V18.0711V18.1V20.15H20.15V18.1C20.15 16.9692 20.1495 16.1601 20.0977 15.5257C20.0464 14.8989 19.9484 14.5001 19.7849 14.1791C19.4637 13.5488 18.9512 13.0363 18.3209 12.7151C17.9999 12.5516 17.6011 12.4536 16.9743 12.4023C16.3399 12.3505 15.5308 12.35 14.4 12.35H6.76924Z" />
</svg>
