<svg width="26" height="26" viewBox="0 0 26 26" fill="none" xmlns="http://www.w3.org/2000/svg">
<path fill-rule="evenodd" clip-rule="evenodd" d="M4.0044 13.634C3.83095 13.3851 3.69043 13.1695 3.58409 13C3.69043 12.8305 3.83095 12.6148 4.00439 12.3659C4.45088 11.7253 5.11015 10.8725 5.96021 10.0225C7.67497 8.30771 10.0718 6.69497 13.0002 6.69497C15.9286 6.69497 18.3254 8.30771 20.0402 10.0225C20.8903 10.8725 21.5495 11.7253 21.996 12.3659C22.1695 12.6148 22.31 12.8305 22.4164 13C22.31 13.1695 22.1695 13.3851 21.996 13.634C21.5496 14.2746 20.8903 15.1274 20.0402 15.9775C18.3255 17.6922 15.9286 19.305 13.0002 19.305C10.0718 19.305 7.675 17.6922 5.96023 15.9775C5.11017 15.1274 4.45089 14.2746 4.0044 13.634ZM24.1417 12.5947C24.1419 12.5951 24.142 12.5953 23.4002 13C24.142 13.4046 24.1419 13.4049 24.1417 13.4052L24.1413 13.4059L24.1402 13.4079L24.1369 13.4139L24.1261 13.4334C24.1169 13.4498 24.1039 13.4727 24.0871 13.5019C24.0536 13.5602 24.0048 13.6432 23.9412 13.7474C23.814 13.9558 23.627 14.2496 23.3825 14.6003C22.8946 15.3003 22.1727 16.235 21.2352 17.1725C19.375 19.0327 16.5718 20.995 13.0002 20.995C9.4286 20.995 6.62545 19.0327 4.76522 17.1725C3.82778 16.235 3.10581 15.3003 2.61792 14.6003C2.37347 14.2496 2.18643 13.9558 2.05924 13.7474C1.99561 13.6432 1.94687 13.5602 1.91331 13.5019C1.89653 13.4727 1.88354 13.4498 1.87438 13.4334L1.86351 13.4139L1.86023 13.4079L1.85914 13.4059L1.85872 13.4052C1.85856 13.4049 1.8584 13.4046 2.60022 13C1.8584 12.5953 1.85855 12.5951 1.85872 12.5948L1.85913 12.594L1.86023 12.592L1.86351 12.5861L1.87438 12.5665C1.88354 12.5502 1.89653 12.5272 1.91331 12.498C1.94687 12.4398 1.99561 12.3567 2.05924 12.2525C2.18643 12.0441 2.37347 11.7504 2.61792 11.3996C3.10579 10.6996 3.82776 9.7649 4.7652 8.82746C6.62542 6.96723 9.42856 5.00497 13.0002 5.00497C16.5718 5.00497 19.375 6.96723 21.2352 8.82746C22.1727 9.7649 22.8946 10.6996 23.3825 11.3996C23.627 11.7503 23.814 12.0441 23.9412 12.2525C24.0048 12.3567 24.0536 12.4398 24.0871 12.498C24.1039 12.5272 24.1169 12.5502 24.1261 12.5665L24.1369 12.586L24.1402 12.592L24.1413 12.594L24.1417 12.5947ZM23.4002 13L24.142 12.5953L24.3628 13L24.142 13.4046L23.4002 13ZM1.8584 12.5953L2.60022 13L1.8584 13.4046L1.6377 13L1.8584 12.5953ZM11.2452 13C11.2452 11.486 12.1971 10.595 13.0002 10.595C13.8032 10.595 14.7552 11.486 14.7552 13C14.7552 14.5139 13.8032 15.405 13.0002 15.405C12.1971 15.405 11.2452 14.5139 11.2452 13ZM13.0002 8.90497C10.9314 8.90497 9.55518 10.9241 9.55518 13C9.55518 15.0759 10.9314 17.095 13.0002 17.095C15.069 17.095 16.4452 15.0759 16.4452 13C16.4452 10.9241 15.069 8.90497 13.0002 8.90497Z" />
</svg>
