<svg width="26" height="26" viewBox="0 0 26 26" fill="none" xmlns="http://www.w3.org/2000/svg">
<path fill-rule="evenodd" clip-rule="evenodd" d="M7.76314 2.81938C8.53401 2.66998 9.40999 2.57875 10.3998 2.52716V4.08941C9.49821 4.13873 8.72515 4.22197 8.05994 4.35088C6.83541 4.58819 6.04819 4.96719 5.50762 5.50777C4.96704 6.04835 4.58804 6.83556 4.35073 8.06009C4.22182 8.72528 4.13858 9.49832 4.08926 10.3999H2.52701C2.57861 9.4101 2.66984 8.53414 2.81923 7.76329C3.08973 6.36751 3.56386 5.24535 4.40453 4.40468C5.2452 3.56401 6.36736 3.08988 7.76314 2.81938ZM15.5998 2.52716V4.08941C16.5015 4.13873 17.2745 4.22197 17.9397 4.35088C19.1642 4.58819 19.9515 4.96719 20.492 5.50777C21.0326 6.04835 21.4116 6.83556 21.6489 8.06009C21.7778 8.72528 21.8611 9.49832 21.9104 10.3999H23.4726C23.421 9.4101 23.3298 8.53414 23.1804 7.76329C22.9099 6.36751 22.4358 5.24535 21.5951 4.40468C20.7544 3.56401 19.6323 3.08988 18.2365 2.81938C17.4656 2.66998 16.5897 2.57875 15.5998 2.52716ZM17.9397 21.6491C17.2745 21.778 16.5015 21.8612 15.5998 21.9105V23.4728C16.5897 23.4212 17.4656 23.33 18.2365 23.1806C19.6323 22.9101 20.7544 22.4359 21.5951 21.5953C22.4358 20.7546 22.9099 19.6324 23.1804 18.2367C23.3298 17.4658 23.421 16.5898 23.4726 15.5999H21.9104C21.8611 16.5016 21.7778 17.2746 21.6489 17.9399C21.4116 19.1644 21.0326 19.9516 20.492 20.4922C19.9515 21.0328 19.1642 21.4118 17.9397 21.6491ZM4.35073 17.9399C4.22181 17.2746 4.13857 16.5016 4.08926 15.5999H2.52701C2.5786 16.5898 2.66983 17.4658 2.81923 18.2367C3.08973 19.6324 3.56386 20.7546 4.40453 21.5953C5.2452 22.4359 6.36736 22.9101 7.76314 23.1806C8.53401 23.33 9.40999 23.4212 10.3998 23.4728V21.9105C9.49821 21.8612 8.72515 21.778 8.05994 21.6491C6.83541 21.4118 6.04819 21.0328 5.50762 20.4922C4.96704 19.9516 4.58804 19.1644 4.35073 17.9399ZM9.09982 13.7799H16.8998V12.2199H9.09982V13.7799Z" />
</svg>
