<svg width="26" height="26" viewBox="0 0 26 26" fill="none" xmlns="http://www.w3.org/2000/svg">
<path fill-rule="evenodd" clip-rule="evenodd" d="M12.1426 5.48848L6.91924 10.7118L6 9.79258L12.333 3.45962L12.7926 3L13.2522 3.45962L19.5852 9.79258L18.6659 10.7118L13.4426 5.48848V18.6962H12.1426V5.48848Z" />
<path fill-rule="evenodd" clip-rule="evenodd" d="M12.7926 2.78784L19.7973 9.79256L18.6659 10.9239L13.5926 5.85058V18.8461H11.9926V5.85058L6.91924 10.9239L5.78786 9.79256L12.7926 2.78784ZM12.7926 3.21211L6.21213 9.79256L6.91924 10.4997L12.2926 5.12632V18.5461H13.2926V5.12632L18.6659 10.4997L19.373 9.79256L12.7926 3.21211Z" />
<path fill-rule="evenodd" clip-rule="evenodd" d="M6.74775 22.8388C6.7475 22.8387 6.74725 22.8385 7.16328 22.2145C7.5793 21.5904 7.57908 21.5903 7.57886 21.5901L7.57781 21.5894C7.57793 21.5895 7.57742 21.5892 7.57781 21.5894L7.58834 21.5962C7.5993 21.6031 7.61815 21.6148 7.64471 21.6306C7.69784 21.6623 7.78173 21.7103 7.89502 21.7694C8.1217 21.8877 8.46527 22.0498 8.91487 22.2133C9.81397 22.5402 11.1343 22.8718 12.7926 22.8718C14.4508 22.8718 15.7712 22.5402 16.6703 22.2133C17.1199 22.0498 17.4635 21.8877 17.6901 21.7694C17.8034 21.7103 17.8873 21.6623 17.9404 21.6306C17.967 21.6148 17.9859 21.6031 17.9968 21.5962L18.0073 21.5895L18.0063 21.5901C18.0061 21.5903 18.0059 21.5904 18.4219 22.2145C18.8379 22.8385 18.8377 22.8387 18.8374 22.8388L18.8356 22.84L18.8326 22.842L18.8241 22.8476L18.7978 22.8644C18.7761 22.8781 18.7462 22.8966 18.7082 22.9193C18.6321 22.9646 18.5236 23.0265 18.384 23.0993C18.1049 23.2449 17.7008 23.4347 17.1829 23.623C16.1469 23.9997 14.6526 24.3718 12.7926 24.3718C10.9325 24.3718 9.43822 23.9997 8.40225 23.623C7.88432 23.4347 7.48025 23.2449 7.20117 23.0993C7.06157 23.0265 6.95306 22.9646 6.877 22.9193C6.83897 22.8966 6.80903 22.8781 6.78735 22.8644L6.76105 22.8476L6.75258 22.842L6.74952 22.84L6.74775 22.8388Z"  fill-opacity="0.3"/>
</svg>
