<svg width="26" height="26" viewBox="0 0 26 26" fill="none" xmlns="http://www.w3.org/2000/svg">
<path fill-rule="evenodd" clip-rule="evenodd" d="M12.155 6.59001L7.74749 10.9975L6.55248 9.8025L12.4025 3.9525L13 3.35499L13.5975 3.9525L19.4475 9.8025L18.2525 10.9975L13.845 6.59001V17.55H12.155V6.59001Z" />
<path fill-rule="evenodd" clip-rule="evenodd" d="M6.04492 15.6V15.86C6.04492 16.966 6.04558 17.7448 6.09525 18.3527C6.14411 18.9508 6.23617 19.3088 6.37789 19.5869C6.67079 20.1618 7.13814 20.6291 7.71298 20.922C7.99113 21.0638 8.34914 21.1558 8.94722 21.2047C9.55516 21.2543 10.3339 21.255 11.4399 21.255H14.5599C15.666 21.255 16.4447 21.2543 17.0526 21.2047C17.6507 21.1558 18.0087 21.0638 18.2869 20.922C18.8617 20.6291 19.3291 20.1618 19.6219 19.5869C19.7637 19.3088 19.8557 18.9508 19.9046 18.3527C19.9543 17.7448 19.9549 16.966 19.9549 15.86V15.6H21.6449V15.8967C21.6449 16.9577 21.6449 17.8055 21.589 18.4903C21.5316 19.1929 21.4111 19.7981 21.1277 20.3542C20.6728 21.247 19.9469 21.9729 19.0541 22.4278C18.498 22.7112 17.8928 22.8317 17.1902 22.8891C16.5054 22.945 15.6576 22.945 14.5966 22.945H11.4032C10.3422 22.945 9.49444 22.945 8.8096 22.8891C8.10701 22.8317 7.50184 22.7112 6.94573 22.4278C6.05291 21.9729 5.32701 21.247 4.87209 20.3542C4.58875 19.7981 4.46826 19.1929 4.41086 18.4903C4.35491 17.8055 4.35491 16.9577 4.35492 15.8967L4.35492 15.6H6.04492Z" fill-opacity="0.3"/>
</svg>
