<svg width="26" height="26" viewBox="0 0 26 26" fill="none" xmlns="http://www.w3.org/2000/svg">
<path d="M10.366 16.777C9.99814 16.52 9.4869 16.5129 9.1696 16.8302C8.85229 17.1475 8.84951 17.6669 9.20519 17.9404C10.2559 18.7487 11.5717 19.2292 12.9998 19.2292C14.4278 19.2292 15.7436 18.7487 16.7943 17.9404C17.15 17.6669 17.1472 17.1475 16.8299 16.8302C16.5126 16.5129 16.0014 16.52 15.6335 16.777C14.8872 17.2984 13.9792 17.6042 12.9998 17.6042C12.0203 17.6042 11.1123 17.2984 10.366 16.777Z" />
<path fill-rule="evenodd" clip-rule="evenodd" d="M23.6866 14.7875C23.7685 14.2942 23.7206 13.8056 23.5735 13.344C23.3825 12.7446 23.0241 12.1907 22.565 11.7316L14.2684 3.43504C13.8093 2.97594 13.2555 2.61752 12.656 2.42649C12.5983 2.4081 12.5402 2.39127 12.4817 2.37604C12.0722 2.26945 11.6441 2.24178 11.2125 2.31344C11.1464 2.32441 11.0805 2.33598 11.0148 2.34815C5.97985 3.2806 2.16669 7.695 2.16669 13C2.16669 18.9831 7.01694 23.8333 13 23.8333C18.305 23.8333 22.7194 20.0202 23.6519 14.9852C23.664 14.9195 23.6756 14.8536 23.6866 14.7875ZM3.79169 13C3.79169 8.76023 6.65843 5.1873 10.5593 4.11821C10.6987 4.07999 10.8334 4.18874 10.8334 4.33333C10.8334 10.3164 15.6836 15.1667 21.6667 15.1667C21.8113 15.1667 21.92 15.3013 21.8818 15.4407C20.8127 19.3416 17.2398 22.2083 13 22.2083C7.9144 22.2083 3.79169 18.0856 3.79169 13ZM21.6667 13.5417C21.7762 13.5417 21.8444 13.4264 21.7852 13.3343C21.6868 13.1814 21.5642 13.0289 21.4159 12.8807L13.1193 4.58409C12.9711 4.43582 12.8187 4.31326 12.6657 4.21486C12.5736 4.1556 12.4584 4.22383 12.4584 4.33333C12.4584 9.41895 16.5811 13.5417 21.6667 13.5417Z" />
</svg>
