<svg width="26" height="26" viewBox="0 0 26 26" fill="none" xmlns="http://www.w3.org/2000/svg">
<path fill-rule="evenodd" clip-rule="evenodd" d="M12.55 3.90002H12.5207C11.1454 3.90002 10.0733 3.90002 9.21308 3.9703C8.33912 4.04171 7.62664 4.18888 6.98496 4.51584C5.92184 5.05752 5.0575 5.92186 4.51581 6.98498C4.18886 7.62666 4.04169 8.33915 3.97028 9.2131C3.9 10.0734 3.9 11.1454 3.9 12.5207V12.55V13.7682V13.7944C3.9 15.0225 3.9 15.9799 3.95637 16.7507C4.01362 17.5334 4.13152 18.1747 4.39395 18.7604C4.96109 20.0261 5.97397 21.0389 7.23966 21.6061C7.82533 21.8685 8.46662 21.9864 9.24935 22.0437C10.0201 22.1 10.9775 22.1 12.2055 22.1H12.2057H12.2318H12.2582H12.2582C13.7362 22.1 14.8811 22.1 15.8013 22.0327C16.7334 21.9645 17.486 21.8248 18.1693 21.5186C19.659 20.8511 20.8511 19.659 21.5186 18.1693C21.8248 17.486 21.9645 16.7335 22.0327 15.8013C22.1 14.8811 22.1 13.7362 22.1 12.2583V12.2582V12.2318V12.2057V12.2056C22.1 10.9775 22.1 10.0202 22.0436 9.24937C21.9864 8.46664 21.8685 7.82536 21.6061 7.23969C21.0389 5.97399 20.026 4.96111 18.7603 4.39398C18.1747 4.13155 17.5334 4.01364 16.7507 3.9564C15.9798 3.90002 15.0225 3.90002 13.7943 3.90002H13.7682H12.55ZM7.57514 5.67415C8.00302 5.45613 8.52538 5.33082 9.31894 5.26599C10.1201 5.20053 11.1391 5.20002 12.55 5.20002H13.7682C15.028 5.20002 15.938 5.20043 16.6558 5.25293C17.3673 5.30497 17.8389 5.40563 18.2288 5.58032C19.2032 6.01697 19.9831 6.79679 20.4197 7.77127C20.5944 8.16114 20.6951 8.63277 20.7471 9.3442C20.7996 10.0621 20.8 10.972 20.8 12.2318C20.8 12.2715 20.8 12.3109 20.8 12.35H19.4H19.3711C18.2755 12.35 17.4134 12.35 16.7199 12.4067C16.0127 12.4645 15.4237 12.5844 14.8889 12.8568C14.014 13.3027 13.3026 14.014 12.8568 14.889C12.5844 15.4237 12.4644 16.0127 12.4067 16.7199C12.35 17.4134 12.35 18.2755 12.35 19.3711V19.4V20.8C12.3109 20.8 12.2715 20.8 12.2318 20.8C10.972 20.8 10.062 20.7996 9.34417 20.7471C8.63274 20.6951 8.16112 20.5944 7.77124 20.4197C6.79677 19.9831 6.01695 19.2033 5.5803 18.2288C5.40561 17.8389 5.30494 17.3673 5.25291 16.6559C5.20041 15.938 5.2 15.028 5.2 13.7682V12.55C5.2 11.1392 5.20051 10.1201 5.26596 9.31897C5.3308 8.5254 5.45611 8.00304 5.67412 7.57517C6.09117 6.75666 6.75664 6.0912 7.57514 5.67415ZM13.65 20.7973C14.469 20.7923 15.1373 20.7778 15.7065 20.7362C16.5673 20.6732 17.1502 20.5507 17.6377 20.3323C18.8362 19.7953 19.7953 18.8362 20.3323 17.6377C20.5507 17.1503 20.6732 16.5673 20.7362 15.7065C20.7778 15.1373 20.7923 14.469 20.7973 13.65H19.4C18.2692 13.65 17.4601 13.6505 16.8257 13.7024C16.1989 13.7536 15.8001 13.8516 15.4791 14.0152C14.8488 14.3363 14.3363 14.8488 14.0151 15.4792C13.8516 15.8001 13.7536 16.199 13.7023 16.8258C13.6505 17.4602 13.65 18.2692 13.65 19.4V20.7973Z" />
</svg>
