<svg width="26" height="26" viewBox="0 0 26 26" fill="none" xmlns="http://www.w3.org/2000/svg">
<path fill-rule="evenodd" clip-rule="evenodd" d="M11.0498 2.4699C8.10607 2.4699 5.71975 4.85622 5.71975 7.7999C5.71975 8.62233 5.90646 9.40223 6.23972 10.0985C4.39922 10.9383 3.11975 12.794 3.11975 14.9499V14.95H4.67975V14.9499C4.67975 13.1674 5.91763 11.672 7.58152 11.2802L8.73995 11.0074L8.02752 10.054C7.55767 9.42531 7.27975 8.64619 7.27975 7.7999C7.27975 5.71779 8.96764 4.0299 11.0498 4.0299C12.5906 4.0299 13.9173 4.95442 14.502 6.28224L14.7626 6.87398L15.3924 6.72764C15.6671 6.66382 15.954 6.6299 16.2498 6.6299C18.3319 6.6299 20.0198 8.31779 20.0198 10.3999C20.0198 10.6654 19.9924 10.9236 19.9407 11.1723L19.8527 11.5956L20.1651 11.8946C20.9277 12.6244 21.3198 13.455 21.3198 14.2999V14.3H22.0936L21.3198 14.3001C21.32 16.7411 19.3412 18.72 16.9002 18.72H8.60837L11.5575 16.1923L10.5423 15.0078L5.99227 18.9077L5.30134 19.5L5.99226 20.0922L10.5423 23.9922L11.5575 22.8078L8.60848 20.28H16.9002C20.2028 20.28 22.8801 17.6026 22.8798 14.3H22.8797V14.2999C22.8797 13.0769 22.3645 11.9718 21.5381 11.0685C21.5656 10.8492 21.5798 10.6261 21.5798 10.3999C21.5798 7.45622 19.1934 5.0699 16.2498 5.0699C16.0466 5.0699 15.8459 5.08131 15.6482 5.10354C14.7229 3.52875 13.0107 2.4699 11.0498 2.4699Z" />
</svg>
