<svg width="26" height="26" viewBox="0 0 26 26" fill="none" xmlns="http://www.w3.org/2000/svg">
<path d="M1.29999 13C1.29999 9.3657 1.29999 7.54853 1.89373 6.11512C2.68538 4.2039 4.20384 2.68544 6.11506 1.89379C7.54847 1.30005 9.36564 1.30005 13 1.30005V1.30005C16.6343 1.30005 18.4515 1.30005 19.8849 1.89379C21.7961 2.68544 23.3146 4.2039 24.1062 6.11512C24.7 7.54853 24.7 9.3657 24.7 13V13C24.7 16.6344 24.7 18.4516 24.1062 19.885C23.3146 21.7962 21.7961 23.3147 19.8849 24.1063C18.4515 24.7 16.6343 24.7 13 24.7V24.7C9.36564 24.7 7.54847 24.7 6.11506 24.1063C4.20384 23.3147 2.68538 21.7962 1.89373 19.885C1.29999 18.4516 1.29999 16.6344 1.29999 13V13Z" fill="#2A4AF5"/>
<path d="M13.0484 17.7422C12.351 17.7422 11.7281 17.6221 11.1797 17.3817C10.6346 17.1413 10.203 16.8079 9.88477 16.3813C9.56992 15.9514 9.40065 15.4537 9.37695 14.8883H10.9715C10.9918 15.1964 11.0951 15.4639 11.2813 15.6907C11.4708 15.9141 11.718 16.0868 12.0227 16.2086C12.3273 16.3305 12.6659 16.3915 13.0383 16.3915C13.4479 16.3915 13.8102 16.3204 14.125 16.1782C14.4432 16.036 14.6921 15.8379 14.8715 15.584C15.0509 15.3267 15.1406 15.0305 15.1406 14.6954C15.1406 14.3467 15.0509 14.0403 14.8715 13.7762C14.6954 13.5088 14.4365 13.2989 14.0945 13.1465C13.756 12.9942 13.3464 12.918 12.8656 12.918H11.9871V11.6383H12.8656C13.2516 11.6383 13.5901 11.5689 13.8813 11.4301C14.1758 11.2913 14.406 11.0984 14.5719 10.8512C14.7378 10.6007 14.8207 10.3079 14.8207 9.97271C14.8207 9.65109 14.7479 9.37179 14.6023 9.13481C14.4602 8.89445 14.257 8.70656 13.993 8.57114C13.7323 8.43573 13.4242 8.36802 13.0688 8.36802C12.7302 8.36802 12.4137 8.43065 12.1191 8.55591C11.828 8.67778 11.591 8.85383 11.4082 9.08403C11.2254 9.31086 11.1272 9.58338 11.1137 9.90161H9.59531C9.61224 9.33963 9.77813 8.84536 10.093 8.4188C10.4112 7.99224 10.831 7.65877 11.3523 7.41841C11.8737 7.17804 12.4526 7.05786 13.0891 7.05786C13.756 7.05786 14.3315 7.1882 14.8156 7.44888C15.3031 7.70617 15.6789 8.04979 15.943 8.47974C16.2104 8.90968 16.3424 9.38026 16.3391 9.89146C16.3424 10.4737 16.1799 10.968 15.8516 11.3743C15.5266 11.7805 15.0932 12.053 14.5516 12.1918V12.2731C15.2422 12.378 15.7771 12.6523 16.1563 13.0958C16.5388 13.5392 16.7284 14.0894 16.725 14.7461C16.7284 15.3183 16.5693 15.8312 16.2477 16.2848C15.9294 16.7385 15.4944 17.0956 14.9426 17.3563C14.3908 17.6136 13.7594 17.7422 13.0484 17.7422Z" fill="white"/>
</svg>
