<svg width="26" height="26" viewBox="0 0 26 26" fill="none" xmlns="http://www.w3.org/2000/svg">
<path fill-rule="evenodd" clip-rule="evenodd" d="M23.4 13C23.4 11.401 22.2453 10.0718 20.7243 9.80059C21.6081 8.5333 21.4847 6.77684 20.3541 5.64618C19.2234 4.51549 17.4668 4.39209 16.1995 5.276C15.9284 3.75485 14.5991 2.60001 13 2.60001C11.401 2.60001 10.0718 3.75477 9.80061 5.27584C8.53332 4.39202 6.77685 4.51544 5.64619 5.6461C4.51552 6.77677 4.3921 8.53327 5.27595 9.80056C3.75484 10.0717 2.60005 11.401 2.60005 13C2.60005 14.599 3.75476 15.9283 5.27579 16.1994C4.39196 17.4667 4.51538 19.2232 5.64604 20.3539C6.77674 21.4846 8.53329 21.608 9.80058 20.7241C10.0717 22.2452 11.401 23.4 13 23.4C14.599 23.4 15.9283 22.2453 16.1995 20.7242C17.4668 21.608 19.2232 21.4846 20.3539 20.3539C21.4845 19.2233 21.608 17.4668 20.7241 16.1995C22.2452 15.9284 23.4 14.599 23.4 13Z" fill="#23ADA0"/>
<path fill-rule="evenodd" clip-rule="evenodd" d="M11.7676 17.4623L8.3103 14.2709L9.4566 13.0291L11.6326 15.0377L16.6949 9.19658L17.972 10.3034L11.7676 17.4623Z" fill="white"/>
</svg>
