<svg width="26" height="26" viewBox="0 0 26 26" fill="none" xmlns="http://www.w3.org/2000/svg">
<path d="M1.29999 13C1.29999 9.3657 1.29999 7.54853 1.89373 6.11512C2.68538 4.2039 4.20384 2.68544 6.11506 1.89379C7.54847 1.30005 9.36564 1.30005 13 1.30005V1.30005C16.6343 1.30005 18.4515 1.30005 19.8849 1.89379C21.7961 2.68544 23.3146 4.2039 24.1062 6.11512C24.7 7.54853 24.7 9.3657 24.7 13V13C24.7 16.6344 24.7 18.4516 24.1062 19.885C23.3146 21.7962 21.7961 23.3147 19.8849 24.1063C18.4515 24.7 16.6343 24.7 13 24.7V24.7C9.36564 24.7 7.54847 24.7 6.11506 24.1063C4.20384 23.3147 2.68538 21.7962 1.89373 19.885C1.29999 18.4516 1.29999 16.6344 1.29999 13V13Z" fill="#2A4AF5"/>
<path d="M9.65121 17.6V16.4626L13.1703 12.8165C13.5461 12.4204 13.8559 12.0734 14.0996 11.7754C14.3468 11.4741 14.5313 11.1881 14.6532 10.9172C14.775 10.6464 14.836 10.3586 14.836 10.054C14.836 9.70864 14.7547 9.41073 14.5922 9.16021C14.4297 8.9063 14.208 8.71164 13.927 8.57622C13.646 8.43742 13.3295 8.36802 12.9774 8.36802C12.605 8.36802 12.28 8.44419 12.0024 8.59653C11.7248 8.74888 11.5115 8.96385 11.3625 9.24146C11.2136 9.51906 11.1391 9.84406 11.1391 10.2165H9.64105C9.64105 9.58338 9.78663 9.02987 10.0778 8.55591C10.3689 8.08195 10.7684 7.71463 11.2762 7.45396C11.784 7.18989 12.3612 7.05786 13.0078 7.05786C13.6612 7.05786 14.2368 7.1882 14.7344 7.44888C15.2355 7.70617 15.6265 8.05825 15.9075 8.50513C16.1884 8.94862 16.3289 9.44966 16.3289 10.0083C16.3289 10.3942 16.2562 10.7717 16.1106 11.1407C15.9684 11.5097 15.7196 11.921 15.3641 12.3747C15.0086 12.8249 14.5144 13.3717 13.8813 14.0149L11.8145 16.1782V16.2543H16.4965V17.6H9.65121Z" fill="white"/>
</svg>
