<svg width="26" height="26" viewBox="0 0 26 26" fill="none" xmlns="http://www.w3.org/2000/svg">
<path fill-rule="evenodd" clip-rule="evenodd" d="M15.8271 2.22897C14.9293 1.71064 13.7934 1.24771 12.5514 1.50345C11.2887 1.76345 10.1422 2.71544 9.10906 4.50488L10.4601 5.28488C11.3769 3.69682 12.2122 3.16603 12.866 3.0314C13.5405 2.89252 14.2558 3.12313 15.0471 3.57996C15.8383 4.0368 16.3957 4.54099 16.6127 5.19455C16.794 5.74064 16.7877 6.55061 16.1954 7.78083C15.2981 7.69273 14.2379 7.66981 13.0001 7.66981C11.3763 7.66981 10.0581 7.70925 9.01233 7.88355C7.96104 8.05876 7.08667 8.38497 6.43589 9.03578C5.78512 9.68658 5.45894 10.561 5.28376 11.6122C5.10949 12.658 5.07007 13.9761 5.07007 15.5998C5.07007 17.2236 5.10953 18.5416 5.28385 19.5874C5.4591 20.6387 5.78534 21.5131 6.43616 22.1639C7.08696 22.8146 7.96133 23.1409 9.01259 23.3161C10.0584 23.4904 11.3764 23.5298 13.0001 23.5298C14.6237 23.5298 15.9418 23.4904 16.9875 23.3161C18.0388 23.1409 18.9132 22.8146 19.564 22.1639C20.2148 21.5131 20.541 20.6387 20.7163 19.5874C20.8906 18.5416 20.9301 17.2236 20.9301 15.5998C20.9301 13.9761 20.8906 12.658 20.7164 11.6122C20.5412 10.561 20.215 9.68658 19.5642 9.03578C19.0851 8.55658 18.4847 8.25336 17.7817 8.05683C18.3266 6.76513 18.4106 5.65915 18.0932 4.70304C17.6937 3.49956 16.7248 2.74729 15.8271 2.22897ZM6.82254 11.8686C6.67186 12.7729 6.63007 13.9735 6.63007 15.5998C6.63007 17.2261 6.6719 18.4267 6.82262 19.3309C6.97243 20.2296 7.21499 20.7365 7.53922 21.0608C7.86345 21.385 8.37036 21.6275 9.26906 21.7773C10.1733 21.928 11.3739 21.9698 13.0001 21.9698C14.6263 21.9698 15.8269 21.928 16.7311 21.7773C17.6298 21.6275 18.1367 21.385 18.4609 21.0608C18.7851 20.7365 19.0277 20.2296 19.1775 19.3309C19.3282 18.4267 19.3701 17.2261 19.3701 15.5998C19.3701 13.9735 19.3283 12.7729 19.1776 11.8686C19.0278 10.9699 18.7853 10.463 18.4611 10.1388C18.137 9.81465 17.6301 9.57211 16.7313 9.42232C15.8271 9.27162 14.6264 9.22981 13.0001 9.22981C11.3737 9.22981 10.173 9.27162 9.26879 9.42232C8.37005 9.57211 7.86318 9.81465 7.539 10.1388C7.21482 10.463 6.9723 10.9699 6.82254 11.8686ZM12.2195 17.5498V13.6498H13.7795V17.5498H12.2195Z" />
</svg>
