<svg width="26" height="26" viewBox="0 0 26 26" fill="none" xmlns="http://www.w3.org/2000/svg">
<path fill-rule="evenodd" clip-rule="evenodd" d="M7.98427 11.3633C8.19749 8.31746 9.00807 6.68084 9.91283 5.79991C10.8084 4.92797 11.9166 4.67963 13 4.67963C14.0834 4.67963 15.1916 4.92797 16.0871 5.79991C16.9919 6.68084 17.8025 8.31746 18.0157 11.3633L18.023 11.4673L18.023 11.4673C18.0907 12.4358 18.1308 13.0089 18.2043 13.3794C18.2778 13.7498 18.4091 14.1436 18.6238 14.7878L18.6437 14.8474L19.7178 18.0696H13H6.28218L7.35627 14.8474L7.37613 14.7878C7.59091 14.1436 7.72219 13.7498 7.79566 13.3794C7.86917 13.0089 7.90925 12.4358 7.977 11.4672L7.98427 11.3633ZM13 3.11963C11.6838 3.11963 10.1158 3.42498 8.82456 4.6822C7.54258 5.93042 6.65601 7.99843 6.42808 11.2544C6.35123 12.3522 6.31696 12.8164 6.26548 13.0759C6.21361 13.3374 6.11705 13.6319 5.87632 14.3541L4.46002 18.603L4.1178 19.6296H5.19999H8.38541C8.54629 20.5815 8.99909 21.4673 9.69073 22.159C10.5684 23.0366 11.7588 23.5297 13 23.5297C14.2412 23.5297 15.4316 23.0366 16.3092 22.159C17.0009 21.4673 17.4537 20.5815 17.6146 19.6296H20.8H21.8822L21.54 18.603L20.1237 14.3541C19.8829 13.6319 19.7864 13.3374 19.7345 13.0759C19.683 12.8164 19.6488 12.3522 19.5719 11.2544C19.344 7.99843 18.4574 5.93042 17.1754 4.6822C15.8842 3.42498 14.3161 3.11963 13 3.11963ZM10.7938 21.0559C10.3964 20.6584 10.1172 20.1648 9.97905 19.6297H13H16.0209C15.8827 20.1648 15.6036 20.6584 15.2062 21.0559C14.621 21.641 13.8275 21.9697 13 21.9697C12.1725 21.9697 11.3789 21.641 10.7938 21.0559Z" fill="#09101C"/>
</svg>
