<svg width="26" height="26" viewBox="0 0 26 26" fill="none" xmlns="http://www.w3.org/2000/svg">
<path fill-rule="evenodd" clip-rule="evenodd" d="M4.17394 8.02586C4.15217 8.13819 4.1317 8.25348 4.11246 8.37181C4.26297 8.22537 4.42834 8.08798 4.60996 7.95977C5.40823 7.39627 6.46664 7.05115 7.81943 6.84141C9.17538 6.63118 10.8773 6.54995 12.9995 6.54995C15.1217 6.54995 16.8237 6.63118 18.1797 6.84141C19.5325 7.05115 20.591 7.39627 21.3893 7.95975C21.571 8.08802 21.7365 8.22548 21.8871 8.37201C21.8678 8.2536 21.8473 8.13825 21.8255 8.02586C21.5844 6.78157 21.1944 5.9557 20.6192 5.3805C20.044 4.80529 19.2182 4.41532 17.9739 4.17418C16.7235 3.93185 15.1062 3.84998 12.9997 3.84998C10.8933 3.84998 9.27602 3.93185 8.02562 4.17418C6.78133 4.41532 5.95546 4.80529 5.38026 5.3805C4.80505 5.9557 4.41508 6.78157 4.17394 8.02586ZM2.64979 13.6499C2.64979 13.5668 2.65011 13.4844 2.65077 13.4027C2.65008 13.2701 2.64975 13.1359 2.64975 13C2.64975 10.8815 2.73038 9.16746 2.99586 7.79755C3.26253 6.42153 3.72569 5.33801 4.53173 4.53197C5.33778 3.72592 6.42129 3.26277 7.79731 2.9961C9.16722 2.73061 10.8812 2.64998 12.9997 2.64998C15.1183 2.64998 16.8323 2.73061 18.2022 2.9961C19.5782 3.26277 20.6617 3.72592 21.4678 4.53197C22.2738 5.33801 22.737 6.42153 23.0036 7.79755C23.2691 9.16746 23.3497 10.8815 23.3497 13C23.3497 13.1346 23.3494 13.2676 23.3487 13.3989C23.3494 13.4819 23.3498 13.5655 23.3498 13.6499H23.347C23.3458 13.7801 23.3443 13.9086 23.3424 14.0355C23.3474 14.1236 23.3498 14.2118 23.3498 14.3H23.3377C23.307 15.8335 23.2125 17.1245 23.0036 18.2024C22.737 19.5784 22.2738 20.662 21.4678 21.468C20.6617 22.274 19.5782 22.7372 18.2022 23.0039C16.8323 23.2694 15.1183 23.35 12.9997 23.35C10.8812 23.35 9.16722 23.2694 7.79731 23.0039C6.42129 22.7372 5.33778 22.274 4.53173 21.468C3.72569 20.662 3.26253 19.5784 2.99586 18.2024C2.78696 17.1245 2.69251 15.8335 2.66174 14.3H2.64979C2.64979 14.2122 2.65211 14.1244 2.65711 14.0368C2.65518 13.9095 2.65365 13.7805 2.6525 13.6499H2.64979ZM3.85774 14.0646C3.88343 15.6629 3.97415 16.9432 4.17394 17.9741C4.41508 19.2184 4.80505 20.0443 5.38026 20.6195C5.95546 21.1947 6.78133 21.5846 8.02562 21.8258C9.27602 22.0681 10.8933 22.15 12.9997 22.15C15.1062 22.15 16.7235 22.0681 17.9739 21.8258C19.2182 21.5846 20.044 21.1947 20.6192 20.6195C21.1944 20.0443 21.5844 19.2184 21.8255 17.9741C22.0254 16.9429 22.1161 15.6623 22.1418 14.0635C22.1194 13.7476 22.0498 13.482 21.927 13.2539C21.7777 12.9766 21.5254 12.7096 21.0841 12.472C20.2277 12.0109 18.7242 11.6938 16.1571 11.6542C16.0767 12.2077 15.8755 12.7613 15.492 13.2216C14.9517 13.8699 14.1191 14.25 12.9998 14.25C11.8805 14.25 11.0478 13.8698 10.5076 13.2215C10.1241 12.7613 9.92285 12.2076 9.84249 11.6542C7.27537 11.6938 5.77188 12.0109 4.9155 12.472C4.4742 12.7096 4.22193 12.9766 4.07261 13.2539C3.94969 13.4822 3.88003 13.7483 3.85774 14.0646ZM22.049 11.6582C21.9262 11.5724 21.7943 11.4915 21.653 11.4154C20.4571 10.7715 18.54 10.45 15.5998 10.45H14.9998V11.05C14.9998 11.6108 14.8584 12.1074 14.5701 12.4534C14.2979 12.7801 13.8305 13.05 12.9998 13.05C12.1691 13.05 11.7018 12.7801 11.4295 12.4533C11.1412 12.1074 10.9998 11.6108 10.9998 11.0499L10.9998 10.45H10.3998C7.45963 10.45 5.54251 10.7715 4.34658 11.4154C4.20529 11.4915 4.07333 11.5725 3.95049 11.6583C4.11932 10.311 4.52052 9.49176 5.30199 8.94012C5.88493 8.52863 6.73584 8.22375 8.00329 8.02724C9.26758 7.83122 10.8968 7.74995 12.9995 7.74995C15.1022 7.74995 16.7315 7.83122 17.9958 8.02724C19.2633 8.22375 20.1143 8.52863 20.6973 8.94014C21.4789 9.49178 21.8801 10.311 22.049 11.6582Z" />
</svg>
