<svg width="20" height="20" viewBox="0 0 20 20" fill="none" xmlns="http://www.w3.org/2000/svg">
<path fill-rule="evenodd" clip-rule="evenodd" d="M8.80696 7.66229L13.0289 6.45603C13.3432 6.36623 13.6338 6.65682 13.544 6.97113L12.3377 11.193C12.1795 11.7467 11.7467 12.1795 11.193 12.3377L6.97114 13.5439C6.65683 13.6338 6.36623 13.3432 6.45604 13.0288L7.66229 8.80696C7.82049 8.25328 8.25328 7.82048 8.80696 7.66229ZM9.15037 8.86419L11.2088 8.27606C11.5231 8.18625 11.8137 8.47685 11.7239 8.79116L11.1358 10.8496C11.0962 10.988 10.988 11.0962 10.8496 11.1358L8.79117 11.7239C8.47686 11.8137 8.18626 11.5231 8.27607 11.2088L8.8642 9.15036C8.90375 9.01194 9.01195 8.90374 9.15037 8.86419Z" fill="black"/>
<path fill-rule="evenodd" clip-rule="evenodd" d="M18.3333 9.99999C18.3333 14.6024 14.6024 18.3333 10 18.3333C5.39762 18.3333 1.66666 14.6024 1.66666 9.99999C1.66666 5.39762 5.39762 1.66666 10 1.66666C14.6024 1.66666 18.3333 5.39762 18.3333 9.99999ZM17.0833 9.99999C17.0833 13.912 13.912 17.0833 10 17.0833C6.08798 17.0833 2.91666 13.912 2.91666 9.99999C2.91666 6.08797 6.08798 2.91666 10 2.91666C13.912 2.91666 17.0833 6.08797 17.0833 9.99999Z" fill="black"/>
</svg>
