<svg width="20" height="20" viewBox="0 0 20 20" fill="none" xmlns="http://www.w3.org/2000/svg">
<path d="M10 6.04166C10.3452 6.04166 10.625 6.32148 10.625 6.66666V8.95832C10.625 9.18844 10.8116 9.37499 11.0417 9.37499H13.3334C13.6785 9.37499 13.9584 9.65481 13.9584 9.99999C13.9584 10.3452 13.6785 10.625 13.3334 10.625H11.0417C10.8116 10.625 10.625 10.8115 10.625 11.0417V13.3333C10.625 13.6785 10.3452 13.9583 10 13.9583C9.65484 13.9583 9.37502 13.6785 9.37502 13.3333V11.0417C9.37502 10.8115 9.18847 10.625 8.95835 10.625H6.66669C6.32151 10.625 6.04169 10.3452 6.04169 9.99999C6.04169 9.65481 6.32151 9.37499 6.66669 9.37499H8.95835C9.18847 9.37499 9.37502 9.18844 9.37502 8.95832V6.66666C9.37502 6.32148 9.65484 6.04166 10 6.04166Z" fill="black"/>
<path fill-rule="evenodd" clip-rule="evenodd" d="M1.66669 9.99999C1.66669 5.39762 5.39765 1.66666 10 1.66666C14.6024 1.66666 18.3334 5.39762 18.3334 9.99999V15.5555C18.3334 17.0897 17.0897 18.3333 15.5556 18.3333H10C5.39765 18.3333 1.66669 14.6024 1.66669 9.99999ZM17.0834 9.99999V15.5555C17.0834 16.3993 16.3993 17.0833 15.5556 17.0833H10C6.088 17.0833 2.91669 13.912 2.91669 9.99999C2.91669 6.08797 6.088 2.91666 10 2.91666C13.912 2.91666 17.0834 6.08797 17.0834 9.99999Z" fill="black"/>
</svg>
