<svg width="20" height="20" viewBox="0 0 20 20" fill="none" xmlns="http://www.w3.org/2000/svg">
<path d="M11.2481 2.50903C10.8846 2.44911 10.5412 2.69362 10.4809 3.05517L8.20284 16.7282C8.1426 17.0897 8.38838 17.4314 8.75182 17.4913C9.11525 17.5512 9.4587 17.3067 9.51894 16.9452L11.797 3.27218C11.8573 2.91063 11.6115 2.56896 11.2481 2.50903Z" fill="black"/>
<path fill-rule="evenodd" clip-rule="evenodd" d="M15.4167 6.875C13.6908 6.875 12.2917 8.27411 12.2917 10C12.2917 11.7259 13.6908 13.125 15.4167 13.125C17.1425 13.125 18.5417 11.7259 18.5417 10C18.5417 8.27411 17.1425 6.875 15.4167 6.875ZM13.5417 10C13.5417 11.0355 14.3811 11.875 15.4167 11.875C16.4522 11.875 17.2917 11.0355 17.2917 10C17.2917 8.96447 16.4522 8.125 15.4167 8.125C14.3811 8.125 13.5417 8.96447 13.5417 10Z" fill="black"/>
<path fill-rule="evenodd" clip-rule="evenodd" d="M3.33332 7.08333C2.41285 7.08333 1.66666 7.82953 1.66666 8.75V11.25C1.66666 12.1705 2.41285 12.9167 3.33332 12.9167H5.83332C6.7538 12.9167 7.49999 12.1705 7.49999 11.25V8.75C7.49999 7.82953 6.7538 7.08333 5.83332 7.08333H3.33332ZM5.83332 8.33333H3.33332C3.1032 8.33333 2.91666 8.51988 2.91666 8.75V11.25C2.91666 11.4801 3.1032 11.6667 3.33332 11.6667H5.83332C6.06344 11.6667 6.24999 11.4801 6.24999 11.25V8.75C6.24999 8.51988 6.06344 8.33333 5.83332 8.33333Z" fill="black"/>
</svg>
