<svg width="20" height="20" viewBox="0 0 20 20" fill="none" xmlns="http://www.w3.org/2000/svg">
<path d="M5.39139 10.3914C5.63547 10.1473 6.0312 10.1473 6.27527 10.3914C6.51935 10.6355 6.51935 11.0312 6.27527 11.2753L4.72018 12.8304C4.45769 13.0929 4.6436 13.5417 5.01481 13.5417H15.8333C16.1785 13.5417 16.4583 13.8215 16.4583 14.1667C16.4583 14.5118 16.1785 14.7917 15.8333 14.7917H5.01481C4.6436 14.7917 4.45769 15.2405 4.72018 15.503L6.27528 17.0581C6.51935 17.3021 6.51935 17.6979 6.27528 17.9419C6.0312 18.186 5.63547 18.186 5.39139 17.9419L2.05806 14.6086C1.81398 14.3645 1.81398 13.9688 2.05806 13.7247L5.39139 10.3914Z" fill="black"/>
<path d="M14.6086 2.05806C14.3645 1.81398 13.9688 1.81398 13.7247 2.05806C13.4806 2.30214 13.4806 2.69786 13.7247 2.94194L15.2798 4.49704C15.5423 4.75952 15.3564 5.20833 14.9852 5.20833H4.16667C3.82149 5.20833 3.54167 5.48816 3.54167 5.83333C3.54167 6.17851 3.82149 6.45833 4.16667 6.45833H14.9852C15.3564 6.45833 15.5423 6.90714 15.2798 7.16963L13.7247 8.72472C13.4806 8.9688 13.4806 9.36453 13.7247 9.60861C13.9688 9.85269 14.3645 9.85269 14.6086 9.60861L17.9419 6.27528C18.186 6.0312 18.186 5.63547 17.9419 5.39139L14.6086 2.05806Z" fill="black"/>
</svg>
