<svg width="20" height="20" viewBox="0 0 20 20" fill="none" xmlns="http://www.w3.org/2000/svg">
<path fill-rule="evenodd" clip-rule="evenodd" d="M15.6569 5.3146L12.875 2.61001C12.2528 2.00508 11.4192 1.66666 10.5514 1.66666H6.66665C4.8257 1.66666 3.33331 3.15904 3.33331 4.99999V15C3.33331 16.8409 4.8257 18.3333 6.66665 18.3333H13.3333C15.1743 18.3333 16.6666 16.8409 16.6666 15V7.70458C16.6666 6.80424 16.3024 5.9422 15.6569 5.3146ZM13.3333 17.0833H6.66665C5.51605 17.0833 4.58331 16.1506 4.58331 15V4.99999C4.58331 3.8494 5.51605 2.91666 6.66665 2.91666H10.5514C10.6463 2.91666 10.7404 2.92312 10.8333 2.9358V6.66666C10.8333 7.58713 11.5795 8.33332 12.5 8.33332H15.4166V15C15.4166 16.1506 14.4839 17.0833 13.3333 17.0833ZM15.3219 7.08332C15.2194 6.75548 15.0365 6.45481 14.7856 6.21084L12.0833 3.58366V6.66666C12.0833 6.89678 12.2699 7.08332 12.5 7.08332H15.3219Z" fill="black"/>
</svg>
