<svg width="20" height="20" viewBox="0 0 20 20" fill="none" xmlns="http://www.w3.org/2000/svg">
<path fill-rule="evenodd" clip-rule="evenodd" d="M4.83535 4.48539C4.80829 4.49963 4.79166 4.52786 4.79166 4.55844V10.1277C4.79166 10.4277 5.11884 10.62 5.39846 10.5112C6.51465 10.0772 8.07608 9.98762 9.91457 11.1367C11.4145 12.0741 12.8012 12.07 13.8198 11.8385C14.3339 11.7216 14.7551 11.5461 15.046 11.4006C15.1471 11.3501 15.2083 11.2454 15.2083 11.1324V5.69368C15.2083 5.40789 14.9268 5.20647 14.6502 5.27851C14.4702 5.32541 14.2763 5.36913 14.0701 5.40662C12.825 5.633 11.1189 5.63326 9.30381 4.72571C7.76976 3.95868 6.56262 3.97357 5.76057 4.1518C5.35398 4.24216 5.04151 4.37688 4.83535 4.48539ZM15.5237 3.62378L15.5228 3.62426L15.5062 3.63325C15.4898 3.64198 15.4629 3.65593 15.4262 3.67393C15.3528 3.70997 15.2402 3.76204 15.0934 3.82077C14.7991 3.93848 14.3709 4.08143 13.8465 4.17678C12.8 4.36706 11.3811 4.36681 9.86283 3.60768C8.06355 2.70803 6.56235 2.69314 5.4894 2.93157C4.9585 3.04955 4.54179 3.22733 4.25317 3.37924C4.10874 3.45526 3.99581 3.52509 3.91599 3.5783C3.87606 3.60493 3.84432 3.62745 3.82099 3.64458C3.80931 3.65315 3.79973 3.66038 3.79227 3.66611L3.78265 3.67356L3.77904 3.67641L3.77753 3.67761L3.77685 3.67815C3.77685 3.67815 3.7848 3.67184 3.79227 3.66611L3.77685 3.67815L3.69803 3.7412C3.59919 3.82027 3.54166 3.93999 3.54166 4.06656V17.0833C3.54166 17.3134 3.7282 17.5 3.95832 17.5H4.37499C4.60511 17.5 4.79166 17.3134 4.79166 17.0833V12.5198C4.79166 12.4037 4.83927 12.2918 4.92894 12.2181C4.93238 12.2152 4.93584 12.2124 4.93934 12.2096C5.14903 12.0385 5.45762 11.8294 5.85152 11.6763C6.61033 11.3812 7.75723 11.2624 9.25207 12.1967C11.0855 13.3426 12.8238 13.3467 14.0968 13.0574C14.7286 12.9138 15.2449 12.6988 15.605 12.5187C15.7856 12.4284 15.9283 12.3462 16.0282 12.2849C16.0782 12.2543 16.1177 12.2288 16.1459 12.21C16.1568 12.2027 16.1661 12.1964 16.1736 12.1913C16.1778 12.1884 16.1818 12.1855 16.1859 12.1827C16.1875 12.1816 16.189 12.1805 16.1904 12.1797C16.1999 12.1736 16.2185 12.1606 16.23 12.1524C16.2368 12.1476 16.2437 12.1429 16.2507 12.1384L16.2858 12.1158L16.3273 12.084C16.3553 12.0626 16.3813 12.0386 16.4014 12.0097C16.4269 11.9731 16.4583 11.9198 16.4583 11.879V3.8077C16.4583 3.48777 16.1127 3.2872 15.8349 3.44593L15.5251 3.623L15.5237 3.62378Z" fill="black"/>
</svg>
