<svg width="20" height="20" viewBox="0 0 20 20" fill="none" xmlns="http://www.w3.org/2000/svg">
<path fill-rule="evenodd" clip-rule="evenodd" d="M2.05806 2.05809C2.30214 1.81401 2.69786 1.81401 2.94194 2.05809L17.9419 17.0581C18.186 17.3022 18.186 17.6979 17.9419 17.942C17.6979 18.1861 17.3021 18.1861 17.0581 17.942L13.0957 13.9797C12.9259 13.8099 12.6481 13.8183 12.489 13.9982L8.78831 18.1816C8.51879 18.4863 8.01719 18.2638 8.06211 17.8595L8.64738 12.5921C8.70223 12.0985 8.31582 11.6667 7.81914 11.6667H3.88753C3.34896 11.6667 3.06256 11.031 3.41941 10.6276L6.12827 7.56543C6.27419 7.40048 6.26654 7.15046 6.11082 6.99473L2.05806 2.94197C1.81398 2.6979 1.81398 2.30217 2.05806 2.05809ZM11.6198 12.5038C11.7756 12.6595 11.7832 12.9095 11.6373 13.0745L10.4664 14.3981C10.1969 14.7027 9.69528 14.4803 9.7402 14.076L9.88973 12.7301C10.0269 11.496 9.06083 10.4167 7.81914 10.4167H6.19976C5.84071 10.4167 5.64978 9.99292 5.88767 9.724L6.98001 8.48919C7.13911 8.30933 7.41692 8.30083 7.58672 8.47063L11.6198 12.5038Z" fill="black"/>
<path d="M14.8737 11.3022C14.7146 11.482 14.4368 11.4905 14.267 11.3207L13.9718 11.0255C13.8161 10.8698 13.8084 10.6198 13.9543 10.4548L14.1124 10.2761C14.3503 10.0072 14.1594 9.5834 13.8003 9.5834H12.7022C12.5917 9.5834 12.4857 9.5395 12.4076 9.46136L11.9909 9.04469C11.7285 8.78221 11.9144 8.3334 12.2856 8.3334L16.1126 8.3334C16.6511 8.3334 16.9375 8.96912 16.5807 9.37251L14.8737 11.3022Z" fill="black"/>
<path d="M10.1431 6.97567C10.1291 7.10147 10.173 7.2268 10.2626 7.31631L10.6399 7.69361C10.8869 7.94066 11.31 7.79224 11.3486 7.445L11.938 2.14059C11.9829 1.73631 11.4813 1.51384 11.2118 1.81851L8.44531 4.94582C8.2994 5.11077 8.30704 5.3608 8.46277 5.51652L8.75795 5.8117C8.92775 5.9815 9.20555 5.97301 9.36466 5.79315L9.5337 5.60206C9.80321 5.29739 10.3048 5.51986 10.2599 5.92414L10.1431 6.97567Z" fill="black"/>
</svg>
