<svg width="20" height="20" viewBox="0 0 20 20" fill="none" xmlns="http://www.w3.org/2000/svg">
<path fill-rule="evenodd" clip-rule="evenodd" d="M12.7342 15.8333C12.4539 15.8333 12.2526 16.1066 12.2786 16.3856C12.287 16.4752 12.2916 16.5689 12.2916 16.6667C12.2916 17.8241 11.2863 18.9583 9.99994 18.9583C8.71357 18.9583 7.70827 17.8241 7.70827 16.6667C7.70827 16.5689 7.71285 16.4752 7.72122 16.3856C7.7473 16.1066 7.54596 15.8333 7.26571 15.8333H4.60085C3.15395 15.8333 2.39433 14.1162 3.36762 13.0455L4.34834 11.9668C4.77393 11.4986 5.0575 10.919 5.16591 10.2956L6.09546 4.9507C6.4256 3.05243 8.07317 1.66666 9.99994 1.66666C11.9267 1.66666 13.5743 3.05243 13.9044 4.9507L14.834 10.2956C14.9424 10.919 15.2259 11.4986 15.6515 11.9667L16.6322 13.0455C17.6055 14.1162 16.8459 15.8333 15.399 15.8333H12.7342ZM9.19353 15.8569L9.19272 15.8578L9.19918 15.8511L9.20122 15.849C9.20225 15.8479 9.20278 15.8473 9.20283 15.8473C9.20316 15.8469 9.20287 15.8472 9.20283 15.8473L9.20122 15.849C9.21038 15.8394 9.22338 15.8333 9.23664 15.8333H10.7632C10.7765 15.8333 10.7891 15.839 10.7982 15.8486C10.8006 15.8514 10.8066 15.8585 10.815 15.8698C10.8342 15.8953 10.8658 15.9417 10.8993 16.0087C10.9652 16.1406 11.0416 16.358 11.0416 16.6667C11.0416 17.1759 10.5545 17.7083 9.99994 17.7083C9.44535 17.7083 8.95827 17.1759 8.95827 16.6667C8.95827 16.358 9.03467 16.1406 9.10062 16.0087C9.13411 15.9417 9.16567 15.8953 9.18483 15.8698C9.19331 15.8585 9.19881 15.8518 9.20122 15.849L9.19918 15.8511L9.19764 15.8527L9.19504 15.8554L9.19353 15.8569ZM4.29255 13.8864L5.27326 12.8076C5.85846 12.1639 6.24836 11.3669 6.39742 10.5098L7.32698 5.16487C7.55299 3.86534 8.6809 2.91666 9.99994 2.91666C11.319 2.91666 12.4469 3.86534 12.6729 5.16487L13.6024 10.5098C13.7515 11.3669 14.1414 12.1639 14.7266 12.8076L15.7073 13.8864C15.9506 14.154 15.7607 14.5833 15.399 14.5833H4.60085C4.23913 14.5833 4.04922 14.154 4.29255 13.8864Z" fill="black"/>
</svg>
