<svg width="20" height="20" viewBox="0 0 20 20" fill="none" xmlns="http://www.w3.org/2000/svg">
<path d="M12.413 6.07045C12.413 5.38009 11.8728 4.67409 11.2065 4.49355C10.5402 4.31301 10 4.7263 10 5.41666C10 6.10701 10.5402 6.81301 11.2065 6.99355C11.8728 7.17409 12.413 6.7608 12.413 6.07045Z" fill="black"/>
<path fill-rule="evenodd" clip-rule="evenodd" d="M10 1.66666C7.23858 1.66666 5 3.90523 5 6.66666C5 9.08974 6.72362 11.1102 9.01168 11.569C9.21776 11.6103 9.375 11.7857 9.375 11.9959L9.375 17.5C9.375 17.8452 9.65482 18.125 10 18.125C10.3452 18.125 10.625 17.8452 10.625 17.5L10.625 11.9959C10.625 11.7857 10.7822 11.6103 10.9883 11.569C13.2764 11.1102 15 9.08974 15 6.66666C15 3.90523 12.7614 1.66666 10 1.66666ZM6.25 6.66666C6.25 8.73772 7.92893 10.4167 10 10.4167C12.0711 10.4167 13.75 8.73772 13.75 6.66666C13.75 4.59559 12.0711 2.91666 10 2.91666C7.92893 2.91666 6.25 4.59559 6.25 6.66666Z" fill="black"/>
</svg>
