<svg width="20" height="20" viewBox="0 0 20 20" fill="none" xmlns="http://www.w3.org/2000/svg">
<path fill-rule="evenodd" clip-rule="evenodd" d="M5.86776 10.7591C5.49702 10.7008 5.13985 10.8402 4.91213 11.1016C4.67653 11.3721 4.5846 11.7734 4.7575 12.157C5.28566 13.329 6.75749 15.6224 10.0846 15.6224C13.4117 15.6224 14.8835 13.329 15.4117 12.157C15.5846 11.7734 15.4927 11.3721 15.2571 11.1016C15.0293 10.8402 14.6722 10.7008 14.3014 10.7591C13.5558 10.8765 12.1503 11.039 10.0846 11.039C8.01888 11.039 6.61336 10.8765 5.86776 10.7591ZM6.56702 12.7457C6.35279 12.4779 6.58909 12.1172 6.93046 12.1498C7.73754 12.227 8.78894 12.289 10.0846 12.289C11.3802 12.289 12.4316 12.227 13.2387 12.1498C13.5801 12.1172 13.8164 12.4779 13.6022 12.7457C12.9442 13.5681 11.8514 14.3724 10.0846 14.3724C8.31778 14.3724 7.22499 13.5681 6.56702 12.7457Z" fill="black"/>
<path fill-rule="evenodd" clip-rule="evenodd" d="M18.3334 9.99999C18.3334 14.6024 14.6024 18.3333 10 18.3333C5.39765 18.3333 1.66669 14.6024 1.66669 9.99999C1.66669 5.39762 5.39765 1.66666 10 1.66666C14.6024 1.66666 18.3334 5.39762 18.3334 9.99999ZM17.0834 9.99999C17.0834 13.912 13.912 17.0833 10 17.0833C6.088 17.0833 2.91669 13.912 2.91669 9.99999C2.91669 6.08797 6.088 2.91666 10 2.91666C13.912 2.91666 17.0834 6.08797 17.0834 9.99999Z" fill="black"/>
<path fill-rule="evenodd" clip-rule="evenodd" d="M5.91234 6.25932C6.14683 5.97794 6.56501 5.93993 6.84639 6.17441L9.12019 8.06924C9.33469 8.24799 9.41425 8.54194 9.3192 8.80448C9.22415 9.06702 8.97484 9.24191 8.69562 9.24191C7.64413 9.24191 6.1125 9.58237 5.25754 10.1169C4.94698 10.3111 4.53781 10.2167 4.34363 9.90618C4.14945 9.59562 4.2438 9.18645 4.55437 8.99227C5.13857 8.627 5.90464 8.35043 6.67734 8.16909C6.83289 8.13259 6.88377 7.93213 6.76103 7.82984L5.99726 7.19336C5.71588 6.95888 5.67786 6.5407 5.91234 6.25932Z" fill="black"/>
<path fill-rule="evenodd" clip-rule="evenodd" d="M14.0877 6.25932C13.8532 5.97794 13.435 5.93993 13.1537 6.17441L10.8799 8.06924C10.6654 8.24799 10.5858 8.54194 10.6808 8.80448C10.7759 9.06702 11.0252 9.24191 11.3044 9.24191C12.3559 9.24191 13.8875 9.58237 14.7425 10.1169C15.0531 10.3111 15.4622 10.2167 15.6564 9.90618C15.8506 9.59562 15.7562 9.18645 15.4457 8.99227C14.8615 8.627 14.0954 8.35043 13.3227 8.16909C13.1672 8.13259 13.1163 7.93213 13.239 7.82984L14.0028 7.19336C14.2842 6.95888 14.3222 6.5407 14.0877 6.25932Z" fill="black"/>
</svg>
