<svg width="20" height="20" viewBox="0 0 20 20" fill="none" xmlns="http://www.w3.org/2000/svg">
<path fill-rule="evenodd" clip-rule="evenodd" d="M9.99999 10.8333C12.3012 10.8333 14.1667 8.96785 14.1667 6.66667C14.1667 4.36548 12.3012 2.5 9.99999 2.5C7.69881 2.5 5.83333 4.36548 5.83333 6.66667C5.83333 8.96785 7.69881 10.8333 9.99999 10.8333ZM9.99999 9.58333C11.6108 9.58333 12.9167 8.2775 12.9167 6.66667C12.9167 5.05584 11.6108 3.75 9.99999 3.75C8.38916 3.75 7.08333 5.05584 7.08333 6.66667C7.08333 8.2775 8.38916 9.58333 9.99999 9.58333Z" fill="black"/>
<path d="M10.7788 13.9866C10.7498 14.3346 10.4407 14.5883 10.0915 14.5839C10.061 14.5835 10.0305 14.5833 9.99987 14.5833C7.88037 14.5833 5.97829 15.5142 4.6802 16.9895C4.42811 17.276 3.98143 17.3149 3.7116 17.045C3.49432 16.8278 3.46817 16.482 3.66806 16.2486C5.19645 14.4641 7.4661 13.3333 9.99987 13.3333C10.0723 13.3333 10.1445 13.3343 10.2166 13.3361C10.5574 13.3448 10.8071 13.6468 10.7788 13.9866Z" fill="black"/>
<path d="M13.3333 13.3333C12.9882 13.3333 12.7083 13.6132 12.7083 13.9583C12.7083 14.3035 12.9882 14.5833 13.3333 14.5833H17.5C17.8452 14.5833 18.125 14.3035 18.125 13.9583C18.125 13.6132 17.8452 13.3333 17.5 13.3333H13.3333Z" fill="black"/>
</svg>
