<svg width="20" height="20" viewBox="0 0 20 20" fill="none" xmlns="http://www.w3.org/2000/svg">
<path d="M13.3334 8.95833C13.3334 9.30351 13.6153 9.57787 13.9557 9.63474C15.7306 9.93121 17.0834 11.4743 17.0834 13.3333C17.0834 15.4044 15.4044 17.0833 13.3334 17.0833H6.66669C4.59562 17.0833 2.91669 15.4044 2.91669 13.3333C2.91669 11.4743 4.26945 9.93121 6.0443 9.63474C6.38477 9.57787 6.66669 9.30351 6.66669 8.95833C6.66669 8.61316 6.38546 8.32924 6.04293 8.37186C3.57588 8.67887 1.66669 10.7831 1.66669 13.3333C1.66669 16.0948 3.90526 18.3333 6.66669 18.3333H13.3334C16.0948 18.3333 18.3334 16.0948 18.3334 13.3333C18.3334 10.7831 16.4242 8.67887 13.9571 8.37186C13.6146 8.32924 13.3334 8.61316 13.3334 8.95833Z" fill="black"/>
<path d="M10.625 5.01481C10.625 4.6436 11.0738 4.45769 11.3363 4.72018L12.8914 6.27528C13.1355 6.51935 13.5312 6.51935 13.7753 6.27528C14.0194 6.0312 14.0194 5.63547 13.7753 5.39139L10.442 2.05806C10.1979 1.81398 9.80216 1.81398 9.55808 2.05806L6.22475 5.39139C5.98067 5.63547 5.98067 6.0312 6.22475 6.27527C6.46882 6.51935 6.86455 6.51935 7.10863 6.27528L8.66373 4.72018C8.92621 4.45769 9.37502 4.6436 9.37502 5.01481V13.3333C9.37502 13.6785 9.65484 13.9583 10 13.9583C10.3452 13.9583 10.625 13.6785 10.625 13.3333V5.01481Z" fill="black"/>
</svg>
