<svg width="20" height="20" viewBox="0 0 20 20" fill="none" xmlns="http://www.w3.org/2000/svg">
<path fill-rule="evenodd" clip-rule="evenodd" d="M10 18.3333C14.6024 18.3333 18.3334 14.6024 18.3334 9.99999C18.3334 5.39762 14.6024 1.66666 10 1.66666C5.39765 1.66666 1.66669 5.39762 1.66669 9.99999C1.66669 14.6024 5.39765 18.3333 10 18.3333ZM10 17.0833C11.1506 17.0833 12.0834 16.1506 12.0834 15C12.0834 13.8494 11.1506 12.9167 10 12.9167C8.84943 12.9167 7.91669 13.8494 7.91669 15C7.91669 16.1506 8.84943 17.0833 10 17.0833ZM17.0834 9.99999C17.0834 11.5088 16.6116 12.9074 15.8076 14.0564C15.6504 14.281 15.2986 14.08 15.3434 13.8096C15.3916 13.5191 15.4167 13.2208 15.4167 12.9167C15.4167 9.92511 12.9916 7.49999 10 7.49999C7.00848 7.49999 4.58335 9.92511 4.58335 12.9167C4.58335 13.2208 4.60842 13.5191 4.6566 13.8096C4.70146 14.08 4.34964 14.281 4.19247 14.0564C3.38843 12.9074 2.91669 11.5088 2.91669 9.99999C2.91669 6.08797 6.088 2.91666 10 2.91666C13.912 2.91666 17.0834 6.08797 17.0834 9.99999ZM13.3334 15C13.3334 15.1253 13.497 15.1865 13.5621 15.0795C13.9457 14.449 14.1667 13.7086 14.1667 12.9167C14.1667 10.6155 12.3012 8.74999 10 8.74999C7.69883 8.74999 5.83335 10.6155 5.83335 12.9167C5.83335 13.7086 6.05431 14.449 6.43794 15.0795C6.50308 15.1865 6.66669 15.1253 6.66669 15C6.66669 13.159 8.15907 11.6667 10 11.6667C11.841 11.6667 13.3334 13.159 13.3334 15Z" fill="black"/>
</svg>
