<svg width="20" height="20" viewBox="0 0 20 20" fill="none" xmlns="http://www.w3.org/2000/svg">
<path d="M14.7919 5.99455C14.8173 6.18283 14.6643 6.34201 14.4743 6.34201H13.8387C13.6676 6.34201 13.5264 6.21179 13.4924 6.04407C13.1988 4.59723 11.8751 3.69254 10.071 3.69254C8.03948 3.69254 6.64016 4.83614 6.64016 6.39884C6.64016 7.93312 8.12472 8.65054 9.53825 9.04831L10.6318 9.3622C10.6617 9.37078 10.6926 9.37513 10.7237 9.37513H17.7244C18.0607 9.37513 18.3333 9.65496 18.3333 10.0001C18.3333 10.3453 18.0607 10.6251 17.7244 10.6251H14.6145C14.2934 10.6251 14.1336 11.0677 14.3327 11.3196C14.757 11.8565 15.0219 12.5311 15.0219 13.3883C15.0219 15.7182 13.1324 17.5011 9.97864 17.5011C7.16474 17.5011 5.33334 16.0783 5.01654 13.9706C4.98785 13.7797 5.14178 13.6156 5.33476 13.6156H6.0348C6.2083 13.6156 6.35055 13.7494 6.38262 13.9199C6.67087 15.4524 8.13664 16.2864 9.97864 16.2864C12.1522 16.2864 13.7362 15.1144 13.7362 13.367C13.7362 11.8825 12.5003 11.2077 10.6961 10.682L10.5485 10.6387C10.5179 10.6297 10.4863 10.6251 10.4545 10.6251H2.27561C1.9393 10.6251 1.66666 10.3453 1.66666 10.0001C1.66666 9.65496 1.9393 9.37513 2.27561 9.37513H5.91577C6.25177 9.37513 6.40794 8.88465 6.18112 8.63676C5.64231 8.04789 5.35449 7.3276 5.35449 6.45566C5.35449 4.11162 7.42151 2.49921 10.1065 2.49921C12.6689 2.49921 14.518 3.96376 14.7919 5.99455Z" fill="black"/>
</svg>
