<svg width="20" height="20" viewBox="0 0 20 20" fill="none" xmlns="http://www.w3.org/2000/svg">
<path d="M11.6257 18.1732C10.0092 18.4947 8.33362 18.3297 6.8109 17.699C5.28818 17.0683 3.98669 16.0002 3.07101 14.6297C2.87924 14.3427 2.95645 13.9546 3.24345 13.7628C3.53046 13.5711 3.91858 13.6483 4.11035 13.9353C4.88868 15.1001 5.99494 16.008 7.28925 16.5441C8.58356 17.0803 10.0078 17.2205 11.3818 16.9472C12.7558 16.6739 14.018 15.9993 15.0086 15.0087C15.9992 14.018 16.6738 12.7559 16.9472 11.3819C17.2205 10.0078 17.0802 8.58363 16.5441 7.28932C16.008 5.99501 15.1001 4.88874 13.9352 4.11041C12.7704 3.33209 11.4009 2.91666 9.99993 2.91666C9.65475 2.91666 9.37493 2.63683 9.37493 2.29166C9.37493 1.94648 9.65475 1.66666 9.99993 1.66666C11.6481 1.66666 13.2593 2.1554 14.6297 3.07108C16.0001 3.98676 17.0682 5.28824 17.6989 6.81096C18.3297 8.33368 18.4947 10.0092 18.1731 11.6257C17.8516 13.2423 17.0579 14.7271 15.8925 15.8925C14.727 17.058 13.2422 17.8517 11.6257 18.1732Z" fill="black"/>
<path d="M2.4369 11.6153C2.09461 11.6599 1.78099 11.4185 1.73642 11.0762C1.71078 10.8794 1.69213 10.6812 1.68059 10.4822C1.66905 10.2831 1.66469 10.0841 1.66741 9.88565C1.67214 9.5405 1.95578 9.26454 2.30092 9.26928C2.64607 9.27401 2.92202 9.55764 2.91729 9.90279C2.91498 10.0715 2.91869 10.2406 2.9285 10.4098C2.9383 10.5791 2.95416 10.7475 2.97595 10.9148C3.02053 11.2571 2.77918 11.5707 2.4369 11.6153Z" fill="black"/>
<path d="M2.76894 7.25745C2.45715 7.10935 2.32444 6.73654 2.47253 6.42474C2.5577 6.24544 2.64943 6.06883 2.74765 5.89529C2.84587 5.72175 2.95006 5.55219 3.05995 5.38688C3.25103 5.09941 3.63897 5.02127 3.92643 5.21235C4.2139 5.40343 4.29203 5.79137 4.10096 6.07883C4.00755 6.21935 3.91899 6.36348 3.8355 6.51099C3.75201 6.65851 3.67403 6.80863 3.60164 6.96104C3.45355 7.27283 3.08074 7.40554 2.76894 7.25745Z" fill="black"/>
<path d="M5.41032 3.77548C5.22859 3.48202 5.31918 3.0968 5.61264 2.91507C5.78141 2.81056 5.95424 2.71188 6.13085 2.6193C6.30746 2.52672 6.48693 2.44072 6.66888 2.36137C6.98528 2.22339 7.35363 2.36802 7.49161 2.68443C7.62959 3.00083 7.48495 3.36917 7.16855 3.50715C7.01389 3.5746 6.86134 3.6477 6.71121 3.7264C6.56109 3.8051 6.41418 3.88898 6.27073 3.97781C5.97727 4.15954 5.59204 4.06895 5.41032 3.77548Z" fill="black"/>
<path d="M10.8333 5.41666C10.8333 5.07148 10.5535 4.79166 10.2083 4.79166C9.86312 4.79166 9.58329 5.07148 9.58329 5.41666V8.74999C9.58329 9.07786 9.42892 9.3866 9.16663 9.58332L6.49996 11.5833C6.22382 11.7904 6.16785 12.1822 6.37496 12.4583C6.58207 12.7345 6.97382 12.7904 7.24996 12.5833L9.91663 10.5833C10.4937 10.1505 10.8333 9.47131 10.8333 8.74999V5.41666Z" fill="black"/>
</svg>
