<svg width="20" height="20" viewBox="0 0 20 20" fill="none" xmlns="http://www.w3.org/2000/svg">
<path d="M3.37769 12.4597C3.37769 14.6143 4.75708 16.3782 6.5271 16.3782H8.53516C9.35913 16.7993 10.3357 17.0435 11.4099 17.0435H12.2644C13.0579 17.0435 13.7354 16.9946 14.1748 16.8848C15.072 16.6589 15.6396 16.0242 15.6396 15.2246C15.6396 15.0781 15.6213 14.95 15.5786 14.8157C15.9998 14.4922 16.2378 14.01 16.2378 13.4851C16.2378 13.241 16.189 13.0029 16.1035 12.8015C16.3843 12.5024 16.5491 12.0752 16.5491 11.6296C16.5491 11.3306 16.4758 11.0376 16.3538 10.8057C16.5247 10.5432 16.6223 10.1953 16.6223 9.81689C16.6223 8.84033 15.8777 8.0896 14.9133 8.0896H12.6428C12.5146 8.0896 12.4292 8.02856 12.4353 7.9126C12.4658 7.27783 13.4546 5.77026 13.4546 4.53125C13.4546 3.62183 12.8137 2.95654 11.9287 2.95654C11.2878 2.95654 10.8484 3.29224 10.4272 4.0918C9.67041 5.55664 8.74878 6.83838 7.3877 8.51074H6.29517C4.63501 8.51074 3.37769 10.2686 3.37769 12.4597ZM7.18018 12.4109C7.18018 11.1169 7.46704 10.2869 8.29712 9.18213C9.21875 7.94312 10.5005 6.45996 11.4221 4.6167C11.6174 4.23218 11.7517 4.13452 11.947 4.13452C12.179 4.13452 12.3315 4.30542 12.3315 4.59839C12.3315 5.50171 11.2939 7.01538 11.2939 8.00415C11.2939 8.74268 11.886 9.21265 12.6917 9.21265H14.8828C15.2368 9.21265 15.4993 9.4812 15.4993 9.83521C15.4993 10.0854 15.4199 10.2502 15.2063 10.4578C15.0476 10.6165 15.0232 10.8484 15.1636 11.0132C15.3406 11.2573 15.4138 11.4221 15.4138 11.6296C15.4138 11.8799 15.2979 12.0935 15.0537 12.2705C14.8462 12.4231 14.7729 12.6672 14.895 12.9114C15.0232 13.1616 15.0903 13.2837 15.0903 13.479C15.0903 13.772 14.9011 13.9917 14.5227 14.1931C14.3213 14.303 14.2664 14.5227 14.3518 14.7119C14.48 15.0232 14.4983 15.0842 14.4922 15.2185C14.4922 15.481 14.303 15.6885 13.894 15.7922C13.5339 15.8777 12.9602 15.9204 12.2034 15.9143L11.416 15.9082C8.88916 15.8838 7.18018 14.4617 7.18018 12.4109ZM4.48853 12.4597C4.48853 10.9094 5.28198 9.67041 6.19751 9.62769C6.3562 9.62769 6.51489 9.62769 6.67358 9.62769C6.24023 10.47 6.05103 11.355 6.05103 12.4109C6.05103 13.5339 6.44165 14.5227 7.15576 15.2917C6.92993 15.2917 6.69189 15.2917 6.45996 15.2917C5.39185 15.249 4.48853 13.9917 4.48853 12.4597Z" fill="black"/>
</svg>
